G04 #@! TF.FileFunction,Soldermask,Bot*
%FSLAX46Y46*%
G04 Gerber Fmt 4.6, Leading zero omitted, Abs format (unit mm)*
G04 Created by KiCad (PCBNEW 4.0.2-stable) date 5/15/2017 11:57:14 PM*
%MOMM*%
G01*
G04 APERTURE LIST*
%ADD10C,0.100000*%
%ADD11R,2.100000X2.100000*%
%ADD12O,2.100000X2.100000*%
%ADD13C,1.900000*%
%ADD14C,1.800000*%
%ADD15C,2.900000*%
G04 APERTURE END LIST*
D10*
D11*
X162179000Y-66675000D03*
D12*
X159639000Y-66675000D03*
X157099000Y-66675000D03*
D11*
X167513000Y-121539000D03*
D12*
X164973000Y-121539000D03*
X167513000Y-118999000D03*
X164973000Y-118999000D03*
X167513000Y-116459000D03*
X164973000Y-116459000D03*
X167513000Y-113919000D03*
X164973000Y-113919000D03*
X167513000Y-111379000D03*
X164973000Y-111379000D03*
X167513000Y-108839000D03*
X164973000Y-108839000D03*
X167513000Y-106299000D03*
X164973000Y-106299000D03*
X167513000Y-103759000D03*
X164973000Y-103759000D03*
X167513000Y-101219000D03*
X164973000Y-101219000D03*
X167513000Y-98679000D03*
X164973000Y-98679000D03*
X167513000Y-96139000D03*
X164973000Y-96139000D03*
X167513000Y-93599000D03*
X164973000Y-93599000D03*
X167513000Y-91059000D03*
X164973000Y-91059000D03*
X167513000Y-88519000D03*
X164973000Y-88519000D03*
X167513000Y-85979000D03*
X164973000Y-85979000D03*
X167513000Y-83439000D03*
X164973000Y-83439000D03*
D11*
X144653000Y-63119000D03*
D12*
X144653000Y-60579000D03*
X147193000Y-63119000D03*
X147193000Y-60579000D03*
X149733000Y-63119000D03*
X149733000Y-60579000D03*
X152273000Y-63119000D03*
X152273000Y-60579000D03*
X154813000Y-63119000D03*
X154813000Y-60579000D03*
X157353000Y-63119000D03*
X157353000Y-60579000D03*
X159893000Y-63119000D03*
X159893000Y-60579000D03*
X162433000Y-63119000D03*
X162433000Y-60579000D03*
D11*
X124333000Y-121539000D03*
D12*
X121793000Y-121539000D03*
X124333000Y-118999000D03*
X121793000Y-118999000D03*
X124333000Y-116459000D03*
X121793000Y-116459000D03*
X124333000Y-113919000D03*
X121793000Y-113919000D03*
X124333000Y-111379000D03*
X121793000Y-111379000D03*
X124333000Y-108839000D03*
X121793000Y-108839000D03*
X124333000Y-106299000D03*
X121793000Y-106299000D03*
X124333000Y-103759000D03*
X121793000Y-103759000D03*
X124333000Y-101219000D03*
X121793000Y-101219000D03*
X124333000Y-98679000D03*
X121793000Y-98679000D03*
X124333000Y-96139000D03*
X121793000Y-96139000D03*
X124333000Y-93599000D03*
X121793000Y-93599000D03*
X124333000Y-91059000D03*
X121793000Y-91059000D03*
X124333000Y-88519000D03*
X121793000Y-88519000D03*
D13*
X143891000Y-75946000D03*
X143891000Y-80826000D03*
D14*
X132445000Y-74570000D03*
X134985000Y-74570000D03*
X133715000Y-77110000D03*
X131175000Y-77110000D03*
X129905000Y-74570000D03*
X128635000Y-77110000D03*
X127365000Y-74570000D03*
X126095000Y-77110000D03*
D15*
X138290000Y-71280000D03*
X122790000Y-71280000D03*
D13*
X126755000Y-63330000D03*
X124215000Y-64850000D03*
X136865000Y-63330000D03*
X134325000Y-64850000D03*
M02*
