G04 #@! TF.FileFunction,Soldermask,Top*
%FSLAX46Y46*%
G04 Gerber Fmt 4.6, Leading zero omitted, Abs format (unit mm)*
G04 Created by KiCad (PCBNEW 4.0.5) date 2017 May 23, Tuesday 21:15:10*
%MOMM*%
%LPD*%
G01*
G04 APERTURE LIST*
%ADD10C,0.100000*%
%ADD11R,0.780000X0.730000*%
%ADD12R,2.432000X1.060400*%
%ADD13R,2.012000X0.640400*%
%ADD14R,1.680000X1.680000*%
%ADD15O,1.680000X1.680000*%
%ADD16R,1.681800X0.513400*%
%ADD17C,1.480000*%
%ADD18R,1.580000X0.530000*%
%ADD19R,0.530000X1.580000*%
%ADD20C,1.380000*%
%ADD21C,2.480000*%
%ADD22R,0.900000X1.300000*%
G04 APERTURE END LIST*
D10*
D11*
X144641000Y-71501000D03*
X143141000Y-71501000D03*
X144768000Y-85217000D03*
X143268000Y-85217000D03*
D12*
X137566400Y-118364000D03*
X131419600Y-118364000D03*
X137566400Y-117094000D03*
X137566400Y-115824000D03*
X131419600Y-117094000D03*
X131419600Y-115824000D03*
X137566400Y-114554000D03*
X131419600Y-114554000D03*
X137566400Y-113284000D03*
X131419600Y-113284000D03*
X137566400Y-112014000D03*
X137566400Y-110744000D03*
X131419600Y-112014000D03*
X131419600Y-110744000D03*
X137566400Y-109474000D03*
X131419600Y-109474000D03*
D13*
X137566400Y-99314000D03*
X131419600Y-99314000D03*
X137566400Y-98044000D03*
X137566400Y-96774000D03*
X131419600Y-98044000D03*
X131419600Y-96774000D03*
X137566400Y-95504000D03*
X131419600Y-95504000D03*
X137566400Y-94234000D03*
X131419600Y-94234000D03*
X137566400Y-92964000D03*
X137566400Y-91694000D03*
X131419600Y-92964000D03*
X131419600Y-91694000D03*
X137566400Y-90424000D03*
X131419600Y-90424000D03*
D14*
X162179000Y-66675000D03*
D15*
X159639000Y-66675000D03*
X157099000Y-66675000D03*
D14*
X167513000Y-121539000D03*
D15*
X164973000Y-121539000D03*
X167513000Y-118999000D03*
X164973000Y-118999000D03*
X167513000Y-116459000D03*
X164973000Y-116459000D03*
X167513000Y-113919000D03*
X164973000Y-113919000D03*
X167513000Y-111379000D03*
X164973000Y-111379000D03*
X167513000Y-108839000D03*
X164973000Y-108839000D03*
X167513000Y-106299000D03*
X164973000Y-106299000D03*
X167513000Y-103759000D03*
X164973000Y-103759000D03*
X167513000Y-101219000D03*
X164973000Y-101219000D03*
X167513000Y-98679000D03*
X164973000Y-98679000D03*
X167513000Y-96139000D03*
X164973000Y-96139000D03*
X167513000Y-93599000D03*
X164973000Y-93599000D03*
X167513000Y-91059000D03*
X164973000Y-91059000D03*
X167513000Y-88519000D03*
X164973000Y-88519000D03*
X167513000Y-85979000D03*
X164973000Y-85979000D03*
X167513000Y-83439000D03*
X164973000Y-83439000D03*
D14*
X144653000Y-63119000D03*
D15*
X144653000Y-60579000D03*
X147193000Y-63119000D03*
X147193000Y-60579000D03*
X149733000Y-63119000D03*
X149733000Y-60579000D03*
X152273000Y-63119000D03*
X152273000Y-60579000D03*
X154813000Y-63119000D03*
X154813000Y-60579000D03*
X157353000Y-63119000D03*
X157353000Y-60579000D03*
X159893000Y-63119000D03*
X159893000Y-60579000D03*
X162433000Y-63119000D03*
X162433000Y-60579000D03*
D14*
X124333000Y-121539000D03*
D15*
X121793000Y-121539000D03*
X124333000Y-118999000D03*
X121793000Y-118999000D03*
X124333000Y-116459000D03*
X121793000Y-116459000D03*
X124333000Y-113919000D03*
X121793000Y-113919000D03*
X124333000Y-111379000D03*
X121793000Y-111379000D03*
X124333000Y-108839000D03*
X121793000Y-108839000D03*
X124333000Y-106299000D03*
X121793000Y-106299000D03*
X124333000Y-103759000D03*
X121793000Y-103759000D03*
X124333000Y-101219000D03*
X121793000Y-101219000D03*
X124333000Y-98679000D03*
X121793000Y-98679000D03*
X124333000Y-96139000D03*
X121793000Y-96139000D03*
X124333000Y-93599000D03*
X121793000Y-93599000D03*
X124333000Y-91059000D03*
X121793000Y-91059000D03*
X124333000Y-88519000D03*
X121793000Y-88519000D03*
D16*
X147243800Y-118364000D03*
X147243800Y-117094000D03*
X147243800Y-115824000D03*
X147243800Y-114554000D03*
X147243800Y-113284000D03*
X147243800Y-112014000D03*
X147243800Y-110744000D03*
X147243800Y-109474000D03*
X142062200Y-109474000D03*
X142062200Y-110744000D03*
X142062200Y-112014000D03*
X142062200Y-113284000D03*
X142062200Y-114554000D03*
X142062200Y-115824000D03*
X142062200Y-117094000D03*
X142062200Y-118364000D03*
X147243800Y-99314000D03*
X147243800Y-98044000D03*
X147243800Y-96774000D03*
X147243800Y-95504000D03*
X147243800Y-94234000D03*
X147243800Y-92964000D03*
X147243800Y-91694000D03*
X147243800Y-90424000D03*
X142062200Y-90424000D03*
X142062200Y-91694000D03*
X142062200Y-92964000D03*
X142062200Y-94234000D03*
X142062200Y-95504000D03*
X142062200Y-96774000D03*
X142062200Y-98044000D03*
X142062200Y-99314000D03*
X157403800Y-118364000D03*
X157403800Y-117094000D03*
X157403800Y-115824000D03*
X157403800Y-114554000D03*
X157403800Y-113284000D03*
X157403800Y-112014000D03*
X157403800Y-110744000D03*
X157403800Y-109474000D03*
X152222200Y-109474000D03*
X152222200Y-110744000D03*
X152222200Y-112014000D03*
X152222200Y-113284000D03*
X152222200Y-114554000D03*
X152222200Y-115824000D03*
X152222200Y-117094000D03*
X152222200Y-118364000D03*
X157403800Y-99314000D03*
X157403800Y-98044000D03*
X157403800Y-96774000D03*
X157403800Y-95504000D03*
X157403800Y-94234000D03*
X157403800Y-92964000D03*
X157403800Y-91694000D03*
X157403800Y-90424000D03*
X152222200Y-90424000D03*
X152222200Y-91694000D03*
X152222200Y-92964000D03*
X152222200Y-94234000D03*
X152222200Y-95504000D03*
X152222200Y-96774000D03*
X152222200Y-98044000D03*
X152222200Y-99314000D03*
D17*
X143891000Y-75946000D03*
X143891000Y-80826000D03*
D18*
X151833000Y-74289000D03*
X151833000Y-75089000D03*
X151833000Y-75889000D03*
X151833000Y-76689000D03*
X151833000Y-77489000D03*
X151833000Y-78289000D03*
X151833000Y-79089000D03*
X151833000Y-79889000D03*
D19*
X153283000Y-81339000D03*
X154083000Y-81339000D03*
X154883000Y-81339000D03*
X155683000Y-81339000D03*
X156483000Y-81339000D03*
X157283000Y-81339000D03*
X158083000Y-81339000D03*
X158883000Y-81339000D03*
D18*
X160333000Y-79889000D03*
X160333000Y-79089000D03*
X160333000Y-78289000D03*
X160333000Y-77489000D03*
X160333000Y-76689000D03*
X160333000Y-75889000D03*
X160333000Y-75089000D03*
X160333000Y-74289000D03*
D19*
X158883000Y-72839000D03*
X158083000Y-72839000D03*
X157283000Y-72839000D03*
X156483000Y-72839000D03*
X155683000Y-72839000D03*
X154883000Y-72839000D03*
X154083000Y-72839000D03*
X153283000Y-72839000D03*
D20*
X132445000Y-74570000D03*
X134985000Y-74570000D03*
X133715000Y-77110000D03*
X131175000Y-77110000D03*
X129905000Y-74570000D03*
X128635000Y-77110000D03*
X127365000Y-74570000D03*
X126095000Y-77110000D03*
D21*
X138290000Y-71280000D03*
X122790000Y-71280000D03*
D17*
X126755000Y-63330000D03*
X124215000Y-64850000D03*
X136865000Y-63330000D03*
X134325000Y-64850000D03*
D14*
X164846000Y-73660000D03*
D15*
X167386000Y-73660000D03*
X164846000Y-76200000D03*
X167386000Y-76200000D03*
X164846000Y-78740000D03*
X167386000Y-78740000D03*
D22*
X153170000Y-67670000D03*
X154670000Y-67670000D03*
M02*
