G04 #@! TF.FileFunction,Other,User*
%FSLAX46Y46*%
G04 Gerber Fmt 4.6, Leading zero omitted, Abs format (unit mm)*
G04 Created by KiCad (PCBNEW 4.0.5) date 2017 May 23, Tuesday 21:15:10*
%MOMM*%
%LPD*%
G01*
G04 APERTURE LIST*
%ADD10C,0.100000*%
%ADD11C,0.050000*%
G04 APERTURE END LIST*
D10*
D11*
X145291000Y-72151000D02*
X142491000Y-72151000D01*
X145291000Y-72151000D02*
X145291000Y-70851000D01*
X142491000Y-70851000D02*
X142491000Y-72151000D01*
X142491000Y-70851000D02*
X145291000Y-70851000D01*
X145418000Y-85867000D02*
X142618000Y-85867000D01*
X145418000Y-85867000D02*
X145418000Y-84567000D01*
X142618000Y-84567000D02*
X142618000Y-85867000D01*
X142618000Y-84567000D02*
X145418000Y-84567000D01*
X163979000Y-64875000D02*
X155329000Y-64875000D01*
X155329000Y-64875000D02*
X155329000Y-68475000D01*
X155329000Y-68475000D02*
X163979000Y-68475000D01*
X163979000Y-68475000D02*
X163979000Y-64875000D01*
X169313000Y-123339000D02*
X169313000Y-81639000D01*
X169313000Y-81639000D02*
X163163000Y-81639000D01*
X163163000Y-81639000D02*
X163163000Y-123339000D01*
X163163000Y-123339000D02*
X169313000Y-123339000D01*
X142853000Y-64919000D02*
X164203000Y-64919000D01*
X164203000Y-64919000D02*
X164203000Y-58769000D01*
X164203000Y-58769000D02*
X142853000Y-58769000D01*
X142853000Y-58769000D02*
X142853000Y-64919000D01*
X126133000Y-123339000D02*
X126133000Y-86739000D01*
X126133000Y-86739000D02*
X119983000Y-86739000D01*
X119983000Y-86739000D02*
X119983000Y-123339000D01*
X119983000Y-123339000D02*
X126133000Y-123339000D01*
X146691000Y-72346000D02*
X141091000Y-72346000D01*
X141091000Y-72346000D02*
X141091000Y-84446000D01*
X141091000Y-84446000D02*
X146691000Y-84446000D01*
X146691000Y-84446000D02*
X146691000Y-72346000D01*
X150783000Y-71789000D02*
X150783000Y-82389000D01*
X161383000Y-71789000D02*
X161383000Y-82389000D01*
X150783000Y-71789000D02*
X161383000Y-71789000D01*
X150783000Y-82389000D02*
X161383000Y-82389000D01*
X163046000Y-71860000D02*
X163046000Y-80510000D01*
X163046000Y-80510000D02*
X169196000Y-80510000D01*
X169196000Y-80510000D02*
X169196000Y-71860000D01*
X169196000Y-71860000D02*
X163046000Y-71860000D01*
X152670000Y-66970000D02*
X155170000Y-66970000D01*
X152670000Y-66970000D02*
X152670000Y-68370000D01*
X155170000Y-68370000D02*
X155170000Y-66970000D01*
X155170000Y-68370000D02*
X152670000Y-68370000D01*
M02*
