M48
;DRILL file {KiCad 4.0.2-stable} date 5/19/2017 12:01:22 AM
;FORMAT={-:-/ absolute / inch / decimal}
FMAT,2
INCH,TZ
T1C0.016
T2C0.031
T3C0.035
T4C0.039
T5C0.063
%
G90
G05
M72
T1
X5.07Y-4.86
X5.1Y-3.56
X5.105Y-4.24
X5.4736Y-4.6335
X5.48Y-3.86
X5.5Y-4.36
X5.52Y-3.615
X5.535Y-3.92
X5.535Y-4.66
X5.59Y-4.28
X5.5965Y-3.4543
X5.61Y-2.35
X5.65Y-3.66
X5.65Y-3.705
X5.65Y-3.76
X5.65Y-3.92
X5.65Y-4.21
X5.65Y-4.41
X5.65Y-4.46
X5.65Y-4.51
X5.655Y-3.615
X5.675Y-4.275
X5.6839Y-3.9083
X5.7165Y-3.852
X5.7181Y-3.5791
X5.73Y-2.31
X5.855Y-3.12
X5.865Y-3.555
X5.887Y-4.41
X5.895Y-3.135
X5.9Y-3.02
X5.91Y-2.825
X5.915Y-3.165
X5.92Y-2.575
X5.93Y-3.2
X5.93Y-3.61
X5.93Y-4.36
X5.95Y-2.775
X5.965Y-2.565
X5.9843Y-4.2752
X5.99Y-3.19
X6.02Y-2.81
X6.025Y-3.025
X6.03Y-3.08
X6.035Y-2.265
X6.0409Y-2.5933
X6.055Y-4.41
X6.055Y-4.46
X6.055Y-4.51
X6.0587Y-3.5189
X6.06Y-3.66
X6.06Y-3.705
X6.06Y-3.755
X6.065Y-4.25
X6.085Y-4.69
X6.095Y-4.56
X6.1Y-2.81
X6.12Y-3.59
X6.12Y-4.36
X6.125Y-4.25
X6.13Y-2.99
X6.1327Y-2.8047
X6.1354Y-2.7421
X6.14Y-3.56
X6.145Y-3.89
X6.145Y-3.945
X6.145Y-4.34
X6.1476Y-4.8244
X6.16Y-3.325
X6.18Y-2.775
X6.1803Y-2.7157
X6.19Y-4.855
X6.2Y-4.27
X6.215Y-3.135
X6.22Y-3.36
X6.22Y-3.5
X6.2335Y-4.8177
X6.24Y-3.1
X6.25Y-3.13
X6.26Y-3.27
X6.28Y-2.76
X6.35Y-3.18
X6.35Y-3.22
X6.365Y-2.765
X6.38Y-2.8
X6.42Y-2.83
X6.42Y-3.18
X6.42Y-3.22
X6.42Y-3.26
X6.525Y-2.26
X6.58Y-2.68
T2
X5.665Y-2.99
X5.665Y-3.1821
T3
X4.8904Y-2.5531
X4.9644Y-3.0358
X4.9904Y-2.4933
X5.0144Y-2.9358
X5.0644Y-3.0358
X5.1144Y-2.9358
X5.1644Y-3.0358
X5.2144Y-2.9358
X5.2644Y-3.0358
X5.2884Y-2.5531
X5.3144Y-2.9358
X5.3884Y-2.4933
T4
X4.795Y-3.485
X4.795Y-3.585
X4.795Y-3.685
X4.795Y-3.785
X4.795Y-3.885
X4.795Y-3.985
X4.795Y-4.085
X4.795Y-4.185
X4.795Y-4.285
X4.795Y-4.385
X4.795Y-4.485
X4.795Y-4.585
X4.795Y-4.685
X4.795Y-4.785
X4.895Y-3.485
X4.895Y-3.585
X4.895Y-3.685
X4.895Y-3.785
X4.895Y-3.885
X4.895Y-3.985
X4.895Y-4.085
X4.895Y-4.185
X4.895Y-4.285
X4.895Y-4.385
X4.895Y-4.485
X4.895Y-4.585
X4.895Y-4.685
X4.895Y-4.785
X5.695Y-2.385
X5.695Y-2.485
X5.795Y-2.385
X5.795Y-2.485
X5.895Y-2.385
X5.895Y-2.485
X5.995Y-2.385
X5.995Y-2.485
X6.095Y-2.385
X6.095Y-2.485
X6.185Y-2.625
X6.195Y-2.385
X6.195Y-2.485
X6.285Y-2.625
X6.295Y-2.385
X6.295Y-2.485
X6.385Y-2.625
X6.395Y-2.385
X6.395Y-2.485
X6.49Y-2.9
X6.49Y-3.
X6.49Y-3.1
X6.495Y-3.285
X6.495Y-3.385
X6.495Y-3.485
X6.495Y-3.585
X6.495Y-3.685
X6.495Y-3.785
X6.495Y-3.885
X6.495Y-3.985
X6.495Y-4.085
X6.495Y-4.185
X6.495Y-4.285
X6.495Y-4.385
X6.495Y-4.485
X6.495Y-4.585
X6.495Y-4.685
X6.495Y-4.785
X6.59Y-2.9
X6.59Y-3.
X6.59Y-3.1
X6.595Y-3.285
X6.595Y-3.385
X6.595Y-3.485
X6.595Y-3.585
X6.595Y-3.685
X6.595Y-3.785
X6.595Y-3.885
X6.595Y-3.985
X6.595Y-4.085
X6.595Y-4.185
X6.595Y-4.285
X6.595Y-4.385
X6.595Y-4.485
X6.595Y-4.585
X6.595Y-4.685
X6.595Y-4.785
T5
X4.8343Y-2.8063
X5.4445Y-2.8063
T0
M30
