G04 #@! TF.FileFunction,Legend,Top*
%FSLAX46Y46*%
G04 Gerber Fmt 4.6, Leading zero omitted, Abs format (unit mm)*
G04 Created by KiCad (PCBNEW 4.0.2-stable) date 5/19/2017 12:01:20 AM*
%MOMM*%
G01*
G04 APERTURE LIST*
%ADD10C,0.100000*%
%ADD11C,0.300000*%
%ADD12C,0.120000*%
%ADD13C,0.152400*%
%ADD14C,0.050800*%
%ADD15C,0.150000*%
%ADD16C,0.381000*%
%ADD17C,0.050000*%
%ADD18C,0.304800*%
G04 APERTURE END LIST*
D10*
D11*
X143915000Y-65290000D02*
X143772143Y-65218571D01*
X143557857Y-65218571D01*
X143343572Y-65290000D01*
X143200714Y-65432857D01*
X143129286Y-65575714D01*
X143057857Y-65861429D01*
X143057857Y-66075714D01*
X143129286Y-66361429D01*
X143200714Y-66504286D01*
X143343572Y-66647143D01*
X143557857Y-66718571D01*
X143700714Y-66718571D01*
X143915000Y-66647143D01*
X143986429Y-66575714D01*
X143986429Y-66075714D01*
X143700714Y-66075714D01*
X144629286Y-66718571D02*
X144629286Y-65218571D01*
X145200714Y-65218571D01*
X145343572Y-65290000D01*
X145415000Y-65361429D01*
X145486429Y-65504286D01*
X145486429Y-65718571D01*
X145415000Y-65861429D01*
X145343572Y-65932857D01*
X145200714Y-66004286D01*
X144629286Y-66004286D01*
X146129286Y-66718571D02*
X146129286Y-65218571D01*
X147129286Y-65218571D02*
X147415000Y-65218571D01*
X147557858Y-65290000D01*
X147700715Y-65432857D01*
X147772143Y-65718571D01*
X147772143Y-66218571D01*
X147700715Y-66504286D01*
X147557858Y-66647143D01*
X147415000Y-66718571D01*
X147129286Y-66718571D01*
X146986429Y-66647143D01*
X146843572Y-66504286D01*
X146772143Y-66218571D01*
X146772143Y-65718571D01*
X146843572Y-65432857D01*
X146986429Y-65290000D01*
X147129286Y-65218571D01*
X164155715Y-71798571D02*
X164155715Y-70298571D01*
X165727144Y-71655714D02*
X165655715Y-71727143D01*
X165441429Y-71798571D01*
X165298572Y-71798571D01*
X165084287Y-71727143D01*
X164941429Y-71584286D01*
X164870001Y-71441429D01*
X164798572Y-71155714D01*
X164798572Y-70941429D01*
X164870001Y-70655714D01*
X164941429Y-70512857D01*
X165084287Y-70370000D01*
X165298572Y-70298571D01*
X165441429Y-70298571D01*
X165655715Y-70370000D01*
X165727144Y-70441429D01*
X166298572Y-71727143D02*
X166512858Y-71798571D01*
X166870001Y-71798571D01*
X167012858Y-71727143D01*
X167084287Y-71655714D01*
X167155715Y-71512857D01*
X167155715Y-71370000D01*
X167084287Y-71227143D01*
X167012858Y-71155714D01*
X166870001Y-71084286D01*
X166584287Y-71012857D01*
X166441429Y-70941429D01*
X166370001Y-70870000D01*
X166298572Y-70727143D01*
X166298572Y-70584286D01*
X166370001Y-70441429D01*
X166441429Y-70370000D01*
X166584287Y-70298571D01*
X166941429Y-70298571D01*
X167155715Y-70370000D01*
X167798572Y-71798571D02*
X167798572Y-70298571D01*
X168370000Y-70298571D01*
X168512858Y-70370000D01*
X168584286Y-70441429D01*
X168655715Y-70584286D01*
X168655715Y-70798571D01*
X168584286Y-70941429D01*
X168512858Y-71012857D01*
X168370000Y-71084286D01*
X167798572Y-71084286D01*
X163167143Y-108012857D02*
X163238571Y-107798571D01*
X163238571Y-107441428D01*
X163167143Y-107298571D01*
X163095714Y-107227142D01*
X162952857Y-107155714D01*
X162810000Y-107155714D01*
X162667143Y-107227142D01*
X162595714Y-107298571D01*
X162524286Y-107441428D01*
X162452857Y-107727142D01*
X162381429Y-107870000D01*
X162310000Y-107941428D01*
X162167143Y-108012857D01*
X162024286Y-108012857D01*
X161881429Y-107941428D01*
X161810000Y-107870000D01*
X161738571Y-107727142D01*
X161738571Y-107370000D01*
X161810000Y-107155714D01*
X161738571Y-106655714D02*
X163238571Y-106298571D01*
X162167143Y-106012857D01*
X163238571Y-105727143D01*
X161738571Y-105370000D01*
X163238571Y-104798571D02*
X161738571Y-104798571D01*
X161738571Y-104298571D02*
X161738571Y-103441428D01*
X163238571Y-103869999D02*
X161738571Y-103869999D01*
X163095714Y-102084285D02*
X163167143Y-102155714D01*
X163238571Y-102370000D01*
X163238571Y-102512857D01*
X163167143Y-102727142D01*
X163024286Y-102870000D01*
X162881429Y-102941428D01*
X162595714Y-103012857D01*
X162381429Y-103012857D01*
X162095714Y-102941428D01*
X161952857Y-102870000D01*
X161810000Y-102727142D01*
X161738571Y-102512857D01*
X161738571Y-102370000D01*
X161810000Y-102155714D01*
X161881429Y-102084285D01*
X163238571Y-101441428D02*
X161738571Y-101441428D01*
X162452857Y-101441428D02*
X162452857Y-100584285D01*
X163238571Y-100584285D02*
X161738571Y-100584285D01*
X162452857Y-99869999D02*
X162452857Y-99369999D01*
X163238571Y-99155713D02*
X163238571Y-99869999D01*
X161738571Y-99869999D01*
X161738571Y-99155713D01*
X163167143Y-98584285D02*
X163238571Y-98369999D01*
X163238571Y-98012856D01*
X163167143Y-97869999D01*
X163095714Y-97798570D01*
X162952857Y-97727142D01*
X162810000Y-97727142D01*
X162667143Y-97798570D01*
X162595714Y-97869999D01*
X162524286Y-98012856D01*
X162452857Y-98298570D01*
X162381429Y-98441428D01*
X162310000Y-98512856D01*
X162167143Y-98584285D01*
X162024286Y-98584285D01*
X161881429Y-98512856D01*
X161810000Y-98441428D01*
X161738571Y-98298570D01*
X161738571Y-97941428D01*
X161810000Y-97727142D01*
X126956429Y-94338571D02*
X128456429Y-94338571D01*
X127742143Y-94338571D02*
X127742143Y-95195714D01*
X126956429Y-95195714D02*
X128456429Y-95195714D01*
X126956429Y-95910000D02*
X128456429Y-95910000D01*
X128385000Y-97410000D02*
X128456429Y-97267143D01*
X128456429Y-97052857D01*
X128385000Y-96838572D01*
X128242143Y-96695714D01*
X128099286Y-96624286D01*
X127813571Y-96552857D01*
X127599286Y-96552857D01*
X127313571Y-96624286D01*
X127170714Y-96695714D01*
X127027857Y-96838572D01*
X126956429Y-97052857D01*
X126956429Y-97195714D01*
X127027857Y-97410000D01*
X127099286Y-97481429D01*
X127599286Y-97481429D01*
X127599286Y-97195714D01*
X126956429Y-98124286D02*
X128456429Y-98124286D01*
X127742143Y-98124286D02*
X127742143Y-98981429D01*
X126956429Y-98981429D02*
X128456429Y-98981429D01*
X126956429Y-100838572D02*
X128456429Y-100838572D01*
X128456429Y-101410000D01*
X128385000Y-101552858D01*
X128313571Y-101624286D01*
X128170714Y-101695715D01*
X127956429Y-101695715D01*
X127813571Y-101624286D01*
X127742143Y-101552858D01*
X127670714Y-101410000D01*
X127670714Y-100838572D01*
X128456429Y-102624286D02*
X128456429Y-102910000D01*
X128385000Y-103052858D01*
X128242143Y-103195715D01*
X127956429Y-103267143D01*
X127456429Y-103267143D01*
X127170714Y-103195715D01*
X127027857Y-103052858D01*
X126956429Y-102910000D01*
X126956429Y-102624286D01*
X127027857Y-102481429D01*
X127170714Y-102338572D01*
X127456429Y-102267143D01*
X127956429Y-102267143D01*
X128242143Y-102338572D01*
X128385000Y-102481429D01*
X128456429Y-102624286D01*
X128456429Y-103767144D02*
X126956429Y-104124287D01*
X128027857Y-104410001D01*
X126956429Y-104695715D01*
X128456429Y-105052858D01*
X127742143Y-105624287D02*
X127742143Y-106124287D01*
X126956429Y-106338573D02*
X126956429Y-105624287D01*
X128456429Y-105624287D01*
X128456429Y-106338573D01*
X126956429Y-107838573D02*
X127670714Y-107338573D01*
X126956429Y-106981430D02*
X128456429Y-106981430D01*
X128456429Y-107552858D01*
X128385000Y-107695716D01*
X128313571Y-107767144D01*
X128170714Y-107838573D01*
X127956429Y-107838573D01*
X127813571Y-107767144D01*
X127742143Y-107695716D01*
X127670714Y-107552858D01*
X127670714Y-106981430D01*
X126956429Y-110338573D02*
X126956429Y-109624287D01*
X128456429Y-109624287D01*
X126956429Y-110838573D02*
X128456429Y-110838573D01*
X128385000Y-112338573D02*
X128456429Y-112195716D01*
X128456429Y-111981430D01*
X128385000Y-111767145D01*
X128242143Y-111624287D01*
X128099286Y-111552859D01*
X127813571Y-111481430D01*
X127599286Y-111481430D01*
X127313571Y-111552859D01*
X127170714Y-111624287D01*
X127027857Y-111767145D01*
X126956429Y-111981430D01*
X126956429Y-112124287D01*
X127027857Y-112338573D01*
X127099286Y-112410002D01*
X127599286Y-112410002D01*
X127599286Y-112124287D01*
X126956429Y-113052859D02*
X128456429Y-113052859D01*
X127742143Y-113052859D02*
X127742143Y-113910002D01*
X126956429Y-113910002D02*
X128456429Y-113910002D01*
X128456429Y-114410002D02*
X128456429Y-115267145D01*
X126956429Y-114838574D02*
X128456429Y-114838574D01*
X127027857Y-115695716D02*
X126956429Y-115910002D01*
X126956429Y-116267145D01*
X127027857Y-116410002D01*
X127099286Y-116481431D01*
X127242143Y-116552859D01*
X127385000Y-116552859D01*
X127527857Y-116481431D01*
X127599286Y-116410002D01*
X127670714Y-116267145D01*
X127742143Y-115981431D01*
X127813571Y-115838573D01*
X127885000Y-115767145D01*
X128027857Y-115695716D01*
X128170714Y-115695716D01*
X128313571Y-115767145D01*
X128385000Y-115838573D01*
X128456429Y-115981431D01*
X128456429Y-116338573D01*
X128385000Y-116552859D01*
D12*
X144241000Y-72101000D02*
X143541000Y-72101000D01*
X143541000Y-70901000D02*
X144241000Y-70901000D01*
X144368000Y-85817000D02*
X143668000Y-85817000D01*
X143668000Y-84617000D02*
X144368000Y-84617000D01*
D13*
X132537200Y-109220000D02*
X132537200Y-118618000D01*
X136448800Y-109220000D02*
G75*
G03X136067800Y-108839000I-381000J0D01*
G01*
X132918200Y-118999000D02*
G75*
G02X132537200Y-118618000I0J381000D01*
G01*
X132537200Y-109220000D02*
G75*
G02X132918200Y-108839000I381000J0D01*
G01*
X136067800Y-118999000D02*
G75*
G03X136448800Y-118618000I0J381000D01*
G01*
X136448800Y-118618000D02*
X136448800Y-109220000D01*
X136067800Y-108839000D02*
X132918200Y-108839000D01*
X132918200Y-118999000D02*
X136067800Y-118999000D01*
X133985000Y-118999000D02*
G75*
G02X135001000Y-118999000I508000J0D01*
G01*
D14*
X136093200Y-118999000D02*
X136093200Y-108839000D01*
D13*
X132537200Y-90170000D02*
X132537200Y-99568000D01*
X136448800Y-90170000D02*
G75*
G03X136067800Y-89789000I-381000J0D01*
G01*
X132918200Y-99949000D02*
G75*
G02X132537200Y-99568000I0J381000D01*
G01*
X132537200Y-90170000D02*
G75*
G02X132918200Y-89789000I381000J0D01*
G01*
X136067800Y-99949000D02*
G75*
G03X136448800Y-99568000I0J381000D01*
G01*
X136448800Y-99568000D02*
X136448800Y-90170000D01*
X136067800Y-89789000D02*
X132918200Y-89789000D01*
X132918200Y-99949000D02*
X136067800Y-99949000D01*
X133985000Y-99949000D02*
G75*
G02X135001000Y-99949000I508000J0D01*
G01*
D14*
X136093200Y-99949000D02*
X136093200Y-89789000D01*
D12*
X160909000Y-65345000D02*
X155769000Y-65345000D01*
X155769000Y-65345000D02*
X155769000Y-68005000D01*
X155769000Y-68005000D02*
X160909000Y-68005000D01*
X160909000Y-68005000D02*
X160909000Y-65345000D01*
X162179000Y-65345000D02*
X163509000Y-65345000D01*
X163509000Y-65345000D02*
X163509000Y-66675000D01*
X168843000Y-120269000D02*
X168843000Y-82109000D01*
X168843000Y-82109000D02*
X163643000Y-82109000D01*
X163643000Y-82109000D02*
X163643000Y-122869000D01*
X163643000Y-122869000D02*
X166243000Y-122869000D01*
X166243000Y-122869000D02*
X166243000Y-120269000D01*
X166243000Y-120269000D02*
X168843000Y-120269000D01*
X168843000Y-121539000D02*
X168843000Y-122869000D01*
X168843000Y-122869000D02*
X167513000Y-122869000D01*
X145923000Y-64449000D02*
X163763000Y-64449000D01*
X163763000Y-64449000D02*
X163763000Y-59249000D01*
X163763000Y-59249000D02*
X143323000Y-59249000D01*
X143323000Y-59249000D02*
X143323000Y-61849000D01*
X143323000Y-61849000D02*
X145923000Y-61849000D01*
X145923000Y-61849000D02*
X145923000Y-64449000D01*
X144653000Y-64449000D02*
X143323000Y-64449000D01*
X143323000Y-64449000D02*
X143323000Y-63119000D01*
X125663000Y-120269000D02*
X125663000Y-87189000D01*
X125663000Y-87189000D02*
X120463000Y-87189000D01*
X120463000Y-87189000D02*
X120463000Y-122869000D01*
X120463000Y-122869000D02*
X123063000Y-122869000D01*
X123063000Y-122869000D02*
X123063000Y-120269000D01*
X123063000Y-120269000D02*
X125663000Y-120269000D01*
X125663000Y-121539000D02*
X125663000Y-122869000D01*
X125663000Y-122869000D02*
X124333000Y-122869000D01*
D13*
X140843000Y-110744000D02*
X139827000Y-110744000D01*
X146227800Y-108915200D02*
X143078200Y-108915200D01*
X143078200Y-118922800D02*
X144348200Y-118922800D01*
X144348200Y-118922800D02*
X144957800Y-118922800D01*
X144957800Y-118922800D02*
X146227800Y-118922800D01*
X144348200Y-118922800D02*
G75*
G02X144957800Y-118922800I304800J0D01*
G01*
X140843000Y-91694000D02*
X139827000Y-91694000D01*
X146227800Y-89865200D02*
X143078200Y-89865200D01*
X143078200Y-99872800D02*
X144348200Y-99872800D01*
X144348200Y-99872800D02*
X144957800Y-99872800D01*
X144957800Y-99872800D02*
X146227800Y-99872800D01*
X144348200Y-99872800D02*
G75*
G02X144957800Y-99872800I304800J0D01*
G01*
X151003000Y-110744000D02*
X149987000Y-110744000D01*
X156387800Y-108915200D02*
X153238200Y-108915200D01*
X153238200Y-118922800D02*
X154508200Y-118922800D01*
X154508200Y-118922800D02*
X155117800Y-118922800D01*
X155117800Y-118922800D02*
X156387800Y-118922800D01*
X154508200Y-118922800D02*
G75*
G02X155117800Y-118922800I304800J0D01*
G01*
X151003000Y-91694000D02*
X149987000Y-91694000D01*
X156387800Y-89865200D02*
X153238200Y-89865200D01*
X153238200Y-99872800D02*
X154508200Y-99872800D01*
X154508200Y-99872800D02*
X155117800Y-99872800D01*
X155117800Y-99872800D02*
X156387800Y-99872800D01*
X154508200Y-99872800D02*
G75*
G02X155117800Y-99872800I304800J0D01*
G01*
D12*
X146416000Y-75186000D02*
X146416000Y-81586000D01*
X141366000Y-75186000D02*
X141366000Y-81586000D01*
X141366000Y-75186000D02*
G75*
G02X146416000Y-75186000I2525000J0D01*
G01*
X141366000Y-81586000D02*
G75*
G03X146416000Y-81586000I2525000J0D01*
G01*
D15*
X152458000Y-73464000D02*
X152458000Y-73689000D01*
X159708000Y-73464000D02*
X159708000Y-73789000D01*
X159708000Y-80714000D02*
X159708000Y-80389000D01*
X152458000Y-80714000D02*
X152458000Y-80389000D01*
X152458000Y-73464000D02*
X152783000Y-73464000D01*
X152458000Y-80714000D02*
X152783000Y-80714000D01*
X159708000Y-80714000D02*
X159383000Y-80714000D01*
X159708000Y-73464000D02*
X159383000Y-73464000D01*
X152458000Y-73689000D02*
X151033000Y-73689000D01*
D16*
X124444000Y-64901000D02*
X124444000Y-57535000D01*
X136636000Y-64901000D02*
X136636000Y-57535000D01*
X138795000Y-57330000D02*
X138795000Y-79130000D01*
X138795000Y-79125000D02*
X122285000Y-79125000D01*
X122285000Y-79130000D02*
X122285000Y-57330000D01*
X138795000Y-57335000D02*
X122285000Y-57335000D01*
X129016000Y-63123000D02*
X132064000Y-63123000D01*
X129524000Y-63123000D02*
X129524000Y-57535000D01*
X129016000Y-64901000D02*
X129016000Y-63123000D01*
X132064000Y-63123000D02*
X132064000Y-64901000D01*
X131556000Y-57535000D02*
X131556000Y-63123000D01*
X136636000Y-64901000D02*
X124444000Y-64901000D01*
D12*
X163516000Y-74930000D02*
X163516000Y-80070000D01*
X163516000Y-80070000D02*
X168716000Y-80070000D01*
X168716000Y-80070000D02*
X168716000Y-72330000D01*
X168716000Y-72330000D02*
X166116000Y-72330000D01*
X166116000Y-72330000D02*
X166116000Y-74930000D01*
X166116000Y-74930000D02*
X163516000Y-74930000D01*
X163516000Y-73660000D02*
X163516000Y-72330000D01*
X163516000Y-72330000D02*
X164846000Y-72330000D01*
X154420000Y-68350000D02*
X153420000Y-68350000D01*
X153420000Y-66990000D02*
X154420000Y-66990000D01*
D15*
X143703334Y-70657143D02*
X143655715Y-70704762D01*
X143512858Y-70752381D01*
X143417620Y-70752381D01*
X143274762Y-70704762D01*
X143179524Y-70609524D01*
X143131905Y-70514286D01*
X143084286Y-70323810D01*
X143084286Y-70180952D01*
X143131905Y-69990476D01*
X143179524Y-69895238D01*
X143274762Y-69800000D01*
X143417620Y-69752381D01*
X143512858Y-69752381D01*
X143655715Y-69800000D01*
X143703334Y-69847619D01*
X144655715Y-70752381D02*
X144084286Y-70752381D01*
X144370000Y-70752381D02*
X144370000Y-69752381D01*
X144274762Y-69895238D01*
X144179524Y-69990476D01*
X144084286Y-70038095D01*
X143851334Y-87074143D02*
X143803715Y-87121762D01*
X143660858Y-87169381D01*
X143565620Y-87169381D01*
X143422762Y-87121762D01*
X143327524Y-87026524D01*
X143279905Y-86931286D01*
X143232286Y-86740810D01*
X143232286Y-86597952D01*
X143279905Y-86407476D01*
X143327524Y-86312238D01*
X143422762Y-86217000D01*
X143565620Y-86169381D01*
X143660858Y-86169381D01*
X143803715Y-86217000D01*
X143851334Y-86264619D01*
X144232286Y-86264619D02*
X144279905Y-86217000D01*
X144375143Y-86169381D01*
X144613239Y-86169381D01*
X144708477Y-86217000D01*
X144756096Y-86264619D01*
X144803715Y-86359857D01*
X144803715Y-86455095D01*
X144756096Y-86597952D01*
X144184667Y-87169381D01*
X144803715Y-87169381D01*
D17*
X133643810Y-114752381D02*
X133643810Y-113752381D01*
X134691429Y-114657143D02*
X134643810Y-114704762D01*
X134500953Y-114752381D01*
X134405715Y-114752381D01*
X134262857Y-114704762D01*
X134167619Y-114609524D01*
X134120000Y-114514286D01*
X134072381Y-114323810D01*
X134072381Y-114180952D01*
X134120000Y-113990476D01*
X134167619Y-113895238D01*
X134262857Y-113800000D01*
X134405715Y-113752381D01*
X134500953Y-113752381D01*
X134643810Y-113800000D01*
X134691429Y-113847619D01*
X135643810Y-114752381D02*
X135072381Y-114752381D01*
X135358095Y-114752381D02*
X135358095Y-113752381D01*
X135262857Y-113895238D01*
X135167619Y-113990476D01*
X135072381Y-114038095D01*
X133643810Y-95702381D02*
X133643810Y-94702381D01*
X134691429Y-95607143D02*
X134643810Y-95654762D01*
X134500953Y-95702381D01*
X134405715Y-95702381D01*
X134262857Y-95654762D01*
X134167619Y-95559524D01*
X134120000Y-95464286D01*
X134072381Y-95273810D01*
X134072381Y-95130952D01*
X134120000Y-94940476D01*
X134167619Y-94845238D01*
X134262857Y-94750000D01*
X134405715Y-94702381D01*
X134500953Y-94702381D01*
X134643810Y-94750000D01*
X134691429Y-94797619D01*
X135072381Y-94797619D02*
X135120000Y-94750000D01*
X135215238Y-94702381D01*
X135453334Y-94702381D01*
X135548572Y-94750000D01*
X135596191Y-94797619D01*
X135643810Y-94892857D01*
X135643810Y-94988095D01*
X135596191Y-95130952D01*
X135024762Y-95702381D01*
X135643810Y-95702381D01*
D15*
X163961381Y-67508333D02*
X164675667Y-67508333D01*
X164818524Y-67555953D01*
X164913762Y-67651191D01*
X164961381Y-67794048D01*
X164961381Y-67889286D01*
X164961381Y-67032143D02*
X163961381Y-67032143D01*
X163961381Y-66651190D01*
X164009000Y-66555952D01*
X164056619Y-66508333D01*
X164151857Y-66460714D01*
X164294714Y-66460714D01*
X164389952Y-66508333D01*
X164437571Y-66555952D01*
X164485190Y-66651190D01*
X164485190Y-67032143D01*
X164961381Y-65508333D02*
X164961381Y-66079762D01*
X164961381Y-65794048D02*
X163961381Y-65794048D01*
X164104238Y-65889286D01*
X164199476Y-65984524D01*
X164247095Y-66079762D01*
X165504905Y-124321381D02*
X165504905Y-123321381D01*
X165885858Y-123321381D01*
X165981096Y-123369000D01*
X166028715Y-123416619D01*
X166076334Y-123511857D01*
X166076334Y-123654714D01*
X166028715Y-123749952D01*
X165981096Y-123797571D01*
X165885858Y-123845190D01*
X165504905Y-123845190D01*
X167028715Y-124321381D02*
X166457286Y-124321381D01*
X166743000Y-124321381D02*
X166743000Y-123321381D01*
X166647762Y-123464238D01*
X166552524Y-123559476D01*
X166457286Y-123607095D01*
X142775381Y-62587095D02*
X141775381Y-62587095D01*
X141775381Y-62206142D01*
X141823000Y-62110904D01*
X141870619Y-62063285D01*
X141965857Y-62015666D01*
X142108714Y-62015666D01*
X142203952Y-62063285D01*
X142251571Y-62110904D01*
X142299190Y-62206142D01*
X142299190Y-62587095D01*
X141870619Y-61634714D02*
X141823000Y-61587095D01*
X141775381Y-61491857D01*
X141775381Y-61253761D01*
X141823000Y-61158523D01*
X141870619Y-61110904D01*
X141965857Y-61063285D01*
X142061095Y-61063285D01*
X142203952Y-61110904D01*
X142775381Y-61682333D01*
X142775381Y-61063285D01*
X122324905Y-124321381D02*
X122324905Y-123321381D01*
X122705858Y-123321381D01*
X122801096Y-123369000D01*
X122848715Y-123416619D01*
X122896334Y-123511857D01*
X122896334Y-123654714D01*
X122848715Y-123749952D01*
X122801096Y-123797571D01*
X122705858Y-123845190D01*
X122324905Y-123845190D01*
X123229667Y-123321381D02*
X123848715Y-123321381D01*
X123515381Y-123702333D01*
X123658239Y-123702333D01*
X123753477Y-123749952D01*
X123801096Y-123797571D01*
X123848715Y-123892810D01*
X123848715Y-124130905D01*
X123801096Y-124226143D01*
X123753477Y-124273762D01*
X123658239Y-124321381D01*
X123372524Y-124321381D01*
X123277286Y-124273762D01*
X123229667Y-124226143D01*
D17*
X143530476Y-113401905D02*
X143530476Y-114729524D01*
X143608571Y-114885714D01*
X143686667Y-114963810D01*
X143842857Y-115041905D01*
X144155238Y-115041905D01*
X144311429Y-114963810D01*
X144389524Y-114885714D01*
X144467619Y-114729524D01*
X144467619Y-113401905D01*
X146107619Y-115041905D02*
X145170476Y-115041905D01*
X145639047Y-115041905D02*
X145639047Y-113401905D01*
X145482857Y-113636190D01*
X145326666Y-113792381D01*
X145170476Y-113870476D01*
X143530476Y-93716905D02*
X143530476Y-95044524D01*
X143608571Y-95200714D01*
X143686667Y-95278810D01*
X143842857Y-95356905D01*
X144155238Y-95356905D01*
X144311429Y-95278810D01*
X144389524Y-95200714D01*
X144467619Y-95044524D01*
X144467619Y-93716905D01*
X145170476Y-93873095D02*
X145248571Y-93795000D01*
X145404762Y-93716905D01*
X145795238Y-93716905D01*
X145951428Y-93795000D01*
X146029524Y-93873095D01*
X146107619Y-94029286D01*
X146107619Y-94185476D01*
X146029524Y-94419762D01*
X145092381Y-95356905D01*
X146107619Y-95356905D01*
X153690476Y-113401905D02*
X153690476Y-114729524D01*
X153768571Y-114885714D01*
X153846667Y-114963810D01*
X154002857Y-115041905D01*
X154315238Y-115041905D01*
X154471429Y-114963810D01*
X154549524Y-114885714D01*
X154627619Y-114729524D01*
X154627619Y-113401905D01*
X155252381Y-113401905D02*
X156267619Y-113401905D01*
X155720952Y-114026667D01*
X155955238Y-114026667D01*
X156111428Y-114104762D01*
X156189524Y-114182857D01*
X156267619Y-114339048D01*
X156267619Y-114729524D01*
X156189524Y-114885714D01*
X156111428Y-114963810D01*
X155955238Y-115041905D01*
X155486666Y-115041905D01*
X155330476Y-114963810D01*
X155252381Y-114885714D01*
X153690476Y-93716905D02*
X153690476Y-95044524D01*
X153768571Y-95200714D01*
X153846667Y-95278810D01*
X154002857Y-95356905D01*
X154315238Y-95356905D01*
X154471429Y-95278810D01*
X154549524Y-95200714D01*
X154627619Y-95044524D01*
X154627619Y-93716905D01*
X156111428Y-94263571D02*
X156111428Y-95356905D01*
X155720952Y-93638810D02*
X155330476Y-94810238D01*
X156345714Y-94810238D01*
D15*
X147392190Y-78862191D02*
X147868381Y-78862191D01*
X146868381Y-79195524D02*
X147392190Y-78862191D01*
X146868381Y-78528857D01*
X147868381Y-77671714D02*
X147868381Y-78243143D01*
X147868381Y-77957429D02*
X146868381Y-77957429D01*
X147011238Y-78052667D01*
X147106476Y-78147905D01*
X147154095Y-78243143D01*
X155106810Y-71491381D02*
X155106810Y-70491381D01*
X156154429Y-71396143D02*
X156106810Y-71443762D01*
X155963953Y-71491381D01*
X155868715Y-71491381D01*
X155725857Y-71443762D01*
X155630619Y-71348524D01*
X155583000Y-71253286D01*
X155535381Y-71062810D01*
X155535381Y-70919952D01*
X155583000Y-70729476D01*
X155630619Y-70634238D01*
X155725857Y-70539000D01*
X155868715Y-70491381D01*
X155963953Y-70491381D01*
X156106810Y-70539000D01*
X156154429Y-70586619D01*
X156487762Y-70491381D02*
X157106810Y-70491381D01*
X156773476Y-70872333D01*
X156916334Y-70872333D01*
X157011572Y-70919952D01*
X157059191Y-70967571D01*
X157106810Y-71062810D01*
X157106810Y-71300905D01*
X157059191Y-71396143D01*
X157011572Y-71443762D01*
X156916334Y-71491381D01*
X156630619Y-71491381D01*
X156535381Y-71443762D01*
X156487762Y-71396143D01*
D18*
X130032000Y-54949429D02*
X130032000Y-56038000D01*
X129959428Y-56255714D01*
X129814285Y-56400857D01*
X129596571Y-56473429D01*
X129451428Y-56473429D01*
X131556000Y-56473429D02*
X130685143Y-56473429D01*
X131120571Y-56473429D02*
X131120571Y-54949429D01*
X130975428Y-55167143D01*
X130830286Y-55312286D01*
X130685143Y-55384857D01*
X125222000Y-81334429D02*
X125222000Y-79810429D01*
X125947714Y-81334429D02*
X125947714Y-79810429D01*
X126818571Y-81334429D01*
X126818571Y-79810429D01*
X127326571Y-79810429D02*
X128197428Y-79810429D01*
X127761999Y-81334429D02*
X127761999Y-79810429D01*
X128705428Y-80536143D02*
X129213428Y-80536143D01*
X129431142Y-81334429D02*
X128705428Y-81334429D01*
X128705428Y-79810429D01*
X129431142Y-79810429D01*
X130955142Y-81334429D02*
X130447142Y-80608714D01*
X130084285Y-81334429D02*
X130084285Y-79810429D01*
X130664857Y-79810429D01*
X130809999Y-79883000D01*
X130882571Y-79955571D01*
X130955142Y-80100714D01*
X130955142Y-80318429D01*
X130882571Y-80463571D01*
X130809999Y-80536143D01*
X130664857Y-80608714D01*
X130084285Y-80608714D01*
X132116285Y-80536143D02*
X131608285Y-80536143D01*
X131608285Y-81334429D02*
X131608285Y-79810429D01*
X132333999Y-79810429D01*
X132842000Y-80899000D02*
X133567714Y-80899000D01*
X132696857Y-81334429D02*
X133204857Y-79810429D01*
X133712857Y-81334429D01*
X135091714Y-81189286D02*
X135019143Y-81261857D01*
X134801429Y-81334429D01*
X134656286Y-81334429D01*
X134438571Y-81261857D01*
X134293429Y-81116714D01*
X134220857Y-80971571D01*
X134148286Y-80681286D01*
X134148286Y-80463571D01*
X134220857Y-80173286D01*
X134293429Y-80028143D01*
X134438571Y-79883000D01*
X134656286Y-79810429D01*
X134801429Y-79810429D01*
X135019143Y-79883000D01*
X135091714Y-79955571D01*
X135744857Y-80536143D02*
X136252857Y-80536143D01*
X136470571Y-81334429D02*
X135744857Y-81334429D01*
X135744857Y-79810429D01*
X136470571Y-79810429D01*
D15*
X153903334Y-69422381D02*
X153570000Y-68946190D01*
X153331905Y-69422381D02*
X153331905Y-68422381D01*
X153712858Y-68422381D01*
X153808096Y-68470000D01*
X153855715Y-68517619D01*
X153903334Y-68612857D01*
X153903334Y-68755714D01*
X153855715Y-68850952D01*
X153808096Y-68898571D01*
X153712858Y-68946190D01*
X153331905Y-68946190D01*
X154855715Y-69422381D02*
X154284286Y-69422381D01*
X154570000Y-69422381D02*
X154570000Y-68422381D01*
X154474762Y-68565238D01*
X154379524Y-68660476D01*
X154284286Y-68708095D01*
M02*
