M48
;DRILL file {KiCad 4.0.5} date 2017 May 23, Tuesday 21:15:12
;FORMAT={-:-/ absolute / metric / decimal}
FMAT,2
METRIC,TZ
T1C0.400
T2C0.800
T3C0.900
T4C1.000
T5C1.600
T6C3.250
%
G90
G05
M71
T1
X128.778Y-123.444
X129.54Y-90.424
X129.667Y-107.696
X139.03Y-117.69
X139.192Y-98.044
X139.7Y-110.744
X140.208Y-91.821
X140.589Y-99.568
X140.589Y-118.364
X141.986Y-108.712
X142.15Y-87.74
X142.494Y-59.69
X143.51Y-92.964
X143.51Y-94.107
X143.51Y-95.504
X143.51Y-99.568
X143.51Y-106.934
X143.51Y-112.014
X143.51Y-113.284
X143.51Y-114.554
X143.637Y-91.821
X144.145Y-108.585
X144.37Y-99.27
X145.2Y-97.84
X145.24Y-90.91
X145.542Y-58.674
X148.717Y-79.248
X148.971Y-90.297
X149.53Y-112.014
X149.733Y-79.629
X149.86Y-76.708
X150.114Y-71.755
X150.241Y-80.391
X150.368Y-65.405
X150.622Y-81.28
X150.622Y-91.694
X150.622Y-110.744
X151.13Y-70.485
X151.511Y-65.151
X152.Y-108.59
X152.146Y-81.026
X152.908Y-71.374
X153.035Y-76.835
X153.162Y-78.232
X153.289Y-57.531
X153.44Y-65.87
X153.797Y-112.014
X153.797Y-113.284
X153.797Y-114.554
X153.89Y-89.38
X153.924Y-92.964
X153.924Y-94.107
X153.924Y-95.377
X154.051Y-107.95
X154.559Y-119.126
X154.813Y-115.824
X154.94Y-71.374
X155.448Y-91.186
X155.448Y-110.744
X155.575Y-107.95
X155.702Y-75.946
X155.77Y-71.24
X155.84Y-69.65
X155.956Y-90.424
X156.083Y-98.806
X156.083Y-100.203
X156.083Y-110.236
X156.15Y-122.54
X156.464Y-84.455
X156.972Y-70.485
X156.98Y-68.98
X157.226Y-123.317
X157.48Y-108.458
X157.861Y-79.629
X157.988Y-85.344
X157.988Y-88.9
X158.33Y-122.37
X158.496Y-78.74
X158.75Y-79.502
X159.004Y-83.058
X159.512Y-70.104
X161.29Y-80.772
X161.29Y-81.788
X161.671Y-70.231
X162.052Y-71.12
X163.068Y-71.882
X163.068Y-80.772
X163.068Y-81.788
X163.068Y-82.804
X165.735Y-57.404
X167.132Y-68.072
T2
X143.891Y-75.946
X143.891Y-80.826
T3
X124.215Y-64.85
X126.095Y-77.11
X126.755Y-63.33
X127.365Y-74.57
X128.635Y-77.11
X129.905Y-74.57
X131.175Y-77.11
X132.445Y-74.57
X133.715Y-77.11
X134.325Y-64.85
X134.985Y-74.57
X136.865Y-63.33
T4
X121.793Y-88.519
X121.793Y-91.059
X121.793Y-93.599
X121.793Y-96.139
X121.793Y-98.679
X121.793Y-101.219
X121.793Y-103.759
X121.793Y-106.299
X121.793Y-108.839
X121.793Y-111.379
X121.793Y-113.919
X121.793Y-116.459
X121.793Y-118.999
X121.793Y-121.539
X124.333Y-88.519
X124.333Y-91.059
X124.333Y-93.599
X124.333Y-96.139
X124.333Y-98.679
X124.333Y-101.219
X124.333Y-103.759
X124.333Y-106.299
X124.333Y-108.839
X124.333Y-111.379
X124.333Y-113.919
X124.333Y-116.459
X124.333Y-118.999
X124.333Y-121.539
X144.653Y-60.579
X144.653Y-63.119
X147.193Y-60.579
X147.193Y-63.119
X149.733Y-60.579
X149.733Y-63.119
X152.273Y-60.579
X152.273Y-63.119
X154.813Y-60.579
X154.813Y-63.119
X157.099Y-66.675
X157.353Y-60.579
X157.353Y-63.119
X159.639Y-66.675
X159.893Y-60.579
X159.893Y-63.119
X162.179Y-66.675
X162.433Y-60.579
X162.433Y-63.119
X164.846Y-73.66
X164.846Y-76.2
X164.846Y-78.74
X164.973Y-83.439
X164.973Y-85.979
X164.973Y-88.519
X164.973Y-91.059
X164.973Y-93.599
X164.973Y-96.139
X164.973Y-98.679
X164.973Y-101.219
X164.973Y-103.759
X164.973Y-106.299
X164.973Y-108.839
X164.973Y-111.379
X164.973Y-113.919
X164.973Y-116.459
X164.973Y-118.999
X164.973Y-121.539
X167.386Y-73.66
X167.386Y-76.2
X167.386Y-78.74
X167.513Y-83.439
X167.513Y-85.979
X167.513Y-88.519
X167.513Y-91.059
X167.513Y-93.599
X167.513Y-96.139
X167.513Y-98.679
X167.513Y-101.219
X167.513Y-103.759
X167.513Y-106.299
X167.513Y-108.839
X167.513Y-111.379
X167.513Y-113.919
X167.513Y-116.459
X167.513Y-118.999
X167.513Y-121.539
T5
X122.79Y-71.28
X138.29Y-71.28
T6
X124.825Y-68.23
X136.255Y-68.23
T0
M30
