G04 #@! TF.FileFunction,Copper,L2,Bot,Signal*
%FSLAX46Y46*%
G04 Gerber Fmt 4.6, Leading zero omitted, Abs format (unit mm)*
G04 Created by KiCad (PCBNEW 4.0.5) date 2017 May 23, Tuesday 21:15:10*
%MOMM*%
%LPD*%
G01*
G04 APERTURE LIST*
%ADD10C,0.100000*%
%ADD11R,1.700000X1.700000*%
%ADD12O,1.700000X1.700000*%
%ADD13C,1.500000*%
%ADD14C,1.400000*%
%ADD15C,2.500000*%
%ADD16C,0.600000*%
%ADD17C,0.400000*%
%ADD18C,0.250000*%
%ADD19C,0.254000*%
G04 APERTURE END LIST*
D10*
D11*
X162179000Y-66675000D03*
D12*
X159639000Y-66675000D03*
X157099000Y-66675000D03*
D11*
X167513000Y-121539000D03*
D12*
X164973000Y-121539000D03*
X167513000Y-118999000D03*
X164973000Y-118999000D03*
X167513000Y-116459000D03*
X164973000Y-116459000D03*
X167513000Y-113919000D03*
X164973000Y-113919000D03*
X167513000Y-111379000D03*
X164973000Y-111379000D03*
X167513000Y-108839000D03*
X164973000Y-108839000D03*
X167513000Y-106299000D03*
X164973000Y-106299000D03*
X167513000Y-103759000D03*
X164973000Y-103759000D03*
X167513000Y-101219000D03*
X164973000Y-101219000D03*
X167513000Y-98679000D03*
X164973000Y-98679000D03*
X167513000Y-96139000D03*
X164973000Y-96139000D03*
X167513000Y-93599000D03*
X164973000Y-93599000D03*
X167513000Y-91059000D03*
X164973000Y-91059000D03*
X167513000Y-88519000D03*
X164973000Y-88519000D03*
X167513000Y-85979000D03*
X164973000Y-85979000D03*
X167513000Y-83439000D03*
X164973000Y-83439000D03*
D11*
X144653000Y-63119000D03*
D12*
X144653000Y-60579000D03*
X147193000Y-63119000D03*
X147193000Y-60579000D03*
X149733000Y-63119000D03*
X149733000Y-60579000D03*
X152273000Y-63119000D03*
X152273000Y-60579000D03*
X154813000Y-63119000D03*
X154813000Y-60579000D03*
X157353000Y-63119000D03*
X157353000Y-60579000D03*
X159893000Y-63119000D03*
X159893000Y-60579000D03*
X162433000Y-63119000D03*
X162433000Y-60579000D03*
D11*
X124333000Y-121539000D03*
D12*
X121793000Y-121539000D03*
X124333000Y-118999000D03*
X121793000Y-118999000D03*
X124333000Y-116459000D03*
X121793000Y-116459000D03*
X124333000Y-113919000D03*
X121793000Y-113919000D03*
X124333000Y-111379000D03*
X121793000Y-111379000D03*
X124333000Y-108839000D03*
X121793000Y-108839000D03*
X124333000Y-106299000D03*
X121793000Y-106299000D03*
X124333000Y-103759000D03*
X121793000Y-103759000D03*
X124333000Y-101219000D03*
X121793000Y-101219000D03*
X124333000Y-98679000D03*
X121793000Y-98679000D03*
X124333000Y-96139000D03*
X121793000Y-96139000D03*
X124333000Y-93599000D03*
X121793000Y-93599000D03*
X124333000Y-91059000D03*
X121793000Y-91059000D03*
X124333000Y-88519000D03*
X121793000Y-88519000D03*
D13*
X143891000Y-75946000D03*
X143891000Y-80826000D03*
D14*
X132445000Y-74570000D03*
X134985000Y-74570000D03*
X133715000Y-77110000D03*
X131175000Y-77110000D03*
X129905000Y-74570000D03*
X128635000Y-77110000D03*
X127365000Y-74570000D03*
X126095000Y-77110000D03*
D15*
X138290000Y-71280000D03*
X122790000Y-71280000D03*
D13*
X126755000Y-63330000D03*
X124215000Y-64850000D03*
X136865000Y-63330000D03*
X134325000Y-64850000D03*
D11*
X164846000Y-73660000D03*
D12*
X167386000Y-73660000D03*
X164846000Y-76200000D03*
X167386000Y-76200000D03*
X164846000Y-78740000D03*
X167386000Y-78740000D03*
D16*
X128778000Y-123444000D03*
X155956000Y-90424000D03*
X148971000Y-90297000D03*
X157480000Y-108458000D03*
X157226000Y-123317000D03*
X149733000Y-79629000D03*
X150241000Y-80391000D03*
X150114000Y-71755000D03*
X129667000Y-107696000D03*
X129540000Y-90424000D03*
X163068000Y-71882000D03*
X167132000Y-68072000D03*
X142150000Y-87740000D03*
X153440000Y-65870000D03*
X150622000Y-110744000D03*
X143510000Y-106934000D03*
X139192000Y-98044000D03*
X140589000Y-118364000D03*
X140589000Y-99568000D03*
X139700000Y-110744000D03*
X150622000Y-91694000D03*
X143637000Y-91821000D03*
X149860000Y-76708000D03*
X154559000Y-119126000D03*
X155448000Y-110744000D03*
X153162000Y-78232000D03*
X153035000Y-76835000D03*
X142494000Y-59690000D03*
X145542000Y-58674000D03*
X152908000Y-71374000D03*
X154940000Y-71374000D03*
X151130000Y-70485000D03*
X156972000Y-70485000D03*
X150368000Y-65405000D03*
X163068000Y-80772000D03*
X161290000Y-80772000D03*
X158750000Y-79502000D03*
X159004000Y-83058000D03*
X153289000Y-57531000D03*
X165735000Y-57404000D03*
X162052000Y-71120000D03*
X158496000Y-78740000D03*
X144370000Y-99270000D03*
X151511000Y-65151000D03*
X148717000Y-79248000D03*
X143510000Y-113284000D03*
X153797000Y-113284000D03*
X153924000Y-94107000D03*
X143510000Y-94107000D03*
X163068000Y-81788000D03*
X161290000Y-81788000D03*
X144145000Y-108585000D03*
X154051000Y-107950000D03*
X155575000Y-107950000D03*
X155448000Y-91186000D03*
X156464000Y-84455000D03*
X157861000Y-79629000D03*
X161671000Y-70231000D03*
X159512000Y-70104000D03*
X156980000Y-68980000D03*
X141986000Y-108712000D03*
X143510000Y-99568000D03*
X149530000Y-112014000D03*
X153890000Y-89380000D03*
X145240000Y-90910000D03*
X145200000Y-97840000D03*
X152000000Y-108590000D03*
X143510000Y-112014000D03*
X153797000Y-112014000D03*
X153924000Y-92964000D03*
X143510000Y-92964000D03*
X156083000Y-98806000D03*
X156150000Y-122540000D03*
X158330000Y-122370000D03*
X139030000Y-117690000D03*
X143510000Y-114554000D03*
X153797000Y-114554000D03*
X153924000Y-95377000D03*
X143510000Y-95504000D03*
X154813000Y-115824000D03*
X140208000Y-91821000D03*
X156083000Y-100203000D03*
X156083000Y-110236000D03*
X155770000Y-71240000D03*
X155840000Y-69650000D03*
X150622000Y-81280000D03*
X157988000Y-85344000D03*
X157988000Y-88900000D03*
X163068000Y-82804000D03*
X155702000Y-75946000D03*
X152146000Y-81026000D03*
D17*
X167386000Y-78740000D02*
X167894000Y-78740000D01*
X167894000Y-78740000D02*
X169164000Y-77470000D01*
X168275000Y-60579000D02*
X162433000Y-60579000D01*
X169164000Y-61468000D02*
X168275000Y-60579000D01*
X169164000Y-77470000D02*
X169164000Y-61468000D01*
X167513000Y-83439000D02*
X167767000Y-83439000D01*
X167767000Y-83439000D02*
X167386000Y-83058000D01*
X167386000Y-83058000D02*
X167386000Y-78740000D01*
X128635000Y-77110000D02*
X128635000Y-123301000D01*
X128635000Y-123301000D02*
X128778000Y-123444000D01*
X155956000Y-90424000D02*
X163195000Y-90424000D01*
X166243000Y-89789000D02*
X167513000Y-91059000D01*
X163830000Y-89789000D02*
X166243000Y-89789000D01*
X163195000Y-90424000D02*
X163830000Y-89789000D01*
X149098000Y-90424000D02*
X155956000Y-90424000D01*
X148971000Y-90297000D02*
X149098000Y-90424000D01*
X157480000Y-108458000D02*
X157226000Y-108712000D01*
X157226000Y-108712000D02*
X157226000Y-123317000D01*
D18*
X143891000Y-78867000D02*
X143891000Y-75946000D01*
X145399998Y-80375998D02*
X143891000Y-78867000D01*
X148986002Y-80375998D02*
X145399998Y-80375998D01*
X149733000Y-79629000D02*
X148986002Y-80375998D01*
X149806000Y-80826000D02*
X143891000Y-80826000D01*
X150241000Y-80391000D02*
X149806000Y-80826000D01*
D17*
X159639000Y-66675000D02*
X159639000Y-65913000D01*
X159639000Y-65913000D02*
X158496000Y-64770000D01*
X158496000Y-64770000D02*
X153289000Y-64770000D01*
X153289000Y-64770000D02*
X149750002Y-68308998D01*
X149750002Y-68308998D02*
X149750002Y-71391002D01*
X149750002Y-71391002D02*
X150114000Y-71755000D01*
D18*
X129667000Y-90551000D02*
X129667000Y-107696000D01*
X129540000Y-90424000D02*
X129667000Y-90551000D01*
D17*
X162179000Y-66675000D02*
X162179000Y-67183000D01*
X162179000Y-67183000D02*
X163068000Y-68072000D01*
X162160000Y-72790000D02*
X162160000Y-73806000D01*
X163068000Y-71882000D02*
X162160000Y-72790000D01*
X163068000Y-68072000D02*
X167132000Y-68072000D01*
X162160000Y-84360000D02*
X162160000Y-73914000D01*
X158690000Y-87830000D02*
X162160000Y-84360000D01*
X142240000Y-87830000D02*
X158690000Y-87830000D01*
X142150000Y-87740000D02*
X142240000Y-87830000D01*
D18*
X153440000Y-65870000D02*
X153386000Y-65816000D01*
X153386000Y-65816000D02*
X153440000Y-65870000D01*
X153440000Y-65870000D02*
X153440000Y-65762000D01*
D17*
X157099000Y-66675000D02*
X157099000Y-67945000D01*
X168402000Y-72644000D02*
X167386000Y-73660000D01*
X168402000Y-69850000D02*
X168402000Y-72644000D01*
X167386000Y-68834000D02*
X168402000Y-69850000D01*
X157988000Y-68834000D02*
X167386000Y-68834000D01*
X157099000Y-67945000D02*
X157988000Y-68834000D01*
D18*
X149606000Y-109728000D02*
X150622000Y-110744000D01*
X144272000Y-109728000D02*
X149606000Y-109728000D01*
X143510000Y-108966000D02*
X144272000Y-109728000D01*
X143510000Y-106934000D02*
X143510000Y-108966000D01*
X139192000Y-98044000D02*
X139140000Y-98044000D01*
X139140000Y-98044000D02*
X139192000Y-98044000D01*
X139192000Y-98044000D02*
X139140000Y-98044000D01*
D17*
X139140000Y-89800000D02*
X139140000Y-98044000D01*
X139140000Y-98044000D02*
X139140000Y-99897000D01*
X131175000Y-85415000D02*
X134690000Y-88930000D01*
X134690000Y-88930000D02*
X138270000Y-88930000D01*
X138270000Y-88930000D02*
X139140000Y-89800000D01*
X131175000Y-77110000D02*
X131175000Y-85415000D01*
X139140000Y-99897000D02*
X139700000Y-100457000D01*
X140589000Y-118364000D02*
X140589000Y-118745000D01*
X140970000Y-119126000D02*
X154559000Y-119126000D01*
X140589000Y-118745000D02*
X140970000Y-119126000D01*
X139700000Y-110744000D02*
X139700000Y-117475000D01*
X139700000Y-117475000D02*
X140589000Y-118364000D01*
X140589000Y-99568000D02*
X139700000Y-100457000D01*
X139700000Y-100457000D02*
X139700000Y-110744000D01*
X150622000Y-91694000D02*
X150495000Y-91821000D01*
X150495000Y-91821000D02*
X143637000Y-91821000D01*
X157099000Y-66675000D02*
X156845000Y-66675000D01*
X156845000Y-66675000D02*
X155702000Y-65532000D01*
X149860000Y-73787000D02*
X149860000Y-76708000D01*
X151130000Y-72517000D02*
X149860000Y-73787000D01*
X151130000Y-71755000D02*
X151130000Y-72517000D01*
X150368000Y-70993000D02*
X151130000Y-71755000D01*
X150368000Y-68834000D02*
X150368000Y-70993000D01*
X153670000Y-65532000D02*
X153440000Y-65762000D01*
X153440000Y-65762000D02*
X150368000Y-68834000D01*
X155702000Y-65532000D02*
X153670000Y-65532000D01*
D18*
X154559000Y-119126000D02*
X155575000Y-118110000D01*
X155575000Y-118110000D02*
X155575000Y-110871000D01*
X155575000Y-110871000D02*
X155448000Y-110744000D01*
X153162000Y-76962000D02*
X153162000Y-78232000D01*
X153035000Y-76835000D02*
X153162000Y-76962000D01*
D17*
X147193000Y-60579000D02*
X147193000Y-60325000D01*
X147193000Y-60325000D02*
X145542000Y-58674000D01*
X128016000Y-73919000D02*
X127365000Y-74570000D01*
X128016000Y-67056000D02*
X128016000Y-73919000D01*
X135382000Y-59690000D02*
X128016000Y-67056000D01*
X142494000Y-59690000D02*
X135382000Y-59690000D01*
D18*
X154940000Y-71374000D02*
X152908000Y-71374000D01*
D17*
X144653000Y-60579000D02*
X142748000Y-58674000D01*
X124968000Y-75983000D02*
X126095000Y-77110000D01*
X124968000Y-72898000D02*
X124968000Y-75983000D01*
X127254000Y-70612000D02*
X124968000Y-72898000D01*
X127254000Y-66040000D02*
X127254000Y-70612000D01*
X134620000Y-58674000D02*
X127254000Y-66040000D01*
X142748000Y-58674000D02*
X134620000Y-58674000D01*
D18*
X156972000Y-70485000D02*
X151130000Y-70485000D01*
X150876000Y-79756000D02*
X151130000Y-80010000D01*
X149225000Y-78105000D02*
X150876000Y-79756000D01*
X149225000Y-66548000D02*
X149225000Y-77978000D01*
X150368000Y-65405000D02*
X149225000Y-66548000D01*
X149225000Y-77978000D02*
X149225000Y-78105000D01*
X151384000Y-82296000D02*
X152146000Y-83058000D01*
X151384000Y-80264000D02*
X151384000Y-82296000D01*
X151130000Y-80010000D02*
X151384000Y-80264000D01*
X151892000Y-83058000D02*
X152146000Y-83058000D01*
X152146000Y-83058000D02*
X154432000Y-83058000D01*
X163068000Y-74930000D02*
X164338000Y-73660000D01*
X163068000Y-80772000D02*
X163068000Y-74930000D01*
X160020000Y-80772000D02*
X161290000Y-80772000D01*
X158750000Y-79502000D02*
X160020000Y-80772000D01*
X164338000Y-73660000D02*
X164846000Y-73660000D01*
X154178000Y-83058000D02*
X154432000Y-83058000D01*
X154432000Y-83058000D02*
X159004000Y-83058000D01*
X153289000Y-57531000D02*
X153416000Y-57404000D01*
X153416000Y-57404000D02*
X165735000Y-57404000D01*
X162052000Y-71120000D02*
X161671000Y-71501000D01*
X161671000Y-71501000D02*
X159385000Y-71501000D01*
X159385000Y-71501000D02*
X158496000Y-72390000D01*
X158496000Y-72390000D02*
X158496000Y-78740000D01*
X142770000Y-112544000D02*
X143510000Y-113284000D01*
X142770000Y-101230000D02*
X142770000Y-112544000D01*
X144420000Y-99580000D02*
X142770000Y-101230000D01*
X144420000Y-99320000D02*
X144420000Y-99580000D01*
X144370000Y-99270000D02*
X144420000Y-99320000D01*
X151511000Y-65151000D02*
X150876000Y-64516000D01*
X150876000Y-64516000D02*
X150241000Y-64516000D01*
X150241000Y-64516000D02*
X148717000Y-66040000D01*
X148717000Y-66040000D02*
X148717000Y-79248000D01*
X143510000Y-113284000D02*
X153797000Y-113284000D01*
X143510000Y-94107000D02*
X153924000Y-94107000D01*
X160020000Y-81788000D02*
X161290000Y-81788000D01*
X166116000Y-77470000D02*
X167386000Y-76200000D01*
X166116000Y-81280000D02*
X166116000Y-77470000D01*
X165608000Y-81788000D02*
X166116000Y-81280000D01*
X163068000Y-81788000D02*
X165608000Y-81788000D01*
X144145000Y-108585000D02*
X144399000Y-108585000D01*
X155575000Y-107950000D02*
X155448000Y-107823000D01*
X155448000Y-107823000D02*
X155448000Y-91186000D01*
X156464000Y-84455000D02*
X157226000Y-83693000D01*
X157226000Y-83693000D02*
X159639000Y-83693000D01*
X159639000Y-83693000D02*
X160020000Y-83312000D01*
X160020000Y-83312000D02*
X160020000Y-81788000D01*
X157861000Y-79629000D02*
X160020000Y-81788000D01*
X154051000Y-108839000D02*
X154051000Y-107950000D01*
X153670000Y-109220000D02*
X154051000Y-108839000D01*
X145034000Y-109220000D02*
X153670000Y-109220000D01*
X144399000Y-108585000D02*
X145034000Y-109220000D01*
X157861000Y-71501000D02*
X157861000Y-79629000D01*
X158369000Y-70993000D02*
X157861000Y-71501000D01*
X160909000Y-70993000D02*
X158369000Y-70993000D01*
X161671000Y-70231000D02*
X160909000Y-70993000D01*
X156980000Y-68980000D02*
X157391536Y-68980000D01*
X158798000Y-69390000D02*
X159512000Y-70104000D01*
X157801536Y-69390000D02*
X158798000Y-69390000D01*
X157391536Y-68980000D02*
X157801536Y-69390000D01*
X141986000Y-101092000D02*
X141986000Y-108712000D01*
X143510000Y-99568000D02*
X141986000Y-101092000D01*
X146770000Y-89380000D02*
X153890000Y-89380000D01*
X145240000Y-90910000D02*
X146770000Y-89380000D01*
X151630000Y-97840000D02*
X145200000Y-97840000D01*
X153960000Y-100170000D02*
X151630000Y-97840000D01*
X153960000Y-106630000D02*
X153960000Y-100170000D01*
X152000000Y-108590000D02*
X153960000Y-106630000D01*
X149098000Y-112014000D02*
X149530000Y-112014000D01*
X143510000Y-112014000D02*
X149098000Y-112014000D01*
X149530000Y-112014000D02*
X153797000Y-112014000D01*
X143510000Y-92964000D02*
X153924000Y-92964000D01*
X158115000Y-107569000D02*
X158119000Y-107569000D01*
X156083000Y-98806000D02*
X157099000Y-99822000D01*
X157099000Y-99822000D02*
X157099000Y-106553000D01*
X157099000Y-106553000D02*
X158115000Y-107569000D01*
X139070000Y-122290000D02*
X139070000Y-121290000D01*
X140000000Y-123220000D02*
X139070000Y-122290000D01*
X155470000Y-123220000D02*
X140000000Y-123220000D01*
X156150000Y-122540000D02*
X155470000Y-123220000D01*
X158330000Y-107780000D02*
X158330000Y-122370000D01*
X158119000Y-107569000D02*
X158330000Y-107780000D01*
X139070000Y-121290000D02*
X139070000Y-117730000D01*
X139070000Y-117730000D02*
X139030000Y-117690000D01*
X139070000Y-121290000D02*
X139065000Y-121285000D01*
X143510000Y-114554000D02*
X153797000Y-114554000D01*
X143637000Y-95377000D02*
X153924000Y-95377000D01*
X143510000Y-95504000D02*
X143637000Y-95377000D01*
X154813000Y-99949000D02*
X154813000Y-115824000D01*
X152019000Y-97155000D02*
X154813000Y-99949000D01*
X140970000Y-97155000D02*
X152019000Y-97155000D01*
X140208000Y-96393000D02*
X140970000Y-97155000D01*
X140208000Y-91821000D02*
X140208000Y-96393000D01*
X156083000Y-107315000D02*
X156083000Y-100203000D01*
X156337000Y-107569000D02*
X156083000Y-107315000D01*
X156337000Y-109982000D02*
X156337000Y-107569000D01*
X156083000Y-110236000D02*
X156337000Y-109982000D01*
X157700000Y-71000000D02*
X157700000Y-70170000D01*
X155770000Y-71240000D02*
X155790000Y-71220000D01*
X155790000Y-71220000D02*
X157480000Y-71220000D01*
X157480000Y-71220000D02*
X157700000Y-71000000D01*
X157180000Y-69650000D02*
X155840000Y-69650000D01*
X157700000Y-70170000D02*
X157180000Y-69650000D01*
X150622000Y-81280000D02*
X149860000Y-82042000D01*
X149860000Y-82042000D02*
X149860000Y-82804000D01*
X149860000Y-82804000D02*
X152400000Y-85344000D01*
X152400000Y-85344000D02*
X157988000Y-85344000D01*
X157988000Y-88900000D02*
X158750000Y-88900000D01*
X158750000Y-88900000D02*
X163068000Y-84582000D01*
X163068000Y-84582000D02*
X163068000Y-82804000D01*
X153924000Y-79248000D02*
X152146000Y-81026000D01*
X153924000Y-77724000D02*
X153924000Y-79248000D01*
X155702000Y-75946000D02*
X153924000Y-77724000D01*
D19*
G36*
X152353838Y-57716167D02*
X152495883Y-58059943D01*
X152758673Y-58323192D01*
X153102201Y-58465838D01*
X153474167Y-58466162D01*
X153817943Y-58324117D01*
X153978340Y-58164000D01*
X165172537Y-58164000D01*
X165204673Y-58196192D01*
X165548201Y-58338838D01*
X165920167Y-58339162D01*
X166263943Y-58197117D01*
X166527192Y-57934327D01*
X166669838Y-57590799D01*
X166669935Y-57479000D01*
X169343000Y-57479000D01*
X169343000Y-123369000D01*
X156592099Y-123369000D01*
X156678943Y-123333117D01*
X156942192Y-123070327D01*
X157084838Y-122726799D01*
X157085162Y-122354833D01*
X156943117Y-122011057D01*
X156680327Y-121747808D01*
X156336799Y-121605162D01*
X155964833Y-121604838D01*
X155621057Y-121746883D01*
X155357808Y-122009673D01*
X155215162Y-122353201D01*
X155215121Y-122400077D01*
X155155198Y-122460000D01*
X140314802Y-122460000D01*
X139830000Y-121975198D01*
X139830000Y-119083157D01*
X139907404Y-119199000D01*
X139998566Y-119335434D01*
X140379566Y-119716434D01*
X140650459Y-119897439D01*
X140970000Y-119961000D01*
X154131766Y-119961000D01*
X154372201Y-120060838D01*
X154744167Y-120061162D01*
X155087943Y-119919117D01*
X155351192Y-119656327D01*
X155493838Y-119312799D01*
X155493879Y-119265923D01*
X156112401Y-118647401D01*
X156277148Y-118400839D01*
X156335000Y-118110000D01*
X156335000Y-111143547D01*
X156611943Y-111029117D01*
X156875192Y-110766327D01*
X157017838Y-110422799D01*
X157017941Y-110304579D01*
X157039148Y-110272840D01*
X157097000Y-109982000D01*
X157097000Y-107625802D01*
X157570000Y-108098802D01*
X157570000Y-121807537D01*
X157537808Y-121839673D01*
X157395162Y-122183201D01*
X157394838Y-122555167D01*
X157536883Y-122898943D01*
X157799673Y-123162192D01*
X158143201Y-123304838D01*
X158515167Y-123305162D01*
X158858943Y-123163117D01*
X159122192Y-122900327D01*
X159264838Y-122556799D01*
X159265162Y-122184833D01*
X159123117Y-121841057D01*
X159090000Y-121807882D01*
X159090000Y-107780000D01*
X159032148Y-107489161D01*
X158867401Y-107242599D01*
X158656401Y-107031599D01*
X158644346Y-107023544D01*
X157859000Y-106238198D01*
X157859000Y-99822000D01*
X157801148Y-99531161D01*
X157636401Y-99284599D01*
X157018122Y-98666320D01*
X157018162Y-98620833D01*
X156876117Y-98277057D01*
X156613327Y-98013808D01*
X156269799Y-97871162D01*
X156208000Y-97871108D01*
X156208000Y-91748463D01*
X156240192Y-91716327D01*
X156382838Y-91372799D01*
X156383162Y-91000833D01*
X156241117Y-90657057D01*
X155978327Y-90393808D01*
X155634799Y-90251162D01*
X155262833Y-90250838D01*
X154919057Y-90392883D01*
X154655808Y-90655673D01*
X154513162Y-90999201D01*
X154512838Y-91371167D01*
X154654883Y-91714943D01*
X154688000Y-91748118D01*
X154688000Y-92405889D01*
X154454327Y-92171808D01*
X154110799Y-92029162D01*
X153738833Y-92028838D01*
X153395057Y-92170883D01*
X153361882Y-92204000D01*
X151422633Y-92204000D01*
X151556838Y-91880799D01*
X151557162Y-91508833D01*
X151415117Y-91165057D01*
X151152327Y-90901808D01*
X150808799Y-90759162D01*
X150436833Y-90758838D01*
X150093057Y-90900883D01*
X150007791Y-90986000D01*
X146238802Y-90986000D01*
X147084802Y-90140000D01*
X153327537Y-90140000D01*
X153359673Y-90172192D01*
X153703201Y-90314838D01*
X154075167Y-90315162D01*
X154418943Y-90173117D01*
X154682192Y-89910327D01*
X154824838Y-89566799D01*
X154825162Y-89194833D01*
X154683117Y-88851057D01*
X154497384Y-88665000D01*
X157073177Y-88665000D01*
X157053162Y-88713201D01*
X157052838Y-89085167D01*
X157194883Y-89428943D01*
X157457673Y-89692192D01*
X157801201Y-89834838D01*
X158173167Y-89835162D01*
X158516943Y-89693117D01*
X158550118Y-89660000D01*
X158750000Y-89660000D01*
X159040839Y-89602148D01*
X159287401Y-89437401D01*
X163605401Y-85119401D01*
X163770148Y-84872839D01*
X163828000Y-84582000D01*
X163828000Y-84390498D01*
X163893853Y-84489054D01*
X164223026Y-84709000D01*
X163893853Y-84928946D01*
X163571946Y-85410715D01*
X163458907Y-85979000D01*
X163571946Y-86547285D01*
X163893853Y-87029054D01*
X164223026Y-87249000D01*
X163893853Y-87468946D01*
X163571946Y-87950715D01*
X163458907Y-88519000D01*
X163571946Y-89087285D01*
X163893853Y-89569054D01*
X164223026Y-89789000D01*
X163893853Y-90008946D01*
X163571946Y-90490715D01*
X163458907Y-91059000D01*
X163571946Y-91627285D01*
X163893853Y-92109054D01*
X164223026Y-92329000D01*
X163893853Y-92548946D01*
X163571946Y-93030715D01*
X163458907Y-93599000D01*
X163571946Y-94167285D01*
X163893853Y-94649054D01*
X164223026Y-94869000D01*
X163893853Y-95088946D01*
X163571946Y-95570715D01*
X163458907Y-96139000D01*
X163571946Y-96707285D01*
X163893853Y-97189054D01*
X164223026Y-97409000D01*
X163893853Y-97628946D01*
X163571946Y-98110715D01*
X163458907Y-98679000D01*
X163571946Y-99247285D01*
X163893853Y-99729054D01*
X164223026Y-99949000D01*
X163893853Y-100168946D01*
X163571946Y-100650715D01*
X163458907Y-101219000D01*
X163571946Y-101787285D01*
X163893853Y-102269054D01*
X164223026Y-102489000D01*
X163893853Y-102708946D01*
X163571946Y-103190715D01*
X163458907Y-103759000D01*
X163571946Y-104327285D01*
X163893853Y-104809054D01*
X164223026Y-105029000D01*
X163893853Y-105248946D01*
X163571946Y-105730715D01*
X163458907Y-106299000D01*
X163571946Y-106867285D01*
X163893853Y-107349054D01*
X164223026Y-107569000D01*
X163893853Y-107788946D01*
X163571946Y-108270715D01*
X163458907Y-108839000D01*
X163571946Y-109407285D01*
X163893853Y-109889054D01*
X164223026Y-110109000D01*
X163893853Y-110328946D01*
X163571946Y-110810715D01*
X163458907Y-111379000D01*
X163571946Y-111947285D01*
X163893853Y-112429054D01*
X164223026Y-112649000D01*
X163893853Y-112868946D01*
X163571946Y-113350715D01*
X163458907Y-113919000D01*
X163571946Y-114487285D01*
X163893853Y-114969054D01*
X164223026Y-115189000D01*
X163893853Y-115408946D01*
X163571946Y-115890715D01*
X163458907Y-116459000D01*
X163571946Y-117027285D01*
X163893853Y-117509054D01*
X164223026Y-117729000D01*
X163893853Y-117948946D01*
X163571946Y-118430715D01*
X163458907Y-118999000D01*
X163571946Y-119567285D01*
X163893853Y-120049054D01*
X164223026Y-120269000D01*
X163893853Y-120488946D01*
X163571946Y-120970715D01*
X163458907Y-121539000D01*
X163571946Y-122107285D01*
X163893853Y-122589054D01*
X164375622Y-122910961D01*
X164943907Y-123024000D01*
X165002093Y-123024000D01*
X165570378Y-122910961D01*
X166052147Y-122589054D01*
X166056097Y-122583142D01*
X166124673Y-122748699D01*
X166303302Y-122927327D01*
X166536691Y-123024000D01*
X167227250Y-123024000D01*
X167386000Y-122865250D01*
X167386000Y-121666000D01*
X167640000Y-121666000D01*
X167640000Y-122865250D01*
X167798750Y-123024000D01*
X168489309Y-123024000D01*
X168722698Y-122927327D01*
X168901327Y-122748699D01*
X168998000Y-122515310D01*
X168998000Y-121824750D01*
X168839250Y-121666000D01*
X167640000Y-121666000D01*
X167386000Y-121666000D01*
X167366000Y-121666000D01*
X167366000Y-121412000D01*
X167386000Y-121412000D01*
X167386000Y-119126000D01*
X167640000Y-119126000D01*
X167640000Y-121412000D01*
X168839250Y-121412000D01*
X168998000Y-121253250D01*
X168998000Y-120562690D01*
X168901327Y-120329301D01*
X168722698Y-120150673D01*
X168513122Y-120063864D01*
X168784645Y-119765924D01*
X168954476Y-119355890D01*
X168833155Y-119126000D01*
X167640000Y-119126000D01*
X167386000Y-119126000D01*
X167366000Y-119126000D01*
X167366000Y-118872000D01*
X167386000Y-118872000D01*
X167386000Y-116586000D01*
X167640000Y-116586000D01*
X167640000Y-118872000D01*
X168833155Y-118872000D01*
X168954476Y-118642110D01*
X168784645Y-118232076D01*
X168394358Y-117803817D01*
X168235046Y-117729000D01*
X168394358Y-117654183D01*
X168784645Y-117225924D01*
X168954476Y-116815890D01*
X168833155Y-116586000D01*
X167640000Y-116586000D01*
X167386000Y-116586000D01*
X167366000Y-116586000D01*
X167366000Y-116332000D01*
X167386000Y-116332000D01*
X167386000Y-114046000D01*
X167640000Y-114046000D01*
X167640000Y-116332000D01*
X168833155Y-116332000D01*
X168954476Y-116102110D01*
X168784645Y-115692076D01*
X168394358Y-115263817D01*
X168235046Y-115189000D01*
X168394358Y-115114183D01*
X168784645Y-114685924D01*
X168954476Y-114275890D01*
X168833155Y-114046000D01*
X167640000Y-114046000D01*
X167386000Y-114046000D01*
X167366000Y-114046000D01*
X167366000Y-113792000D01*
X167386000Y-113792000D01*
X167386000Y-111506000D01*
X167640000Y-111506000D01*
X167640000Y-113792000D01*
X168833155Y-113792000D01*
X168954476Y-113562110D01*
X168784645Y-113152076D01*
X168394358Y-112723817D01*
X168235046Y-112649000D01*
X168394358Y-112574183D01*
X168784645Y-112145924D01*
X168954476Y-111735890D01*
X168833155Y-111506000D01*
X167640000Y-111506000D01*
X167386000Y-111506000D01*
X167366000Y-111506000D01*
X167366000Y-111252000D01*
X167386000Y-111252000D01*
X167386000Y-108966000D01*
X167640000Y-108966000D01*
X167640000Y-111252000D01*
X168833155Y-111252000D01*
X168954476Y-111022110D01*
X168784645Y-110612076D01*
X168394358Y-110183817D01*
X168235046Y-110109000D01*
X168394358Y-110034183D01*
X168784645Y-109605924D01*
X168954476Y-109195890D01*
X168833155Y-108966000D01*
X167640000Y-108966000D01*
X167386000Y-108966000D01*
X167366000Y-108966000D01*
X167366000Y-108712000D01*
X167386000Y-108712000D01*
X167386000Y-106426000D01*
X167640000Y-106426000D01*
X167640000Y-108712000D01*
X168833155Y-108712000D01*
X168954476Y-108482110D01*
X168784645Y-108072076D01*
X168394358Y-107643817D01*
X168235046Y-107569000D01*
X168394358Y-107494183D01*
X168784645Y-107065924D01*
X168954476Y-106655890D01*
X168833155Y-106426000D01*
X167640000Y-106426000D01*
X167386000Y-106426000D01*
X167366000Y-106426000D01*
X167366000Y-106172000D01*
X167386000Y-106172000D01*
X167386000Y-103886000D01*
X167640000Y-103886000D01*
X167640000Y-106172000D01*
X168833155Y-106172000D01*
X168954476Y-105942110D01*
X168784645Y-105532076D01*
X168394358Y-105103817D01*
X168235046Y-105029000D01*
X168394358Y-104954183D01*
X168784645Y-104525924D01*
X168954476Y-104115890D01*
X168833155Y-103886000D01*
X167640000Y-103886000D01*
X167386000Y-103886000D01*
X167366000Y-103886000D01*
X167366000Y-103632000D01*
X167386000Y-103632000D01*
X167386000Y-101346000D01*
X167640000Y-101346000D01*
X167640000Y-103632000D01*
X168833155Y-103632000D01*
X168954476Y-103402110D01*
X168784645Y-102992076D01*
X168394358Y-102563817D01*
X168235046Y-102489000D01*
X168394358Y-102414183D01*
X168784645Y-101985924D01*
X168954476Y-101575890D01*
X168833155Y-101346000D01*
X167640000Y-101346000D01*
X167386000Y-101346000D01*
X167366000Y-101346000D01*
X167366000Y-101092000D01*
X167386000Y-101092000D01*
X167386000Y-98806000D01*
X167640000Y-98806000D01*
X167640000Y-101092000D01*
X168833155Y-101092000D01*
X168954476Y-100862110D01*
X168784645Y-100452076D01*
X168394358Y-100023817D01*
X168235046Y-99949000D01*
X168394358Y-99874183D01*
X168784645Y-99445924D01*
X168954476Y-99035890D01*
X168833155Y-98806000D01*
X167640000Y-98806000D01*
X167386000Y-98806000D01*
X167366000Y-98806000D01*
X167366000Y-98552000D01*
X167386000Y-98552000D01*
X167386000Y-96266000D01*
X167640000Y-96266000D01*
X167640000Y-98552000D01*
X168833155Y-98552000D01*
X168954476Y-98322110D01*
X168784645Y-97912076D01*
X168394358Y-97483817D01*
X168235046Y-97409000D01*
X168394358Y-97334183D01*
X168784645Y-96905924D01*
X168954476Y-96495890D01*
X168833155Y-96266000D01*
X167640000Y-96266000D01*
X167386000Y-96266000D01*
X167366000Y-96266000D01*
X167366000Y-96012000D01*
X167386000Y-96012000D01*
X167386000Y-93726000D01*
X167640000Y-93726000D01*
X167640000Y-96012000D01*
X168833155Y-96012000D01*
X168954476Y-95782110D01*
X168784645Y-95372076D01*
X168394358Y-94943817D01*
X168235046Y-94869000D01*
X168394358Y-94794183D01*
X168784645Y-94365924D01*
X168954476Y-93955890D01*
X168833155Y-93726000D01*
X167640000Y-93726000D01*
X167386000Y-93726000D01*
X167366000Y-93726000D01*
X167366000Y-93472000D01*
X167386000Y-93472000D01*
X167386000Y-91186000D01*
X167640000Y-91186000D01*
X167640000Y-93472000D01*
X168833155Y-93472000D01*
X168954476Y-93242110D01*
X168784645Y-92832076D01*
X168394358Y-92403817D01*
X168235046Y-92329000D01*
X168394358Y-92254183D01*
X168784645Y-91825924D01*
X168954476Y-91415890D01*
X168833155Y-91186000D01*
X167640000Y-91186000D01*
X167386000Y-91186000D01*
X167366000Y-91186000D01*
X167366000Y-90932000D01*
X167386000Y-90932000D01*
X167386000Y-88646000D01*
X167640000Y-88646000D01*
X167640000Y-90932000D01*
X168833155Y-90932000D01*
X168954476Y-90702110D01*
X168784645Y-90292076D01*
X168394358Y-89863817D01*
X168235046Y-89789000D01*
X168394358Y-89714183D01*
X168784645Y-89285924D01*
X168954476Y-88875890D01*
X168833155Y-88646000D01*
X167640000Y-88646000D01*
X167386000Y-88646000D01*
X167366000Y-88646000D01*
X167366000Y-88392000D01*
X167386000Y-88392000D01*
X167386000Y-86106000D01*
X167640000Y-86106000D01*
X167640000Y-88392000D01*
X168833155Y-88392000D01*
X168954476Y-88162110D01*
X168784645Y-87752076D01*
X168394358Y-87323817D01*
X168235046Y-87249000D01*
X168394358Y-87174183D01*
X168784645Y-86745924D01*
X168954476Y-86335890D01*
X168833155Y-86106000D01*
X167640000Y-86106000D01*
X167386000Y-86106000D01*
X167366000Y-86106000D01*
X167366000Y-85852000D01*
X167386000Y-85852000D01*
X167386000Y-83566000D01*
X167640000Y-83566000D01*
X167640000Y-85852000D01*
X168833155Y-85852000D01*
X168954476Y-85622110D01*
X168784645Y-85212076D01*
X168394358Y-84783817D01*
X168235046Y-84709000D01*
X168394358Y-84634183D01*
X168784645Y-84205924D01*
X168954476Y-83795890D01*
X168833155Y-83566000D01*
X167640000Y-83566000D01*
X167386000Y-83566000D01*
X167366000Y-83566000D01*
X167366000Y-83312000D01*
X167386000Y-83312000D01*
X167386000Y-82118181D01*
X167640000Y-82118181D01*
X167640000Y-83312000D01*
X168833155Y-83312000D01*
X168954476Y-83082110D01*
X168784645Y-82672076D01*
X168394358Y-82243817D01*
X167869892Y-81997514D01*
X167640000Y-82118181D01*
X167386000Y-82118181D01*
X167156108Y-81997514D01*
X166631642Y-82243817D01*
X166241355Y-82672076D01*
X166241345Y-82672101D01*
X166052147Y-82388946D01*
X166051223Y-82388329D01*
X166145401Y-82325401D01*
X166653401Y-81817401D01*
X166727060Y-81707162D01*
X166818148Y-81570839D01*
X166876000Y-81280000D01*
X166876000Y-80109582D01*
X167029108Y-80181486D01*
X167259000Y-80060819D01*
X167259000Y-78867000D01*
X167513000Y-78867000D01*
X167513000Y-80060819D01*
X167742892Y-80181486D01*
X168267358Y-79935183D01*
X168657645Y-79506924D01*
X168827476Y-79096890D01*
X168706155Y-78867000D01*
X167513000Y-78867000D01*
X167259000Y-78867000D01*
X167239000Y-78867000D01*
X167239000Y-78613000D01*
X167259000Y-78613000D01*
X167259000Y-78593000D01*
X167513000Y-78593000D01*
X167513000Y-78613000D01*
X168706155Y-78613000D01*
X168827476Y-78383110D01*
X168657645Y-77973076D01*
X168267358Y-77544817D01*
X168124447Y-77477702D01*
X168465147Y-77250054D01*
X168787054Y-76768285D01*
X168900093Y-76200000D01*
X168787054Y-75631715D01*
X168465147Y-75149946D01*
X168135974Y-74930000D01*
X168465147Y-74710054D01*
X168787054Y-74228285D01*
X168900093Y-73660000D01*
X168844807Y-73382061D01*
X168992434Y-73234434D01*
X169017737Y-73196566D01*
X169173439Y-72963541D01*
X169237000Y-72644000D01*
X169237000Y-69850000D01*
X169173439Y-69530459D01*
X168992434Y-69259566D01*
X168044782Y-68311914D01*
X168066838Y-68258799D01*
X168067162Y-67886833D01*
X167925117Y-67543057D01*
X167662327Y-67279808D01*
X167318799Y-67137162D01*
X166946833Y-67136838D01*
X166704422Y-67237000D01*
X163676440Y-67237000D01*
X163676440Y-65825000D01*
X163632162Y-65589683D01*
X163493090Y-65373559D01*
X163280890Y-65228569D01*
X163029000Y-65177560D01*
X161329000Y-65177560D01*
X161093683Y-65221838D01*
X160877559Y-65360910D01*
X160732569Y-65573110D01*
X160718914Y-65640541D01*
X160689054Y-65595853D01*
X160207285Y-65273946D01*
X160174241Y-65267373D01*
X159452300Y-64545432D01*
X159893000Y-64633093D01*
X160461285Y-64520054D01*
X160943054Y-64198147D01*
X161163000Y-63868974D01*
X161382946Y-64198147D01*
X161864715Y-64520054D01*
X162433000Y-64633093D01*
X163001285Y-64520054D01*
X163483054Y-64198147D01*
X163804961Y-63716378D01*
X163918000Y-63148093D01*
X163918000Y-63089907D01*
X163804961Y-62521622D01*
X163483054Y-62039853D01*
X163199899Y-61850655D01*
X163199924Y-61850645D01*
X163628183Y-61460358D01*
X163874486Y-60935892D01*
X163753819Y-60706000D01*
X162560000Y-60706000D01*
X162560000Y-60726000D01*
X162306000Y-60726000D01*
X162306000Y-60706000D01*
X160020000Y-60706000D01*
X160020000Y-60726000D01*
X159766000Y-60726000D01*
X159766000Y-60706000D01*
X159746000Y-60706000D01*
X159746000Y-60452000D01*
X159766000Y-60452000D01*
X159766000Y-59258845D01*
X160020000Y-59258845D01*
X160020000Y-60452000D01*
X162306000Y-60452000D01*
X162306000Y-59258845D01*
X162560000Y-59258845D01*
X162560000Y-60452000D01*
X163753819Y-60452000D01*
X163874486Y-60222108D01*
X163628183Y-59697642D01*
X163199924Y-59307355D01*
X162789890Y-59137524D01*
X162560000Y-59258845D01*
X162306000Y-59258845D01*
X162076110Y-59137524D01*
X161666076Y-59307355D01*
X161237817Y-59697642D01*
X161163000Y-59856954D01*
X161088183Y-59697642D01*
X160659924Y-59307355D01*
X160249890Y-59137524D01*
X160020000Y-59258845D01*
X159766000Y-59258845D01*
X159536110Y-59137524D01*
X159126076Y-59307355D01*
X158697817Y-59697642D01*
X158630702Y-59840553D01*
X158403054Y-59499853D01*
X157921285Y-59177946D01*
X157353000Y-59064907D01*
X156784715Y-59177946D01*
X156302946Y-59499853D01*
X156083000Y-59829026D01*
X155863054Y-59499853D01*
X155381285Y-59177946D01*
X154813000Y-59064907D01*
X154244715Y-59177946D01*
X153762946Y-59499853D01*
X153543000Y-59829026D01*
X153323054Y-59499853D01*
X152841285Y-59177946D01*
X152273000Y-59064907D01*
X151704715Y-59177946D01*
X151222946Y-59499853D01*
X151003000Y-59829026D01*
X150783054Y-59499853D01*
X150301285Y-59177946D01*
X149733000Y-59064907D01*
X149164715Y-59177946D01*
X148682946Y-59499853D01*
X148463000Y-59829026D01*
X148243054Y-59499853D01*
X147761285Y-59177946D01*
X147193000Y-59064907D01*
X147126919Y-59078051D01*
X146434535Y-58385667D01*
X146335117Y-58145057D01*
X146072327Y-57881808D01*
X145728799Y-57739162D01*
X145356833Y-57738838D01*
X145013057Y-57880883D01*
X144749808Y-58143673D01*
X144607162Y-58487201D01*
X144606838Y-58859167D01*
X144695327Y-59073326D01*
X144653000Y-59064907D01*
X144375061Y-59120193D01*
X143338434Y-58083566D01*
X143271736Y-58039000D01*
X143067541Y-57902561D01*
X142748000Y-57839000D01*
X134620000Y-57839000D01*
X134300459Y-57902561D01*
X134096264Y-58039000D01*
X134029566Y-58083566D01*
X126663566Y-65449566D01*
X126482561Y-65720459D01*
X126419000Y-66040000D01*
X126419000Y-66627868D01*
X126106859Y-66315182D01*
X125276514Y-65970393D01*
X125053243Y-65970198D01*
X125388461Y-65635564D01*
X125599759Y-65126702D01*
X125600240Y-64575715D01*
X125389831Y-64066485D01*
X125000564Y-63676539D01*
X124826558Y-63604285D01*
X125369760Y-63604285D01*
X125580169Y-64113515D01*
X125969436Y-64503461D01*
X126478298Y-64714759D01*
X127029285Y-64715240D01*
X127538515Y-64504831D01*
X127928461Y-64115564D01*
X128139759Y-63606702D01*
X128140240Y-63055715D01*
X127929831Y-62546485D01*
X127540564Y-62156539D01*
X127031702Y-61945241D01*
X126480715Y-61944760D01*
X125971485Y-62155169D01*
X125581539Y-62544436D01*
X125370241Y-63053298D01*
X125369760Y-63604285D01*
X124826558Y-63604285D01*
X124491702Y-63465241D01*
X123940715Y-63464760D01*
X123431485Y-63675169D01*
X123041539Y-64064436D01*
X122830241Y-64573298D01*
X122829760Y-65124285D01*
X123040169Y-65633515D01*
X123429436Y-66023461D01*
X123837258Y-66192803D01*
X123546485Y-66312948D01*
X122910182Y-66948141D01*
X122565393Y-67778486D01*
X122564609Y-68677570D01*
X122861070Y-69395062D01*
X122416695Y-69394674D01*
X121723628Y-69681043D01*
X121192907Y-70210839D01*
X120905328Y-70903405D01*
X120904674Y-71653305D01*
X121191043Y-72346372D01*
X121720839Y-72877093D01*
X122413405Y-73164672D01*
X123163305Y-73165326D01*
X123856372Y-72878957D01*
X124275016Y-72461042D01*
X124196561Y-72578459D01*
X124133000Y-72898000D01*
X124133000Y-75983000D01*
X124196561Y-76302541D01*
X124358006Y-76544161D01*
X124377566Y-76573434D01*
X124760134Y-76956002D01*
X124759769Y-77374383D01*
X124962582Y-77865229D01*
X125337796Y-78241098D01*
X125828287Y-78444768D01*
X126359383Y-78445231D01*
X126850229Y-78242418D01*
X127047716Y-78045275D01*
X127879331Y-78045275D01*
X127941169Y-78281042D01*
X128442122Y-78457419D01*
X128972440Y-78428664D01*
X129328831Y-78281042D01*
X129390669Y-78045275D01*
X128635000Y-77289605D01*
X127879331Y-78045275D01*
X127047716Y-78045275D01*
X127226098Y-77867204D01*
X127358316Y-77548788D01*
X127463958Y-77803831D01*
X127699725Y-77865669D01*
X128455395Y-77110000D01*
X127699725Y-76354331D01*
X127463958Y-76416169D01*
X127366804Y-76692111D01*
X127227418Y-76354771D01*
X127047686Y-76174725D01*
X127879331Y-76174725D01*
X128635000Y-76930395D01*
X129390669Y-76174725D01*
X129328831Y-75938958D01*
X128827878Y-75762581D01*
X128297560Y-75791336D01*
X127941169Y-75938958D01*
X127879331Y-76174725D01*
X127047686Y-76174725D01*
X126852204Y-75978902D01*
X126361713Y-75775232D01*
X125940733Y-75774865D01*
X125803000Y-75637132D01*
X125803000Y-73243868D01*
X127181000Y-71865868D01*
X127181000Y-73234839D01*
X127100617Y-73234769D01*
X126609771Y-73437582D01*
X126233902Y-73812796D01*
X126030232Y-74303287D01*
X126029769Y-74834383D01*
X126232582Y-75325229D01*
X126607796Y-75701098D01*
X127098287Y-75904768D01*
X127629383Y-75905231D01*
X128120229Y-75702418D01*
X128317716Y-75505275D01*
X129149331Y-75505275D01*
X129211169Y-75741042D01*
X129712122Y-75917419D01*
X130242440Y-75888664D01*
X130598831Y-75741042D01*
X130660669Y-75505275D01*
X129905000Y-74749605D01*
X129149331Y-75505275D01*
X128317716Y-75505275D01*
X128496098Y-75327204D01*
X128628316Y-75008788D01*
X128733958Y-75263831D01*
X128969725Y-75325669D01*
X129725395Y-74570000D01*
X130084605Y-74570000D01*
X130840275Y-75325669D01*
X131076042Y-75263831D01*
X131173196Y-74987889D01*
X131312582Y-75325229D01*
X131687796Y-75701098D01*
X132178287Y-75904768D01*
X132709383Y-75905231D01*
X133200229Y-75702418D01*
X133576098Y-75327204D01*
X133715091Y-74992473D01*
X133852582Y-75325229D01*
X134227796Y-75701098D01*
X134718287Y-75904768D01*
X135249383Y-75905231D01*
X135740229Y-75702418D01*
X136116098Y-75327204D01*
X136319768Y-74836713D01*
X136320231Y-74305617D01*
X136117418Y-73814771D01*
X135742204Y-73438902D01*
X135251713Y-73235232D01*
X134720617Y-73234769D01*
X134229771Y-73437582D01*
X133853902Y-73812796D01*
X133714909Y-74147527D01*
X133577418Y-73814771D01*
X133202204Y-73438902D01*
X132711713Y-73235232D01*
X132180617Y-73234769D01*
X131689771Y-73437582D01*
X131313902Y-73812796D01*
X131181684Y-74131212D01*
X131076042Y-73876169D01*
X130840275Y-73814331D01*
X130084605Y-74570000D01*
X129725395Y-74570000D01*
X128969725Y-73814331D01*
X128851000Y-73845471D01*
X128851000Y-73634725D01*
X129149331Y-73634725D01*
X129905000Y-74390395D01*
X130660669Y-73634725D01*
X130598831Y-73398958D01*
X130097878Y-73222581D01*
X129567560Y-73251336D01*
X129211169Y-73398958D01*
X129149331Y-73634725D01*
X128851000Y-73634725D01*
X128851000Y-68677570D01*
X133994609Y-68677570D01*
X134337948Y-69508515D01*
X134973141Y-70144818D01*
X135803486Y-70489607D01*
X136576872Y-70490281D01*
X136405328Y-70903405D01*
X136404674Y-71653305D01*
X136691043Y-72346372D01*
X137220839Y-72877093D01*
X137913405Y-73164672D01*
X138663305Y-73165326D01*
X139356372Y-72878957D01*
X139887093Y-72349161D01*
X140174672Y-71656595D01*
X140175326Y-70906695D01*
X139888957Y-70213628D01*
X139359161Y-69682907D01*
X138666595Y-69395328D01*
X138218368Y-69394937D01*
X138514607Y-68681514D01*
X138515391Y-67782430D01*
X138172052Y-66951485D01*
X137536859Y-66315182D01*
X136706514Y-65970393D01*
X135807430Y-65969609D01*
X134976485Y-66312948D01*
X134340182Y-66948141D01*
X133995393Y-67778486D01*
X133994609Y-68677570D01*
X128851000Y-68677570D01*
X128851000Y-67401868D01*
X131128583Y-65124285D01*
X132939760Y-65124285D01*
X133150169Y-65633515D01*
X133539436Y-66023461D01*
X134048298Y-66234759D01*
X134599285Y-66235240D01*
X135108515Y-66024831D01*
X135498461Y-65635564D01*
X135709759Y-65126702D01*
X135710240Y-64575715D01*
X135499831Y-64066485D01*
X135110564Y-63676539D01*
X134936558Y-63604285D01*
X135479760Y-63604285D01*
X135690169Y-64113515D01*
X136079436Y-64503461D01*
X136588298Y-64714759D01*
X137139285Y-64715240D01*
X137648515Y-64504831D01*
X138038461Y-64115564D01*
X138249759Y-63606702D01*
X138250240Y-63055715D01*
X138039831Y-62546485D01*
X137650564Y-62156539D01*
X137141702Y-61945241D01*
X136590715Y-61944760D01*
X136081485Y-62155169D01*
X135691539Y-62544436D01*
X135480241Y-63053298D01*
X135479760Y-63604285D01*
X134936558Y-63604285D01*
X134601702Y-63465241D01*
X134050715Y-63464760D01*
X133541485Y-63675169D01*
X133151539Y-64064436D01*
X132940241Y-64573298D01*
X132939760Y-65124285D01*
X131128583Y-65124285D01*
X135727868Y-60525000D01*
X142066766Y-60525000D01*
X142307201Y-60624838D01*
X142679167Y-60625162D01*
X143022943Y-60483117D01*
X143199750Y-60306618D01*
X143213632Y-60320500D01*
X143168000Y-60549907D01*
X143168000Y-60608093D01*
X143281039Y-61176378D01*
X143602946Y-61658147D01*
X143604179Y-61658971D01*
X143567683Y-61665838D01*
X143351559Y-61804910D01*
X143206569Y-62017110D01*
X143155560Y-62269000D01*
X143155560Y-63969000D01*
X143199838Y-64204317D01*
X143338910Y-64420441D01*
X143551110Y-64565431D01*
X143803000Y-64616440D01*
X145503000Y-64616440D01*
X145738317Y-64572162D01*
X145954441Y-64433090D01*
X146099431Y-64220890D01*
X146113086Y-64153459D01*
X146142946Y-64198147D01*
X146624715Y-64520054D01*
X147193000Y-64633093D01*
X147761285Y-64520054D01*
X148243054Y-64198147D01*
X148463000Y-63868974D01*
X148682946Y-64198147D01*
X149163174Y-64519024D01*
X148179599Y-65502599D01*
X148014852Y-65749161D01*
X147957000Y-66040000D01*
X147957000Y-78685537D01*
X147924808Y-78717673D01*
X147782162Y-79061201D01*
X147781838Y-79433167D01*
X147857382Y-79615998D01*
X145714800Y-79615998D01*
X144651000Y-78552198D01*
X144651000Y-77130547D01*
X144674515Y-77120831D01*
X145064461Y-76731564D01*
X145275759Y-76222702D01*
X145276240Y-75671715D01*
X145065831Y-75162485D01*
X144676564Y-74772539D01*
X144167702Y-74561241D01*
X143616715Y-74560760D01*
X143107485Y-74771169D01*
X142717539Y-75160436D01*
X142506241Y-75669298D01*
X142505760Y-76220285D01*
X142716169Y-76729515D01*
X143105436Y-77119461D01*
X143131000Y-77130076D01*
X143131000Y-78867000D01*
X143188852Y-79157839D01*
X143353599Y-79404401D01*
X143456258Y-79507060D01*
X143107485Y-79651169D01*
X142717539Y-80040436D01*
X142506241Y-80549298D01*
X142505760Y-81100285D01*
X142716169Y-81609515D01*
X143105436Y-81999461D01*
X143614298Y-82210759D01*
X144165285Y-82211240D01*
X144674515Y-82000831D01*
X145064461Y-81611564D01*
X145075076Y-81586000D01*
X149268209Y-81586000D01*
X149157852Y-81751161D01*
X149100000Y-82042000D01*
X149100000Y-82804000D01*
X149157852Y-83094839D01*
X149322599Y-83341401D01*
X151862599Y-85881401D01*
X152109160Y-86046148D01*
X152157414Y-86055746D01*
X152400000Y-86104000D01*
X157425537Y-86104000D01*
X157457673Y-86136192D01*
X157801201Y-86278838D01*
X158173167Y-86279162D01*
X158516943Y-86137117D01*
X158780192Y-85874327D01*
X158922838Y-85530799D01*
X158923162Y-85158833D01*
X158781117Y-84815057D01*
X158518327Y-84551808D01*
X158280372Y-84453000D01*
X159639000Y-84453000D01*
X159929839Y-84395148D01*
X160176401Y-84230401D01*
X160557401Y-83849401D01*
X160722148Y-83602840D01*
X160780000Y-83312000D01*
X160780000Y-82588633D01*
X161103201Y-82722838D01*
X161325000Y-82723031D01*
X161325000Y-84014132D01*
X158344132Y-86995000D01*
X142727437Y-86995000D01*
X142680327Y-86947808D01*
X142336799Y-86805162D01*
X141964833Y-86804838D01*
X141621057Y-86946883D01*
X141357808Y-87209673D01*
X141215162Y-87553201D01*
X141214838Y-87925167D01*
X141356883Y-88268943D01*
X141619673Y-88532192D01*
X141963201Y-88674838D01*
X142335167Y-88675162D01*
X142359761Y-88665000D01*
X146543772Y-88665000D01*
X146479161Y-88677852D01*
X146232599Y-88842599D01*
X145100320Y-89974878D01*
X145054833Y-89974838D01*
X144711057Y-90116883D01*
X144447808Y-90379673D01*
X144305162Y-90723201D01*
X144304933Y-90986000D01*
X144064234Y-90986000D01*
X143823799Y-90886162D01*
X143451833Y-90885838D01*
X143108057Y-91027883D01*
X142844808Y-91290673D01*
X142702162Y-91634201D01*
X142701838Y-92006167D01*
X142831560Y-92320119D01*
X142717808Y-92433673D01*
X142575162Y-92777201D01*
X142574838Y-93149167D01*
X142716883Y-93492943D01*
X142759210Y-93535344D01*
X142717808Y-93576673D01*
X142575162Y-93920201D01*
X142574838Y-94292167D01*
X142716883Y-94635943D01*
X142886209Y-94805565D01*
X142717808Y-94973673D01*
X142575162Y-95317201D01*
X142574838Y-95689167D01*
X142716883Y-96032943D01*
X142979673Y-96296192D01*
X143217628Y-96395000D01*
X141284802Y-96395000D01*
X140968000Y-96078198D01*
X140968000Y-92383463D01*
X141000192Y-92351327D01*
X141142838Y-92007799D01*
X141143162Y-91635833D01*
X141001117Y-91292057D01*
X140738327Y-91028808D01*
X140394799Y-90886162D01*
X140022833Y-90885838D01*
X139975000Y-90905602D01*
X139975000Y-89800000D01*
X139911439Y-89480459D01*
X139730434Y-89209566D01*
X138860434Y-88339566D01*
X138846767Y-88330434D01*
X138589541Y-88158561D01*
X138270000Y-88095000D01*
X135035868Y-88095000D01*
X132010000Y-85069132D01*
X132010000Y-78162786D01*
X132306098Y-77867204D01*
X132445091Y-77532473D01*
X132582582Y-77865229D01*
X132957796Y-78241098D01*
X133448287Y-78444768D01*
X133979383Y-78445231D01*
X134470229Y-78242418D01*
X134846098Y-77867204D01*
X135049768Y-77376713D01*
X135050231Y-76845617D01*
X134847418Y-76354771D01*
X134472204Y-75978902D01*
X133981713Y-75775232D01*
X133450617Y-75774769D01*
X132959771Y-75977582D01*
X132583902Y-76352796D01*
X132444909Y-76687527D01*
X132307418Y-76354771D01*
X131932204Y-75978902D01*
X131441713Y-75775232D01*
X130910617Y-75774769D01*
X130419771Y-75977582D01*
X130043902Y-76352796D01*
X129911684Y-76671212D01*
X129806042Y-76416169D01*
X129570275Y-76354331D01*
X128814605Y-77110000D01*
X129570275Y-77865669D01*
X129806042Y-77803831D01*
X129903196Y-77527889D01*
X130042582Y-77865229D01*
X130340000Y-78163166D01*
X130340000Y-85415000D01*
X130403561Y-85734541D01*
X130496963Y-85874327D01*
X130584566Y-86005434D01*
X134099566Y-89520434D01*
X134370460Y-89701440D01*
X134690000Y-89765000D01*
X137924132Y-89765000D01*
X138305000Y-90145868D01*
X138305000Y-97741995D01*
X138257162Y-97857201D01*
X138256838Y-98229167D01*
X138305000Y-98345728D01*
X138305000Y-99897000D01*
X138368561Y-100216541D01*
X138537917Y-100470000D01*
X138549566Y-100487434D01*
X138865000Y-100802868D01*
X138865000Y-110316766D01*
X138765162Y-110557201D01*
X138764838Y-110929167D01*
X138865000Y-111171578D01*
X138865000Y-116754856D01*
X138844833Y-116754838D01*
X138501057Y-116896883D01*
X138237808Y-117159673D01*
X138095162Y-117503201D01*
X138094838Y-117875167D01*
X138236883Y-118218943D01*
X138310000Y-118292188D01*
X138310000Y-121259864D01*
X138305000Y-121285000D01*
X138310000Y-121310136D01*
X138310000Y-122290000D01*
X138367852Y-122580839D01*
X138532599Y-122827401D01*
X139074198Y-123369000D01*
X119963000Y-123369000D01*
X119963000Y-121895890D01*
X120351524Y-121895890D01*
X120521355Y-122305924D01*
X120911642Y-122734183D01*
X121436108Y-122980486D01*
X121666000Y-122859819D01*
X121666000Y-121666000D01*
X120472845Y-121666000D01*
X120351524Y-121895890D01*
X119963000Y-121895890D01*
X119963000Y-119355890D01*
X120351524Y-119355890D01*
X120521355Y-119765924D01*
X120911642Y-120194183D01*
X121070954Y-120269000D01*
X120911642Y-120343817D01*
X120521355Y-120772076D01*
X120351524Y-121182110D01*
X120472845Y-121412000D01*
X121666000Y-121412000D01*
X121666000Y-119126000D01*
X120472845Y-119126000D01*
X120351524Y-119355890D01*
X119963000Y-119355890D01*
X119963000Y-116815890D01*
X120351524Y-116815890D01*
X120521355Y-117225924D01*
X120911642Y-117654183D01*
X121070954Y-117729000D01*
X120911642Y-117803817D01*
X120521355Y-118232076D01*
X120351524Y-118642110D01*
X120472845Y-118872000D01*
X121666000Y-118872000D01*
X121666000Y-116586000D01*
X120472845Y-116586000D01*
X120351524Y-116815890D01*
X119963000Y-116815890D01*
X119963000Y-114275890D01*
X120351524Y-114275890D01*
X120521355Y-114685924D01*
X120911642Y-115114183D01*
X121070954Y-115189000D01*
X120911642Y-115263817D01*
X120521355Y-115692076D01*
X120351524Y-116102110D01*
X120472845Y-116332000D01*
X121666000Y-116332000D01*
X121666000Y-114046000D01*
X120472845Y-114046000D01*
X120351524Y-114275890D01*
X119963000Y-114275890D01*
X119963000Y-111735890D01*
X120351524Y-111735890D01*
X120521355Y-112145924D01*
X120911642Y-112574183D01*
X121070954Y-112649000D01*
X120911642Y-112723817D01*
X120521355Y-113152076D01*
X120351524Y-113562110D01*
X120472845Y-113792000D01*
X121666000Y-113792000D01*
X121666000Y-111506000D01*
X120472845Y-111506000D01*
X120351524Y-111735890D01*
X119963000Y-111735890D01*
X119963000Y-109195890D01*
X120351524Y-109195890D01*
X120521355Y-109605924D01*
X120911642Y-110034183D01*
X121070954Y-110109000D01*
X120911642Y-110183817D01*
X120521355Y-110612076D01*
X120351524Y-111022110D01*
X120472845Y-111252000D01*
X121666000Y-111252000D01*
X121666000Y-108966000D01*
X120472845Y-108966000D01*
X120351524Y-109195890D01*
X119963000Y-109195890D01*
X119963000Y-106655890D01*
X120351524Y-106655890D01*
X120521355Y-107065924D01*
X120911642Y-107494183D01*
X121070954Y-107569000D01*
X120911642Y-107643817D01*
X120521355Y-108072076D01*
X120351524Y-108482110D01*
X120472845Y-108712000D01*
X121666000Y-108712000D01*
X121666000Y-106426000D01*
X120472845Y-106426000D01*
X120351524Y-106655890D01*
X119963000Y-106655890D01*
X119963000Y-104115890D01*
X120351524Y-104115890D01*
X120521355Y-104525924D01*
X120911642Y-104954183D01*
X121070954Y-105029000D01*
X120911642Y-105103817D01*
X120521355Y-105532076D01*
X120351524Y-105942110D01*
X120472845Y-106172000D01*
X121666000Y-106172000D01*
X121666000Y-103886000D01*
X120472845Y-103886000D01*
X120351524Y-104115890D01*
X119963000Y-104115890D01*
X119963000Y-101575890D01*
X120351524Y-101575890D01*
X120521355Y-101985924D01*
X120911642Y-102414183D01*
X121070954Y-102489000D01*
X120911642Y-102563817D01*
X120521355Y-102992076D01*
X120351524Y-103402110D01*
X120472845Y-103632000D01*
X121666000Y-103632000D01*
X121666000Y-101346000D01*
X120472845Y-101346000D01*
X120351524Y-101575890D01*
X119963000Y-101575890D01*
X119963000Y-99035890D01*
X120351524Y-99035890D01*
X120521355Y-99445924D01*
X120911642Y-99874183D01*
X121070954Y-99949000D01*
X120911642Y-100023817D01*
X120521355Y-100452076D01*
X120351524Y-100862110D01*
X120472845Y-101092000D01*
X121666000Y-101092000D01*
X121666000Y-98806000D01*
X120472845Y-98806000D01*
X120351524Y-99035890D01*
X119963000Y-99035890D01*
X119963000Y-96495890D01*
X120351524Y-96495890D01*
X120521355Y-96905924D01*
X120911642Y-97334183D01*
X121070954Y-97409000D01*
X120911642Y-97483817D01*
X120521355Y-97912076D01*
X120351524Y-98322110D01*
X120472845Y-98552000D01*
X121666000Y-98552000D01*
X121666000Y-96266000D01*
X120472845Y-96266000D01*
X120351524Y-96495890D01*
X119963000Y-96495890D01*
X119963000Y-93955890D01*
X120351524Y-93955890D01*
X120521355Y-94365924D01*
X120911642Y-94794183D01*
X121070954Y-94869000D01*
X120911642Y-94943817D01*
X120521355Y-95372076D01*
X120351524Y-95782110D01*
X120472845Y-96012000D01*
X121666000Y-96012000D01*
X121666000Y-93726000D01*
X120472845Y-93726000D01*
X120351524Y-93955890D01*
X119963000Y-93955890D01*
X119963000Y-91415890D01*
X120351524Y-91415890D01*
X120521355Y-91825924D01*
X120911642Y-92254183D01*
X121070954Y-92329000D01*
X120911642Y-92403817D01*
X120521355Y-92832076D01*
X120351524Y-93242110D01*
X120472845Y-93472000D01*
X121666000Y-93472000D01*
X121666000Y-91186000D01*
X120472845Y-91186000D01*
X120351524Y-91415890D01*
X119963000Y-91415890D01*
X119963000Y-88875890D01*
X120351524Y-88875890D01*
X120521355Y-89285924D01*
X120911642Y-89714183D01*
X121070954Y-89789000D01*
X120911642Y-89863817D01*
X120521355Y-90292076D01*
X120351524Y-90702110D01*
X120472845Y-90932000D01*
X121666000Y-90932000D01*
X121666000Y-88646000D01*
X120472845Y-88646000D01*
X120351524Y-88875890D01*
X119963000Y-88875890D01*
X119963000Y-88162110D01*
X120351524Y-88162110D01*
X120472845Y-88392000D01*
X121666000Y-88392000D01*
X121666000Y-87198181D01*
X121920000Y-87198181D01*
X121920000Y-88392000D01*
X121940000Y-88392000D01*
X121940000Y-88646000D01*
X121920000Y-88646000D01*
X121920000Y-90932000D01*
X121940000Y-90932000D01*
X121940000Y-91186000D01*
X121920000Y-91186000D01*
X121920000Y-93472000D01*
X121940000Y-93472000D01*
X121940000Y-93726000D01*
X121920000Y-93726000D01*
X121920000Y-96012000D01*
X121940000Y-96012000D01*
X121940000Y-96266000D01*
X121920000Y-96266000D01*
X121920000Y-98552000D01*
X121940000Y-98552000D01*
X121940000Y-98806000D01*
X121920000Y-98806000D01*
X121920000Y-101092000D01*
X121940000Y-101092000D01*
X121940000Y-101346000D01*
X121920000Y-101346000D01*
X121920000Y-103632000D01*
X121940000Y-103632000D01*
X121940000Y-103886000D01*
X121920000Y-103886000D01*
X121920000Y-106172000D01*
X121940000Y-106172000D01*
X121940000Y-106426000D01*
X121920000Y-106426000D01*
X121920000Y-108712000D01*
X121940000Y-108712000D01*
X121940000Y-108966000D01*
X121920000Y-108966000D01*
X121920000Y-111252000D01*
X121940000Y-111252000D01*
X121940000Y-111506000D01*
X121920000Y-111506000D01*
X121920000Y-113792000D01*
X121940000Y-113792000D01*
X121940000Y-114046000D01*
X121920000Y-114046000D01*
X121920000Y-116332000D01*
X121940000Y-116332000D01*
X121940000Y-116586000D01*
X121920000Y-116586000D01*
X121920000Y-118872000D01*
X121940000Y-118872000D01*
X121940000Y-119126000D01*
X121920000Y-119126000D01*
X121920000Y-121412000D01*
X121940000Y-121412000D01*
X121940000Y-121666000D01*
X121920000Y-121666000D01*
X121920000Y-122859819D01*
X122149892Y-122980486D01*
X122674358Y-122734183D01*
X122861808Y-122528496D01*
X122879838Y-122624317D01*
X123018910Y-122840441D01*
X123231110Y-122985431D01*
X123483000Y-123036440D01*
X125183000Y-123036440D01*
X125418317Y-122992162D01*
X125634441Y-122853090D01*
X125779431Y-122640890D01*
X125830440Y-122389000D01*
X125830440Y-120689000D01*
X125786162Y-120453683D01*
X125647090Y-120237559D01*
X125434890Y-120092569D01*
X125367459Y-120078914D01*
X125412147Y-120049054D01*
X125734054Y-119567285D01*
X125847093Y-118999000D01*
X125734054Y-118430715D01*
X125412147Y-117948946D01*
X125082974Y-117729000D01*
X125412147Y-117509054D01*
X125734054Y-117027285D01*
X125847093Y-116459000D01*
X125734054Y-115890715D01*
X125412147Y-115408946D01*
X125082974Y-115189000D01*
X125412147Y-114969054D01*
X125734054Y-114487285D01*
X125847093Y-113919000D01*
X125734054Y-113350715D01*
X125412147Y-112868946D01*
X125082974Y-112649000D01*
X125412147Y-112429054D01*
X125734054Y-111947285D01*
X125847093Y-111379000D01*
X125734054Y-110810715D01*
X125412147Y-110328946D01*
X125082974Y-110109000D01*
X125412147Y-109889054D01*
X125734054Y-109407285D01*
X125847093Y-108839000D01*
X125734054Y-108270715D01*
X125412147Y-107788946D01*
X125082974Y-107569000D01*
X125412147Y-107349054D01*
X125734054Y-106867285D01*
X125847093Y-106299000D01*
X125734054Y-105730715D01*
X125412147Y-105248946D01*
X125082974Y-105029000D01*
X125412147Y-104809054D01*
X125734054Y-104327285D01*
X125847093Y-103759000D01*
X125734054Y-103190715D01*
X125412147Y-102708946D01*
X125082974Y-102489000D01*
X125412147Y-102269054D01*
X125734054Y-101787285D01*
X125847093Y-101219000D01*
X125734054Y-100650715D01*
X125412147Y-100168946D01*
X125082974Y-99949000D01*
X125412147Y-99729054D01*
X125734054Y-99247285D01*
X125847093Y-98679000D01*
X125734054Y-98110715D01*
X125412147Y-97628946D01*
X125082974Y-97409000D01*
X125412147Y-97189054D01*
X125734054Y-96707285D01*
X125847093Y-96139000D01*
X125734054Y-95570715D01*
X125412147Y-95088946D01*
X125082974Y-94869000D01*
X125412147Y-94649054D01*
X125734054Y-94167285D01*
X125847093Y-93599000D01*
X125734054Y-93030715D01*
X125412147Y-92548946D01*
X125082974Y-92329000D01*
X125412147Y-92109054D01*
X125734054Y-91627285D01*
X125847093Y-91059000D01*
X125757616Y-90609167D01*
X128604838Y-90609167D01*
X128746883Y-90952943D01*
X128907000Y-91113340D01*
X128907000Y-107133537D01*
X128874808Y-107165673D01*
X128732162Y-107509201D01*
X128731838Y-107881167D01*
X128873883Y-108224943D01*
X129136673Y-108488192D01*
X129480201Y-108630838D01*
X129852167Y-108631162D01*
X130195943Y-108489117D01*
X130459192Y-108226327D01*
X130601838Y-107882799D01*
X130602162Y-107510833D01*
X130460117Y-107167057D01*
X130427000Y-107133882D01*
X130427000Y-90726005D01*
X130474838Y-90610799D01*
X130475162Y-90238833D01*
X130333117Y-89895057D01*
X130070327Y-89631808D01*
X129726799Y-89489162D01*
X129354833Y-89488838D01*
X129011057Y-89630883D01*
X128747808Y-89893673D01*
X128605162Y-90237201D01*
X128604838Y-90609167D01*
X125757616Y-90609167D01*
X125734054Y-90490715D01*
X125412147Y-90008946D01*
X125082974Y-89789000D01*
X125412147Y-89569054D01*
X125734054Y-89087285D01*
X125847093Y-88519000D01*
X125734054Y-87950715D01*
X125412147Y-87468946D01*
X124930378Y-87147039D01*
X124362093Y-87034000D01*
X124303907Y-87034000D01*
X123735622Y-87147039D01*
X123253853Y-87468946D01*
X123064655Y-87752101D01*
X123064645Y-87752076D01*
X122674358Y-87323817D01*
X122149892Y-87077514D01*
X121920000Y-87198181D01*
X121666000Y-87198181D01*
X121436108Y-87077514D01*
X120911642Y-87323817D01*
X120521355Y-87752076D01*
X120351524Y-88162110D01*
X119963000Y-88162110D01*
X119963000Y-57479000D01*
X152354045Y-57479000D01*
X152353838Y-57716167D01*
X152353838Y-57716167D01*
G37*
X152353838Y-57716167D02*
X152495883Y-58059943D01*
X152758673Y-58323192D01*
X153102201Y-58465838D01*
X153474167Y-58466162D01*
X153817943Y-58324117D01*
X153978340Y-58164000D01*
X165172537Y-58164000D01*
X165204673Y-58196192D01*
X165548201Y-58338838D01*
X165920167Y-58339162D01*
X166263943Y-58197117D01*
X166527192Y-57934327D01*
X166669838Y-57590799D01*
X166669935Y-57479000D01*
X169343000Y-57479000D01*
X169343000Y-123369000D01*
X156592099Y-123369000D01*
X156678943Y-123333117D01*
X156942192Y-123070327D01*
X157084838Y-122726799D01*
X157085162Y-122354833D01*
X156943117Y-122011057D01*
X156680327Y-121747808D01*
X156336799Y-121605162D01*
X155964833Y-121604838D01*
X155621057Y-121746883D01*
X155357808Y-122009673D01*
X155215162Y-122353201D01*
X155215121Y-122400077D01*
X155155198Y-122460000D01*
X140314802Y-122460000D01*
X139830000Y-121975198D01*
X139830000Y-119083157D01*
X139907404Y-119199000D01*
X139998566Y-119335434D01*
X140379566Y-119716434D01*
X140650459Y-119897439D01*
X140970000Y-119961000D01*
X154131766Y-119961000D01*
X154372201Y-120060838D01*
X154744167Y-120061162D01*
X155087943Y-119919117D01*
X155351192Y-119656327D01*
X155493838Y-119312799D01*
X155493879Y-119265923D01*
X156112401Y-118647401D01*
X156277148Y-118400839D01*
X156335000Y-118110000D01*
X156335000Y-111143547D01*
X156611943Y-111029117D01*
X156875192Y-110766327D01*
X157017838Y-110422799D01*
X157017941Y-110304579D01*
X157039148Y-110272840D01*
X157097000Y-109982000D01*
X157097000Y-107625802D01*
X157570000Y-108098802D01*
X157570000Y-121807537D01*
X157537808Y-121839673D01*
X157395162Y-122183201D01*
X157394838Y-122555167D01*
X157536883Y-122898943D01*
X157799673Y-123162192D01*
X158143201Y-123304838D01*
X158515167Y-123305162D01*
X158858943Y-123163117D01*
X159122192Y-122900327D01*
X159264838Y-122556799D01*
X159265162Y-122184833D01*
X159123117Y-121841057D01*
X159090000Y-121807882D01*
X159090000Y-107780000D01*
X159032148Y-107489161D01*
X158867401Y-107242599D01*
X158656401Y-107031599D01*
X158644346Y-107023544D01*
X157859000Y-106238198D01*
X157859000Y-99822000D01*
X157801148Y-99531161D01*
X157636401Y-99284599D01*
X157018122Y-98666320D01*
X157018162Y-98620833D01*
X156876117Y-98277057D01*
X156613327Y-98013808D01*
X156269799Y-97871162D01*
X156208000Y-97871108D01*
X156208000Y-91748463D01*
X156240192Y-91716327D01*
X156382838Y-91372799D01*
X156383162Y-91000833D01*
X156241117Y-90657057D01*
X155978327Y-90393808D01*
X155634799Y-90251162D01*
X155262833Y-90250838D01*
X154919057Y-90392883D01*
X154655808Y-90655673D01*
X154513162Y-90999201D01*
X154512838Y-91371167D01*
X154654883Y-91714943D01*
X154688000Y-91748118D01*
X154688000Y-92405889D01*
X154454327Y-92171808D01*
X154110799Y-92029162D01*
X153738833Y-92028838D01*
X153395057Y-92170883D01*
X153361882Y-92204000D01*
X151422633Y-92204000D01*
X151556838Y-91880799D01*
X151557162Y-91508833D01*
X151415117Y-91165057D01*
X151152327Y-90901808D01*
X150808799Y-90759162D01*
X150436833Y-90758838D01*
X150093057Y-90900883D01*
X150007791Y-90986000D01*
X146238802Y-90986000D01*
X147084802Y-90140000D01*
X153327537Y-90140000D01*
X153359673Y-90172192D01*
X153703201Y-90314838D01*
X154075167Y-90315162D01*
X154418943Y-90173117D01*
X154682192Y-89910327D01*
X154824838Y-89566799D01*
X154825162Y-89194833D01*
X154683117Y-88851057D01*
X154497384Y-88665000D01*
X157073177Y-88665000D01*
X157053162Y-88713201D01*
X157052838Y-89085167D01*
X157194883Y-89428943D01*
X157457673Y-89692192D01*
X157801201Y-89834838D01*
X158173167Y-89835162D01*
X158516943Y-89693117D01*
X158550118Y-89660000D01*
X158750000Y-89660000D01*
X159040839Y-89602148D01*
X159287401Y-89437401D01*
X163605401Y-85119401D01*
X163770148Y-84872839D01*
X163828000Y-84582000D01*
X163828000Y-84390498D01*
X163893853Y-84489054D01*
X164223026Y-84709000D01*
X163893853Y-84928946D01*
X163571946Y-85410715D01*
X163458907Y-85979000D01*
X163571946Y-86547285D01*
X163893853Y-87029054D01*
X164223026Y-87249000D01*
X163893853Y-87468946D01*
X163571946Y-87950715D01*
X163458907Y-88519000D01*
X163571946Y-89087285D01*
X163893853Y-89569054D01*
X164223026Y-89789000D01*
X163893853Y-90008946D01*
X163571946Y-90490715D01*
X163458907Y-91059000D01*
X163571946Y-91627285D01*
X163893853Y-92109054D01*
X164223026Y-92329000D01*
X163893853Y-92548946D01*
X163571946Y-93030715D01*
X163458907Y-93599000D01*
X163571946Y-94167285D01*
X163893853Y-94649054D01*
X164223026Y-94869000D01*
X163893853Y-95088946D01*
X163571946Y-95570715D01*
X163458907Y-96139000D01*
X163571946Y-96707285D01*
X163893853Y-97189054D01*
X164223026Y-97409000D01*
X163893853Y-97628946D01*
X163571946Y-98110715D01*
X163458907Y-98679000D01*
X163571946Y-99247285D01*
X163893853Y-99729054D01*
X164223026Y-99949000D01*
X163893853Y-100168946D01*
X163571946Y-100650715D01*
X163458907Y-101219000D01*
X163571946Y-101787285D01*
X163893853Y-102269054D01*
X164223026Y-102489000D01*
X163893853Y-102708946D01*
X163571946Y-103190715D01*
X163458907Y-103759000D01*
X163571946Y-104327285D01*
X163893853Y-104809054D01*
X164223026Y-105029000D01*
X163893853Y-105248946D01*
X163571946Y-105730715D01*
X163458907Y-106299000D01*
X163571946Y-106867285D01*
X163893853Y-107349054D01*
X164223026Y-107569000D01*
X163893853Y-107788946D01*
X163571946Y-108270715D01*
X163458907Y-108839000D01*
X163571946Y-109407285D01*
X163893853Y-109889054D01*
X164223026Y-110109000D01*
X163893853Y-110328946D01*
X163571946Y-110810715D01*
X163458907Y-111379000D01*
X163571946Y-111947285D01*
X163893853Y-112429054D01*
X164223026Y-112649000D01*
X163893853Y-112868946D01*
X163571946Y-113350715D01*
X163458907Y-113919000D01*
X163571946Y-114487285D01*
X163893853Y-114969054D01*
X164223026Y-115189000D01*
X163893853Y-115408946D01*
X163571946Y-115890715D01*
X163458907Y-116459000D01*
X163571946Y-117027285D01*
X163893853Y-117509054D01*
X164223026Y-117729000D01*
X163893853Y-117948946D01*
X163571946Y-118430715D01*
X163458907Y-118999000D01*
X163571946Y-119567285D01*
X163893853Y-120049054D01*
X164223026Y-120269000D01*
X163893853Y-120488946D01*
X163571946Y-120970715D01*
X163458907Y-121539000D01*
X163571946Y-122107285D01*
X163893853Y-122589054D01*
X164375622Y-122910961D01*
X164943907Y-123024000D01*
X165002093Y-123024000D01*
X165570378Y-122910961D01*
X166052147Y-122589054D01*
X166056097Y-122583142D01*
X166124673Y-122748699D01*
X166303302Y-122927327D01*
X166536691Y-123024000D01*
X167227250Y-123024000D01*
X167386000Y-122865250D01*
X167386000Y-121666000D01*
X167640000Y-121666000D01*
X167640000Y-122865250D01*
X167798750Y-123024000D01*
X168489309Y-123024000D01*
X168722698Y-122927327D01*
X168901327Y-122748699D01*
X168998000Y-122515310D01*
X168998000Y-121824750D01*
X168839250Y-121666000D01*
X167640000Y-121666000D01*
X167386000Y-121666000D01*
X167366000Y-121666000D01*
X167366000Y-121412000D01*
X167386000Y-121412000D01*
X167386000Y-119126000D01*
X167640000Y-119126000D01*
X167640000Y-121412000D01*
X168839250Y-121412000D01*
X168998000Y-121253250D01*
X168998000Y-120562690D01*
X168901327Y-120329301D01*
X168722698Y-120150673D01*
X168513122Y-120063864D01*
X168784645Y-119765924D01*
X168954476Y-119355890D01*
X168833155Y-119126000D01*
X167640000Y-119126000D01*
X167386000Y-119126000D01*
X167366000Y-119126000D01*
X167366000Y-118872000D01*
X167386000Y-118872000D01*
X167386000Y-116586000D01*
X167640000Y-116586000D01*
X167640000Y-118872000D01*
X168833155Y-118872000D01*
X168954476Y-118642110D01*
X168784645Y-118232076D01*
X168394358Y-117803817D01*
X168235046Y-117729000D01*
X168394358Y-117654183D01*
X168784645Y-117225924D01*
X168954476Y-116815890D01*
X168833155Y-116586000D01*
X167640000Y-116586000D01*
X167386000Y-116586000D01*
X167366000Y-116586000D01*
X167366000Y-116332000D01*
X167386000Y-116332000D01*
X167386000Y-114046000D01*
X167640000Y-114046000D01*
X167640000Y-116332000D01*
X168833155Y-116332000D01*
X168954476Y-116102110D01*
X168784645Y-115692076D01*
X168394358Y-115263817D01*
X168235046Y-115189000D01*
X168394358Y-115114183D01*
X168784645Y-114685924D01*
X168954476Y-114275890D01*
X168833155Y-114046000D01*
X167640000Y-114046000D01*
X167386000Y-114046000D01*
X167366000Y-114046000D01*
X167366000Y-113792000D01*
X167386000Y-113792000D01*
X167386000Y-111506000D01*
X167640000Y-111506000D01*
X167640000Y-113792000D01*
X168833155Y-113792000D01*
X168954476Y-113562110D01*
X168784645Y-113152076D01*
X168394358Y-112723817D01*
X168235046Y-112649000D01*
X168394358Y-112574183D01*
X168784645Y-112145924D01*
X168954476Y-111735890D01*
X168833155Y-111506000D01*
X167640000Y-111506000D01*
X167386000Y-111506000D01*
X167366000Y-111506000D01*
X167366000Y-111252000D01*
X167386000Y-111252000D01*
X167386000Y-108966000D01*
X167640000Y-108966000D01*
X167640000Y-111252000D01*
X168833155Y-111252000D01*
X168954476Y-111022110D01*
X168784645Y-110612076D01*
X168394358Y-110183817D01*
X168235046Y-110109000D01*
X168394358Y-110034183D01*
X168784645Y-109605924D01*
X168954476Y-109195890D01*
X168833155Y-108966000D01*
X167640000Y-108966000D01*
X167386000Y-108966000D01*
X167366000Y-108966000D01*
X167366000Y-108712000D01*
X167386000Y-108712000D01*
X167386000Y-106426000D01*
X167640000Y-106426000D01*
X167640000Y-108712000D01*
X168833155Y-108712000D01*
X168954476Y-108482110D01*
X168784645Y-108072076D01*
X168394358Y-107643817D01*
X168235046Y-107569000D01*
X168394358Y-107494183D01*
X168784645Y-107065924D01*
X168954476Y-106655890D01*
X168833155Y-106426000D01*
X167640000Y-106426000D01*
X167386000Y-106426000D01*
X167366000Y-106426000D01*
X167366000Y-106172000D01*
X167386000Y-106172000D01*
X167386000Y-103886000D01*
X167640000Y-103886000D01*
X167640000Y-106172000D01*
X168833155Y-106172000D01*
X168954476Y-105942110D01*
X168784645Y-105532076D01*
X168394358Y-105103817D01*
X168235046Y-105029000D01*
X168394358Y-104954183D01*
X168784645Y-104525924D01*
X168954476Y-104115890D01*
X168833155Y-103886000D01*
X167640000Y-103886000D01*
X167386000Y-103886000D01*
X167366000Y-103886000D01*
X167366000Y-103632000D01*
X167386000Y-103632000D01*
X167386000Y-101346000D01*
X167640000Y-101346000D01*
X167640000Y-103632000D01*
X168833155Y-103632000D01*
X168954476Y-103402110D01*
X168784645Y-102992076D01*
X168394358Y-102563817D01*
X168235046Y-102489000D01*
X168394358Y-102414183D01*
X168784645Y-101985924D01*
X168954476Y-101575890D01*
X168833155Y-101346000D01*
X167640000Y-101346000D01*
X167386000Y-101346000D01*
X167366000Y-101346000D01*
X167366000Y-101092000D01*
X167386000Y-101092000D01*
X167386000Y-98806000D01*
X167640000Y-98806000D01*
X167640000Y-101092000D01*
X168833155Y-101092000D01*
X168954476Y-100862110D01*
X168784645Y-100452076D01*
X168394358Y-100023817D01*
X168235046Y-99949000D01*
X168394358Y-99874183D01*
X168784645Y-99445924D01*
X168954476Y-99035890D01*
X168833155Y-98806000D01*
X167640000Y-98806000D01*
X167386000Y-98806000D01*
X167366000Y-98806000D01*
X167366000Y-98552000D01*
X167386000Y-98552000D01*
X167386000Y-96266000D01*
X167640000Y-96266000D01*
X167640000Y-98552000D01*
X168833155Y-98552000D01*
X168954476Y-98322110D01*
X168784645Y-97912076D01*
X168394358Y-97483817D01*
X168235046Y-97409000D01*
X168394358Y-97334183D01*
X168784645Y-96905924D01*
X168954476Y-96495890D01*
X168833155Y-96266000D01*
X167640000Y-96266000D01*
X167386000Y-96266000D01*
X167366000Y-96266000D01*
X167366000Y-96012000D01*
X167386000Y-96012000D01*
X167386000Y-93726000D01*
X167640000Y-93726000D01*
X167640000Y-96012000D01*
X168833155Y-96012000D01*
X168954476Y-95782110D01*
X168784645Y-95372076D01*
X168394358Y-94943817D01*
X168235046Y-94869000D01*
X168394358Y-94794183D01*
X168784645Y-94365924D01*
X168954476Y-93955890D01*
X168833155Y-93726000D01*
X167640000Y-93726000D01*
X167386000Y-93726000D01*
X167366000Y-93726000D01*
X167366000Y-93472000D01*
X167386000Y-93472000D01*
X167386000Y-91186000D01*
X167640000Y-91186000D01*
X167640000Y-93472000D01*
X168833155Y-93472000D01*
X168954476Y-93242110D01*
X168784645Y-92832076D01*
X168394358Y-92403817D01*
X168235046Y-92329000D01*
X168394358Y-92254183D01*
X168784645Y-91825924D01*
X168954476Y-91415890D01*
X168833155Y-91186000D01*
X167640000Y-91186000D01*
X167386000Y-91186000D01*
X167366000Y-91186000D01*
X167366000Y-90932000D01*
X167386000Y-90932000D01*
X167386000Y-88646000D01*
X167640000Y-88646000D01*
X167640000Y-90932000D01*
X168833155Y-90932000D01*
X168954476Y-90702110D01*
X168784645Y-90292076D01*
X168394358Y-89863817D01*
X168235046Y-89789000D01*
X168394358Y-89714183D01*
X168784645Y-89285924D01*
X168954476Y-88875890D01*
X168833155Y-88646000D01*
X167640000Y-88646000D01*
X167386000Y-88646000D01*
X167366000Y-88646000D01*
X167366000Y-88392000D01*
X167386000Y-88392000D01*
X167386000Y-86106000D01*
X167640000Y-86106000D01*
X167640000Y-88392000D01*
X168833155Y-88392000D01*
X168954476Y-88162110D01*
X168784645Y-87752076D01*
X168394358Y-87323817D01*
X168235046Y-87249000D01*
X168394358Y-87174183D01*
X168784645Y-86745924D01*
X168954476Y-86335890D01*
X168833155Y-86106000D01*
X167640000Y-86106000D01*
X167386000Y-86106000D01*
X167366000Y-86106000D01*
X167366000Y-85852000D01*
X167386000Y-85852000D01*
X167386000Y-83566000D01*
X167640000Y-83566000D01*
X167640000Y-85852000D01*
X168833155Y-85852000D01*
X168954476Y-85622110D01*
X168784645Y-85212076D01*
X168394358Y-84783817D01*
X168235046Y-84709000D01*
X168394358Y-84634183D01*
X168784645Y-84205924D01*
X168954476Y-83795890D01*
X168833155Y-83566000D01*
X167640000Y-83566000D01*
X167386000Y-83566000D01*
X167366000Y-83566000D01*
X167366000Y-83312000D01*
X167386000Y-83312000D01*
X167386000Y-82118181D01*
X167640000Y-82118181D01*
X167640000Y-83312000D01*
X168833155Y-83312000D01*
X168954476Y-83082110D01*
X168784645Y-82672076D01*
X168394358Y-82243817D01*
X167869892Y-81997514D01*
X167640000Y-82118181D01*
X167386000Y-82118181D01*
X167156108Y-81997514D01*
X166631642Y-82243817D01*
X166241355Y-82672076D01*
X166241345Y-82672101D01*
X166052147Y-82388946D01*
X166051223Y-82388329D01*
X166145401Y-82325401D01*
X166653401Y-81817401D01*
X166727060Y-81707162D01*
X166818148Y-81570839D01*
X166876000Y-81280000D01*
X166876000Y-80109582D01*
X167029108Y-80181486D01*
X167259000Y-80060819D01*
X167259000Y-78867000D01*
X167513000Y-78867000D01*
X167513000Y-80060819D01*
X167742892Y-80181486D01*
X168267358Y-79935183D01*
X168657645Y-79506924D01*
X168827476Y-79096890D01*
X168706155Y-78867000D01*
X167513000Y-78867000D01*
X167259000Y-78867000D01*
X167239000Y-78867000D01*
X167239000Y-78613000D01*
X167259000Y-78613000D01*
X167259000Y-78593000D01*
X167513000Y-78593000D01*
X167513000Y-78613000D01*
X168706155Y-78613000D01*
X168827476Y-78383110D01*
X168657645Y-77973076D01*
X168267358Y-77544817D01*
X168124447Y-77477702D01*
X168465147Y-77250054D01*
X168787054Y-76768285D01*
X168900093Y-76200000D01*
X168787054Y-75631715D01*
X168465147Y-75149946D01*
X168135974Y-74930000D01*
X168465147Y-74710054D01*
X168787054Y-74228285D01*
X168900093Y-73660000D01*
X168844807Y-73382061D01*
X168992434Y-73234434D01*
X169017737Y-73196566D01*
X169173439Y-72963541D01*
X169237000Y-72644000D01*
X169237000Y-69850000D01*
X169173439Y-69530459D01*
X168992434Y-69259566D01*
X168044782Y-68311914D01*
X168066838Y-68258799D01*
X168067162Y-67886833D01*
X167925117Y-67543057D01*
X167662327Y-67279808D01*
X167318799Y-67137162D01*
X166946833Y-67136838D01*
X166704422Y-67237000D01*
X163676440Y-67237000D01*
X163676440Y-65825000D01*
X163632162Y-65589683D01*
X163493090Y-65373559D01*
X163280890Y-65228569D01*
X163029000Y-65177560D01*
X161329000Y-65177560D01*
X161093683Y-65221838D01*
X160877559Y-65360910D01*
X160732569Y-65573110D01*
X160718914Y-65640541D01*
X160689054Y-65595853D01*
X160207285Y-65273946D01*
X160174241Y-65267373D01*
X159452300Y-64545432D01*
X159893000Y-64633093D01*
X160461285Y-64520054D01*
X160943054Y-64198147D01*
X161163000Y-63868974D01*
X161382946Y-64198147D01*
X161864715Y-64520054D01*
X162433000Y-64633093D01*
X163001285Y-64520054D01*
X163483054Y-64198147D01*
X163804961Y-63716378D01*
X163918000Y-63148093D01*
X163918000Y-63089907D01*
X163804961Y-62521622D01*
X163483054Y-62039853D01*
X163199899Y-61850655D01*
X163199924Y-61850645D01*
X163628183Y-61460358D01*
X163874486Y-60935892D01*
X163753819Y-60706000D01*
X162560000Y-60706000D01*
X162560000Y-60726000D01*
X162306000Y-60726000D01*
X162306000Y-60706000D01*
X160020000Y-60706000D01*
X160020000Y-60726000D01*
X159766000Y-60726000D01*
X159766000Y-60706000D01*
X159746000Y-60706000D01*
X159746000Y-60452000D01*
X159766000Y-60452000D01*
X159766000Y-59258845D01*
X160020000Y-59258845D01*
X160020000Y-60452000D01*
X162306000Y-60452000D01*
X162306000Y-59258845D01*
X162560000Y-59258845D01*
X162560000Y-60452000D01*
X163753819Y-60452000D01*
X163874486Y-60222108D01*
X163628183Y-59697642D01*
X163199924Y-59307355D01*
X162789890Y-59137524D01*
X162560000Y-59258845D01*
X162306000Y-59258845D01*
X162076110Y-59137524D01*
X161666076Y-59307355D01*
X161237817Y-59697642D01*
X161163000Y-59856954D01*
X161088183Y-59697642D01*
X160659924Y-59307355D01*
X160249890Y-59137524D01*
X160020000Y-59258845D01*
X159766000Y-59258845D01*
X159536110Y-59137524D01*
X159126076Y-59307355D01*
X158697817Y-59697642D01*
X158630702Y-59840553D01*
X158403054Y-59499853D01*
X157921285Y-59177946D01*
X157353000Y-59064907D01*
X156784715Y-59177946D01*
X156302946Y-59499853D01*
X156083000Y-59829026D01*
X155863054Y-59499853D01*
X155381285Y-59177946D01*
X154813000Y-59064907D01*
X154244715Y-59177946D01*
X153762946Y-59499853D01*
X153543000Y-59829026D01*
X153323054Y-59499853D01*
X152841285Y-59177946D01*
X152273000Y-59064907D01*
X151704715Y-59177946D01*
X151222946Y-59499853D01*
X151003000Y-59829026D01*
X150783054Y-59499853D01*
X150301285Y-59177946D01*
X149733000Y-59064907D01*
X149164715Y-59177946D01*
X148682946Y-59499853D01*
X148463000Y-59829026D01*
X148243054Y-59499853D01*
X147761285Y-59177946D01*
X147193000Y-59064907D01*
X147126919Y-59078051D01*
X146434535Y-58385667D01*
X146335117Y-58145057D01*
X146072327Y-57881808D01*
X145728799Y-57739162D01*
X145356833Y-57738838D01*
X145013057Y-57880883D01*
X144749808Y-58143673D01*
X144607162Y-58487201D01*
X144606838Y-58859167D01*
X144695327Y-59073326D01*
X144653000Y-59064907D01*
X144375061Y-59120193D01*
X143338434Y-58083566D01*
X143271736Y-58039000D01*
X143067541Y-57902561D01*
X142748000Y-57839000D01*
X134620000Y-57839000D01*
X134300459Y-57902561D01*
X134096264Y-58039000D01*
X134029566Y-58083566D01*
X126663566Y-65449566D01*
X126482561Y-65720459D01*
X126419000Y-66040000D01*
X126419000Y-66627868D01*
X126106859Y-66315182D01*
X125276514Y-65970393D01*
X125053243Y-65970198D01*
X125388461Y-65635564D01*
X125599759Y-65126702D01*
X125600240Y-64575715D01*
X125389831Y-64066485D01*
X125000564Y-63676539D01*
X124826558Y-63604285D01*
X125369760Y-63604285D01*
X125580169Y-64113515D01*
X125969436Y-64503461D01*
X126478298Y-64714759D01*
X127029285Y-64715240D01*
X127538515Y-64504831D01*
X127928461Y-64115564D01*
X128139759Y-63606702D01*
X128140240Y-63055715D01*
X127929831Y-62546485D01*
X127540564Y-62156539D01*
X127031702Y-61945241D01*
X126480715Y-61944760D01*
X125971485Y-62155169D01*
X125581539Y-62544436D01*
X125370241Y-63053298D01*
X125369760Y-63604285D01*
X124826558Y-63604285D01*
X124491702Y-63465241D01*
X123940715Y-63464760D01*
X123431485Y-63675169D01*
X123041539Y-64064436D01*
X122830241Y-64573298D01*
X122829760Y-65124285D01*
X123040169Y-65633515D01*
X123429436Y-66023461D01*
X123837258Y-66192803D01*
X123546485Y-66312948D01*
X122910182Y-66948141D01*
X122565393Y-67778486D01*
X122564609Y-68677570D01*
X122861070Y-69395062D01*
X122416695Y-69394674D01*
X121723628Y-69681043D01*
X121192907Y-70210839D01*
X120905328Y-70903405D01*
X120904674Y-71653305D01*
X121191043Y-72346372D01*
X121720839Y-72877093D01*
X122413405Y-73164672D01*
X123163305Y-73165326D01*
X123856372Y-72878957D01*
X124275016Y-72461042D01*
X124196561Y-72578459D01*
X124133000Y-72898000D01*
X124133000Y-75983000D01*
X124196561Y-76302541D01*
X124358006Y-76544161D01*
X124377566Y-76573434D01*
X124760134Y-76956002D01*
X124759769Y-77374383D01*
X124962582Y-77865229D01*
X125337796Y-78241098D01*
X125828287Y-78444768D01*
X126359383Y-78445231D01*
X126850229Y-78242418D01*
X127047716Y-78045275D01*
X127879331Y-78045275D01*
X127941169Y-78281042D01*
X128442122Y-78457419D01*
X128972440Y-78428664D01*
X129328831Y-78281042D01*
X129390669Y-78045275D01*
X128635000Y-77289605D01*
X127879331Y-78045275D01*
X127047716Y-78045275D01*
X127226098Y-77867204D01*
X127358316Y-77548788D01*
X127463958Y-77803831D01*
X127699725Y-77865669D01*
X128455395Y-77110000D01*
X127699725Y-76354331D01*
X127463958Y-76416169D01*
X127366804Y-76692111D01*
X127227418Y-76354771D01*
X127047686Y-76174725D01*
X127879331Y-76174725D01*
X128635000Y-76930395D01*
X129390669Y-76174725D01*
X129328831Y-75938958D01*
X128827878Y-75762581D01*
X128297560Y-75791336D01*
X127941169Y-75938958D01*
X127879331Y-76174725D01*
X127047686Y-76174725D01*
X126852204Y-75978902D01*
X126361713Y-75775232D01*
X125940733Y-75774865D01*
X125803000Y-75637132D01*
X125803000Y-73243868D01*
X127181000Y-71865868D01*
X127181000Y-73234839D01*
X127100617Y-73234769D01*
X126609771Y-73437582D01*
X126233902Y-73812796D01*
X126030232Y-74303287D01*
X126029769Y-74834383D01*
X126232582Y-75325229D01*
X126607796Y-75701098D01*
X127098287Y-75904768D01*
X127629383Y-75905231D01*
X128120229Y-75702418D01*
X128317716Y-75505275D01*
X129149331Y-75505275D01*
X129211169Y-75741042D01*
X129712122Y-75917419D01*
X130242440Y-75888664D01*
X130598831Y-75741042D01*
X130660669Y-75505275D01*
X129905000Y-74749605D01*
X129149331Y-75505275D01*
X128317716Y-75505275D01*
X128496098Y-75327204D01*
X128628316Y-75008788D01*
X128733958Y-75263831D01*
X128969725Y-75325669D01*
X129725395Y-74570000D01*
X130084605Y-74570000D01*
X130840275Y-75325669D01*
X131076042Y-75263831D01*
X131173196Y-74987889D01*
X131312582Y-75325229D01*
X131687796Y-75701098D01*
X132178287Y-75904768D01*
X132709383Y-75905231D01*
X133200229Y-75702418D01*
X133576098Y-75327204D01*
X133715091Y-74992473D01*
X133852582Y-75325229D01*
X134227796Y-75701098D01*
X134718287Y-75904768D01*
X135249383Y-75905231D01*
X135740229Y-75702418D01*
X136116098Y-75327204D01*
X136319768Y-74836713D01*
X136320231Y-74305617D01*
X136117418Y-73814771D01*
X135742204Y-73438902D01*
X135251713Y-73235232D01*
X134720617Y-73234769D01*
X134229771Y-73437582D01*
X133853902Y-73812796D01*
X133714909Y-74147527D01*
X133577418Y-73814771D01*
X133202204Y-73438902D01*
X132711713Y-73235232D01*
X132180617Y-73234769D01*
X131689771Y-73437582D01*
X131313902Y-73812796D01*
X131181684Y-74131212D01*
X131076042Y-73876169D01*
X130840275Y-73814331D01*
X130084605Y-74570000D01*
X129725395Y-74570000D01*
X128969725Y-73814331D01*
X128851000Y-73845471D01*
X128851000Y-73634725D01*
X129149331Y-73634725D01*
X129905000Y-74390395D01*
X130660669Y-73634725D01*
X130598831Y-73398958D01*
X130097878Y-73222581D01*
X129567560Y-73251336D01*
X129211169Y-73398958D01*
X129149331Y-73634725D01*
X128851000Y-73634725D01*
X128851000Y-68677570D01*
X133994609Y-68677570D01*
X134337948Y-69508515D01*
X134973141Y-70144818D01*
X135803486Y-70489607D01*
X136576872Y-70490281D01*
X136405328Y-70903405D01*
X136404674Y-71653305D01*
X136691043Y-72346372D01*
X137220839Y-72877093D01*
X137913405Y-73164672D01*
X138663305Y-73165326D01*
X139356372Y-72878957D01*
X139887093Y-72349161D01*
X140174672Y-71656595D01*
X140175326Y-70906695D01*
X139888957Y-70213628D01*
X139359161Y-69682907D01*
X138666595Y-69395328D01*
X138218368Y-69394937D01*
X138514607Y-68681514D01*
X138515391Y-67782430D01*
X138172052Y-66951485D01*
X137536859Y-66315182D01*
X136706514Y-65970393D01*
X135807430Y-65969609D01*
X134976485Y-66312948D01*
X134340182Y-66948141D01*
X133995393Y-67778486D01*
X133994609Y-68677570D01*
X128851000Y-68677570D01*
X128851000Y-67401868D01*
X131128583Y-65124285D01*
X132939760Y-65124285D01*
X133150169Y-65633515D01*
X133539436Y-66023461D01*
X134048298Y-66234759D01*
X134599285Y-66235240D01*
X135108515Y-66024831D01*
X135498461Y-65635564D01*
X135709759Y-65126702D01*
X135710240Y-64575715D01*
X135499831Y-64066485D01*
X135110564Y-63676539D01*
X134936558Y-63604285D01*
X135479760Y-63604285D01*
X135690169Y-64113515D01*
X136079436Y-64503461D01*
X136588298Y-64714759D01*
X137139285Y-64715240D01*
X137648515Y-64504831D01*
X138038461Y-64115564D01*
X138249759Y-63606702D01*
X138250240Y-63055715D01*
X138039831Y-62546485D01*
X137650564Y-62156539D01*
X137141702Y-61945241D01*
X136590715Y-61944760D01*
X136081485Y-62155169D01*
X135691539Y-62544436D01*
X135480241Y-63053298D01*
X135479760Y-63604285D01*
X134936558Y-63604285D01*
X134601702Y-63465241D01*
X134050715Y-63464760D01*
X133541485Y-63675169D01*
X133151539Y-64064436D01*
X132940241Y-64573298D01*
X132939760Y-65124285D01*
X131128583Y-65124285D01*
X135727868Y-60525000D01*
X142066766Y-60525000D01*
X142307201Y-60624838D01*
X142679167Y-60625162D01*
X143022943Y-60483117D01*
X143199750Y-60306618D01*
X143213632Y-60320500D01*
X143168000Y-60549907D01*
X143168000Y-60608093D01*
X143281039Y-61176378D01*
X143602946Y-61658147D01*
X143604179Y-61658971D01*
X143567683Y-61665838D01*
X143351559Y-61804910D01*
X143206569Y-62017110D01*
X143155560Y-62269000D01*
X143155560Y-63969000D01*
X143199838Y-64204317D01*
X143338910Y-64420441D01*
X143551110Y-64565431D01*
X143803000Y-64616440D01*
X145503000Y-64616440D01*
X145738317Y-64572162D01*
X145954441Y-64433090D01*
X146099431Y-64220890D01*
X146113086Y-64153459D01*
X146142946Y-64198147D01*
X146624715Y-64520054D01*
X147193000Y-64633093D01*
X147761285Y-64520054D01*
X148243054Y-64198147D01*
X148463000Y-63868974D01*
X148682946Y-64198147D01*
X149163174Y-64519024D01*
X148179599Y-65502599D01*
X148014852Y-65749161D01*
X147957000Y-66040000D01*
X147957000Y-78685537D01*
X147924808Y-78717673D01*
X147782162Y-79061201D01*
X147781838Y-79433167D01*
X147857382Y-79615998D01*
X145714800Y-79615998D01*
X144651000Y-78552198D01*
X144651000Y-77130547D01*
X144674515Y-77120831D01*
X145064461Y-76731564D01*
X145275759Y-76222702D01*
X145276240Y-75671715D01*
X145065831Y-75162485D01*
X144676564Y-74772539D01*
X144167702Y-74561241D01*
X143616715Y-74560760D01*
X143107485Y-74771169D01*
X142717539Y-75160436D01*
X142506241Y-75669298D01*
X142505760Y-76220285D01*
X142716169Y-76729515D01*
X143105436Y-77119461D01*
X143131000Y-77130076D01*
X143131000Y-78867000D01*
X143188852Y-79157839D01*
X143353599Y-79404401D01*
X143456258Y-79507060D01*
X143107485Y-79651169D01*
X142717539Y-80040436D01*
X142506241Y-80549298D01*
X142505760Y-81100285D01*
X142716169Y-81609515D01*
X143105436Y-81999461D01*
X143614298Y-82210759D01*
X144165285Y-82211240D01*
X144674515Y-82000831D01*
X145064461Y-81611564D01*
X145075076Y-81586000D01*
X149268209Y-81586000D01*
X149157852Y-81751161D01*
X149100000Y-82042000D01*
X149100000Y-82804000D01*
X149157852Y-83094839D01*
X149322599Y-83341401D01*
X151862599Y-85881401D01*
X152109160Y-86046148D01*
X152157414Y-86055746D01*
X152400000Y-86104000D01*
X157425537Y-86104000D01*
X157457673Y-86136192D01*
X157801201Y-86278838D01*
X158173167Y-86279162D01*
X158516943Y-86137117D01*
X158780192Y-85874327D01*
X158922838Y-85530799D01*
X158923162Y-85158833D01*
X158781117Y-84815057D01*
X158518327Y-84551808D01*
X158280372Y-84453000D01*
X159639000Y-84453000D01*
X159929839Y-84395148D01*
X160176401Y-84230401D01*
X160557401Y-83849401D01*
X160722148Y-83602840D01*
X160780000Y-83312000D01*
X160780000Y-82588633D01*
X161103201Y-82722838D01*
X161325000Y-82723031D01*
X161325000Y-84014132D01*
X158344132Y-86995000D01*
X142727437Y-86995000D01*
X142680327Y-86947808D01*
X142336799Y-86805162D01*
X141964833Y-86804838D01*
X141621057Y-86946883D01*
X141357808Y-87209673D01*
X141215162Y-87553201D01*
X141214838Y-87925167D01*
X141356883Y-88268943D01*
X141619673Y-88532192D01*
X141963201Y-88674838D01*
X142335167Y-88675162D01*
X142359761Y-88665000D01*
X146543772Y-88665000D01*
X146479161Y-88677852D01*
X146232599Y-88842599D01*
X145100320Y-89974878D01*
X145054833Y-89974838D01*
X144711057Y-90116883D01*
X144447808Y-90379673D01*
X144305162Y-90723201D01*
X144304933Y-90986000D01*
X144064234Y-90986000D01*
X143823799Y-90886162D01*
X143451833Y-90885838D01*
X143108057Y-91027883D01*
X142844808Y-91290673D01*
X142702162Y-91634201D01*
X142701838Y-92006167D01*
X142831560Y-92320119D01*
X142717808Y-92433673D01*
X142575162Y-92777201D01*
X142574838Y-93149167D01*
X142716883Y-93492943D01*
X142759210Y-93535344D01*
X142717808Y-93576673D01*
X142575162Y-93920201D01*
X142574838Y-94292167D01*
X142716883Y-94635943D01*
X142886209Y-94805565D01*
X142717808Y-94973673D01*
X142575162Y-95317201D01*
X142574838Y-95689167D01*
X142716883Y-96032943D01*
X142979673Y-96296192D01*
X143217628Y-96395000D01*
X141284802Y-96395000D01*
X140968000Y-96078198D01*
X140968000Y-92383463D01*
X141000192Y-92351327D01*
X141142838Y-92007799D01*
X141143162Y-91635833D01*
X141001117Y-91292057D01*
X140738327Y-91028808D01*
X140394799Y-90886162D01*
X140022833Y-90885838D01*
X139975000Y-90905602D01*
X139975000Y-89800000D01*
X139911439Y-89480459D01*
X139730434Y-89209566D01*
X138860434Y-88339566D01*
X138846767Y-88330434D01*
X138589541Y-88158561D01*
X138270000Y-88095000D01*
X135035868Y-88095000D01*
X132010000Y-85069132D01*
X132010000Y-78162786D01*
X132306098Y-77867204D01*
X132445091Y-77532473D01*
X132582582Y-77865229D01*
X132957796Y-78241098D01*
X133448287Y-78444768D01*
X133979383Y-78445231D01*
X134470229Y-78242418D01*
X134846098Y-77867204D01*
X135049768Y-77376713D01*
X135050231Y-76845617D01*
X134847418Y-76354771D01*
X134472204Y-75978902D01*
X133981713Y-75775232D01*
X133450617Y-75774769D01*
X132959771Y-75977582D01*
X132583902Y-76352796D01*
X132444909Y-76687527D01*
X132307418Y-76354771D01*
X131932204Y-75978902D01*
X131441713Y-75775232D01*
X130910617Y-75774769D01*
X130419771Y-75977582D01*
X130043902Y-76352796D01*
X129911684Y-76671212D01*
X129806042Y-76416169D01*
X129570275Y-76354331D01*
X128814605Y-77110000D01*
X129570275Y-77865669D01*
X129806042Y-77803831D01*
X129903196Y-77527889D01*
X130042582Y-77865229D01*
X130340000Y-78163166D01*
X130340000Y-85415000D01*
X130403561Y-85734541D01*
X130496963Y-85874327D01*
X130584566Y-86005434D01*
X134099566Y-89520434D01*
X134370460Y-89701440D01*
X134690000Y-89765000D01*
X137924132Y-89765000D01*
X138305000Y-90145868D01*
X138305000Y-97741995D01*
X138257162Y-97857201D01*
X138256838Y-98229167D01*
X138305000Y-98345728D01*
X138305000Y-99897000D01*
X138368561Y-100216541D01*
X138537917Y-100470000D01*
X138549566Y-100487434D01*
X138865000Y-100802868D01*
X138865000Y-110316766D01*
X138765162Y-110557201D01*
X138764838Y-110929167D01*
X138865000Y-111171578D01*
X138865000Y-116754856D01*
X138844833Y-116754838D01*
X138501057Y-116896883D01*
X138237808Y-117159673D01*
X138095162Y-117503201D01*
X138094838Y-117875167D01*
X138236883Y-118218943D01*
X138310000Y-118292188D01*
X138310000Y-121259864D01*
X138305000Y-121285000D01*
X138310000Y-121310136D01*
X138310000Y-122290000D01*
X138367852Y-122580839D01*
X138532599Y-122827401D01*
X139074198Y-123369000D01*
X119963000Y-123369000D01*
X119963000Y-121895890D01*
X120351524Y-121895890D01*
X120521355Y-122305924D01*
X120911642Y-122734183D01*
X121436108Y-122980486D01*
X121666000Y-122859819D01*
X121666000Y-121666000D01*
X120472845Y-121666000D01*
X120351524Y-121895890D01*
X119963000Y-121895890D01*
X119963000Y-119355890D01*
X120351524Y-119355890D01*
X120521355Y-119765924D01*
X120911642Y-120194183D01*
X121070954Y-120269000D01*
X120911642Y-120343817D01*
X120521355Y-120772076D01*
X120351524Y-121182110D01*
X120472845Y-121412000D01*
X121666000Y-121412000D01*
X121666000Y-119126000D01*
X120472845Y-119126000D01*
X120351524Y-119355890D01*
X119963000Y-119355890D01*
X119963000Y-116815890D01*
X120351524Y-116815890D01*
X120521355Y-117225924D01*
X120911642Y-117654183D01*
X121070954Y-117729000D01*
X120911642Y-117803817D01*
X120521355Y-118232076D01*
X120351524Y-118642110D01*
X120472845Y-118872000D01*
X121666000Y-118872000D01*
X121666000Y-116586000D01*
X120472845Y-116586000D01*
X120351524Y-116815890D01*
X119963000Y-116815890D01*
X119963000Y-114275890D01*
X120351524Y-114275890D01*
X120521355Y-114685924D01*
X120911642Y-115114183D01*
X121070954Y-115189000D01*
X120911642Y-115263817D01*
X120521355Y-115692076D01*
X120351524Y-116102110D01*
X120472845Y-116332000D01*
X121666000Y-116332000D01*
X121666000Y-114046000D01*
X120472845Y-114046000D01*
X120351524Y-114275890D01*
X119963000Y-114275890D01*
X119963000Y-111735890D01*
X120351524Y-111735890D01*
X120521355Y-112145924D01*
X120911642Y-112574183D01*
X121070954Y-112649000D01*
X120911642Y-112723817D01*
X120521355Y-113152076D01*
X120351524Y-113562110D01*
X120472845Y-113792000D01*
X121666000Y-113792000D01*
X121666000Y-111506000D01*
X120472845Y-111506000D01*
X120351524Y-111735890D01*
X119963000Y-111735890D01*
X119963000Y-109195890D01*
X120351524Y-109195890D01*
X120521355Y-109605924D01*
X120911642Y-110034183D01*
X121070954Y-110109000D01*
X120911642Y-110183817D01*
X120521355Y-110612076D01*
X120351524Y-111022110D01*
X120472845Y-111252000D01*
X121666000Y-111252000D01*
X121666000Y-108966000D01*
X120472845Y-108966000D01*
X120351524Y-109195890D01*
X119963000Y-109195890D01*
X119963000Y-106655890D01*
X120351524Y-106655890D01*
X120521355Y-107065924D01*
X120911642Y-107494183D01*
X121070954Y-107569000D01*
X120911642Y-107643817D01*
X120521355Y-108072076D01*
X120351524Y-108482110D01*
X120472845Y-108712000D01*
X121666000Y-108712000D01*
X121666000Y-106426000D01*
X120472845Y-106426000D01*
X120351524Y-106655890D01*
X119963000Y-106655890D01*
X119963000Y-104115890D01*
X120351524Y-104115890D01*
X120521355Y-104525924D01*
X120911642Y-104954183D01*
X121070954Y-105029000D01*
X120911642Y-105103817D01*
X120521355Y-105532076D01*
X120351524Y-105942110D01*
X120472845Y-106172000D01*
X121666000Y-106172000D01*
X121666000Y-103886000D01*
X120472845Y-103886000D01*
X120351524Y-104115890D01*
X119963000Y-104115890D01*
X119963000Y-101575890D01*
X120351524Y-101575890D01*
X120521355Y-101985924D01*
X120911642Y-102414183D01*
X121070954Y-102489000D01*
X120911642Y-102563817D01*
X120521355Y-102992076D01*
X120351524Y-103402110D01*
X120472845Y-103632000D01*
X121666000Y-103632000D01*
X121666000Y-101346000D01*
X120472845Y-101346000D01*
X120351524Y-101575890D01*
X119963000Y-101575890D01*
X119963000Y-99035890D01*
X120351524Y-99035890D01*
X120521355Y-99445924D01*
X120911642Y-99874183D01*
X121070954Y-99949000D01*
X120911642Y-100023817D01*
X120521355Y-100452076D01*
X120351524Y-100862110D01*
X120472845Y-101092000D01*
X121666000Y-101092000D01*
X121666000Y-98806000D01*
X120472845Y-98806000D01*
X120351524Y-99035890D01*
X119963000Y-99035890D01*
X119963000Y-96495890D01*
X120351524Y-96495890D01*
X120521355Y-96905924D01*
X120911642Y-97334183D01*
X121070954Y-97409000D01*
X120911642Y-97483817D01*
X120521355Y-97912076D01*
X120351524Y-98322110D01*
X120472845Y-98552000D01*
X121666000Y-98552000D01*
X121666000Y-96266000D01*
X120472845Y-96266000D01*
X120351524Y-96495890D01*
X119963000Y-96495890D01*
X119963000Y-93955890D01*
X120351524Y-93955890D01*
X120521355Y-94365924D01*
X120911642Y-94794183D01*
X121070954Y-94869000D01*
X120911642Y-94943817D01*
X120521355Y-95372076D01*
X120351524Y-95782110D01*
X120472845Y-96012000D01*
X121666000Y-96012000D01*
X121666000Y-93726000D01*
X120472845Y-93726000D01*
X120351524Y-93955890D01*
X119963000Y-93955890D01*
X119963000Y-91415890D01*
X120351524Y-91415890D01*
X120521355Y-91825924D01*
X120911642Y-92254183D01*
X121070954Y-92329000D01*
X120911642Y-92403817D01*
X120521355Y-92832076D01*
X120351524Y-93242110D01*
X120472845Y-93472000D01*
X121666000Y-93472000D01*
X121666000Y-91186000D01*
X120472845Y-91186000D01*
X120351524Y-91415890D01*
X119963000Y-91415890D01*
X119963000Y-88875890D01*
X120351524Y-88875890D01*
X120521355Y-89285924D01*
X120911642Y-89714183D01*
X121070954Y-89789000D01*
X120911642Y-89863817D01*
X120521355Y-90292076D01*
X120351524Y-90702110D01*
X120472845Y-90932000D01*
X121666000Y-90932000D01*
X121666000Y-88646000D01*
X120472845Y-88646000D01*
X120351524Y-88875890D01*
X119963000Y-88875890D01*
X119963000Y-88162110D01*
X120351524Y-88162110D01*
X120472845Y-88392000D01*
X121666000Y-88392000D01*
X121666000Y-87198181D01*
X121920000Y-87198181D01*
X121920000Y-88392000D01*
X121940000Y-88392000D01*
X121940000Y-88646000D01*
X121920000Y-88646000D01*
X121920000Y-90932000D01*
X121940000Y-90932000D01*
X121940000Y-91186000D01*
X121920000Y-91186000D01*
X121920000Y-93472000D01*
X121940000Y-93472000D01*
X121940000Y-93726000D01*
X121920000Y-93726000D01*
X121920000Y-96012000D01*
X121940000Y-96012000D01*
X121940000Y-96266000D01*
X121920000Y-96266000D01*
X121920000Y-98552000D01*
X121940000Y-98552000D01*
X121940000Y-98806000D01*
X121920000Y-98806000D01*
X121920000Y-101092000D01*
X121940000Y-101092000D01*
X121940000Y-101346000D01*
X121920000Y-101346000D01*
X121920000Y-103632000D01*
X121940000Y-103632000D01*
X121940000Y-103886000D01*
X121920000Y-103886000D01*
X121920000Y-106172000D01*
X121940000Y-106172000D01*
X121940000Y-106426000D01*
X121920000Y-106426000D01*
X121920000Y-108712000D01*
X121940000Y-108712000D01*
X121940000Y-108966000D01*
X121920000Y-108966000D01*
X121920000Y-111252000D01*
X121940000Y-111252000D01*
X121940000Y-111506000D01*
X121920000Y-111506000D01*
X121920000Y-113792000D01*
X121940000Y-113792000D01*
X121940000Y-114046000D01*
X121920000Y-114046000D01*
X121920000Y-116332000D01*
X121940000Y-116332000D01*
X121940000Y-116586000D01*
X121920000Y-116586000D01*
X121920000Y-118872000D01*
X121940000Y-118872000D01*
X121940000Y-119126000D01*
X121920000Y-119126000D01*
X121920000Y-121412000D01*
X121940000Y-121412000D01*
X121940000Y-121666000D01*
X121920000Y-121666000D01*
X121920000Y-122859819D01*
X122149892Y-122980486D01*
X122674358Y-122734183D01*
X122861808Y-122528496D01*
X122879838Y-122624317D01*
X123018910Y-122840441D01*
X123231110Y-122985431D01*
X123483000Y-123036440D01*
X125183000Y-123036440D01*
X125418317Y-122992162D01*
X125634441Y-122853090D01*
X125779431Y-122640890D01*
X125830440Y-122389000D01*
X125830440Y-120689000D01*
X125786162Y-120453683D01*
X125647090Y-120237559D01*
X125434890Y-120092569D01*
X125367459Y-120078914D01*
X125412147Y-120049054D01*
X125734054Y-119567285D01*
X125847093Y-118999000D01*
X125734054Y-118430715D01*
X125412147Y-117948946D01*
X125082974Y-117729000D01*
X125412147Y-117509054D01*
X125734054Y-117027285D01*
X125847093Y-116459000D01*
X125734054Y-115890715D01*
X125412147Y-115408946D01*
X125082974Y-115189000D01*
X125412147Y-114969054D01*
X125734054Y-114487285D01*
X125847093Y-113919000D01*
X125734054Y-113350715D01*
X125412147Y-112868946D01*
X125082974Y-112649000D01*
X125412147Y-112429054D01*
X125734054Y-111947285D01*
X125847093Y-111379000D01*
X125734054Y-110810715D01*
X125412147Y-110328946D01*
X125082974Y-110109000D01*
X125412147Y-109889054D01*
X125734054Y-109407285D01*
X125847093Y-108839000D01*
X125734054Y-108270715D01*
X125412147Y-107788946D01*
X125082974Y-107569000D01*
X125412147Y-107349054D01*
X125734054Y-106867285D01*
X125847093Y-106299000D01*
X125734054Y-105730715D01*
X125412147Y-105248946D01*
X125082974Y-105029000D01*
X125412147Y-104809054D01*
X125734054Y-104327285D01*
X125847093Y-103759000D01*
X125734054Y-103190715D01*
X125412147Y-102708946D01*
X125082974Y-102489000D01*
X125412147Y-102269054D01*
X125734054Y-101787285D01*
X125847093Y-101219000D01*
X125734054Y-100650715D01*
X125412147Y-100168946D01*
X125082974Y-99949000D01*
X125412147Y-99729054D01*
X125734054Y-99247285D01*
X125847093Y-98679000D01*
X125734054Y-98110715D01*
X125412147Y-97628946D01*
X125082974Y-97409000D01*
X125412147Y-97189054D01*
X125734054Y-96707285D01*
X125847093Y-96139000D01*
X125734054Y-95570715D01*
X125412147Y-95088946D01*
X125082974Y-94869000D01*
X125412147Y-94649054D01*
X125734054Y-94167285D01*
X125847093Y-93599000D01*
X125734054Y-93030715D01*
X125412147Y-92548946D01*
X125082974Y-92329000D01*
X125412147Y-92109054D01*
X125734054Y-91627285D01*
X125847093Y-91059000D01*
X125757616Y-90609167D01*
X128604838Y-90609167D01*
X128746883Y-90952943D01*
X128907000Y-91113340D01*
X128907000Y-107133537D01*
X128874808Y-107165673D01*
X128732162Y-107509201D01*
X128731838Y-107881167D01*
X128873883Y-108224943D01*
X129136673Y-108488192D01*
X129480201Y-108630838D01*
X129852167Y-108631162D01*
X130195943Y-108489117D01*
X130459192Y-108226327D01*
X130601838Y-107882799D01*
X130602162Y-107510833D01*
X130460117Y-107167057D01*
X130427000Y-107133882D01*
X130427000Y-90726005D01*
X130474838Y-90610799D01*
X130475162Y-90238833D01*
X130333117Y-89895057D01*
X130070327Y-89631808D01*
X129726799Y-89489162D01*
X129354833Y-89488838D01*
X129011057Y-89630883D01*
X128747808Y-89893673D01*
X128605162Y-90237201D01*
X128604838Y-90609167D01*
X125757616Y-90609167D01*
X125734054Y-90490715D01*
X125412147Y-90008946D01*
X125082974Y-89789000D01*
X125412147Y-89569054D01*
X125734054Y-89087285D01*
X125847093Y-88519000D01*
X125734054Y-87950715D01*
X125412147Y-87468946D01*
X124930378Y-87147039D01*
X124362093Y-87034000D01*
X124303907Y-87034000D01*
X123735622Y-87147039D01*
X123253853Y-87468946D01*
X123064655Y-87752101D01*
X123064645Y-87752076D01*
X122674358Y-87323817D01*
X122149892Y-87077514D01*
X121920000Y-87198181D01*
X121666000Y-87198181D01*
X121436108Y-87077514D01*
X120911642Y-87323817D01*
X120521355Y-87752076D01*
X120351524Y-88162110D01*
X119963000Y-88162110D01*
X119963000Y-57479000D01*
X152354045Y-57479000D01*
X152353838Y-57716167D01*
G36*
X166241355Y-89285924D02*
X166631642Y-89714183D01*
X166790954Y-89789000D01*
X166631642Y-89863817D01*
X166241355Y-90292076D01*
X166241345Y-90292101D01*
X166052147Y-90008946D01*
X165722974Y-89789000D01*
X166052147Y-89569054D01*
X166241345Y-89285899D01*
X166241355Y-89285924D01*
X166241355Y-89285924D01*
G37*
X166241355Y-89285924D02*
X166631642Y-89714183D01*
X166790954Y-89789000D01*
X166631642Y-89863817D01*
X166241355Y-90292076D01*
X166241345Y-90292101D01*
X166052147Y-90008946D01*
X165722974Y-89789000D01*
X166052147Y-89569054D01*
X166241345Y-89285899D01*
X166241355Y-89285924D01*
M02*
