G04 #@! TF.FileFunction,Copper,L1,Top,Signal*
%FSLAX46Y46*%
G04 Gerber Fmt 4.6, Leading zero omitted, Abs format (unit mm)*
G04 Created by KiCad (PCBNEW 4.0.5) date 2017 May 23, Tuesday 21:15:10*
%MOMM*%
%LPD*%
G01*
G04 APERTURE LIST*
%ADD10C,0.100000*%
%ADD11R,0.800000X0.750000*%
%ADD12R,2.032000X0.660400*%
%ADD13R,1.700000X1.700000*%
%ADD14O,1.700000X1.700000*%
%ADD15R,1.701800X0.533400*%
%ADD16C,1.500000*%
%ADD17R,1.600000X0.550000*%
%ADD18R,0.550000X1.600000*%
%ADD19C,1.400000*%
%ADD20C,2.500000*%
%ADD21R,0.500000X0.900000*%
%ADD22C,0.600000*%
%ADD23C,0.400000*%
%ADD24C,0.250000*%
%ADD25C,0.254000*%
G04 APERTURE END LIST*
D10*
D11*
X144641000Y-71501000D03*
X143141000Y-71501000D03*
X144768000Y-85217000D03*
X143268000Y-85217000D03*
D12*
X137566400Y-118364000D03*
X131419600Y-118364000D03*
X137566400Y-117094000D03*
X137566400Y-115824000D03*
X131419600Y-117094000D03*
X131419600Y-115824000D03*
X137566400Y-114554000D03*
X131419600Y-114554000D03*
X137566400Y-113284000D03*
X131419600Y-113284000D03*
X137566400Y-112014000D03*
X137566400Y-110744000D03*
X131419600Y-112014000D03*
X131419600Y-110744000D03*
X137566400Y-109474000D03*
X131419600Y-109474000D03*
X137566400Y-99314000D03*
X131419600Y-99314000D03*
X137566400Y-98044000D03*
X137566400Y-96774000D03*
X131419600Y-98044000D03*
X131419600Y-96774000D03*
X137566400Y-95504000D03*
X131419600Y-95504000D03*
X137566400Y-94234000D03*
X131419600Y-94234000D03*
X137566400Y-92964000D03*
X137566400Y-91694000D03*
X131419600Y-92964000D03*
X131419600Y-91694000D03*
X137566400Y-90424000D03*
X131419600Y-90424000D03*
D13*
X162179000Y-66675000D03*
D14*
X159639000Y-66675000D03*
X157099000Y-66675000D03*
D13*
X167513000Y-121539000D03*
D14*
X164973000Y-121539000D03*
X167513000Y-118999000D03*
X164973000Y-118999000D03*
X167513000Y-116459000D03*
X164973000Y-116459000D03*
X167513000Y-113919000D03*
X164973000Y-113919000D03*
X167513000Y-111379000D03*
X164973000Y-111379000D03*
X167513000Y-108839000D03*
X164973000Y-108839000D03*
X167513000Y-106299000D03*
X164973000Y-106299000D03*
X167513000Y-103759000D03*
X164973000Y-103759000D03*
X167513000Y-101219000D03*
X164973000Y-101219000D03*
X167513000Y-98679000D03*
X164973000Y-98679000D03*
X167513000Y-96139000D03*
X164973000Y-96139000D03*
X167513000Y-93599000D03*
X164973000Y-93599000D03*
X167513000Y-91059000D03*
X164973000Y-91059000D03*
X167513000Y-88519000D03*
X164973000Y-88519000D03*
X167513000Y-85979000D03*
X164973000Y-85979000D03*
X167513000Y-83439000D03*
X164973000Y-83439000D03*
D13*
X144653000Y-63119000D03*
D14*
X144653000Y-60579000D03*
X147193000Y-63119000D03*
X147193000Y-60579000D03*
X149733000Y-63119000D03*
X149733000Y-60579000D03*
X152273000Y-63119000D03*
X152273000Y-60579000D03*
X154813000Y-63119000D03*
X154813000Y-60579000D03*
X157353000Y-63119000D03*
X157353000Y-60579000D03*
X159893000Y-63119000D03*
X159893000Y-60579000D03*
X162433000Y-63119000D03*
X162433000Y-60579000D03*
D13*
X124333000Y-121539000D03*
D14*
X121793000Y-121539000D03*
X124333000Y-118999000D03*
X121793000Y-118999000D03*
X124333000Y-116459000D03*
X121793000Y-116459000D03*
X124333000Y-113919000D03*
X121793000Y-113919000D03*
X124333000Y-111379000D03*
X121793000Y-111379000D03*
X124333000Y-108839000D03*
X121793000Y-108839000D03*
X124333000Y-106299000D03*
X121793000Y-106299000D03*
X124333000Y-103759000D03*
X121793000Y-103759000D03*
X124333000Y-101219000D03*
X121793000Y-101219000D03*
X124333000Y-98679000D03*
X121793000Y-98679000D03*
X124333000Y-96139000D03*
X121793000Y-96139000D03*
X124333000Y-93599000D03*
X121793000Y-93599000D03*
X124333000Y-91059000D03*
X121793000Y-91059000D03*
X124333000Y-88519000D03*
X121793000Y-88519000D03*
D15*
X147243800Y-118364000D03*
X147243800Y-117094000D03*
X147243800Y-115824000D03*
X147243800Y-114554000D03*
X147243800Y-113284000D03*
X147243800Y-112014000D03*
X147243800Y-110744000D03*
X147243800Y-109474000D03*
X142062200Y-109474000D03*
X142062200Y-110744000D03*
X142062200Y-112014000D03*
X142062200Y-113284000D03*
X142062200Y-114554000D03*
X142062200Y-115824000D03*
X142062200Y-117094000D03*
X142062200Y-118364000D03*
X147243800Y-99314000D03*
X147243800Y-98044000D03*
X147243800Y-96774000D03*
X147243800Y-95504000D03*
X147243800Y-94234000D03*
X147243800Y-92964000D03*
X147243800Y-91694000D03*
X147243800Y-90424000D03*
X142062200Y-90424000D03*
X142062200Y-91694000D03*
X142062200Y-92964000D03*
X142062200Y-94234000D03*
X142062200Y-95504000D03*
X142062200Y-96774000D03*
X142062200Y-98044000D03*
X142062200Y-99314000D03*
X157403800Y-118364000D03*
X157403800Y-117094000D03*
X157403800Y-115824000D03*
X157403800Y-114554000D03*
X157403800Y-113284000D03*
X157403800Y-112014000D03*
X157403800Y-110744000D03*
X157403800Y-109474000D03*
X152222200Y-109474000D03*
X152222200Y-110744000D03*
X152222200Y-112014000D03*
X152222200Y-113284000D03*
X152222200Y-114554000D03*
X152222200Y-115824000D03*
X152222200Y-117094000D03*
X152222200Y-118364000D03*
X157403800Y-99314000D03*
X157403800Y-98044000D03*
X157403800Y-96774000D03*
X157403800Y-95504000D03*
X157403800Y-94234000D03*
X157403800Y-92964000D03*
X157403800Y-91694000D03*
X157403800Y-90424000D03*
X152222200Y-90424000D03*
X152222200Y-91694000D03*
X152222200Y-92964000D03*
X152222200Y-94234000D03*
X152222200Y-95504000D03*
X152222200Y-96774000D03*
X152222200Y-98044000D03*
X152222200Y-99314000D03*
D16*
X143891000Y-75946000D03*
X143891000Y-80826000D03*
D17*
X151833000Y-74289000D03*
X151833000Y-75089000D03*
X151833000Y-75889000D03*
X151833000Y-76689000D03*
X151833000Y-77489000D03*
X151833000Y-78289000D03*
X151833000Y-79089000D03*
X151833000Y-79889000D03*
D18*
X153283000Y-81339000D03*
X154083000Y-81339000D03*
X154883000Y-81339000D03*
X155683000Y-81339000D03*
X156483000Y-81339000D03*
X157283000Y-81339000D03*
X158083000Y-81339000D03*
X158883000Y-81339000D03*
D17*
X160333000Y-79889000D03*
X160333000Y-79089000D03*
X160333000Y-78289000D03*
X160333000Y-77489000D03*
X160333000Y-76689000D03*
X160333000Y-75889000D03*
X160333000Y-75089000D03*
X160333000Y-74289000D03*
D18*
X158883000Y-72839000D03*
X158083000Y-72839000D03*
X157283000Y-72839000D03*
X156483000Y-72839000D03*
X155683000Y-72839000D03*
X154883000Y-72839000D03*
X154083000Y-72839000D03*
X153283000Y-72839000D03*
D19*
X132445000Y-74570000D03*
X134985000Y-74570000D03*
X133715000Y-77110000D03*
X131175000Y-77110000D03*
X129905000Y-74570000D03*
X128635000Y-77110000D03*
X127365000Y-74570000D03*
X126095000Y-77110000D03*
D20*
X138290000Y-71280000D03*
X122790000Y-71280000D03*
D16*
X126755000Y-63330000D03*
X124215000Y-64850000D03*
X136865000Y-63330000D03*
X134325000Y-64850000D03*
D13*
X164846000Y-73660000D03*
D14*
X167386000Y-73660000D03*
X164846000Y-76200000D03*
X167386000Y-76200000D03*
X164846000Y-78740000D03*
X167386000Y-78740000D03*
D21*
X153170000Y-67670000D03*
X154670000Y-67670000D03*
D22*
X128778000Y-123444000D03*
X155956000Y-90424000D03*
X148971000Y-90297000D03*
X157480000Y-108458000D03*
X157226000Y-123317000D03*
X149733000Y-79629000D03*
X150241000Y-80391000D03*
X150114000Y-71755000D03*
X129667000Y-107696000D03*
X129540000Y-90424000D03*
X163068000Y-71882000D03*
X167132000Y-68072000D03*
X142150000Y-87740000D03*
X153440000Y-65870000D03*
X150622000Y-110744000D03*
X143510000Y-106934000D03*
X139192000Y-98044000D03*
X140589000Y-118364000D03*
X140589000Y-99568000D03*
X139700000Y-110744000D03*
X150622000Y-91694000D03*
X143637000Y-91821000D03*
X149860000Y-76708000D03*
X154559000Y-119126000D03*
X155448000Y-110744000D03*
X153162000Y-78232000D03*
X153035000Y-76835000D03*
X142494000Y-59690000D03*
X145542000Y-58674000D03*
X152908000Y-71374000D03*
X154940000Y-71374000D03*
X151130000Y-70485000D03*
X156972000Y-70485000D03*
X150368000Y-65405000D03*
X163068000Y-80772000D03*
X161290000Y-80772000D03*
X158750000Y-79502000D03*
X159004000Y-83058000D03*
X153289000Y-57531000D03*
X165735000Y-57404000D03*
X162052000Y-71120000D03*
X158496000Y-78740000D03*
X144370000Y-99270000D03*
X151511000Y-65151000D03*
X148717000Y-79248000D03*
X143510000Y-113284000D03*
X153797000Y-113284000D03*
X153924000Y-94107000D03*
X143510000Y-94107000D03*
X163068000Y-81788000D03*
X161290000Y-81788000D03*
X144145000Y-108585000D03*
X154051000Y-107950000D03*
X155575000Y-107950000D03*
X155448000Y-91186000D03*
X156464000Y-84455000D03*
X157861000Y-79629000D03*
X161671000Y-70231000D03*
X159512000Y-70104000D03*
X156980000Y-68980000D03*
X141986000Y-108712000D03*
X143510000Y-99568000D03*
X149530000Y-112014000D03*
X153890000Y-89380000D03*
X145240000Y-90910000D03*
X145200000Y-97840000D03*
X152000000Y-108590000D03*
X143510000Y-112014000D03*
X153797000Y-112014000D03*
X153924000Y-92964000D03*
X143510000Y-92964000D03*
X156083000Y-98806000D03*
X156150000Y-122540000D03*
X158330000Y-122370000D03*
X139030000Y-117690000D03*
X143510000Y-114554000D03*
X153797000Y-114554000D03*
X153924000Y-95377000D03*
X143510000Y-95504000D03*
X154813000Y-115824000D03*
X140208000Y-91821000D03*
X156083000Y-100203000D03*
X156083000Y-110236000D03*
X155770000Y-71240000D03*
X155840000Y-69650000D03*
X150622000Y-81280000D03*
X157988000Y-85344000D03*
X157988000Y-88900000D03*
X163068000Y-82804000D03*
X155702000Y-75946000D03*
X152146000Y-81026000D03*
D23*
X128778000Y-123444000D02*
X128778000Y-123317000D01*
X128778000Y-123317000D02*
X128778000Y-123190000D01*
X128778000Y-123190000D02*
X128778000Y-123317000D01*
X129905000Y-74570000D02*
X129905000Y-75840000D01*
X129905000Y-75840000D02*
X128635000Y-77110000D01*
X145592800Y-107823000D02*
X152781000Y-107823000D01*
X154432000Y-109474000D02*
X157403800Y-109474000D01*
X152781000Y-107823000D02*
X154432000Y-109474000D01*
X144768000Y-85217000D02*
X144768000Y-87948200D01*
X144768000Y-87948200D02*
X145846800Y-89027000D01*
X147243800Y-90424000D02*
X148844000Y-90424000D01*
X155956000Y-90424000D02*
X157403800Y-90424000D01*
X148844000Y-90424000D02*
X148971000Y-90297000D01*
X157403800Y-109474000D02*
X157403800Y-108534200D01*
X157403800Y-108534200D02*
X157480000Y-108458000D01*
X145288000Y-74803000D02*
X145288000Y-72148000D01*
X145288000Y-72148000D02*
X144641000Y-71501000D01*
X151833000Y-75889000D02*
X146374000Y-75889000D01*
X146374000Y-75889000D02*
X145288000Y-74803000D01*
D24*
X160333000Y-76689000D02*
X154197000Y-76689000D01*
X154197000Y-76689000D02*
X153543000Y-77343000D01*
X151833000Y-75889000D02*
X152978000Y-75889000D01*
X153397000Y-77489000D02*
X151833000Y-77489000D01*
X153670000Y-77216000D02*
X153543000Y-77343000D01*
X153543000Y-77343000D02*
X153397000Y-77489000D01*
X153670000Y-76581000D02*
X153670000Y-77216000D01*
X152978000Y-75889000D02*
X153670000Y-76581000D01*
D23*
X159893000Y-60579000D02*
X162433000Y-60579000D01*
D24*
X144768000Y-85217000D02*
X144768000Y-85102000D01*
X144768000Y-85102000D02*
X145288000Y-84582000D01*
X145288000Y-84582000D02*
X145288000Y-74803000D01*
X145288000Y-72148000D02*
X144641000Y-71501000D01*
D23*
X137566400Y-109474000D02*
X137566400Y-109448600D01*
X137566400Y-109448600D02*
X139192000Y-107823000D01*
X139192000Y-107823000D02*
X145592800Y-107823000D01*
X145592800Y-107823000D02*
X147243800Y-109474000D01*
X137566400Y-90424000D02*
X137566400Y-90398600D01*
X137566400Y-90398600D02*
X138938000Y-89027000D01*
X138938000Y-89027000D02*
X145846800Y-89027000D01*
X145846800Y-89027000D02*
X147243800Y-90424000D01*
X121793000Y-121539000D02*
X121793000Y-122555000D01*
X121793000Y-122555000D02*
X122555000Y-123317000D01*
X122555000Y-123317000D02*
X128778000Y-123317000D01*
X165735000Y-123317000D02*
X167513000Y-121539000D01*
X128778000Y-123317000D02*
X157226000Y-123317000D01*
X157226000Y-123317000D02*
X165735000Y-123317000D01*
X121793000Y-118999000D02*
X121793000Y-121539000D01*
X121793000Y-116459000D02*
X121793000Y-118999000D01*
X121793000Y-113919000D02*
X121793000Y-116459000D01*
X121793000Y-111379000D02*
X121793000Y-113919000D01*
X121793000Y-108839000D02*
X121793000Y-111379000D01*
X121793000Y-106299000D02*
X121793000Y-108839000D01*
X121793000Y-103759000D02*
X121793000Y-106299000D01*
X121793000Y-101219000D02*
X121793000Y-103759000D01*
X121793000Y-98679000D02*
X121793000Y-101219000D01*
X121793000Y-96139000D02*
X121793000Y-98679000D01*
X121793000Y-93599000D02*
X121793000Y-96139000D01*
X121793000Y-91059000D02*
X121793000Y-93599000D01*
X121793000Y-88519000D02*
X121793000Y-91059000D01*
X167513000Y-118999000D02*
X167513000Y-121539000D01*
X167513000Y-116459000D02*
X167513000Y-118999000D01*
X167513000Y-113919000D02*
X167513000Y-116459000D01*
X167513000Y-111379000D02*
X167513000Y-113919000D01*
X167513000Y-108839000D02*
X167513000Y-111379000D01*
X167513000Y-106299000D02*
X167513000Y-108839000D01*
X167513000Y-103759000D02*
X167513000Y-106299000D01*
X167513000Y-101219000D02*
X167513000Y-103759000D01*
X167513000Y-98679000D02*
X167513000Y-101219000D01*
X167513000Y-96139000D02*
X167513000Y-98679000D01*
X167513000Y-93599000D02*
X167513000Y-96139000D01*
X167513000Y-91059000D02*
X167513000Y-93599000D01*
X167513000Y-88519000D02*
X167513000Y-91059000D01*
X167513000Y-85979000D02*
X167513000Y-88519000D01*
X167513000Y-83439000D02*
X167513000Y-85979000D01*
D24*
X151833000Y-79089000D02*
X150273000Y-79089000D01*
X150273000Y-79089000D02*
X149733000Y-79629000D01*
X143891000Y-75946000D02*
X143891000Y-75565000D01*
X143891000Y-75565000D02*
X143141000Y-74815000D01*
X143141000Y-74815000D02*
X143141000Y-71501000D01*
X151833000Y-79889000D02*
X150743000Y-79889000D01*
X150743000Y-79889000D02*
X150241000Y-80391000D01*
X143891000Y-80826000D02*
X143837000Y-80826000D01*
X143837000Y-80826000D02*
X143268000Y-81395000D01*
X143268000Y-81395000D02*
X143268000Y-85217000D01*
X137566400Y-118364000D02*
X139319000Y-118364000D01*
X140589000Y-117094000D02*
X142062200Y-117094000D01*
X139319000Y-118364000D02*
X140589000Y-117094000D01*
X131419600Y-118364000D02*
X128905000Y-118364000D01*
X125730000Y-121539000D02*
X124333000Y-121539000D01*
X128905000Y-118364000D02*
X125730000Y-121539000D01*
X137566400Y-117094000D02*
X136271000Y-117094000D01*
X147243800Y-118948200D02*
X147243800Y-118364000D01*
X147066000Y-119126000D02*
X147243800Y-118948200D01*
X136017000Y-119126000D02*
X147066000Y-119126000D01*
X135763000Y-118872000D02*
X136017000Y-119126000D01*
X135763000Y-117602000D02*
X135763000Y-118872000D01*
X136271000Y-117094000D02*
X135763000Y-117602000D01*
X137566400Y-115824000D02*
X136779000Y-115824000D01*
X136779000Y-115824000D02*
X135255000Y-117348000D01*
X135255000Y-117348000D02*
X135255000Y-119126000D01*
X135255000Y-119126000D02*
X135763000Y-119634000D01*
X135763000Y-119634000D02*
X148209000Y-119634000D01*
X148209000Y-119634000D02*
X148590000Y-119253000D01*
X148590000Y-119253000D02*
X148590000Y-117221000D01*
X148590000Y-117221000D02*
X148463000Y-117094000D01*
X148463000Y-117094000D02*
X147243800Y-117094000D01*
X131419600Y-117094000D02*
X128905000Y-117094000D01*
X127000000Y-118999000D02*
X124333000Y-118999000D01*
X128905000Y-117094000D02*
X127000000Y-118999000D01*
X131419600Y-115824000D02*
X128524000Y-115824000D01*
X127889000Y-116459000D02*
X124333000Y-116459000D01*
X128524000Y-115824000D02*
X127889000Y-116459000D01*
X137566400Y-114554000D02*
X136652000Y-114554000D01*
X136652000Y-114554000D02*
X134747000Y-116459000D01*
X134747000Y-116459000D02*
X134747000Y-119380000D01*
X134747000Y-119380000D02*
X135509000Y-120142000D01*
X135509000Y-120142000D02*
X148590000Y-120142000D01*
X148590000Y-120142000D02*
X149098000Y-119634000D01*
X149098000Y-119634000D02*
X149098000Y-116205000D01*
X149098000Y-116205000D02*
X148717000Y-115824000D01*
X148717000Y-115824000D02*
X147243800Y-115824000D01*
X131419600Y-114554000D02*
X128524000Y-114554000D01*
X127889000Y-113919000D02*
X124333000Y-113919000D01*
X128524000Y-114554000D02*
X127889000Y-113919000D01*
X137566400Y-113284000D02*
X136398000Y-113284000D01*
X148336000Y-114554000D02*
X147243800Y-114554000D01*
X149606000Y-115824000D02*
X148336000Y-114554000D01*
X149606000Y-119888000D02*
X149606000Y-115824000D01*
X148844000Y-120650000D02*
X149606000Y-119888000D01*
X135255000Y-120650000D02*
X148844000Y-120650000D01*
X134239000Y-119634000D02*
X135255000Y-120650000D01*
X134239000Y-115443000D02*
X134239000Y-119634000D01*
X136398000Y-113284000D02*
X134239000Y-115443000D01*
X131419600Y-113284000D02*
X129286000Y-113284000D01*
X127381000Y-111379000D02*
X124333000Y-111379000D01*
X129286000Y-113284000D02*
X127381000Y-111379000D01*
X137566400Y-112014000D02*
X136906000Y-112014000D01*
X136906000Y-112014000D02*
X133731000Y-115189000D01*
X133731000Y-115189000D02*
X133731000Y-119762398D01*
X133731000Y-119762398D02*
X135126602Y-121158000D01*
X135126602Y-121158000D02*
X149098000Y-121158000D01*
X149098000Y-121158000D02*
X150114000Y-120142000D01*
X150114000Y-120142000D02*
X150114000Y-115189000D01*
X150114000Y-115189000D02*
X148209000Y-113284000D01*
X148209000Y-113284000D02*
X147243800Y-113284000D01*
X137566400Y-110744000D02*
X136017000Y-110744000D01*
X148336000Y-112014000D02*
X147243800Y-112014000D01*
X150622000Y-114300000D02*
X148336000Y-112014000D01*
X150622000Y-120396000D02*
X150622000Y-114300000D01*
X149352000Y-121666000D02*
X150622000Y-120396000D01*
X134874000Y-121666000D02*
X149352000Y-121666000D01*
X133096000Y-119888000D02*
X134874000Y-121666000D01*
X133096000Y-113665000D02*
X133096000Y-119888000D01*
X136017000Y-110744000D02*
X133096000Y-113665000D01*
X131419600Y-112014000D02*
X130048000Y-112014000D01*
X126873000Y-108839000D02*
X124333000Y-108839000D01*
X130048000Y-112014000D02*
X126873000Y-108839000D01*
X131419600Y-110744000D02*
X130556000Y-110744000D01*
X130556000Y-110744000D02*
X126111000Y-106299000D01*
X126111000Y-106299000D02*
X124333000Y-106299000D01*
D23*
X150114000Y-71755000D02*
X148336000Y-71755000D01*
X129540000Y-90424000D02*
X128905000Y-90424000D01*
X141732000Y-65151000D02*
X148336000Y-71755000D01*
X141732000Y-60198000D02*
X141732000Y-65151000D01*
X139192000Y-57658000D02*
X141732000Y-60198000D01*
X122936000Y-57658000D02*
X139192000Y-57658000D01*
X120777000Y-59817000D02*
X122936000Y-57658000D01*
X120777000Y-83439000D02*
X120777000Y-59817000D01*
X122301000Y-84963000D02*
X120777000Y-83439000D01*
X125603000Y-84963000D02*
X122301000Y-84963000D01*
X126365000Y-85725000D02*
X125603000Y-84963000D01*
X126365000Y-87884000D02*
X126365000Y-85725000D01*
X128905000Y-90424000D02*
X126365000Y-87884000D01*
D24*
X131419600Y-90424000D02*
X129540000Y-90424000D01*
X129667000Y-107696000D02*
X131419600Y-109448600D01*
X131419600Y-109448600D02*
X131419600Y-109474000D01*
X137566400Y-99314000D02*
X139700000Y-99314000D01*
X140970000Y-98044000D02*
X142062200Y-98044000D01*
X139700000Y-99314000D02*
X140970000Y-98044000D01*
X131419600Y-99314000D02*
X129667000Y-99314000D01*
X125222000Y-103759000D02*
X124333000Y-103759000D01*
X129667000Y-99314000D02*
X125222000Y-103759000D01*
X137566400Y-98044000D02*
X136398000Y-98044000D01*
X146227800Y-100330000D02*
X147243800Y-99314000D01*
X136271000Y-100330000D02*
X146227800Y-100330000D01*
X135890000Y-99949000D02*
X136271000Y-100330000D01*
X135890000Y-98552000D02*
X135890000Y-99949000D01*
X136398000Y-98044000D02*
X135890000Y-98552000D01*
X137566400Y-96774000D02*
X136779000Y-96774000D01*
X136779000Y-96774000D02*
X135382000Y-98171000D01*
X135382000Y-98171000D02*
X135382000Y-100330000D01*
X135382000Y-100330000D02*
X135890000Y-100838000D01*
X135890000Y-100838000D02*
X147701000Y-100838000D01*
X147701000Y-100838000D02*
X148590000Y-99949000D01*
X148590000Y-99949000D02*
X148590000Y-98425000D01*
X148590000Y-98425000D02*
X148209000Y-98044000D01*
X148209000Y-98044000D02*
X147243800Y-98044000D01*
X131419600Y-98044000D02*
X129286000Y-98044000D01*
X126111000Y-101219000D02*
X124333000Y-101219000D01*
X129286000Y-98044000D02*
X126111000Y-101219000D01*
X131419600Y-96774000D02*
X128778000Y-96774000D01*
X126873000Y-98679000D02*
X124333000Y-98679000D01*
X128778000Y-96774000D02*
X126873000Y-98679000D01*
X137566400Y-95504000D02*
X136398000Y-95504000D01*
X148336000Y-96774000D02*
X147243800Y-96774000D01*
X149098000Y-97536000D02*
X148336000Y-96774000D01*
X149098000Y-100330000D02*
X149098000Y-97536000D01*
X148082000Y-101346000D02*
X149098000Y-100330000D01*
X135636000Y-101346000D02*
X148082000Y-101346000D01*
X134874000Y-100584000D02*
X135636000Y-101346000D01*
X134874000Y-97028000D02*
X134874000Y-100584000D01*
X136398000Y-95504000D02*
X134874000Y-97028000D01*
X137566400Y-95504000D02*
X136652000Y-95504000D01*
X131419600Y-95504000D02*
X127762000Y-95504000D01*
X127127000Y-96139000D02*
X124333000Y-96139000D01*
X127762000Y-95504000D02*
X127127000Y-96139000D01*
X137566400Y-94234000D02*
X136525000Y-94234000D01*
X148590000Y-95504000D02*
X147243800Y-95504000D01*
X149606000Y-96520000D02*
X148590000Y-95504000D01*
X149606000Y-100584000D02*
X149606000Y-96520000D01*
X148336000Y-101854000D02*
X149606000Y-100584000D01*
X135382000Y-101854000D02*
X148336000Y-101854000D01*
X134366000Y-100838000D02*
X135382000Y-101854000D01*
X134366000Y-96393000D02*
X134366000Y-100838000D01*
X136525000Y-94234000D02*
X134366000Y-96393000D01*
X131419600Y-94234000D02*
X127762000Y-94234000D01*
X127127000Y-93599000D02*
X124333000Y-93599000D01*
X127762000Y-94234000D02*
X127127000Y-93599000D01*
X137566400Y-92964000D02*
X136906000Y-92964000D01*
X136906000Y-92964000D02*
X133858000Y-96012000D01*
X148590000Y-94234000D02*
X147243800Y-94234000D01*
X150114000Y-95758000D02*
X148590000Y-94234000D01*
X150114000Y-100965000D02*
X150114000Y-95758000D01*
X148717000Y-102362000D02*
X150114000Y-100965000D01*
X135128000Y-102362000D02*
X148717000Y-102362000D01*
X133858000Y-101092000D02*
X135128000Y-102362000D01*
X133858000Y-96012000D02*
X133858000Y-101092000D01*
X137566400Y-92964000D02*
X136652000Y-92964000D01*
X150749000Y-96139000D02*
X150749000Y-95250000D01*
X150749000Y-101219000D02*
X150749000Y-96139000D01*
X149098000Y-102870000D02*
X150749000Y-101219000D01*
X134874000Y-102870000D02*
X149098000Y-102870000D01*
X133350000Y-101346000D02*
X134874000Y-102870000D01*
X133350000Y-95123000D02*
X133350000Y-101346000D01*
X136779000Y-91694000D02*
X133350000Y-95123000D01*
X148463000Y-92964000D02*
X147243800Y-92964000D01*
X150749000Y-95250000D02*
X148463000Y-92964000D01*
X137566400Y-91694000D02*
X136779000Y-91694000D01*
X131419600Y-92964000D02*
X128651000Y-92964000D01*
X126746000Y-91059000D02*
X124333000Y-91059000D01*
X128651000Y-92964000D02*
X126746000Y-91059000D01*
X131419600Y-91694000D02*
X129159000Y-91694000D01*
X125984000Y-88519000D02*
X124333000Y-88519000D01*
X129159000Y-91694000D02*
X125984000Y-88519000D01*
D23*
X165100000Y-71882000D02*
X163068000Y-71882000D01*
X167132000Y-69850000D02*
X165100000Y-71882000D01*
X167132000Y-68072000D02*
X167132000Y-69850000D01*
X133715000Y-77110000D02*
X133715000Y-86515000D01*
X134940000Y-87740000D02*
X142150000Y-87740000D01*
X133715000Y-86515000D02*
X134940000Y-87740000D01*
X134985000Y-74570000D02*
X134985000Y-75840000D01*
X134985000Y-75840000D02*
X133715000Y-77110000D01*
X162433000Y-63119000D02*
X162433000Y-66421000D01*
X162433000Y-66421000D02*
X162179000Y-66675000D01*
D24*
X153170000Y-67670000D02*
X153170000Y-66140000D01*
X153170000Y-66140000D02*
X153440000Y-65870000D01*
X152222200Y-99314000D02*
X152222200Y-106603800D01*
X150622000Y-110744000D02*
X152222200Y-110744000D01*
X151892000Y-106934000D02*
X143510000Y-106934000D01*
X152222200Y-106603800D02*
X151892000Y-106934000D01*
X140208000Y-93472000D02*
X140208000Y-97028000D01*
X140208000Y-92710000D02*
X140208000Y-93472000D01*
X141224000Y-91694000D02*
X140208000Y-92710000D01*
X140208000Y-97028000D02*
X139192000Y-98044000D01*
D23*
X132445000Y-74570000D02*
X132445000Y-75840000D01*
X132445000Y-75840000D02*
X131175000Y-77110000D01*
X140589000Y-118364000D02*
X142062200Y-118364000D01*
D24*
X142062200Y-91694000D02*
X141224000Y-91694000D01*
D23*
X142062200Y-99314000D02*
X140843000Y-99314000D01*
X140843000Y-99314000D02*
X140589000Y-99568000D01*
X139700000Y-110744000D02*
X142062200Y-110744000D01*
X151833000Y-78289000D02*
X148660000Y-78289000D01*
X150622000Y-89916000D02*
X150622000Y-91694000D01*
X147955000Y-87249000D02*
X150622000Y-89916000D01*
X147955000Y-78994000D02*
X147955000Y-87249000D01*
X148660000Y-78289000D02*
X147955000Y-78994000D01*
X152222200Y-91694000D02*
X150622000Y-91694000D01*
X143510000Y-91694000D02*
X142062200Y-91694000D01*
X143637000Y-91821000D02*
X143510000Y-91694000D01*
X149879000Y-76689000D02*
X151833000Y-76689000D01*
X149860000Y-76708000D02*
X149879000Y-76689000D01*
D24*
X152222200Y-118364000D02*
X153797000Y-118364000D01*
X153797000Y-118364000D02*
X154559000Y-119126000D01*
X155448000Y-110744000D02*
X152222200Y-110744000D01*
X151833000Y-76689000D02*
X152889000Y-76689000D01*
X153105000Y-78289000D02*
X151833000Y-78289000D01*
X153162000Y-78232000D02*
X153105000Y-78289000D01*
X152889000Y-76689000D02*
X153035000Y-76835000D01*
D23*
X159893000Y-63119000D02*
X159893000Y-63500000D01*
X159893000Y-63500000D02*
X157099000Y-66294000D01*
X157099000Y-66294000D02*
X157099000Y-66675000D01*
X142494000Y-59436000D02*
X142494000Y-59690000D01*
X143256000Y-58674000D02*
X142494000Y-59436000D01*
X145542000Y-58674000D02*
X143256000Y-58674000D01*
D24*
X156483000Y-72839000D02*
X156483000Y-71012000D01*
X148463000Y-61849000D02*
X147193000Y-60579000D01*
X148463000Y-64897000D02*
X148463000Y-61849000D01*
X154051000Y-70485000D02*
X148463000Y-64897000D01*
X155956000Y-70485000D02*
X154051000Y-70485000D01*
X156483000Y-71012000D02*
X155956000Y-70485000D01*
X152222200Y-117094000D02*
X153416000Y-117094000D01*
X157861000Y-121539000D02*
X164973000Y-121539000D01*
X153416000Y-117094000D02*
X157861000Y-121539000D01*
X157403800Y-118364000D02*
X164338000Y-118364000D01*
X164338000Y-118364000D02*
X164973000Y-118999000D01*
X157403800Y-117094000D02*
X158623000Y-117094000D01*
X159258000Y-116459000D02*
X164973000Y-116459000D01*
X158623000Y-117094000D02*
X159258000Y-116459000D01*
X157403800Y-115824000D02*
X158242000Y-115824000D01*
X158242000Y-115824000D02*
X160147000Y-113919000D01*
X160147000Y-113919000D02*
X164973000Y-113919000D01*
X157403800Y-114554000D02*
X158115000Y-114554000D01*
X158115000Y-114554000D02*
X161290000Y-111379000D01*
X161290000Y-111379000D02*
X164973000Y-111379000D01*
X157403800Y-113284000D02*
X158369000Y-113284000D01*
X161417000Y-108839000D02*
X164973000Y-108839000D01*
X160528000Y-109728000D02*
X161417000Y-108839000D01*
X160528000Y-111125000D02*
X160528000Y-109728000D01*
X158369000Y-113284000D02*
X160528000Y-111125000D01*
X157403800Y-112014000D02*
X158369000Y-112014000D01*
X160782000Y-106299000D02*
X164973000Y-106299000D01*
X160020000Y-107061000D02*
X160782000Y-106299000D01*
X160020000Y-110363000D02*
X160020000Y-107061000D01*
X158369000Y-112014000D02*
X160020000Y-110363000D01*
X157403800Y-110744000D02*
X158750000Y-110744000D01*
X160528000Y-103759000D02*
X164973000Y-103759000D01*
X159385000Y-104902000D02*
X160528000Y-103759000D01*
X159385000Y-110109000D02*
X159385000Y-104902000D01*
X158750000Y-110744000D02*
X159385000Y-110109000D01*
X152222200Y-98044000D02*
X152781000Y-98044000D01*
X152781000Y-98044000D02*
X155956000Y-101219000D01*
X155956000Y-101219000D02*
X164973000Y-101219000D01*
X157403800Y-99314000D02*
X159385000Y-99314000D01*
X160020000Y-98679000D02*
X164973000Y-98679000D01*
X159385000Y-99314000D02*
X160020000Y-98679000D01*
X157403800Y-98044000D02*
X159004000Y-98044000D01*
X160909000Y-96139000D02*
X164973000Y-96139000D01*
X159004000Y-98044000D02*
X160909000Y-96139000D01*
X157403800Y-96774000D02*
X158623000Y-96774000D01*
X161798000Y-93599000D02*
X164973000Y-93599000D01*
X158623000Y-96774000D02*
X161798000Y-93599000D01*
X157403800Y-95504000D02*
X158496000Y-95504000D01*
X162179000Y-91059000D02*
X164973000Y-91059000D01*
X161798000Y-91440000D02*
X162179000Y-91059000D01*
X161798000Y-92202000D02*
X161798000Y-91440000D01*
X158496000Y-95504000D02*
X161798000Y-92202000D01*
X157403800Y-94234000D02*
X158623000Y-94234000D01*
X161925000Y-88519000D02*
X164973000Y-88519000D01*
X161036000Y-89408000D02*
X161925000Y-88519000D01*
X161036000Y-91821000D02*
X161036000Y-89408000D01*
X158623000Y-94234000D02*
X161036000Y-91821000D01*
X157403800Y-92964000D02*
X158623000Y-92964000D01*
X160909000Y-85979000D02*
X164973000Y-85979000D01*
X160147000Y-86741000D02*
X160909000Y-85979000D01*
X160147000Y-91440000D02*
X160147000Y-86741000D01*
X158623000Y-92964000D02*
X160147000Y-91440000D01*
X157403800Y-91694000D02*
X158623000Y-91694000D01*
X161036000Y-83439000D02*
X164973000Y-83439000D01*
X159385000Y-85090000D02*
X161036000Y-83439000D01*
X159385000Y-90932000D02*
X159385000Y-85090000D01*
X158623000Y-91694000D02*
X159385000Y-90932000D01*
X154883000Y-72839000D02*
X154883000Y-71431000D01*
X152908000Y-71374000D02*
X144653000Y-63119000D01*
X154883000Y-71431000D02*
X154940000Y-71374000D01*
X157283000Y-72839000D02*
X157283000Y-70796000D01*
X143383000Y-60579000D02*
X144653000Y-60579000D01*
X142621000Y-61341000D02*
X143383000Y-60579000D01*
X142621000Y-63754000D02*
X142621000Y-61341000D01*
X143256000Y-64389000D02*
X142621000Y-63754000D01*
X145034000Y-64389000D02*
X143256000Y-64389000D01*
X151130000Y-70485000D02*
X145034000Y-64389000D01*
X157283000Y-70796000D02*
X156972000Y-70485000D01*
X154083000Y-72839000D02*
X154083000Y-71533000D01*
X147193000Y-64643000D02*
X147193000Y-63119000D01*
X154083000Y-71533000D02*
X147193000Y-64643000D01*
X149733000Y-63119000D02*
X149733000Y-64770000D01*
X149733000Y-64770000D02*
X150368000Y-65405000D01*
X158883000Y-81339000D02*
X158883000Y-79635000D01*
X161290000Y-80772000D02*
X163068000Y-80772000D01*
X158883000Y-79635000D02*
X158750000Y-79502000D01*
X158883000Y-82937000D02*
X158883000Y-81339000D01*
X159004000Y-83058000D02*
X158883000Y-82937000D01*
X149733000Y-60579000D02*
X150241000Y-60579000D01*
X150241000Y-60579000D02*
X153289000Y-57531000D01*
X165735000Y-57404000D02*
X166370000Y-58039000D01*
X166370000Y-58039000D02*
X166370000Y-69088000D01*
X166370000Y-69088000D02*
X164338000Y-71120000D01*
X164338000Y-71120000D02*
X162052000Y-71120000D01*
X158496000Y-78740000D02*
X157226000Y-78740000D01*
X157226000Y-78740000D02*
X156845000Y-79121000D01*
X156845000Y-79121000D02*
X156845000Y-80010000D01*
X156845000Y-80010000D02*
X157283000Y-80448000D01*
X157283000Y-80448000D02*
X157283000Y-81339000D01*
X160333000Y-79889000D02*
X161919000Y-79889000D01*
X163830000Y-76200000D02*
X164846000Y-76200000D01*
X163068000Y-76962000D02*
X163830000Y-76200000D01*
X163068000Y-78740000D02*
X163068000Y-76962000D01*
X161919000Y-79889000D02*
X163068000Y-78740000D01*
X143510000Y-94107000D02*
X144137000Y-94107000D01*
X144370000Y-94340000D02*
X144370000Y-99270000D01*
X144137000Y-94107000D02*
X144370000Y-94340000D01*
X153924000Y-94107000D02*
X153924000Y-93986000D01*
X154720000Y-84910000D02*
X155810000Y-83820000D01*
X154720000Y-93190000D02*
X154720000Y-84910000D01*
X153924000Y-93986000D02*
X154720000Y-93190000D01*
X152273000Y-63119000D02*
X152273000Y-64389000D01*
X152273000Y-64389000D02*
X151511000Y-65151000D01*
X148717000Y-79248000D02*
X148717000Y-80645000D01*
X148717000Y-80645000D02*
X151892000Y-83820000D01*
X151892000Y-83820000D02*
X155810000Y-83820000D01*
X160333000Y-82872000D02*
X160333000Y-79889000D01*
X155810000Y-83820000D02*
X159385000Y-83820000D01*
X159385000Y-83820000D02*
X160333000Y-82872000D01*
X142062200Y-113284000D02*
X143510000Y-113284000D01*
X153797000Y-113284000D02*
X152222200Y-113284000D01*
X142062200Y-94234000D02*
X143383000Y-94234000D01*
X153797000Y-94234000D02*
X152222200Y-94234000D01*
X153924000Y-94107000D02*
X153797000Y-94234000D01*
X143383000Y-94234000D02*
X143510000Y-94107000D01*
X161290000Y-81788000D02*
X163068000Y-81788000D01*
X143510000Y-115824000D02*
X144145000Y-115189000D01*
X144145000Y-115189000D02*
X144145000Y-108585000D01*
X154051000Y-107950000D02*
X155575000Y-107950000D01*
X155448000Y-91186000D02*
X155321000Y-91059000D01*
X155321000Y-91059000D02*
X155321000Y-85598000D01*
X155321000Y-85598000D02*
X156464000Y-84455000D01*
X143510000Y-115824000D02*
X142062200Y-115824000D01*
X152273000Y-60579000D02*
X152273000Y-59563000D01*
X158083000Y-79851000D02*
X158083000Y-81339000D01*
X157861000Y-79629000D02*
X158083000Y-79851000D01*
X164338000Y-70231000D02*
X161671000Y-70231000D01*
X165862000Y-68707000D02*
X164338000Y-70231000D01*
X165862000Y-58674000D02*
X165862000Y-68707000D01*
X164649998Y-57461998D02*
X165862000Y-58674000D01*
X154374002Y-57461998D02*
X164649998Y-57461998D01*
X152273000Y-59563000D02*
X154374002Y-57461998D01*
X160333000Y-75089000D02*
X161258000Y-75089000D01*
X153543000Y-61849000D02*
X154813000Y-63119000D01*
X153543000Y-59563000D02*
X153543000Y-61849000D01*
X155194000Y-57912000D02*
X153543000Y-59563000D01*
X164211000Y-57912000D02*
X155194000Y-57912000D01*
X165227000Y-58928000D02*
X164211000Y-57912000D01*
X165227000Y-68453000D02*
X165227000Y-58928000D01*
X164211000Y-69469000D02*
X165227000Y-68453000D01*
X160909000Y-69469000D02*
X164211000Y-69469000D01*
X160147000Y-70231000D02*
X160909000Y-69469000D01*
X160147000Y-72390000D02*
X160147000Y-70231000D01*
X161544000Y-73787000D02*
X160147000Y-72390000D01*
X161544000Y-74803000D02*
X161544000Y-73787000D01*
X161258000Y-75089000D02*
X161544000Y-74803000D01*
X158883000Y-72839000D02*
X158883000Y-69844000D01*
X156972000Y-58420000D02*
X154813000Y-60579000D01*
X163957000Y-58420000D02*
X156972000Y-58420000D01*
X164719000Y-59182000D02*
X163957000Y-58420000D01*
X164719000Y-68199000D02*
X164719000Y-59182000D01*
X163957000Y-68961000D02*
X164719000Y-68199000D01*
X159766000Y-68961000D02*
X163957000Y-68961000D01*
X158883000Y-69844000D02*
X159766000Y-68961000D01*
X159512000Y-73279000D02*
X159512000Y-70104000D01*
X160333000Y-74100000D02*
X159512000Y-73279000D01*
X155833000Y-68453000D02*
X156360000Y-68980000D01*
X156360000Y-68980000D02*
X156980000Y-68980000D01*
X155829000Y-68453000D02*
X155829000Y-66040000D01*
X155829000Y-66040000D02*
X157353000Y-64516000D01*
X157353000Y-64516000D02*
X157353000Y-63119000D01*
X155829000Y-68453000D02*
X155833000Y-68453000D01*
X160333000Y-74289000D02*
X160333000Y-74100000D01*
X158083000Y-72839000D02*
X158083000Y-69501000D01*
X159004000Y-58928000D02*
X157353000Y-60579000D01*
X163703000Y-58928000D02*
X159004000Y-58928000D01*
X164211000Y-59436000D02*
X163703000Y-58928000D01*
X164211000Y-67945000D02*
X164211000Y-59436000D01*
X163703000Y-68453000D02*
X164211000Y-67945000D01*
X159131000Y-68453000D02*
X163703000Y-68453000D01*
X158083000Y-69501000D02*
X159131000Y-68453000D01*
X142062200Y-96774000D02*
X143002000Y-96774000D01*
X142062200Y-108788200D02*
X142062200Y-109474000D01*
X141986000Y-108712000D02*
X142062200Y-108788200D01*
X143510000Y-97282000D02*
X143510000Y-99568000D01*
X143002000Y-96774000D02*
X143510000Y-97282000D01*
X153924000Y-92964000D02*
X153924000Y-89414000D01*
X153890000Y-89380000D02*
X153924000Y-89414000D01*
X145240000Y-97800000D02*
X145240000Y-90910000D01*
X145200000Y-97840000D02*
X145240000Y-97800000D01*
X150670000Y-108590000D02*
X152000000Y-108590000D01*
X149530000Y-109730000D02*
X150670000Y-108590000D01*
X149530000Y-109730000D02*
X149530000Y-112014000D01*
X142062200Y-112014000D02*
X143510000Y-112014000D01*
X153797000Y-112014000D02*
X152222200Y-112014000D01*
X142062200Y-92964000D02*
X143510000Y-92964000D01*
X153924000Y-92964000D02*
X152222200Y-92964000D01*
X153924000Y-96647000D02*
X156083000Y-98806000D01*
X153924000Y-95377000D02*
X153924000Y-96647000D01*
X158160000Y-122540000D02*
X156150000Y-122540000D01*
X158330000Y-122370000D02*
X158160000Y-122540000D01*
X139030000Y-117690000D02*
X139200000Y-117520000D01*
X139200000Y-117520000D02*
X139200000Y-115970000D01*
X139200000Y-115970000D02*
X140616000Y-114554000D01*
X140616000Y-114554000D02*
X142062200Y-114554000D01*
X142062200Y-114554000D02*
X143510000Y-114554000D01*
X153797000Y-114554000D02*
X152222200Y-114554000D01*
X142062200Y-95504000D02*
X143510000Y-95504000D01*
X153797000Y-95504000D02*
X152222200Y-95504000D01*
X153924000Y-95377000D02*
X153797000Y-95504000D01*
X142062200Y-90424000D02*
X140970000Y-90424000D01*
X154813000Y-115824000D02*
X152222200Y-115824000D01*
X140208000Y-91186000D02*
X140208000Y-91821000D01*
X140970000Y-90424000D02*
X140208000Y-91186000D01*
X152222200Y-109474000D02*
X153543000Y-109474000D01*
X153289000Y-96774000D02*
X152222200Y-96774000D01*
X153670000Y-97155000D02*
X153289000Y-96774000D01*
X153670000Y-97790000D02*
X153670000Y-97155000D01*
X156083000Y-100203000D02*
X153670000Y-97790000D01*
X155956000Y-110109000D02*
X156083000Y-110236000D01*
X154178000Y-110109000D02*
X155956000Y-110109000D01*
X153543000Y-109474000D02*
X154178000Y-110109000D01*
X155683000Y-71327000D02*
X155770000Y-71240000D01*
X155683000Y-72839000D02*
X155683000Y-71327000D01*
X154670000Y-68480000D02*
X154670000Y-67670000D01*
X155840000Y-69650000D02*
X154670000Y-68480000D01*
X164846000Y-78740000D02*
X164846000Y-81026000D01*
X152146000Y-81026000D02*
X151892000Y-81280000D01*
X151892000Y-81280000D02*
X150622000Y-81280000D01*
X157988000Y-85344000D02*
X157988000Y-88900000D01*
X163068000Y-82804000D02*
X164846000Y-81026000D01*
X155683000Y-75927000D02*
X155683000Y-72839000D01*
X155683000Y-75927000D02*
X155702000Y-75946000D01*
D25*
G36*
X120005561Y-83758541D02*
X120162113Y-83992838D01*
X120186566Y-84029434D01*
X121710566Y-85553434D01*
X121981459Y-85734439D01*
X122301000Y-85798000D01*
X125257132Y-85798000D01*
X125530000Y-86070868D01*
X125530000Y-87645326D01*
X125412147Y-87468946D01*
X124930378Y-87147039D01*
X124362093Y-87034000D01*
X124303907Y-87034000D01*
X123735622Y-87147039D01*
X123253853Y-87468946D01*
X123064655Y-87752101D01*
X123064645Y-87752076D01*
X122674358Y-87323817D01*
X122149892Y-87077514D01*
X121920000Y-87198181D01*
X121920000Y-88392000D01*
X121940000Y-88392000D01*
X121940000Y-88646000D01*
X121920000Y-88646000D01*
X121920000Y-90932000D01*
X121940000Y-90932000D01*
X121940000Y-91186000D01*
X121920000Y-91186000D01*
X121920000Y-93472000D01*
X121940000Y-93472000D01*
X121940000Y-93726000D01*
X121920000Y-93726000D01*
X121920000Y-96012000D01*
X121940000Y-96012000D01*
X121940000Y-96266000D01*
X121920000Y-96266000D01*
X121920000Y-98552000D01*
X121940000Y-98552000D01*
X121940000Y-98806000D01*
X121920000Y-98806000D01*
X121920000Y-101092000D01*
X121940000Y-101092000D01*
X121940000Y-101346000D01*
X121920000Y-101346000D01*
X121920000Y-103632000D01*
X121940000Y-103632000D01*
X121940000Y-103886000D01*
X121920000Y-103886000D01*
X121920000Y-106172000D01*
X121940000Y-106172000D01*
X121940000Y-106426000D01*
X121920000Y-106426000D01*
X121920000Y-108712000D01*
X121940000Y-108712000D01*
X121940000Y-108966000D01*
X121920000Y-108966000D01*
X121920000Y-111252000D01*
X121940000Y-111252000D01*
X121940000Y-111506000D01*
X121920000Y-111506000D01*
X121920000Y-113792000D01*
X121940000Y-113792000D01*
X121940000Y-114046000D01*
X121920000Y-114046000D01*
X121920000Y-116332000D01*
X121940000Y-116332000D01*
X121940000Y-116586000D01*
X121920000Y-116586000D01*
X121920000Y-118872000D01*
X121940000Y-118872000D01*
X121940000Y-119126000D01*
X121920000Y-119126000D01*
X121920000Y-121412000D01*
X121940000Y-121412000D01*
X121940000Y-121666000D01*
X121920000Y-121666000D01*
X121920000Y-122859819D01*
X122149892Y-122980486D01*
X122674358Y-122734183D01*
X122861808Y-122528496D01*
X122879838Y-122624317D01*
X123018910Y-122840441D01*
X123231110Y-122985431D01*
X123483000Y-123036440D01*
X125183000Y-123036440D01*
X125418317Y-122992162D01*
X125634441Y-122853090D01*
X125779431Y-122640890D01*
X125830440Y-122389000D01*
X125830440Y-122279021D01*
X126020839Y-122241148D01*
X126267401Y-122076401D01*
X129219802Y-119124000D01*
X129925584Y-119124000D01*
X129939510Y-119145641D01*
X130151710Y-119290631D01*
X130403600Y-119341640D01*
X132336000Y-119341640D01*
X132336000Y-119888000D01*
X132393852Y-120178839D01*
X132558599Y-120425401D01*
X134336599Y-122203401D01*
X134583161Y-122368148D01*
X134874000Y-122426000D01*
X149352000Y-122426000D01*
X149642839Y-122368148D01*
X149889401Y-122203401D01*
X151159401Y-120933401D01*
X151324148Y-120686840D01*
X151382000Y-120396000D01*
X151382000Y-119278140D01*
X153073100Y-119278140D01*
X153308417Y-119233862D01*
X153479147Y-119124000D01*
X153482198Y-119124000D01*
X153623878Y-119265680D01*
X153623838Y-119311167D01*
X153765883Y-119654943D01*
X154028673Y-119918192D01*
X154372201Y-120060838D01*
X154744167Y-120061162D01*
X155087943Y-119919117D01*
X155127163Y-119879965D01*
X157027198Y-121780000D01*
X156712463Y-121780000D01*
X156680327Y-121747808D01*
X156336799Y-121605162D01*
X155964833Y-121604838D01*
X155621057Y-121746883D01*
X155357808Y-122009673D01*
X155215162Y-122353201D01*
X155214838Y-122725167D01*
X155356883Y-123068943D01*
X155619673Y-123332192D01*
X155708316Y-123369000D01*
X119963000Y-123369000D01*
X119963000Y-121895890D01*
X120351524Y-121895890D01*
X120521355Y-122305924D01*
X120911642Y-122734183D01*
X121436108Y-122980486D01*
X121666000Y-122859819D01*
X121666000Y-121666000D01*
X120472845Y-121666000D01*
X120351524Y-121895890D01*
X119963000Y-121895890D01*
X119963000Y-119355890D01*
X120351524Y-119355890D01*
X120521355Y-119765924D01*
X120911642Y-120194183D01*
X121070954Y-120269000D01*
X120911642Y-120343817D01*
X120521355Y-120772076D01*
X120351524Y-121182110D01*
X120472845Y-121412000D01*
X121666000Y-121412000D01*
X121666000Y-119126000D01*
X120472845Y-119126000D01*
X120351524Y-119355890D01*
X119963000Y-119355890D01*
X119963000Y-116815890D01*
X120351524Y-116815890D01*
X120521355Y-117225924D01*
X120911642Y-117654183D01*
X121070954Y-117729000D01*
X120911642Y-117803817D01*
X120521355Y-118232076D01*
X120351524Y-118642110D01*
X120472845Y-118872000D01*
X121666000Y-118872000D01*
X121666000Y-116586000D01*
X120472845Y-116586000D01*
X120351524Y-116815890D01*
X119963000Y-116815890D01*
X119963000Y-114275890D01*
X120351524Y-114275890D01*
X120521355Y-114685924D01*
X120911642Y-115114183D01*
X121070954Y-115189000D01*
X120911642Y-115263817D01*
X120521355Y-115692076D01*
X120351524Y-116102110D01*
X120472845Y-116332000D01*
X121666000Y-116332000D01*
X121666000Y-114046000D01*
X120472845Y-114046000D01*
X120351524Y-114275890D01*
X119963000Y-114275890D01*
X119963000Y-111735890D01*
X120351524Y-111735890D01*
X120521355Y-112145924D01*
X120911642Y-112574183D01*
X121070954Y-112649000D01*
X120911642Y-112723817D01*
X120521355Y-113152076D01*
X120351524Y-113562110D01*
X120472845Y-113792000D01*
X121666000Y-113792000D01*
X121666000Y-111506000D01*
X120472845Y-111506000D01*
X120351524Y-111735890D01*
X119963000Y-111735890D01*
X119963000Y-109195890D01*
X120351524Y-109195890D01*
X120521355Y-109605924D01*
X120911642Y-110034183D01*
X121070954Y-110109000D01*
X120911642Y-110183817D01*
X120521355Y-110612076D01*
X120351524Y-111022110D01*
X120472845Y-111252000D01*
X121666000Y-111252000D01*
X121666000Y-108966000D01*
X120472845Y-108966000D01*
X120351524Y-109195890D01*
X119963000Y-109195890D01*
X119963000Y-106655890D01*
X120351524Y-106655890D01*
X120521355Y-107065924D01*
X120911642Y-107494183D01*
X121070954Y-107569000D01*
X120911642Y-107643817D01*
X120521355Y-108072076D01*
X120351524Y-108482110D01*
X120472845Y-108712000D01*
X121666000Y-108712000D01*
X121666000Y-106426000D01*
X120472845Y-106426000D01*
X120351524Y-106655890D01*
X119963000Y-106655890D01*
X119963000Y-104115890D01*
X120351524Y-104115890D01*
X120521355Y-104525924D01*
X120911642Y-104954183D01*
X121070954Y-105029000D01*
X120911642Y-105103817D01*
X120521355Y-105532076D01*
X120351524Y-105942110D01*
X120472845Y-106172000D01*
X121666000Y-106172000D01*
X121666000Y-103886000D01*
X120472845Y-103886000D01*
X120351524Y-104115890D01*
X119963000Y-104115890D01*
X119963000Y-101575890D01*
X120351524Y-101575890D01*
X120521355Y-101985924D01*
X120911642Y-102414183D01*
X121070954Y-102489000D01*
X120911642Y-102563817D01*
X120521355Y-102992076D01*
X120351524Y-103402110D01*
X120472845Y-103632000D01*
X121666000Y-103632000D01*
X121666000Y-101346000D01*
X120472845Y-101346000D01*
X120351524Y-101575890D01*
X119963000Y-101575890D01*
X119963000Y-99035890D01*
X120351524Y-99035890D01*
X120521355Y-99445924D01*
X120911642Y-99874183D01*
X121070954Y-99949000D01*
X120911642Y-100023817D01*
X120521355Y-100452076D01*
X120351524Y-100862110D01*
X120472845Y-101092000D01*
X121666000Y-101092000D01*
X121666000Y-98806000D01*
X120472845Y-98806000D01*
X120351524Y-99035890D01*
X119963000Y-99035890D01*
X119963000Y-96495890D01*
X120351524Y-96495890D01*
X120521355Y-96905924D01*
X120911642Y-97334183D01*
X121070954Y-97409000D01*
X120911642Y-97483817D01*
X120521355Y-97912076D01*
X120351524Y-98322110D01*
X120472845Y-98552000D01*
X121666000Y-98552000D01*
X121666000Y-96266000D01*
X120472845Y-96266000D01*
X120351524Y-96495890D01*
X119963000Y-96495890D01*
X119963000Y-93955890D01*
X120351524Y-93955890D01*
X120521355Y-94365924D01*
X120911642Y-94794183D01*
X121070954Y-94869000D01*
X120911642Y-94943817D01*
X120521355Y-95372076D01*
X120351524Y-95782110D01*
X120472845Y-96012000D01*
X121666000Y-96012000D01*
X121666000Y-93726000D01*
X120472845Y-93726000D01*
X120351524Y-93955890D01*
X119963000Y-93955890D01*
X119963000Y-91415890D01*
X120351524Y-91415890D01*
X120521355Y-91825924D01*
X120911642Y-92254183D01*
X121070954Y-92329000D01*
X120911642Y-92403817D01*
X120521355Y-92832076D01*
X120351524Y-93242110D01*
X120472845Y-93472000D01*
X121666000Y-93472000D01*
X121666000Y-91186000D01*
X120472845Y-91186000D01*
X120351524Y-91415890D01*
X119963000Y-91415890D01*
X119963000Y-88875890D01*
X120351524Y-88875890D01*
X120521355Y-89285924D01*
X120911642Y-89714183D01*
X121070954Y-89789000D01*
X120911642Y-89863817D01*
X120521355Y-90292076D01*
X120351524Y-90702110D01*
X120472845Y-90932000D01*
X121666000Y-90932000D01*
X121666000Y-88646000D01*
X120472845Y-88646000D01*
X120351524Y-88875890D01*
X119963000Y-88875890D01*
X119963000Y-88162110D01*
X120351524Y-88162110D01*
X120472845Y-88392000D01*
X121666000Y-88392000D01*
X121666000Y-87198181D01*
X121436108Y-87077514D01*
X120911642Y-87323817D01*
X120521355Y-87752076D01*
X120351524Y-88162110D01*
X119963000Y-88162110D01*
X119963000Y-83544574D01*
X120005561Y-83758541D01*
X120005561Y-83758541D01*
G37*
X120005561Y-83758541D02*
X120162113Y-83992838D01*
X120186566Y-84029434D01*
X121710566Y-85553434D01*
X121981459Y-85734439D01*
X122301000Y-85798000D01*
X125257132Y-85798000D01*
X125530000Y-86070868D01*
X125530000Y-87645326D01*
X125412147Y-87468946D01*
X124930378Y-87147039D01*
X124362093Y-87034000D01*
X124303907Y-87034000D01*
X123735622Y-87147039D01*
X123253853Y-87468946D01*
X123064655Y-87752101D01*
X123064645Y-87752076D01*
X122674358Y-87323817D01*
X122149892Y-87077514D01*
X121920000Y-87198181D01*
X121920000Y-88392000D01*
X121940000Y-88392000D01*
X121940000Y-88646000D01*
X121920000Y-88646000D01*
X121920000Y-90932000D01*
X121940000Y-90932000D01*
X121940000Y-91186000D01*
X121920000Y-91186000D01*
X121920000Y-93472000D01*
X121940000Y-93472000D01*
X121940000Y-93726000D01*
X121920000Y-93726000D01*
X121920000Y-96012000D01*
X121940000Y-96012000D01*
X121940000Y-96266000D01*
X121920000Y-96266000D01*
X121920000Y-98552000D01*
X121940000Y-98552000D01*
X121940000Y-98806000D01*
X121920000Y-98806000D01*
X121920000Y-101092000D01*
X121940000Y-101092000D01*
X121940000Y-101346000D01*
X121920000Y-101346000D01*
X121920000Y-103632000D01*
X121940000Y-103632000D01*
X121940000Y-103886000D01*
X121920000Y-103886000D01*
X121920000Y-106172000D01*
X121940000Y-106172000D01*
X121940000Y-106426000D01*
X121920000Y-106426000D01*
X121920000Y-108712000D01*
X121940000Y-108712000D01*
X121940000Y-108966000D01*
X121920000Y-108966000D01*
X121920000Y-111252000D01*
X121940000Y-111252000D01*
X121940000Y-111506000D01*
X121920000Y-111506000D01*
X121920000Y-113792000D01*
X121940000Y-113792000D01*
X121940000Y-114046000D01*
X121920000Y-114046000D01*
X121920000Y-116332000D01*
X121940000Y-116332000D01*
X121940000Y-116586000D01*
X121920000Y-116586000D01*
X121920000Y-118872000D01*
X121940000Y-118872000D01*
X121940000Y-119126000D01*
X121920000Y-119126000D01*
X121920000Y-121412000D01*
X121940000Y-121412000D01*
X121940000Y-121666000D01*
X121920000Y-121666000D01*
X121920000Y-122859819D01*
X122149892Y-122980486D01*
X122674358Y-122734183D01*
X122861808Y-122528496D01*
X122879838Y-122624317D01*
X123018910Y-122840441D01*
X123231110Y-122985431D01*
X123483000Y-123036440D01*
X125183000Y-123036440D01*
X125418317Y-122992162D01*
X125634441Y-122853090D01*
X125779431Y-122640890D01*
X125830440Y-122389000D01*
X125830440Y-122279021D01*
X126020839Y-122241148D01*
X126267401Y-122076401D01*
X129219802Y-119124000D01*
X129925584Y-119124000D01*
X129939510Y-119145641D01*
X130151710Y-119290631D01*
X130403600Y-119341640D01*
X132336000Y-119341640D01*
X132336000Y-119888000D01*
X132393852Y-120178839D01*
X132558599Y-120425401D01*
X134336599Y-122203401D01*
X134583161Y-122368148D01*
X134874000Y-122426000D01*
X149352000Y-122426000D01*
X149642839Y-122368148D01*
X149889401Y-122203401D01*
X151159401Y-120933401D01*
X151324148Y-120686840D01*
X151382000Y-120396000D01*
X151382000Y-119278140D01*
X153073100Y-119278140D01*
X153308417Y-119233862D01*
X153479147Y-119124000D01*
X153482198Y-119124000D01*
X153623878Y-119265680D01*
X153623838Y-119311167D01*
X153765883Y-119654943D01*
X154028673Y-119918192D01*
X154372201Y-120060838D01*
X154744167Y-120061162D01*
X155087943Y-119919117D01*
X155127163Y-119879965D01*
X157027198Y-121780000D01*
X156712463Y-121780000D01*
X156680327Y-121747808D01*
X156336799Y-121605162D01*
X155964833Y-121604838D01*
X155621057Y-121746883D01*
X155357808Y-122009673D01*
X155215162Y-122353201D01*
X155214838Y-122725167D01*
X155356883Y-123068943D01*
X155619673Y-123332192D01*
X155708316Y-123369000D01*
X119963000Y-123369000D01*
X119963000Y-121895890D01*
X120351524Y-121895890D01*
X120521355Y-122305924D01*
X120911642Y-122734183D01*
X121436108Y-122980486D01*
X121666000Y-122859819D01*
X121666000Y-121666000D01*
X120472845Y-121666000D01*
X120351524Y-121895890D01*
X119963000Y-121895890D01*
X119963000Y-119355890D01*
X120351524Y-119355890D01*
X120521355Y-119765924D01*
X120911642Y-120194183D01*
X121070954Y-120269000D01*
X120911642Y-120343817D01*
X120521355Y-120772076D01*
X120351524Y-121182110D01*
X120472845Y-121412000D01*
X121666000Y-121412000D01*
X121666000Y-119126000D01*
X120472845Y-119126000D01*
X120351524Y-119355890D01*
X119963000Y-119355890D01*
X119963000Y-116815890D01*
X120351524Y-116815890D01*
X120521355Y-117225924D01*
X120911642Y-117654183D01*
X121070954Y-117729000D01*
X120911642Y-117803817D01*
X120521355Y-118232076D01*
X120351524Y-118642110D01*
X120472845Y-118872000D01*
X121666000Y-118872000D01*
X121666000Y-116586000D01*
X120472845Y-116586000D01*
X120351524Y-116815890D01*
X119963000Y-116815890D01*
X119963000Y-114275890D01*
X120351524Y-114275890D01*
X120521355Y-114685924D01*
X120911642Y-115114183D01*
X121070954Y-115189000D01*
X120911642Y-115263817D01*
X120521355Y-115692076D01*
X120351524Y-116102110D01*
X120472845Y-116332000D01*
X121666000Y-116332000D01*
X121666000Y-114046000D01*
X120472845Y-114046000D01*
X120351524Y-114275890D01*
X119963000Y-114275890D01*
X119963000Y-111735890D01*
X120351524Y-111735890D01*
X120521355Y-112145924D01*
X120911642Y-112574183D01*
X121070954Y-112649000D01*
X120911642Y-112723817D01*
X120521355Y-113152076D01*
X120351524Y-113562110D01*
X120472845Y-113792000D01*
X121666000Y-113792000D01*
X121666000Y-111506000D01*
X120472845Y-111506000D01*
X120351524Y-111735890D01*
X119963000Y-111735890D01*
X119963000Y-109195890D01*
X120351524Y-109195890D01*
X120521355Y-109605924D01*
X120911642Y-110034183D01*
X121070954Y-110109000D01*
X120911642Y-110183817D01*
X120521355Y-110612076D01*
X120351524Y-111022110D01*
X120472845Y-111252000D01*
X121666000Y-111252000D01*
X121666000Y-108966000D01*
X120472845Y-108966000D01*
X120351524Y-109195890D01*
X119963000Y-109195890D01*
X119963000Y-106655890D01*
X120351524Y-106655890D01*
X120521355Y-107065924D01*
X120911642Y-107494183D01*
X121070954Y-107569000D01*
X120911642Y-107643817D01*
X120521355Y-108072076D01*
X120351524Y-108482110D01*
X120472845Y-108712000D01*
X121666000Y-108712000D01*
X121666000Y-106426000D01*
X120472845Y-106426000D01*
X120351524Y-106655890D01*
X119963000Y-106655890D01*
X119963000Y-104115890D01*
X120351524Y-104115890D01*
X120521355Y-104525924D01*
X120911642Y-104954183D01*
X121070954Y-105029000D01*
X120911642Y-105103817D01*
X120521355Y-105532076D01*
X120351524Y-105942110D01*
X120472845Y-106172000D01*
X121666000Y-106172000D01*
X121666000Y-103886000D01*
X120472845Y-103886000D01*
X120351524Y-104115890D01*
X119963000Y-104115890D01*
X119963000Y-101575890D01*
X120351524Y-101575890D01*
X120521355Y-101985924D01*
X120911642Y-102414183D01*
X121070954Y-102489000D01*
X120911642Y-102563817D01*
X120521355Y-102992076D01*
X120351524Y-103402110D01*
X120472845Y-103632000D01*
X121666000Y-103632000D01*
X121666000Y-101346000D01*
X120472845Y-101346000D01*
X120351524Y-101575890D01*
X119963000Y-101575890D01*
X119963000Y-99035890D01*
X120351524Y-99035890D01*
X120521355Y-99445924D01*
X120911642Y-99874183D01*
X121070954Y-99949000D01*
X120911642Y-100023817D01*
X120521355Y-100452076D01*
X120351524Y-100862110D01*
X120472845Y-101092000D01*
X121666000Y-101092000D01*
X121666000Y-98806000D01*
X120472845Y-98806000D01*
X120351524Y-99035890D01*
X119963000Y-99035890D01*
X119963000Y-96495890D01*
X120351524Y-96495890D01*
X120521355Y-96905924D01*
X120911642Y-97334183D01*
X121070954Y-97409000D01*
X120911642Y-97483817D01*
X120521355Y-97912076D01*
X120351524Y-98322110D01*
X120472845Y-98552000D01*
X121666000Y-98552000D01*
X121666000Y-96266000D01*
X120472845Y-96266000D01*
X120351524Y-96495890D01*
X119963000Y-96495890D01*
X119963000Y-93955890D01*
X120351524Y-93955890D01*
X120521355Y-94365924D01*
X120911642Y-94794183D01*
X121070954Y-94869000D01*
X120911642Y-94943817D01*
X120521355Y-95372076D01*
X120351524Y-95782110D01*
X120472845Y-96012000D01*
X121666000Y-96012000D01*
X121666000Y-93726000D01*
X120472845Y-93726000D01*
X120351524Y-93955890D01*
X119963000Y-93955890D01*
X119963000Y-91415890D01*
X120351524Y-91415890D01*
X120521355Y-91825924D01*
X120911642Y-92254183D01*
X121070954Y-92329000D01*
X120911642Y-92403817D01*
X120521355Y-92832076D01*
X120351524Y-93242110D01*
X120472845Y-93472000D01*
X121666000Y-93472000D01*
X121666000Y-91186000D01*
X120472845Y-91186000D01*
X120351524Y-91415890D01*
X119963000Y-91415890D01*
X119963000Y-88875890D01*
X120351524Y-88875890D01*
X120521355Y-89285924D01*
X120911642Y-89714183D01*
X121070954Y-89789000D01*
X120911642Y-89863817D01*
X120521355Y-90292076D01*
X120351524Y-90702110D01*
X120472845Y-90932000D01*
X121666000Y-90932000D01*
X121666000Y-88646000D01*
X120472845Y-88646000D01*
X120351524Y-88875890D01*
X119963000Y-88875890D01*
X119963000Y-88162110D01*
X120351524Y-88162110D01*
X120472845Y-88392000D01*
X121666000Y-88392000D01*
X121666000Y-87198181D01*
X121436108Y-87077514D01*
X120911642Y-87323817D01*
X120521355Y-87752076D01*
X120351524Y-88162110D01*
X119963000Y-88162110D01*
X119963000Y-83544574D01*
X120005561Y-83758541D01*
G36*
X169343000Y-123369000D02*
X156592099Y-123369000D01*
X156678943Y-123333117D01*
X156712118Y-123300000D01*
X158131550Y-123300000D01*
X158143201Y-123304838D01*
X158515167Y-123305162D01*
X158858943Y-123163117D01*
X159122192Y-122900327D01*
X159264838Y-122556799D01*
X159265063Y-122299000D01*
X163700046Y-122299000D01*
X163893853Y-122589054D01*
X164375622Y-122910961D01*
X164943907Y-123024000D01*
X165002093Y-123024000D01*
X165570378Y-122910961D01*
X166052147Y-122589054D01*
X166056097Y-122583142D01*
X166124673Y-122748699D01*
X166303302Y-122927327D01*
X166536691Y-123024000D01*
X167227250Y-123024000D01*
X167386000Y-122865250D01*
X167386000Y-121666000D01*
X167640000Y-121666000D01*
X167640000Y-122865250D01*
X167798750Y-123024000D01*
X168489309Y-123024000D01*
X168722698Y-122927327D01*
X168901327Y-122748699D01*
X168998000Y-122515310D01*
X168998000Y-121824750D01*
X168839250Y-121666000D01*
X167640000Y-121666000D01*
X167386000Y-121666000D01*
X167366000Y-121666000D01*
X167366000Y-121412000D01*
X167386000Y-121412000D01*
X167386000Y-119126000D01*
X167640000Y-119126000D01*
X167640000Y-121412000D01*
X168839250Y-121412000D01*
X168998000Y-121253250D01*
X168998000Y-120562690D01*
X168901327Y-120329301D01*
X168722698Y-120150673D01*
X168513122Y-120063864D01*
X168784645Y-119765924D01*
X168954476Y-119355890D01*
X168833155Y-119126000D01*
X167640000Y-119126000D01*
X167386000Y-119126000D01*
X167366000Y-119126000D01*
X167366000Y-118872000D01*
X167386000Y-118872000D01*
X167386000Y-116586000D01*
X167640000Y-116586000D01*
X167640000Y-118872000D01*
X168833155Y-118872000D01*
X168954476Y-118642110D01*
X168784645Y-118232076D01*
X168394358Y-117803817D01*
X168235046Y-117729000D01*
X168394358Y-117654183D01*
X168784645Y-117225924D01*
X168954476Y-116815890D01*
X168833155Y-116586000D01*
X167640000Y-116586000D01*
X167386000Y-116586000D01*
X167366000Y-116586000D01*
X167366000Y-116332000D01*
X167386000Y-116332000D01*
X167386000Y-114046000D01*
X167640000Y-114046000D01*
X167640000Y-116332000D01*
X168833155Y-116332000D01*
X168954476Y-116102110D01*
X168784645Y-115692076D01*
X168394358Y-115263817D01*
X168235046Y-115189000D01*
X168394358Y-115114183D01*
X168784645Y-114685924D01*
X168954476Y-114275890D01*
X168833155Y-114046000D01*
X167640000Y-114046000D01*
X167386000Y-114046000D01*
X167366000Y-114046000D01*
X167366000Y-113792000D01*
X167386000Y-113792000D01*
X167386000Y-111506000D01*
X167640000Y-111506000D01*
X167640000Y-113792000D01*
X168833155Y-113792000D01*
X168954476Y-113562110D01*
X168784645Y-113152076D01*
X168394358Y-112723817D01*
X168235046Y-112649000D01*
X168394358Y-112574183D01*
X168784645Y-112145924D01*
X168954476Y-111735890D01*
X168833155Y-111506000D01*
X167640000Y-111506000D01*
X167386000Y-111506000D01*
X167366000Y-111506000D01*
X167366000Y-111252000D01*
X167386000Y-111252000D01*
X167386000Y-108966000D01*
X167640000Y-108966000D01*
X167640000Y-111252000D01*
X168833155Y-111252000D01*
X168954476Y-111022110D01*
X168784645Y-110612076D01*
X168394358Y-110183817D01*
X168235046Y-110109000D01*
X168394358Y-110034183D01*
X168784645Y-109605924D01*
X168954476Y-109195890D01*
X168833155Y-108966000D01*
X167640000Y-108966000D01*
X167386000Y-108966000D01*
X167366000Y-108966000D01*
X167366000Y-108712000D01*
X167386000Y-108712000D01*
X167386000Y-106426000D01*
X167640000Y-106426000D01*
X167640000Y-108712000D01*
X168833155Y-108712000D01*
X168954476Y-108482110D01*
X168784645Y-108072076D01*
X168394358Y-107643817D01*
X168235046Y-107569000D01*
X168394358Y-107494183D01*
X168784645Y-107065924D01*
X168954476Y-106655890D01*
X168833155Y-106426000D01*
X167640000Y-106426000D01*
X167386000Y-106426000D01*
X167366000Y-106426000D01*
X167366000Y-106172000D01*
X167386000Y-106172000D01*
X167386000Y-103886000D01*
X167640000Y-103886000D01*
X167640000Y-106172000D01*
X168833155Y-106172000D01*
X168954476Y-105942110D01*
X168784645Y-105532076D01*
X168394358Y-105103817D01*
X168235046Y-105029000D01*
X168394358Y-104954183D01*
X168784645Y-104525924D01*
X168954476Y-104115890D01*
X168833155Y-103886000D01*
X167640000Y-103886000D01*
X167386000Y-103886000D01*
X167366000Y-103886000D01*
X167366000Y-103632000D01*
X167386000Y-103632000D01*
X167386000Y-101346000D01*
X167640000Y-101346000D01*
X167640000Y-103632000D01*
X168833155Y-103632000D01*
X168954476Y-103402110D01*
X168784645Y-102992076D01*
X168394358Y-102563817D01*
X168235046Y-102489000D01*
X168394358Y-102414183D01*
X168784645Y-101985924D01*
X168954476Y-101575890D01*
X168833155Y-101346000D01*
X167640000Y-101346000D01*
X167386000Y-101346000D01*
X167366000Y-101346000D01*
X167366000Y-101092000D01*
X167386000Y-101092000D01*
X167386000Y-98806000D01*
X167640000Y-98806000D01*
X167640000Y-101092000D01*
X168833155Y-101092000D01*
X168954476Y-100862110D01*
X168784645Y-100452076D01*
X168394358Y-100023817D01*
X168235046Y-99949000D01*
X168394358Y-99874183D01*
X168784645Y-99445924D01*
X168954476Y-99035890D01*
X168833155Y-98806000D01*
X167640000Y-98806000D01*
X167386000Y-98806000D01*
X167366000Y-98806000D01*
X167366000Y-98552000D01*
X167386000Y-98552000D01*
X167386000Y-96266000D01*
X167640000Y-96266000D01*
X167640000Y-98552000D01*
X168833155Y-98552000D01*
X168954476Y-98322110D01*
X168784645Y-97912076D01*
X168394358Y-97483817D01*
X168235046Y-97409000D01*
X168394358Y-97334183D01*
X168784645Y-96905924D01*
X168954476Y-96495890D01*
X168833155Y-96266000D01*
X167640000Y-96266000D01*
X167386000Y-96266000D01*
X167366000Y-96266000D01*
X167366000Y-96012000D01*
X167386000Y-96012000D01*
X167386000Y-93726000D01*
X167640000Y-93726000D01*
X167640000Y-96012000D01*
X168833155Y-96012000D01*
X168954476Y-95782110D01*
X168784645Y-95372076D01*
X168394358Y-94943817D01*
X168235046Y-94869000D01*
X168394358Y-94794183D01*
X168784645Y-94365924D01*
X168954476Y-93955890D01*
X168833155Y-93726000D01*
X167640000Y-93726000D01*
X167386000Y-93726000D01*
X167366000Y-93726000D01*
X167366000Y-93472000D01*
X167386000Y-93472000D01*
X167386000Y-91186000D01*
X167640000Y-91186000D01*
X167640000Y-93472000D01*
X168833155Y-93472000D01*
X168954476Y-93242110D01*
X168784645Y-92832076D01*
X168394358Y-92403817D01*
X168235046Y-92329000D01*
X168394358Y-92254183D01*
X168784645Y-91825924D01*
X168954476Y-91415890D01*
X168833155Y-91186000D01*
X167640000Y-91186000D01*
X167386000Y-91186000D01*
X167366000Y-91186000D01*
X167366000Y-90932000D01*
X167386000Y-90932000D01*
X167386000Y-88646000D01*
X167640000Y-88646000D01*
X167640000Y-90932000D01*
X168833155Y-90932000D01*
X168954476Y-90702110D01*
X168784645Y-90292076D01*
X168394358Y-89863817D01*
X168235046Y-89789000D01*
X168394358Y-89714183D01*
X168784645Y-89285924D01*
X168954476Y-88875890D01*
X168833155Y-88646000D01*
X167640000Y-88646000D01*
X167386000Y-88646000D01*
X167366000Y-88646000D01*
X167366000Y-88392000D01*
X167386000Y-88392000D01*
X167386000Y-86106000D01*
X167640000Y-86106000D01*
X167640000Y-88392000D01*
X168833155Y-88392000D01*
X168954476Y-88162110D01*
X168784645Y-87752076D01*
X168394358Y-87323817D01*
X168235046Y-87249000D01*
X168394358Y-87174183D01*
X168784645Y-86745924D01*
X168954476Y-86335890D01*
X168833155Y-86106000D01*
X167640000Y-86106000D01*
X167386000Y-86106000D01*
X167366000Y-86106000D01*
X167366000Y-85852000D01*
X167386000Y-85852000D01*
X167386000Y-83566000D01*
X167640000Y-83566000D01*
X167640000Y-85852000D01*
X168833155Y-85852000D01*
X168954476Y-85622110D01*
X168784645Y-85212076D01*
X168394358Y-84783817D01*
X168235046Y-84709000D01*
X168394358Y-84634183D01*
X168784645Y-84205924D01*
X168954476Y-83795890D01*
X168833155Y-83566000D01*
X167640000Y-83566000D01*
X167386000Y-83566000D01*
X167366000Y-83566000D01*
X167366000Y-83312000D01*
X167386000Y-83312000D01*
X167386000Y-82118181D01*
X167640000Y-82118181D01*
X167640000Y-83312000D01*
X168833155Y-83312000D01*
X168954476Y-83082110D01*
X168784645Y-82672076D01*
X168394358Y-82243817D01*
X167869892Y-81997514D01*
X167640000Y-82118181D01*
X167386000Y-82118181D01*
X167156108Y-81997514D01*
X166631642Y-82243817D01*
X166241355Y-82672076D01*
X166241345Y-82672101D01*
X166052147Y-82388946D01*
X165570378Y-82067039D01*
X165002093Y-81954000D01*
X164992802Y-81954000D01*
X165383401Y-81563401D01*
X165548148Y-81316839D01*
X165606000Y-81026000D01*
X165606000Y-80003301D01*
X165925147Y-79790054D01*
X166114345Y-79506899D01*
X166114355Y-79506924D01*
X166504642Y-79935183D01*
X167029108Y-80181486D01*
X167259000Y-80060819D01*
X167259000Y-78867000D01*
X167513000Y-78867000D01*
X167513000Y-80060819D01*
X167742892Y-80181486D01*
X168267358Y-79935183D01*
X168657645Y-79506924D01*
X168827476Y-79096890D01*
X168706155Y-78867000D01*
X167513000Y-78867000D01*
X167259000Y-78867000D01*
X167239000Y-78867000D01*
X167239000Y-78613000D01*
X167259000Y-78613000D01*
X167259000Y-78593000D01*
X167513000Y-78593000D01*
X167513000Y-78613000D01*
X168706155Y-78613000D01*
X168827476Y-78383110D01*
X168657645Y-77973076D01*
X168267358Y-77544817D01*
X168124447Y-77477702D01*
X168465147Y-77250054D01*
X168787054Y-76768285D01*
X168900093Y-76200000D01*
X168787054Y-75631715D01*
X168465147Y-75149946D01*
X168135974Y-74930000D01*
X168465147Y-74710054D01*
X168787054Y-74228285D01*
X168900093Y-73660000D01*
X168787054Y-73091715D01*
X168465147Y-72609946D01*
X167983378Y-72288039D01*
X167415093Y-72175000D01*
X167356907Y-72175000D01*
X166788622Y-72288039D01*
X166306853Y-72609946D01*
X166306029Y-72611179D01*
X166299162Y-72574683D01*
X166160090Y-72358559D01*
X165948727Y-72214141D01*
X167722434Y-70440434D01*
X167757341Y-70388192D01*
X167903439Y-70169541D01*
X167967000Y-69850000D01*
X167967000Y-68499234D01*
X168066838Y-68258799D01*
X168067162Y-67886833D01*
X167925117Y-67543057D01*
X167662327Y-67279808D01*
X167318799Y-67137162D01*
X167130000Y-67136998D01*
X167130000Y-58039000D01*
X167072148Y-57748161D01*
X166907401Y-57501599D01*
X166884802Y-57479000D01*
X169343000Y-57479000D01*
X169343000Y-123369000D01*
X169343000Y-123369000D01*
G37*
X169343000Y-123369000D02*
X156592099Y-123369000D01*
X156678943Y-123333117D01*
X156712118Y-123300000D01*
X158131550Y-123300000D01*
X158143201Y-123304838D01*
X158515167Y-123305162D01*
X158858943Y-123163117D01*
X159122192Y-122900327D01*
X159264838Y-122556799D01*
X159265063Y-122299000D01*
X163700046Y-122299000D01*
X163893853Y-122589054D01*
X164375622Y-122910961D01*
X164943907Y-123024000D01*
X165002093Y-123024000D01*
X165570378Y-122910961D01*
X166052147Y-122589054D01*
X166056097Y-122583142D01*
X166124673Y-122748699D01*
X166303302Y-122927327D01*
X166536691Y-123024000D01*
X167227250Y-123024000D01*
X167386000Y-122865250D01*
X167386000Y-121666000D01*
X167640000Y-121666000D01*
X167640000Y-122865250D01*
X167798750Y-123024000D01*
X168489309Y-123024000D01*
X168722698Y-122927327D01*
X168901327Y-122748699D01*
X168998000Y-122515310D01*
X168998000Y-121824750D01*
X168839250Y-121666000D01*
X167640000Y-121666000D01*
X167386000Y-121666000D01*
X167366000Y-121666000D01*
X167366000Y-121412000D01*
X167386000Y-121412000D01*
X167386000Y-119126000D01*
X167640000Y-119126000D01*
X167640000Y-121412000D01*
X168839250Y-121412000D01*
X168998000Y-121253250D01*
X168998000Y-120562690D01*
X168901327Y-120329301D01*
X168722698Y-120150673D01*
X168513122Y-120063864D01*
X168784645Y-119765924D01*
X168954476Y-119355890D01*
X168833155Y-119126000D01*
X167640000Y-119126000D01*
X167386000Y-119126000D01*
X167366000Y-119126000D01*
X167366000Y-118872000D01*
X167386000Y-118872000D01*
X167386000Y-116586000D01*
X167640000Y-116586000D01*
X167640000Y-118872000D01*
X168833155Y-118872000D01*
X168954476Y-118642110D01*
X168784645Y-118232076D01*
X168394358Y-117803817D01*
X168235046Y-117729000D01*
X168394358Y-117654183D01*
X168784645Y-117225924D01*
X168954476Y-116815890D01*
X168833155Y-116586000D01*
X167640000Y-116586000D01*
X167386000Y-116586000D01*
X167366000Y-116586000D01*
X167366000Y-116332000D01*
X167386000Y-116332000D01*
X167386000Y-114046000D01*
X167640000Y-114046000D01*
X167640000Y-116332000D01*
X168833155Y-116332000D01*
X168954476Y-116102110D01*
X168784645Y-115692076D01*
X168394358Y-115263817D01*
X168235046Y-115189000D01*
X168394358Y-115114183D01*
X168784645Y-114685924D01*
X168954476Y-114275890D01*
X168833155Y-114046000D01*
X167640000Y-114046000D01*
X167386000Y-114046000D01*
X167366000Y-114046000D01*
X167366000Y-113792000D01*
X167386000Y-113792000D01*
X167386000Y-111506000D01*
X167640000Y-111506000D01*
X167640000Y-113792000D01*
X168833155Y-113792000D01*
X168954476Y-113562110D01*
X168784645Y-113152076D01*
X168394358Y-112723817D01*
X168235046Y-112649000D01*
X168394358Y-112574183D01*
X168784645Y-112145924D01*
X168954476Y-111735890D01*
X168833155Y-111506000D01*
X167640000Y-111506000D01*
X167386000Y-111506000D01*
X167366000Y-111506000D01*
X167366000Y-111252000D01*
X167386000Y-111252000D01*
X167386000Y-108966000D01*
X167640000Y-108966000D01*
X167640000Y-111252000D01*
X168833155Y-111252000D01*
X168954476Y-111022110D01*
X168784645Y-110612076D01*
X168394358Y-110183817D01*
X168235046Y-110109000D01*
X168394358Y-110034183D01*
X168784645Y-109605924D01*
X168954476Y-109195890D01*
X168833155Y-108966000D01*
X167640000Y-108966000D01*
X167386000Y-108966000D01*
X167366000Y-108966000D01*
X167366000Y-108712000D01*
X167386000Y-108712000D01*
X167386000Y-106426000D01*
X167640000Y-106426000D01*
X167640000Y-108712000D01*
X168833155Y-108712000D01*
X168954476Y-108482110D01*
X168784645Y-108072076D01*
X168394358Y-107643817D01*
X168235046Y-107569000D01*
X168394358Y-107494183D01*
X168784645Y-107065924D01*
X168954476Y-106655890D01*
X168833155Y-106426000D01*
X167640000Y-106426000D01*
X167386000Y-106426000D01*
X167366000Y-106426000D01*
X167366000Y-106172000D01*
X167386000Y-106172000D01*
X167386000Y-103886000D01*
X167640000Y-103886000D01*
X167640000Y-106172000D01*
X168833155Y-106172000D01*
X168954476Y-105942110D01*
X168784645Y-105532076D01*
X168394358Y-105103817D01*
X168235046Y-105029000D01*
X168394358Y-104954183D01*
X168784645Y-104525924D01*
X168954476Y-104115890D01*
X168833155Y-103886000D01*
X167640000Y-103886000D01*
X167386000Y-103886000D01*
X167366000Y-103886000D01*
X167366000Y-103632000D01*
X167386000Y-103632000D01*
X167386000Y-101346000D01*
X167640000Y-101346000D01*
X167640000Y-103632000D01*
X168833155Y-103632000D01*
X168954476Y-103402110D01*
X168784645Y-102992076D01*
X168394358Y-102563817D01*
X168235046Y-102489000D01*
X168394358Y-102414183D01*
X168784645Y-101985924D01*
X168954476Y-101575890D01*
X168833155Y-101346000D01*
X167640000Y-101346000D01*
X167386000Y-101346000D01*
X167366000Y-101346000D01*
X167366000Y-101092000D01*
X167386000Y-101092000D01*
X167386000Y-98806000D01*
X167640000Y-98806000D01*
X167640000Y-101092000D01*
X168833155Y-101092000D01*
X168954476Y-100862110D01*
X168784645Y-100452076D01*
X168394358Y-100023817D01*
X168235046Y-99949000D01*
X168394358Y-99874183D01*
X168784645Y-99445924D01*
X168954476Y-99035890D01*
X168833155Y-98806000D01*
X167640000Y-98806000D01*
X167386000Y-98806000D01*
X167366000Y-98806000D01*
X167366000Y-98552000D01*
X167386000Y-98552000D01*
X167386000Y-96266000D01*
X167640000Y-96266000D01*
X167640000Y-98552000D01*
X168833155Y-98552000D01*
X168954476Y-98322110D01*
X168784645Y-97912076D01*
X168394358Y-97483817D01*
X168235046Y-97409000D01*
X168394358Y-97334183D01*
X168784645Y-96905924D01*
X168954476Y-96495890D01*
X168833155Y-96266000D01*
X167640000Y-96266000D01*
X167386000Y-96266000D01*
X167366000Y-96266000D01*
X167366000Y-96012000D01*
X167386000Y-96012000D01*
X167386000Y-93726000D01*
X167640000Y-93726000D01*
X167640000Y-96012000D01*
X168833155Y-96012000D01*
X168954476Y-95782110D01*
X168784645Y-95372076D01*
X168394358Y-94943817D01*
X168235046Y-94869000D01*
X168394358Y-94794183D01*
X168784645Y-94365924D01*
X168954476Y-93955890D01*
X168833155Y-93726000D01*
X167640000Y-93726000D01*
X167386000Y-93726000D01*
X167366000Y-93726000D01*
X167366000Y-93472000D01*
X167386000Y-93472000D01*
X167386000Y-91186000D01*
X167640000Y-91186000D01*
X167640000Y-93472000D01*
X168833155Y-93472000D01*
X168954476Y-93242110D01*
X168784645Y-92832076D01*
X168394358Y-92403817D01*
X168235046Y-92329000D01*
X168394358Y-92254183D01*
X168784645Y-91825924D01*
X168954476Y-91415890D01*
X168833155Y-91186000D01*
X167640000Y-91186000D01*
X167386000Y-91186000D01*
X167366000Y-91186000D01*
X167366000Y-90932000D01*
X167386000Y-90932000D01*
X167386000Y-88646000D01*
X167640000Y-88646000D01*
X167640000Y-90932000D01*
X168833155Y-90932000D01*
X168954476Y-90702110D01*
X168784645Y-90292076D01*
X168394358Y-89863817D01*
X168235046Y-89789000D01*
X168394358Y-89714183D01*
X168784645Y-89285924D01*
X168954476Y-88875890D01*
X168833155Y-88646000D01*
X167640000Y-88646000D01*
X167386000Y-88646000D01*
X167366000Y-88646000D01*
X167366000Y-88392000D01*
X167386000Y-88392000D01*
X167386000Y-86106000D01*
X167640000Y-86106000D01*
X167640000Y-88392000D01*
X168833155Y-88392000D01*
X168954476Y-88162110D01*
X168784645Y-87752076D01*
X168394358Y-87323817D01*
X168235046Y-87249000D01*
X168394358Y-87174183D01*
X168784645Y-86745924D01*
X168954476Y-86335890D01*
X168833155Y-86106000D01*
X167640000Y-86106000D01*
X167386000Y-86106000D01*
X167366000Y-86106000D01*
X167366000Y-85852000D01*
X167386000Y-85852000D01*
X167386000Y-83566000D01*
X167640000Y-83566000D01*
X167640000Y-85852000D01*
X168833155Y-85852000D01*
X168954476Y-85622110D01*
X168784645Y-85212076D01*
X168394358Y-84783817D01*
X168235046Y-84709000D01*
X168394358Y-84634183D01*
X168784645Y-84205924D01*
X168954476Y-83795890D01*
X168833155Y-83566000D01*
X167640000Y-83566000D01*
X167386000Y-83566000D01*
X167366000Y-83566000D01*
X167366000Y-83312000D01*
X167386000Y-83312000D01*
X167386000Y-82118181D01*
X167640000Y-82118181D01*
X167640000Y-83312000D01*
X168833155Y-83312000D01*
X168954476Y-83082110D01*
X168784645Y-82672076D01*
X168394358Y-82243817D01*
X167869892Y-81997514D01*
X167640000Y-82118181D01*
X167386000Y-82118181D01*
X167156108Y-81997514D01*
X166631642Y-82243817D01*
X166241355Y-82672076D01*
X166241345Y-82672101D01*
X166052147Y-82388946D01*
X165570378Y-82067039D01*
X165002093Y-81954000D01*
X164992802Y-81954000D01*
X165383401Y-81563401D01*
X165548148Y-81316839D01*
X165606000Y-81026000D01*
X165606000Y-80003301D01*
X165925147Y-79790054D01*
X166114345Y-79506899D01*
X166114355Y-79506924D01*
X166504642Y-79935183D01*
X167029108Y-80181486D01*
X167259000Y-80060819D01*
X167259000Y-78867000D01*
X167513000Y-78867000D01*
X167513000Y-80060819D01*
X167742892Y-80181486D01*
X168267358Y-79935183D01*
X168657645Y-79506924D01*
X168827476Y-79096890D01*
X168706155Y-78867000D01*
X167513000Y-78867000D01*
X167259000Y-78867000D01*
X167239000Y-78867000D01*
X167239000Y-78613000D01*
X167259000Y-78613000D01*
X167259000Y-78593000D01*
X167513000Y-78593000D01*
X167513000Y-78613000D01*
X168706155Y-78613000D01*
X168827476Y-78383110D01*
X168657645Y-77973076D01*
X168267358Y-77544817D01*
X168124447Y-77477702D01*
X168465147Y-77250054D01*
X168787054Y-76768285D01*
X168900093Y-76200000D01*
X168787054Y-75631715D01*
X168465147Y-75149946D01*
X168135974Y-74930000D01*
X168465147Y-74710054D01*
X168787054Y-74228285D01*
X168900093Y-73660000D01*
X168787054Y-73091715D01*
X168465147Y-72609946D01*
X167983378Y-72288039D01*
X167415093Y-72175000D01*
X167356907Y-72175000D01*
X166788622Y-72288039D01*
X166306853Y-72609946D01*
X166306029Y-72611179D01*
X166299162Y-72574683D01*
X166160090Y-72358559D01*
X165948727Y-72214141D01*
X167722434Y-70440434D01*
X167757341Y-70388192D01*
X167903439Y-70169541D01*
X167967000Y-69850000D01*
X167967000Y-68499234D01*
X168066838Y-68258799D01*
X168067162Y-67886833D01*
X167925117Y-67543057D01*
X167662327Y-67279808D01*
X167318799Y-67137162D01*
X167130000Y-67136998D01*
X167130000Y-58039000D01*
X167072148Y-57748161D01*
X166907401Y-57501599D01*
X166884802Y-57479000D01*
X169343000Y-57479000D01*
X169343000Y-123369000D01*
G36*
X151471057Y-107796883D02*
X151437882Y-107830000D01*
X150670000Y-107830000D01*
X150427414Y-107878254D01*
X150379160Y-107887852D01*
X150132599Y-108052599D01*
X148992599Y-109192599D01*
X148827852Y-109439161D01*
X148770000Y-109730000D01*
X148770000Y-111407509D01*
X148647870Y-111325904D01*
X148691131Y-111262590D01*
X148742140Y-111010700D01*
X148742140Y-110477300D01*
X148697862Y-110241983D01*
X148617042Y-110116384D01*
X148633027Y-110100399D01*
X148729700Y-109867010D01*
X148729700Y-109759750D01*
X148570950Y-109601000D01*
X147370800Y-109601000D01*
X147370800Y-109621000D01*
X147116800Y-109621000D01*
X147116800Y-109601000D01*
X145916650Y-109601000D01*
X145757900Y-109759750D01*
X145757900Y-109867010D01*
X145854573Y-110100399D01*
X145870799Y-110116625D01*
X145796469Y-110225410D01*
X145745460Y-110477300D01*
X145745460Y-111010700D01*
X145789738Y-111246017D01*
X145875649Y-111379526D01*
X145796469Y-111495410D01*
X145745460Y-111747300D01*
X145745460Y-112280700D01*
X145789738Y-112516017D01*
X145875649Y-112649526D01*
X145796469Y-112765410D01*
X145745460Y-113017300D01*
X145745460Y-113550700D01*
X145789738Y-113786017D01*
X145875649Y-113919526D01*
X145796469Y-114035410D01*
X145745460Y-114287300D01*
X145745460Y-114820700D01*
X145789738Y-115056017D01*
X145875649Y-115189526D01*
X145796469Y-115305410D01*
X145745460Y-115557300D01*
X145745460Y-116090700D01*
X145789738Y-116326017D01*
X145875649Y-116459526D01*
X145796469Y-116575410D01*
X145745460Y-116827300D01*
X145745460Y-117360700D01*
X145789738Y-117596017D01*
X145875649Y-117729526D01*
X145796469Y-117845410D01*
X145745460Y-118097300D01*
X145745460Y-118366000D01*
X143560540Y-118366000D01*
X143560540Y-118097300D01*
X143516262Y-117861983D01*
X143430351Y-117728474D01*
X143509531Y-117612590D01*
X143560540Y-117360700D01*
X143560540Y-116827300D01*
X143516262Y-116591983D01*
X143510997Y-116583802D01*
X143800839Y-116526148D01*
X144047401Y-116361401D01*
X144682401Y-115726401D01*
X144847148Y-115479839D01*
X144905000Y-115189000D01*
X144905000Y-109147463D01*
X144937192Y-109115327D01*
X144951450Y-109080990D01*
X145757900Y-109080990D01*
X145757900Y-109188250D01*
X145916650Y-109347000D01*
X147116800Y-109347000D01*
X147116800Y-108731050D01*
X147370800Y-108731050D01*
X147370800Y-109347000D01*
X148570950Y-109347000D01*
X148729700Y-109188250D01*
X148729700Y-109080990D01*
X148633027Y-108847601D01*
X148454398Y-108668973D01*
X148221009Y-108572300D01*
X147529550Y-108572300D01*
X147370800Y-108731050D01*
X147116800Y-108731050D01*
X146958050Y-108572300D01*
X146266591Y-108572300D01*
X146033202Y-108668973D01*
X145854573Y-108847601D01*
X145757900Y-109080990D01*
X144951450Y-109080990D01*
X145079838Y-108771799D01*
X145080162Y-108399833D01*
X144938117Y-108056057D01*
X144675327Y-107792808D01*
X144437372Y-107694000D01*
X151720053Y-107694000D01*
X151471057Y-107796883D01*
X151471057Y-107796883D01*
G37*
X151471057Y-107796883D02*
X151437882Y-107830000D01*
X150670000Y-107830000D01*
X150427414Y-107878254D01*
X150379160Y-107887852D01*
X150132599Y-108052599D01*
X148992599Y-109192599D01*
X148827852Y-109439161D01*
X148770000Y-109730000D01*
X148770000Y-111407509D01*
X148647870Y-111325904D01*
X148691131Y-111262590D01*
X148742140Y-111010700D01*
X148742140Y-110477300D01*
X148697862Y-110241983D01*
X148617042Y-110116384D01*
X148633027Y-110100399D01*
X148729700Y-109867010D01*
X148729700Y-109759750D01*
X148570950Y-109601000D01*
X147370800Y-109601000D01*
X147370800Y-109621000D01*
X147116800Y-109621000D01*
X147116800Y-109601000D01*
X145916650Y-109601000D01*
X145757900Y-109759750D01*
X145757900Y-109867010D01*
X145854573Y-110100399D01*
X145870799Y-110116625D01*
X145796469Y-110225410D01*
X145745460Y-110477300D01*
X145745460Y-111010700D01*
X145789738Y-111246017D01*
X145875649Y-111379526D01*
X145796469Y-111495410D01*
X145745460Y-111747300D01*
X145745460Y-112280700D01*
X145789738Y-112516017D01*
X145875649Y-112649526D01*
X145796469Y-112765410D01*
X145745460Y-113017300D01*
X145745460Y-113550700D01*
X145789738Y-113786017D01*
X145875649Y-113919526D01*
X145796469Y-114035410D01*
X145745460Y-114287300D01*
X145745460Y-114820700D01*
X145789738Y-115056017D01*
X145875649Y-115189526D01*
X145796469Y-115305410D01*
X145745460Y-115557300D01*
X145745460Y-116090700D01*
X145789738Y-116326017D01*
X145875649Y-116459526D01*
X145796469Y-116575410D01*
X145745460Y-116827300D01*
X145745460Y-117360700D01*
X145789738Y-117596017D01*
X145875649Y-117729526D01*
X145796469Y-117845410D01*
X145745460Y-118097300D01*
X145745460Y-118366000D01*
X143560540Y-118366000D01*
X143560540Y-118097300D01*
X143516262Y-117861983D01*
X143430351Y-117728474D01*
X143509531Y-117612590D01*
X143560540Y-117360700D01*
X143560540Y-116827300D01*
X143516262Y-116591983D01*
X143510997Y-116583802D01*
X143800839Y-116526148D01*
X144047401Y-116361401D01*
X144682401Y-115726401D01*
X144847148Y-115479839D01*
X144905000Y-115189000D01*
X144905000Y-109147463D01*
X144937192Y-109115327D01*
X144951450Y-109080990D01*
X145757900Y-109080990D01*
X145757900Y-109188250D01*
X145916650Y-109347000D01*
X147116800Y-109347000D01*
X147116800Y-108731050D01*
X147370800Y-108731050D01*
X147370800Y-109347000D01*
X148570950Y-109347000D01*
X148729700Y-109188250D01*
X148729700Y-109080990D01*
X148633027Y-108847601D01*
X148454398Y-108668973D01*
X148221009Y-108572300D01*
X147529550Y-108572300D01*
X147370800Y-108731050D01*
X147116800Y-108731050D01*
X146958050Y-108572300D01*
X146266591Y-108572300D01*
X146033202Y-108668973D01*
X145854573Y-108847601D01*
X145757900Y-109080990D01*
X144951450Y-109080990D01*
X145079838Y-108771799D01*
X145080162Y-108399833D01*
X144938117Y-108056057D01*
X144675327Y-107792808D01*
X144437372Y-107694000D01*
X151720053Y-107694000D01*
X151471057Y-107796883D01*
G36*
X130151710Y-100240631D02*
X130403600Y-100291640D01*
X132435600Y-100291640D01*
X132590000Y-100262588D01*
X132590000Y-101346000D01*
X132647852Y-101636839D01*
X132812599Y-101883401D01*
X134336599Y-103407401D01*
X134583160Y-103572148D01*
X134631414Y-103581746D01*
X134874000Y-103630000D01*
X149098000Y-103630000D01*
X149388839Y-103572148D01*
X149635401Y-103407401D01*
X151286401Y-101756401D01*
X151451148Y-101509839D01*
X151462200Y-101454277D01*
X151462200Y-106174000D01*
X144072463Y-106174000D01*
X144040327Y-106141808D01*
X143696799Y-105999162D01*
X143324833Y-105998838D01*
X142981057Y-106140883D01*
X142717808Y-106403673D01*
X142575162Y-106747201D01*
X142574838Y-107119167D01*
X142716883Y-107462943D01*
X142979673Y-107726192D01*
X143323201Y-107868838D01*
X143538779Y-107869026D01*
X143352808Y-108054673D01*
X143210162Y-108398201D01*
X143209950Y-108641589D01*
X143164990Y-108610869D01*
X142921132Y-108561486D01*
X142921162Y-108526833D01*
X142779117Y-108183057D01*
X142516327Y-107919808D01*
X142172799Y-107777162D01*
X141800833Y-107776838D01*
X141457057Y-107918883D01*
X141193808Y-108181673D01*
X141051162Y-108525201D01*
X141051106Y-108590003D01*
X140975983Y-108604138D01*
X140759859Y-108743210D01*
X140614869Y-108955410D01*
X140563860Y-109207300D01*
X140563860Y-109740700D01*
X140595528Y-109909000D01*
X140127234Y-109909000D01*
X139886799Y-109809162D01*
X139514833Y-109808838D01*
X139216788Y-109931988D01*
X139217400Y-109930509D01*
X139217400Y-109759750D01*
X139058650Y-109601000D01*
X137693400Y-109601000D01*
X137693400Y-109621000D01*
X137439400Y-109621000D01*
X137439400Y-109601000D01*
X136074150Y-109601000D01*
X135915400Y-109759750D01*
X135915400Y-109930509D01*
X135943604Y-109998599D01*
X135726161Y-110041852D01*
X135479599Y-110206599D01*
X133010945Y-112675253D01*
X132994938Y-112650378D01*
X133032031Y-112596090D01*
X133083040Y-112344200D01*
X133083040Y-111683800D01*
X133038762Y-111448483D01*
X132994938Y-111380378D01*
X133032031Y-111326090D01*
X133083040Y-111074200D01*
X133083040Y-110413800D01*
X133038762Y-110178483D01*
X132994938Y-110110378D01*
X133032031Y-110056090D01*
X133083040Y-109804200D01*
X133083040Y-109143800D01*
X133059274Y-109017491D01*
X135915400Y-109017491D01*
X135915400Y-109188250D01*
X136074150Y-109347000D01*
X137439400Y-109347000D01*
X137439400Y-108667550D01*
X137693400Y-108667550D01*
X137693400Y-109347000D01*
X139058650Y-109347000D01*
X139217400Y-109188250D01*
X139217400Y-109017491D01*
X139120727Y-108784102D01*
X138942099Y-108605473D01*
X138708710Y-108508800D01*
X137852150Y-108508800D01*
X137693400Y-108667550D01*
X137439400Y-108667550D01*
X137280650Y-108508800D01*
X136424090Y-108508800D01*
X136190701Y-108605473D01*
X136012073Y-108784102D01*
X135915400Y-109017491D01*
X133059274Y-109017491D01*
X133038762Y-108908483D01*
X132899690Y-108692359D01*
X132687490Y-108547369D01*
X132435600Y-108496360D01*
X131542162Y-108496360D01*
X130602122Y-107556320D01*
X130602162Y-107510833D01*
X130460117Y-107167057D01*
X130197327Y-106903808D01*
X129853799Y-106761162D01*
X129481833Y-106760838D01*
X129138057Y-106902883D01*
X128874808Y-107165673D01*
X128732162Y-107509201D01*
X128731869Y-107845067D01*
X126648401Y-105761599D01*
X126401839Y-105596852D01*
X126111000Y-105539000D01*
X125605954Y-105539000D01*
X125412147Y-105248946D01*
X125082974Y-105029000D01*
X125412147Y-104809054D01*
X125734054Y-104327285D01*
X125737254Y-104311199D01*
X125759401Y-104296401D01*
X129951778Y-100104024D01*
X130151710Y-100240631D01*
X130151710Y-100240631D01*
G37*
X130151710Y-100240631D02*
X130403600Y-100291640D01*
X132435600Y-100291640D01*
X132590000Y-100262588D01*
X132590000Y-101346000D01*
X132647852Y-101636839D01*
X132812599Y-101883401D01*
X134336599Y-103407401D01*
X134583160Y-103572148D01*
X134631414Y-103581746D01*
X134874000Y-103630000D01*
X149098000Y-103630000D01*
X149388839Y-103572148D01*
X149635401Y-103407401D01*
X151286401Y-101756401D01*
X151451148Y-101509839D01*
X151462200Y-101454277D01*
X151462200Y-106174000D01*
X144072463Y-106174000D01*
X144040327Y-106141808D01*
X143696799Y-105999162D01*
X143324833Y-105998838D01*
X142981057Y-106140883D01*
X142717808Y-106403673D01*
X142575162Y-106747201D01*
X142574838Y-107119167D01*
X142716883Y-107462943D01*
X142979673Y-107726192D01*
X143323201Y-107868838D01*
X143538779Y-107869026D01*
X143352808Y-108054673D01*
X143210162Y-108398201D01*
X143209950Y-108641589D01*
X143164990Y-108610869D01*
X142921132Y-108561486D01*
X142921162Y-108526833D01*
X142779117Y-108183057D01*
X142516327Y-107919808D01*
X142172799Y-107777162D01*
X141800833Y-107776838D01*
X141457057Y-107918883D01*
X141193808Y-108181673D01*
X141051162Y-108525201D01*
X141051106Y-108590003D01*
X140975983Y-108604138D01*
X140759859Y-108743210D01*
X140614869Y-108955410D01*
X140563860Y-109207300D01*
X140563860Y-109740700D01*
X140595528Y-109909000D01*
X140127234Y-109909000D01*
X139886799Y-109809162D01*
X139514833Y-109808838D01*
X139216788Y-109931988D01*
X139217400Y-109930509D01*
X139217400Y-109759750D01*
X139058650Y-109601000D01*
X137693400Y-109601000D01*
X137693400Y-109621000D01*
X137439400Y-109621000D01*
X137439400Y-109601000D01*
X136074150Y-109601000D01*
X135915400Y-109759750D01*
X135915400Y-109930509D01*
X135943604Y-109998599D01*
X135726161Y-110041852D01*
X135479599Y-110206599D01*
X133010945Y-112675253D01*
X132994938Y-112650378D01*
X133032031Y-112596090D01*
X133083040Y-112344200D01*
X133083040Y-111683800D01*
X133038762Y-111448483D01*
X132994938Y-111380378D01*
X133032031Y-111326090D01*
X133083040Y-111074200D01*
X133083040Y-110413800D01*
X133038762Y-110178483D01*
X132994938Y-110110378D01*
X133032031Y-110056090D01*
X133083040Y-109804200D01*
X133083040Y-109143800D01*
X133059274Y-109017491D01*
X135915400Y-109017491D01*
X135915400Y-109188250D01*
X136074150Y-109347000D01*
X137439400Y-109347000D01*
X137439400Y-108667550D01*
X137693400Y-108667550D01*
X137693400Y-109347000D01*
X139058650Y-109347000D01*
X139217400Y-109188250D01*
X139217400Y-109017491D01*
X139120727Y-108784102D01*
X138942099Y-108605473D01*
X138708710Y-108508800D01*
X137852150Y-108508800D01*
X137693400Y-108667550D01*
X137439400Y-108667550D01*
X137280650Y-108508800D01*
X136424090Y-108508800D01*
X136190701Y-108605473D01*
X136012073Y-108784102D01*
X135915400Y-109017491D01*
X133059274Y-109017491D01*
X133038762Y-108908483D01*
X132899690Y-108692359D01*
X132687490Y-108547369D01*
X132435600Y-108496360D01*
X131542162Y-108496360D01*
X130602122Y-107556320D01*
X130602162Y-107510833D01*
X130460117Y-107167057D01*
X130197327Y-106903808D01*
X129853799Y-106761162D01*
X129481833Y-106760838D01*
X129138057Y-106902883D01*
X128874808Y-107165673D01*
X128732162Y-107509201D01*
X128731869Y-107845067D01*
X126648401Y-105761599D01*
X126401839Y-105596852D01*
X126111000Y-105539000D01*
X125605954Y-105539000D01*
X125412147Y-105248946D01*
X125082974Y-105029000D01*
X125412147Y-104809054D01*
X125734054Y-104327285D01*
X125737254Y-104311199D01*
X125759401Y-104296401D01*
X129951778Y-100104024D01*
X130151710Y-100240631D01*
G36*
X155418599Y-101756401D02*
X155665161Y-101921148D01*
X155956000Y-101979000D01*
X163700046Y-101979000D01*
X163893853Y-102269054D01*
X164223026Y-102489000D01*
X163893853Y-102708946D01*
X163700046Y-102999000D01*
X160528000Y-102999000D01*
X160237161Y-103056852D01*
X159990599Y-103221599D01*
X158847599Y-104364599D01*
X158682852Y-104611161D01*
X158625000Y-104902000D01*
X158625000Y-108679575D01*
X158614398Y-108668973D01*
X158381009Y-108572300D01*
X157689550Y-108572300D01*
X157530800Y-108731050D01*
X157530800Y-109347000D01*
X157550800Y-109347000D01*
X157550800Y-109601000D01*
X157530800Y-109601000D01*
X157530800Y-109621000D01*
X157276800Y-109621000D01*
X157276800Y-109601000D01*
X157256800Y-109601000D01*
X157256800Y-109347000D01*
X157276800Y-109347000D01*
X157276800Y-108731050D01*
X157118050Y-108572300D01*
X156426591Y-108572300D01*
X156193202Y-108668973D01*
X156014573Y-108847601D01*
X155917900Y-109080990D01*
X155917900Y-109188250D01*
X156030604Y-109300954D01*
X155897833Y-109300838D01*
X155781272Y-109349000D01*
X154492802Y-109349000D01*
X154080401Y-108936599D01*
X154003116Y-108884959D01*
X154236167Y-108885162D01*
X154579943Y-108743117D01*
X154613118Y-108710000D01*
X155012537Y-108710000D01*
X155044673Y-108742192D01*
X155388201Y-108884838D01*
X155760167Y-108885162D01*
X156103943Y-108743117D01*
X156367192Y-108480327D01*
X156509838Y-108136799D01*
X156510162Y-107764833D01*
X156368117Y-107421057D01*
X156105327Y-107157808D01*
X155761799Y-107015162D01*
X155389833Y-107014838D01*
X155046057Y-107156883D01*
X155012882Y-107190000D01*
X154613463Y-107190000D01*
X154581327Y-107157808D01*
X154237799Y-107015162D01*
X153865833Y-107014838D01*
X153522057Y-107156883D01*
X153258808Y-107419673D01*
X153116162Y-107763201D01*
X153115838Y-108135167D01*
X153257883Y-108478943D01*
X153492530Y-108714000D01*
X153475927Y-108714000D01*
X153324990Y-108610869D01*
X153073100Y-108559860D01*
X152935027Y-108559860D01*
X152935162Y-108404833D01*
X152793117Y-108061057D01*
X152530327Y-107797808D01*
X152186799Y-107655162D01*
X152087684Y-107655076D01*
X152182839Y-107636148D01*
X152429401Y-107471401D01*
X152759601Y-107141201D01*
X152924348Y-106894640D01*
X152982200Y-106603800D01*
X152982200Y-100228140D01*
X153073100Y-100228140D01*
X153308417Y-100183862D01*
X153524541Y-100044790D01*
X153598600Y-99936402D01*
X155418599Y-101756401D01*
X155418599Y-101756401D01*
G37*
X155418599Y-101756401D02*
X155665161Y-101921148D01*
X155956000Y-101979000D01*
X163700046Y-101979000D01*
X163893853Y-102269054D01*
X164223026Y-102489000D01*
X163893853Y-102708946D01*
X163700046Y-102999000D01*
X160528000Y-102999000D01*
X160237161Y-103056852D01*
X159990599Y-103221599D01*
X158847599Y-104364599D01*
X158682852Y-104611161D01*
X158625000Y-104902000D01*
X158625000Y-108679575D01*
X158614398Y-108668973D01*
X158381009Y-108572300D01*
X157689550Y-108572300D01*
X157530800Y-108731050D01*
X157530800Y-109347000D01*
X157550800Y-109347000D01*
X157550800Y-109601000D01*
X157530800Y-109601000D01*
X157530800Y-109621000D01*
X157276800Y-109621000D01*
X157276800Y-109601000D01*
X157256800Y-109601000D01*
X157256800Y-109347000D01*
X157276800Y-109347000D01*
X157276800Y-108731050D01*
X157118050Y-108572300D01*
X156426591Y-108572300D01*
X156193202Y-108668973D01*
X156014573Y-108847601D01*
X155917900Y-109080990D01*
X155917900Y-109188250D01*
X156030604Y-109300954D01*
X155897833Y-109300838D01*
X155781272Y-109349000D01*
X154492802Y-109349000D01*
X154080401Y-108936599D01*
X154003116Y-108884959D01*
X154236167Y-108885162D01*
X154579943Y-108743117D01*
X154613118Y-108710000D01*
X155012537Y-108710000D01*
X155044673Y-108742192D01*
X155388201Y-108884838D01*
X155760167Y-108885162D01*
X156103943Y-108743117D01*
X156367192Y-108480327D01*
X156509838Y-108136799D01*
X156510162Y-107764833D01*
X156368117Y-107421057D01*
X156105327Y-107157808D01*
X155761799Y-107015162D01*
X155389833Y-107014838D01*
X155046057Y-107156883D01*
X155012882Y-107190000D01*
X154613463Y-107190000D01*
X154581327Y-107157808D01*
X154237799Y-107015162D01*
X153865833Y-107014838D01*
X153522057Y-107156883D01*
X153258808Y-107419673D01*
X153116162Y-107763201D01*
X153115838Y-108135167D01*
X153257883Y-108478943D01*
X153492530Y-108714000D01*
X153475927Y-108714000D01*
X153324990Y-108610869D01*
X153073100Y-108559860D01*
X152935027Y-108559860D01*
X152935162Y-108404833D01*
X152793117Y-108061057D01*
X152530327Y-107797808D01*
X152186799Y-107655162D01*
X152087684Y-107655076D01*
X152182839Y-107636148D01*
X152429401Y-107471401D01*
X152759601Y-107141201D01*
X152924348Y-106894640D01*
X152982200Y-106603800D01*
X152982200Y-100228140D01*
X153073100Y-100228140D01*
X153308417Y-100183862D01*
X153524541Y-100044790D01*
X153598600Y-99936402D01*
X155418599Y-101756401D01*
G36*
X140897000Y-60543868D02*
X140897000Y-65151000D01*
X140960561Y-65470541D01*
X141111101Y-65695840D01*
X141141566Y-65741434D01*
X147745566Y-72345434D01*
X148016459Y-72526439D01*
X148336000Y-72590000D01*
X149686766Y-72590000D01*
X149927201Y-72689838D01*
X150299167Y-72690162D01*
X150642943Y-72548117D01*
X150906192Y-72285327D01*
X151048838Y-71941799D01*
X151049162Y-71569833D01*
X150987201Y-71419876D01*
X151315167Y-71420162D01*
X151658943Y-71278117D01*
X151698163Y-71238965D01*
X151972878Y-71513680D01*
X151972838Y-71559167D01*
X152114883Y-71902943D01*
X152360560Y-72149049D01*
X152360560Y-73366560D01*
X151033000Y-73366560D01*
X150797683Y-73410838D01*
X150581559Y-73549910D01*
X150436569Y-73762110D01*
X150385560Y-74014000D01*
X150385560Y-74564000D01*
X150409944Y-74693589D01*
X150385560Y-74814000D01*
X150385560Y-75364000D01*
X150405450Y-75469705D01*
X150398000Y-75487690D01*
X150398000Y-75603250D01*
X150494401Y-75699651D01*
X150534520Y-75761998D01*
X150398000Y-75761998D01*
X150398000Y-75854000D01*
X150241478Y-75854000D01*
X150046799Y-75773162D01*
X149674833Y-75772838D01*
X149331057Y-75914883D01*
X149067808Y-76177673D01*
X148925162Y-76521201D01*
X148924838Y-76893167D01*
X149066883Y-77236943D01*
X149283562Y-77454000D01*
X148660000Y-77454000D01*
X148340460Y-77517560D01*
X148069566Y-77698566D01*
X147364566Y-78403566D01*
X147183561Y-78674459D01*
X147120000Y-78994000D01*
X147120000Y-87249000D01*
X147183561Y-87568541D01*
X147306195Y-87752076D01*
X147364566Y-87839434D01*
X149787000Y-90261868D01*
X149787000Y-91266766D01*
X149687162Y-91507201D01*
X149686838Y-91879167D01*
X149828883Y-92222943D01*
X150091673Y-92486192D01*
X150435201Y-92628838D01*
X150737671Y-92629101D01*
X150723860Y-92697300D01*
X150723860Y-93230700D01*
X150768138Y-93466017D01*
X150854049Y-93599526D01*
X150774869Y-93715410D01*
X150723860Y-93967300D01*
X150723860Y-94150058D01*
X149000401Y-92426599D01*
X148753839Y-92261852D01*
X148669002Y-92244977D01*
X148691131Y-92212590D01*
X148742140Y-91960700D01*
X148742140Y-91427300D01*
X148697862Y-91191983D01*
X148617042Y-91066384D01*
X148633027Y-91050399D01*
X148729700Y-90817010D01*
X148729700Y-90709750D01*
X148570950Y-90551000D01*
X147370800Y-90551000D01*
X147370800Y-90571000D01*
X147116800Y-90571000D01*
X147116800Y-90551000D01*
X147096800Y-90551000D01*
X147096800Y-90297000D01*
X147116800Y-90297000D01*
X147116800Y-89681050D01*
X147370800Y-89681050D01*
X147370800Y-90297000D01*
X148570950Y-90297000D01*
X148729700Y-90138250D01*
X148729700Y-90030990D01*
X148633027Y-89797601D01*
X148454398Y-89618973D01*
X148221009Y-89522300D01*
X147529550Y-89522300D01*
X147370800Y-89681050D01*
X147116800Y-89681050D01*
X146958050Y-89522300D01*
X146266591Y-89522300D01*
X146033202Y-89618973D01*
X145854573Y-89797601D01*
X145757900Y-90030990D01*
X145757900Y-90112648D01*
X145426799Y-89975162D01*
X145054833Y-89974838D01*
X144711057Y-90116883D01*
X144447808Y-90379673D01*
X144305162Y-90723201D01*
X144304838Y-91095167D01*
X144355169Y-91216978D01*
X144167327Y-91028808D01*
X143823799Y-90886162D01*
X143645772Y-90886007D01*
X143525821Y-90862147D01*
X143560540Y-90690700D01*
X143560540Y-90157300D01*
X143516262Y-89921983D01*
X143377190Y-89705859D01*
X143164990Y-89560869D01*
X142913100Y-89509860D01*
X141211300Y-89509860D01*
X140975983Y-89554138D01*
X140759859Y-89693210D01*
X140749904Y-89707780D01*
X140679161Y-89721852D01*
X140432599Y-89886599D01*
X139670599Y-90648599D01*
X139505852Y-90895161D01*
X139448000Y-91186000D01*
X139448000Y-91258537D01*
X139415808Y-91290673D01*
X139273162Y-91634201D01*
X139272838Y-92006167D01*
X139414883Y-92349943D01*
X139502218Y-92437430D01*
X139448000Y-92710000D01*
X139448000Y-96713198D01*
X139229840Y-96931358D01*
X139229840Y-96443800D01*
X139185562Y-96208483D01*
X139141738Y-96140378D01*
X139178831Y-96086090D01*
X139229840Y-95834200D01*
X139229840Y-95173800D01*
X139185562Y-94938483D01*
X139141738Y-94870378D01*
X139178831Y-94816090D01*
X139229840Y-94564200D01*
X139229840Y-93903800D01*
X139185562Y-93668483D01*
X139141738Y-93600378D01*
X139178831Y-93546090D01*
X139229840Y-93294200D01*
X139229840Y-92633800D01*
X139185562Y-92398483D01*
X139141738Y-92330378D01*
X139178831Y-92276090D01*
X139229840Y-92024200D01*
X139229840Y-91363800D01*
X139185562Y-91128483D01*
X139142442Y-91061473D01*
X139217400Y-90880509D01*
X139217400Y-90709750D01*
X139058650Y-90551000D01*
X137693400Y-90551000D01*
X137693400Y-90571000D01*
X137439400Y-90571000D01*
X137439400Y-90551000D01*
X136074150Y-90551000D01*
X135915400Y-90709750D01*
X135915400Y-90880509D01*
X135989631Y-91059717D01*
X135953969Y-91111910D01*
X135902960Y-91363800D01*
X135902960Y-91495238D01*
X133083040Y-94315158D01*
X133083040Y-93903800D01*
X133038762Y-93668483D01*
X132994938Y-93600378D01*
X133032031Y-93546090D01*
X133083040Y-93294200D01*
X133083040Y-92633800D01*
X133038762Y-92398483D01*
X132994938Y-92330378D01*
X133032031Y-92276090D01*
X133083040Y-92024200D01*
X133083040Y-91363800D01*
X133038762Y-91128483D01*
X132994938Y-91060378D01*
X133032031Y-91006090D01*
X133083040Y-90754200D01*
X133083040Y-90093800D01*
X133059274Y-89967491D01*
X135915400Y-89967491D01*
X135915400Y-90138250D01*
X136074150Y-90297000D01*
X137439400Y-90297000D01*
X137439400Y-89617550D01*
X137693400Y-89617550D01*
X137693400Y-90297000D01*
X139058650Y-90297000D01*
X139217400Y-90138250D01*
X139217400Y-89967491D01*
X139120727Y-89734102D01*
X138942099Y-89555473D01*
X138708710Y-89458800D01*
X137852150Y-89458800D01*
X137693400Y-89617550D01*
X137439400Y-89617550D01*
X137280650Y-89458800D01*
X136424090Y-89458800D01*
X136190701Y-89555473D01*
X136012073Y-89734102D01*
X135915400Y-89967491D01*
X133059274Y-89967491D01*
X133038762Y-89858483D01*
X132899690Y-89642359D01*
X132687490Y-89497369D01*
X132435600Y-89446360D01*
X130403600Y-89446360D01*
X130168283Y-89490638D01*
X129996524Y-89601162D01*
X129726799Y-89489162D01*
X129354833Y-89488838D01*
X129210389Y-89548521D01*
X127200000Y-87538132D01*
X127200000Y-85725000D01*
X127179534Y-85622110D01*
X127136440Y-85405460D01*
X126955434Y-85134566D01*
X126193434Y-84372566D01*
X126170738Y-84357401D01*
X125922541Y-84191561D01*
X125603000Y-84128000D01*
X122646868Y-84128000D01*
X121612000Y-83093132D01*
X121612000Y-77374383D01*
X124759769Y-77374383D01*
X124962582Y-77865229D01*
X125337796Y-78241098D01*
X125828287Y-78444768D01*
X126359383Y-78445231D01*
X126850229Y-78242418D01*
X127047716Y-78045275D01*
X127879331Y-78045275D01*
X127941169Y-78281042D01*
X128442122Y-78457419D01*
X128972440Y-78428664D01*
X129328831Y-78281042D01*
X129390669Y-78045275D01*
X128635000Y-77289605D01*
X127879331Y-78045275D01*
X127047716Y-78045275D01*
X127226098Y-77867204D01*
X127358316Y-77548788D01*
X127463958Y-77803831D01*
X127699725Y-77865669D01*
X128455395Y-77110000D01*
X128814605Y-77110000D01*
X129570275Y-77865669D01*
X129806042Y-77803831D01*
X129903196Y-77527889D01*
X130042582Y-77865229D01*
X130417796Y-78241098D01*
X130908287Y-78444768D01*
X131439383Y-78445231D01*
X131930229Y-78242418D01*
X132306098Y-77867204D01*
X132445091Y-77532473D01*
X132582582Y-77865229D01*
X132880000Y-78163166D01*
X132880000Y-86515000D01*
X132943561Y-86834541D01*
X133124566Y-87105434D01*
X134349566Y-88330434D01*
X134620460Y-88511440D01*
X134940000Y-88575000D01*
X141722766Y-88575000D01*
X141963201Y-88674838D01*
X142335167Y-88675162D01*
X142678943Y-88533117D01*
X142942192Y-88270327D01*
X143084838Y-87926799D01*
X143085162Y-87554833D01*
X142943117Y-87211057D01*
X142680327Y-86947808D01*
X142336799Y-86805162D01*
X141964833Y-86804838D01*
X141722422Y-86905000D01*
X135285868Y-86905000D01*
X134550000Y-86169132D01*
X134550000Y-84842000D01*
X142220560Y-84842000D01*
X142220560Y-85592000D01*
X142264838Y-85827317D01*
X142403910Y-86043441D01*
X142616110Y-86188431D01*
X142868000Y-86239440D01*
X143668000Y-86239440D01*
X143903317Y-86195162D01*
X144006646Y-86128671D01*
X144008302Y-86130327D01*
X144241691Y-86227000D01*
X144482250Y-86227000D01*
X144641000Y-86068250D01*
X144641000Y-85344000D01*
X144895000Y-85344000D01*
X144895000Y-86068250D01*
X145053750Y-86227000D01*
X145294309Y-86227000D01*
X145527698Y-86130327D01*
X145706327Y-85951699D01*
X145803000Y-85718310D01*
X145803000Y-85502750D01*
X145644250Y-85344000D01*
X144895000Y-85344000D01*
X144641000Y-85344000D01*
X144621000Y-85344000D01*
X144621000Y-85090000D01*
X144641000Y-85090000D01*
X144641000Y-84365750D01*
X144895000Y-84365750D01*
X144895000Y-85090000D01*
X145644250Y-85090000D01*
X145803000Y-84931250D01*
X145803000Y-84715690D01*
X145706327Y-84482301D01*
X145527698Y-84303673D01*
X145294309Y-84207000D01*
X145053750Y-84207000D01*
X144895000Y-84365750D01*
X144641000Y-84365750D01*
X144482250Y-84207000D01*
X144241691Y-84207000D01*
X144028000Y-84295514D01*
X144028000Y-82211120D01*
X144165285Y-82211240D01*
X144674515Y-82000831D01*
X145064461Y-81611564D01*
X145275759Y-81102702D01*
X145276240Y-80551715D01*
X145065831Y-80042485D01*
X144676564Y-79652539D01*
X144167702Y-79441241D01*
X143616715Y-79440760D01*
X143107485Y-79651169D01*
X142717539Y-80040436D01*
X142506241Y-80549298D01*
X142505760Y-81100285D01*
X142546844Y-81199717D01*
X142508000Y-81395000D01*
X142508000Y-84319069D01*
X142416559Y-84377910D01*
X142271569Y-84590110D01*
X142220560Y-84842000D01*
X134550000Y-84842000D01*
X134550000Y-78162786D01*
X134846098Y-77867204D01*
X135049768Y-77376713D01*
X135050135Y-76955733D01*
X135575434Y-76430434D01*
X135603480Y-76388460D01*
X135756439Y-76159541D01*
X135820000Y-75840000D01*
X135820000Y-75622786D01*
X136116098Y-75327204D01*
X136319768Y-74836713D01*
X136320231Y-74305617D01*
X136117418Y-73814771D01*
X135742204Y-73438902D01*
X135251713Y-73235232D01*
X134720617Y-73234769D01*
X134229771Y-73437582D01*
X133853902Y-73812796D01*
X133714909Y-74147527D01*
X133577418Y-73814771D01*
X133202204Y-73438902D01*
X132711713Y-73235232D01*
X132180617Y-73234769D01*
X131689771Y-73437582D01*
X131313902Y-73812796D01*
X131181684Y-74131212D01*
X131076042Y-73876169D01*
X130840275Y-73814331D01*
X130084605Y-74570000D01*
X130840275Y-75325669D01*
X131076042Y-75263831D01*
X131173196Y-74987889D01*
X131312582Y-75325229D01*
X131545539Y-75558593D01*
X131328998Y-75775134D01*
X130910617Y-75774769D01*
X130419771Y-75977582D01*
X130043902Y-76352796D01*
X129911684Y-76671212D01*
X129806042Y-76416169D01*
X129570275Y-76354331D01*
X128814605Y-77110000D01*
X128455395Y-77110000D01*
X127699725Y-76354331D01*
X127463958Y-76416169D01*
X127366804Y-76692111D01*
X127227418Y-76354771D01*
X127047686Y-76174725D01*
X127879331Y-76174725D01*
X128635000Y-76930395D01*
X129390669Y-76174725D01*
X129328831Y-75938958D01*
X128827878Y-75762581D01*
X128297560Y-75791336D01*
X127941169Y-75938958D01*
X127879331Y-76174725D01*
X127047686Y-76174725D01*
X126852204Y-75978902D01*
X126361713Y-75775232D01*
X125830617Y-75774769D01*
X125339771Y-75977582D01*
X124963902Y-76352796D01*
X124760232Y-76843287D01*
X124759769Y-77374383D01*
X121612000Y-77374383D01*
X121612000Y-74834383D01*
X126029769Y-74834383D01*
X126232582Y-75325229D01*
X126607796Y-75701098D01*
X127098287Y-75904768D01*
X127629383Y-75905231D01*
X128120229Y-75702418D01*
X128317716Y-75505275D01*
X129149331Y-75505275D01*
X129211169Y-75741042D01*
X129712122Y-75917419D01*
X130242440Y-75888664D01*
X130598831Y-75741042D01*
X130660669Y-75505275D01*
X129905000Y-74749605D01*
X129149331Y-75505275D01*
X128317716Y-75505275D01*
X128496098Y-75327204D01*
X128628316Y-75008788D01*
X128733958Y-75263831D01*
X128969725Y-75325669D01*
X129725395Y-74570000D01*
X128969725Y-73814331D01*
X128733958Y-73876169D01*
X128636804Y-74152111D01*
X128497418Y-73814771D01*
X128317686Y-73634725D01*
X129149331Y-73634725D01*
X129905000Y-74390395D01*
X130660669Y-73634725D01*
X130598831Y-73398958D01*
X130097878Y-73222581D01*
X129567560Y-73251336D01*
X129211169Y-73398958D01*
X129149331Y-73634725D01*
X128317686Y-73634725D01*
X128122204Y-73438902D01*
X127631713Y-73235232D01*
X127100617Y-73234769D01*
X126609771Y-73437582D01*
X126233902Y-73812796D01*
X126030232Y-74303287D01*
X126029769Y-74834383D01*
X121612000Y-74834383D01*
X121612000Y-72768064D01*
X121720839Y-72877093D01*
X122413405Y-73164672D01*
X123163305Y-73165326D01*
X123856372Y-72878957D01*
X124387093Y-72349161D01*
X124674672Y-71656595D01*
X124675326Y-70906695D01*
X124503036Y-70489720D01*
X125272570Y-70490391D01*
X126103515Y-70147052D01*
X126739818Y-69511859D01*
X127084607Y-68681514D01*
X127084610Y-68677570D01*
X133994609Y-68677570D01*
X134337948Y-69508515D01*
X134973141Y-70144818D01*
X135803486Y-70489607D01*
X136576872Y-70490281D01*
X136405328Y-70903405D01*
X136404674Y-71653305D01*
X136691043Y-72346372D01*
X137220839Y-72877093D01*
X137913405Y-73164672D01*
X138663305Y-73165326D01*
X139356372Y-72878957D01*
X139887093Y-72349161D01*
X140174672Y-71656595D01*
X140175134Y-71126000D01*
X142093560Y-71126000D01*
X142093560Y-71876000D01*
X142137838Y-72111317D01*
X142276910Y-72327441D01*
X142381000Y-72398563D01*
X142381000Y-74815000D01*
X142438852Y-75105839D01*
X142603599Y-75352401D01*
X142627785Y-75376587D01*
X142506241Y-75669298D01*
X142505760Y-76220285D01*
X142716169Y-76729515D01*
X143105436Y-77119461D01*
X143614298Y-77330759D01*
X144165285Y-77331240D01*
X144674515Y-77120831D01*
X145064461Y-76731564D01*
X145275759Y-76222702D01*
X145276240Y-75671715D01*
X145065831Y-75162485D01*
X144676564Y-74772539D01*
X144167702Y-74561241D01*
X143961863Y-74561061D01*
X143901000Y-74500198D01*
X143901000Y-72422486D01*
X144114691Y-72511000D01*
X144355250Y-72511000D01*
X144514000Y-72352250D01*
X144514000Y-71628000D01*
X144768000Y-71628000D01*
X144768000Y-72352250D01*
X144926750Y-72511000D01*
X145167309Y-72511000D01*
X145400698Y-72414327D01*
X145579327Y-72235699D01*
X145676000Y-72002310D01*
X145676000Y-71786750D01*
X145517250Y-71628000D01*
X144768000Y-71628000D01*
X144514000Y-71628000D01*
X144494000Y-71628000D01*
X144494000Y-71374000D01*
X144514000Y-71374000D01*
X144514000Y-70649750D01*
X144768000Y-70649750D01*
X144768000Y-71374000D01*
X145517250Y-71374000D01*
X145676000Y-71215250D01*
X145676000Y-70999690D01*
X145579327Y-70766301D01*
X145400698Y-70587673D01*
X145167309Y-70491000D01*
X144926750Y-70491000D01*
X144768000Y-70649750D01*
X144514000Y-70649750D01*
X144355250Y-70491000D01*
X144114691Y-70491000D01*
X143881302Y-70587673D01*
X143879932Y-70589043D01*
X143792890Y-70529569D01*
X143541000Y-70478560D01*
X142741000Y-70478560D01*
X142505683Y-70522838D01*
X142289559Y-70661910D01*
X142144569Y-70874110D01*
X142093560Y-71126000D01*
X140175134Y-71126000D01*
X140175326Y-70906695D01*
X139888957Y-70213628D01*
X139359161Y-69682907D01*
X138666595Y-69395328D01*
X138218368Y-69394937D01*
X138514607Y-68681514D01*
X138515391Y-67782430D01*
X138172052Y-66951485D01*
X137536859Y-66315182D01*
X136706514Y-65970393D01*
X135807430Y-65969609D01*
X134976485Y-66312948D01*
X134340182Y-66948141D01*
X133995393Y-67778486D01*
X133994609Y-68677570D01*
X127084610Y-68677570D01*
X127085391Y-67782430D01*
X126742052Y-66951485D01*
X126106859Y-66315182D01*
X125276514Y-65970393D01*
X125053243Y-65970198D01*
X125388461Y-65635564D01*
X125599759Y-65126702D01*
X125599761Y-65124285D01*
X132939760Y-65124285D01*
X133150169Y-65633515D01*
X133539436Y-66023461D01*
X134048298Y-66234759D01*
X134599285Y-66235240D01*
X135108515Y-66024831D01*
X135498461Y-65635564D01*
X135709759Y-65126702D01*
X135710240Y-64575715D01*
X135499831Y-64066485D01*
X135110564Y-63676539D01*
X134936558Y-63604285D01*
X135479760Y-63604285D01*
X135690169Y-64113515D01*
X136079436Y-64503461D01*
X136588298Y-64714759D01*
X137139285Y-64715240D01*
X137648515Y-64504831D01*
X138038461Y-64115564D01*
X138249759Y-63606702D01*
X138250240Y-63055715D01*
X138039831Y-62546485D01*
X137650564Y-62156539D01*
X137141702Y-61945241D01*
X136590715Y-61944760D01*
X136081485Y-62155169D01*
X135691539Y-62544436D01*
X135480241Y-63053298D01*
X135479760Y-63604285D01*
X134936558Y-63604285D01*
X134601702Y-63465241D01*
X134050715Y-63464760D01*
X133541485Y-63675169D01*
X133151539Y-64064436D01*
X132940241Y-64573298D01*
X132939760Y-65124285D01*
X125599761Y-65124285D01*
X125600240Y-64575715D01*
X125389831Y-64066485D01*
X125000564Y-63676539D01*
X124826558Y-63604285D01*
X125369760Y-63604285D01*
X125580169Y-64113515D01*
X125969436Y-64503461D01*
X126478298Y-64714759D01*
X127029285Y-64715240D01*
X127538515Y-64504831D01*
X127928461Y-64115564D01*
X128139759Y-63606702D01*
X128140240Y-63055715D01*
X127929831Y-62546485D01*
X127540564Y-62156539D01*
X127031702Y-61945241D01*
X126480715Y-61944760D01*
X125971485Y-62155169D01*
X125581539Y-62544436D01*
X125370241Y-63053298D01*
X125369760Y-63604285D01*
X124826558Y-63604285D01*
X124491702Y-63465241D01*
X123940715Y-63464760D01*
X123431485Y-63675169D01*
X123041539Y-64064436D01*
X122830241Y-64573298D01*
X122829760Y-65124285D01*
X123040169Y-65633515D01*
X123429436Y-66023461D01*
X123837258Y-66192803D01*
X123546485Y-66312948D01*
X122910182Y-66948141D01*
X122565393Y-67778486D01*
X122564609Y-68677570D01*
X122861070Y-69395062D01*
X122416695Y-69394674D01*
X121723628Y-69681043D01*
X121612000Y-69792476D01*
X121612000Y-60162868D01*
X123281868Y-58493000D01*
X138846132Y-58493000D01*
X140897000Y-60543868D01*
X140897000Y-60543868D01*
G37*
X140897000Y-60543868D02*
X140897000Y-65151000D01*
X140960561Y-65470541D01*
X141111101Y-65695840D01*
X141141566Y-65741434D01*
X147745566Y-72345434D01*
X148016459Y-72526439D01*
X148336000Y-72590000D01*
X149686766Y-72590000D01*
X149927201Y-72689838D01*
X150299167Y-72690162D01*
X150642943Y-72548117D01*
X150906192Y-72285327D01*
X151048838Y-71941799D01*
X151049162Y-71569833D01*
X150987201Y-71419876D01*
X151315167Y-71420162D01*
X151658943Y-71278117D01*
X151698163Y-71238965D01*
X151972878Y-71513680D01*
X151972838Y-71559167D01*
X152114883Y-71902943D01*
X152360560Y-72149049D01*
X152360560Y-73366560D01*
X151033000Y-73366560D01*
X150797683Y-73410838D01*
X150581559Y-73549910D01*
X150436569Y-73762110D01*
X150385560Y-74014000D01*
X150385560Y-74564000D01*
X150409944Y-74693589D01*
X150385560Y-74814000D01*
X150385560Y-75364000D01*
X150405450Y-75469705D01*
X150398000Y-75487690D01*
X150398000Y-75603250D01*
X150494401Y-75699651D01*
X150534520Y-75761998D01*
X150398000Y-75761998D01*
X150398000Y-75854000D01*
X150241478Y-75854000D01*
X150046799Y-75773162D01*
X149674833Y-75772838D01*
X149331057Y-75914883D01*
X149067808Y-76177673D01*
X148925162Y-76521201D01*
X148924838Y-76893167D01*
X149066883Y-77236943D01*
X149283562Y-77454000D01*
X148660000Y-77454000D01*
X148340460Y-77517560D01*
X148069566Y-77698566D01*
X147364566Y-78403566D01*
X147183561Y-78674459D01*
X147120000Y-78994000D01*
X147120000Y-87249000D01*
X147183561Y-87568541D01*
X147306195Y-87752076D01*
X147364566Y-87839434D01*
X149787000Y-90261868D01*
X149787000Y-91266766D01*
X149687162Y-91507201D01*
X149686838Y-91879167D01*
X149828883Y-92222943D01*
X150091673Y-92486192D01*
X150435201Y-92628838D01*
X150737671Y-92629101D01*
X150723860Y-92697300D01*
X150723860Y-93230700D01*
X150768138Y-93466017D01*
X150854049Y-93599526D01*
X150774869Y-93715410D01*
X150723860Y-93967300D01*
X150723860Y-94150058D01*
X149000401Y-92426599D01*
X148753839Y-92261852D01*
X148669002Y-92244977D01*
X148691131Y-92212590D01*
X148742140Y-91960700D01*
X148742140Y-91427300D01*
X148697862Y-91191983D01*
X148617042Y-91066384D01*
X148633027Y-91050399D01*
X148729700Y-90817010D01*
X148729700Y-90709750D01*
X148570950Y-90551000D01*
X147370800Y-90551000D01*
X147370800Y-90571000D01*
X147116800Y-90571000D01*
X147116800Y-90551000D01*
X147096800Y-90551000D01*
X147096800Y-90297000D01*
X147116800Y-90297000D01*
X147116800Y-89681050D01*
X147370800Y-89681050D01*
X147370800Y-90297000D01*
X148570950Y-90297000D01*
X148729700Y-90138250D01*
X148729700Y-90030990D01*
X148633027Y-89797601D01*
X148454398Y-89618973D01*
X148221009Y-89522300D01*
X147529550Y-89522300D01*
X147370800Y-89681050D01*
X147116800Y-89681050D01*
X146958050Y-89522300D01*
X146266591Y-89522300D01*
X146033202Y-89618973D01*
X145854573Y-89797601D01*
X145757900Y-90030990D01*
X145757900Y-90112648D01*
X145426799Y-89975162D01*
X145054833Y-89974838D01*
X144711057Y-90116883D01*
X144447808Y-90379673D01*
X144305162Y-90723201D01*
X144304838Y-91095167D01*
X144355169Y-91216978D01*
X144167327Y-91028808D01*
X143823799Y-90886162D01*
X143645772Y-90886007D01*
X143525821Y-90862147D01*
X143560540Y-90690700D01*
X143560540Y-90157300D01*
X143516262Y-89921983D01*
X143377190Y-89705859D01*
X143164990Y-89560869D01*
X142913100Y-89509860D01*
X141211300Y-89509860D01*
X140975983Y-89554138D01*
X140759859Y-89693210D01*
X140749904Y-89707780D01*
X140679161Y-89721852D01*
X140432599Y-89886599D01*
X139670599Y-90648599D01*
X139505852Y-90895161D01*
X139448000Y-91186000D01*
X139448000Y-91258537D01*
X139415808Y-91290673D01*
X139273162Y-91634201D01*
X139272838Y-92006167D01*
X139414883Y-92349943D01*
X139502218Y-92437430D01*
X139448000Y-92710000D01*
X139448000Y-96713198D01*
X139229840Y-96931358D01*
X139229840Y-96443800D01*
X139185562Y-96208483D01*
X139141738Y-96140378D01*
X139178831Y-96086090D01*
X139229840Y-95834200D01*
X139229840Y-95173800D01*
X139185562Y-94938483D01*
X139141738Y-94870378D01*
X139178831Y-94816090D01*
X139229840Y-94564200D01*
X139229840Y-93903800D01*
X139185562Y-93668483D01*
X139141738Y-93600378D01*
X139178831Y-93546090D01*
X139229840Y-93294200D01*
X139229840Y-92633800D01*
X139185562Y-92398483D01*
X139141738Y-92330378D01*
X139178831Y-92276090D01*
X139229840Y-92024200D01*
X139229840Y-91363800D01*
X139185562Y-91128483D01*
X139142442Y-91061473D01*
X139217400Y-90880509D01*
X139217400Y-90709750D01*
X139058650Y-90551000D01*
X137693400Y-90551000D01*
X137693400Y-90571000D01*
X137439400Y-90571000D01*
X137439400Y-90551000D01*
X136074150Y-90551000D01*
X135915400Y-90709750D01*
X135915400Y-90880509D01*
X135989631Y-91059717D01*
X135953969Y-91111910D01*
X135902960Y-91363800D01*
X135902960Y-91495238D01*
X133083040Y-94315158D01*
X133083040Y-93903800D01*
X133038762Y-93668483D01*
X132994938Y-93600378D01*
X133032031Y-93546090D01*
X133083040Y-93294200D01*
X133083040Y-92633800D01*
X133038762Y-92398483D01*
X132994938Y-92330378D01*
X133032031Y-92276090D01*
X133083040Y-92024200D01*
X133083040Y-91363800D01*
X133038762Y-91128483D01*
X132994938Y-91060378D01*
X133032031Y-91006090D01*
X133083040Y-90754200D01*
X133083040Y-90093800D01*
X133059274Y-89967491D01*
X135915400Y-89967491D01*
X135915400Y-90138250D01*
X136074150Y-90297000D01*
X137439400Y-90297000D01*
X137439400Y-89617550D01*
X137693400Y-89617550D01*
X137693400Y-90297000D01*
X139058650Y-90297000D01*
X139217400Y-90138250D01*
X139217400Y-89967491D01*
X139120727Y-89734102D01*
X138942099Y-89555473D01*
X138708710Y-89458800D01*
X137852150Y-89458800D01*
X137693400Y-89617550D01*
X137439400Y-89617550D01*
X137280650Y-89458800D01*
X136424090Y-89458800D01*
X136190701Y-89555473D01*
X136012073Y-89734102D01*
X135915400Y-89967491D01*
X133059274Y-89967491D01*
X133038762Y-89858483D01*
X132899690Y-89642359D01*
X132687490Y-89497369D01*
X132435600Y-89446360D01*
X130403600Y-89446360D01*
X130168283Y-89490638D01*
X129996524Y-89601162D01*
X129726799Y-89489162D01*
X129354833Y-89488838D01*
X129210389Y-89548521D01*
X127200000Y-87538132D01*
X127200000Y-85725000D01*
X127179534Y-85622110D01*
X127136440Y-85405460D01*
X126955434Y-85134566D01*
X126193434Y-84372566D01*
X126170738Y-84357401D01*
X125922541Y-84191561D01*
X125603000Y-84128000D01*
X122646868Y-84128000D01*
X121612000Y-83093132D01*
X121612000Y-77374383D01*
X124759769Y-77374383D01*
X124962582Y-77865229D01*
X125337796Y-78241098D01*
X125828287Y-78444768D01*
X126359383Y-78445231D01*
X126850229Y-78242418D01*
X127047716Y-78045275D01*
X127879331Y-78045275D01*
X127941169Y-78281042D01*
X128442122Y-78457419D01*
X128972440Y-78428664D01*
X129328831Y-78281042D01*
X129390669Y-78045275D01*
X128635000Y-77289605D01*
X127879331Y-78045275D01*
X127047716Y-78045275D01*
X127226098Y-77867204D01*
X127358316Y-77548788D01*
X127463958Y-77803831D01*
X127699725Y-77865669D01*
X128455395Y-77110000D01*
X128814605Y-77110000D01*
X129570275Y-77865669D01*
X129806042Y-77803831D01*
X129903196Y-77527889D01*
X130042582Y-77865229D01*
X130417796Y-78241098D01*
X130908287Y-78444768D01*
X131439383Y-78445231D01*
X131930229Y-78242418D01*
X132306098Y-77867204D01*
X132445091Y-77532473D01*
X132582582Y-77865229D01*
X132880000Y-78163166D01*
X132880000Y-86515000D01*
X132943561Y-86834541D01*
X133124566Y-87105434D01*
X134349566Y-88330434D01*
X134620460Y-88511440D01*
X134940000Y-88575000D01*
X141722766Y-88575000D01*
X141963201Y-88674838D01*
X142335167Y-88675162D01*
X142678943Y-88533117D01*
X142942192Y-88270327D01*
X143084838Y-87926799D01*
X143085162Y-87554833D01*
X142943117Y-87211057D01*
X142680327Y-86947808D01*
X142336799Y-86805162D01*
X141964833Y-86804838D01*
X141722422Y-86905000D01*
X135285868Y-86905000D01*
X134550000Y-86169132D01*
X134550000Y-84842000D01*
X142220560Y-84842000D01*
X142220560Y-85592000D01*
X142264838Y-85827317D01*
X142403910Y-86043441D01*
X142616110Y-86188431D01*
X142868000Y-86239440D01*
X143668000Y-86239440D01*
X143903317Y-86195162D01*
X144006646Y-86128671D01*
X144008302Y-86130327D01*
X144241691Y-86227000D01*
X144482250Y-86227000D01*
X144641000Y-86068250D01*
X144641000Y-85344000D01*
X144895000Y-85344000D01*
X144895000Y-86068250D01*
X145053750Y-86227000D01*
X145294309Y-86227000D01*
X145527698Y-86130327D01*
X145706327Y-85951699D01*
X145803000Y-85718310D01*
X145803000Y-85502750D01*
X145644250Y-85344000D01*
X144895000Y-85344000D01*
X144641000Y-85344000D01*
X144621000Y-85344000D01*
X144621000Y-85090000D01*
X144641000Y-85090000D01*
X144641000Y-84365750D01*
X144895000Y-84365750D01*
X144895000Y-85090000D01*
X145644250Y-85090000D01*
X145803000Y-84931250D01*
X145803000Y-84715690D01*
X145706327Y-84482301D01*
X145527698Y-84303673D01*
X145294309Y-84207000D01*
X145053750Y-84207000D01*
X144895000Y-84365750D01*
X144641000Y-84365750D01*
X144482250Y-84207000D01*
X144241691Y-84207000D01*
X144028000Y-84295514D01*
X144028000Y-82211120D01*
X144165285Y-82211240D01*
X144674515Y-82000831D01*
X145064461Y-81611564D01*
X145275759Y-81102702D01*
X145276240Y-80551715D01*
X145065831Y-80042485D01*
X144676564Y-79652539D01*
X144167702Y-79441241D01*
X143616715Y-79440760D01*
X143107485Y-79651169D01*
X142717539Y-80040436D01*
X142506241Y-80549298D01*
X142505760Y-81100285D01*
X142546844Y-81199717D01*
X142508000Y-81395000D01*
X142508000Y-84319069D01*
X142416559Y-84377910D01*
X142271569Y-84590110D01*
X142220560Y-84842000D01*
X134550000Y-84842000D01*
X134550000Y-78162786D01*
X134846098Y-77867204D01*
X135049768Y-77376713D01*
X135050135Y-76955733D01*
X135575434Y-76430434D01*
X135603480Y-76388460D01*
X135756439Y-76159541D01*
X135820000Y-75840000D01*
X135820000Y-75622786D01*
X136116098Y-75327204D01*
X136319768Y-74836713D01*
X136320231Y-74305617D01*
X136117418Y-73814771D01*
X135742204Y-73438902D01*
X135251713Y-73235232D01*
X134720617Y-73234769D01*
X134229771Y-73437582D01*
X133853902Y-73812796D01*
X133714909Y-74147527D01*
X133577418Y-73814771D01*
X133202204Y-73438902D01*
X132711713Y-73235232D01*
X132180617Y-73234769D01*
X131689771Y-73437582D01*
X131313902Y-73812796D01*
X131181684Y-74131212D01*
X131076042Y-73876169D01*
X130840275Y-73814331D01*
X130084605Y-74570000D01*
X130840275Y-75325669D01*
X131076042Y-75263831D01*
X131173196Y-74987889D01*
X131312582Y-75325229D01*
X131545539Y-75558593D01*
X131328998Y-75775134D01*
X130910617Y-75774769D01*
X130419771Y-75977582D01*
X130043902Y-76352796D01*
X129911684Y-76671212D01*
X129806042Y-76416169D01*
X129570275Y-76354331D01*
X128814605Y-77110000D01*
X128455395Y-77110000D01*
X127699725Y-76354331D01*
X127463958Y-76416169D01*
X127366804Y-76692111D01*
X127227418Y-76354771D01*
X127047686Y-76174725D01*
X127879331Y-76174725D01*
X128635000Y-76930395D01*
X129390669Y-76174725D01*
X129328831Y-75938958D01*
X128827878Y-75762581D01*
X128297560Y-75791336D01*
X127941169Y-75938958D01*
X127879331Y-76174725D01*
X127047686Y-76174725D01*
X126852204Y-75978902D01*
X126361713Y-75775232D01*
X125830617Y-75774769D01*
X125339771Y-75977582D01*
X124963902Y-76352796D01*
X124760232Y-76843287D01*
X124759769Y-77374383D01*
X121612000Y-77374383D01*
X121612000Y-74834383D01*
X126029769Y-74834383D01*
X126232582Y-75325229D01*
X126607796Y-75701098D01*
X127098287Y-75904768D01*
X127629383Y-75905231D01*
X128120229Y-75702418D01*
X128317716Y-75505275D01*
X129149331Y-75505275D01*
X129211169Y-75741042D01*
X129712122Y-75917419D01*
X130242440Y-75888664D01*
X130598831Y-75741042D01*
X130660669Y-75505275D01*
X129905000Y-74749605D01*
X129149331Y-75505275D01*
X128317716Y-75505275D01*
X128496098Y-75327204D01*
X128628316Y-75008788D01*
X128733958Y-75263831D01*
X128969725Y-75325669D01*
X129725395Y-74570000D01*
X128969725Y-73814331D01*
X128733958Y-73876169D01*
X128636804Y-74152111D01*
X128497418Y-73814771D01*
X128317686Y-73634725D01*
X129149331Y-73634725D01*
X129905000Y-74390395D01*
X130660669Y-73634725D01*
X130598831Y-73398958D01*
X130097878Y-73222581D01*
X129567560Y-73251336D01*
X129211169Y-73398958D01*
X129149331Y-73634725D01*
X128317686Y-73634725D01*
X128122204Y-73438902D01*
X127631713Y-73235232D01*
X127100617Y-73234769D01*
X126609771Y-73437582D01*
X126233902Y-73812796D01*
X126030232Y-74303287D01*
X126029769Y-74834383D01*
X121612000Y-74834383D01*
X121612000Y-72768064D01*
X121720839Y-72877093D01*
X122413405Y-73164672D01*
X123163305Y-73165326D01*
X123856372Y-72878957D01*
X124387093Y-72349161D01*
X124674672Y-71656595D01*
X124675326Y-70906695D01*
X124503036Y-70489720D01*
X125272570Y-70490391D01*
X126103515Y-70147052D01*
X126739818Y-69511859D01*
X127084607Y-68681514D01*
X127084610Y-68677570D01*
X133994609Y-68677570D01*
X134337948Y-69508515D01*
X134973141Y-70144818D01*
X135803486Y-70489607D01*
X136576872Y-70490281D01*
X136405328Y-70903405D01*
X136404674Y-71653305D01*
X136691043Y-72346372D01*
X137220839Y-72877093D01*
X137913405Y-73164672D01*
X138663305Y-73165326D01*
X139356372Y-72878957D01*
X139887093Y-72349161D01*
X140174672Y-71656595D01*
X140175134Y-71126000D01*
X142093560Y-71126000D01*
X142093560Y-71876000D01*
X142137838Y-72111317D01*
X142276910Y-72327441D01*
X142381000Y-72398563D01*
X142381000Y-74815000D01*
X142438852Y-75105839D01*
X142603599Y-75352401D01*
X142627785Y-75376587D01*
X142506241Y-75669298D01*
X142505760Y-76220285D01*
X142716169Y-76729515D01*
X143105436Y-77119461D01*
X143614298Y-77330759D01*
X144165285Y-77331240D01*
X144674515Y-77120831D01*
X145064461Y-76731564D01*
X145275759Y-76222702D01*
X145276240Y-75671715D01*
X145065831Y-75162485D01*
X144676564Y-74772539D01*
X144167702Y-74561241D01*
X143961863Y-74561061D01*
X143901000Y-74500198D01*
X143901000Y-72422486D01*
X144114691Y-72511000D01*
X144355250Y-72511000D01*
X144514000Y-72352250D01*
X144514000Y-71628000D01*
X144768000Y-71628000D01*
X144768000Y-72352250D01*
X144926750Y-72511000D01*
X145167309Y-72511000D01*
X145400698Y-72414327D01*
X145579327Y-72235699D01*
X145676000Y-72002310D01*
X145676000Y-71786750D01*
X145517250Y-71628000D01*
X144768000Y-71628000D01*
X144514000Y-71628000D01*
X144494000Y-71628000D01*
X144494000Y-71374000D01*
X144514000Y-71374000D01*
X144514000Y-70649750D01*
X144768000Y-70649750D01*
X144768000Y-71374000D01*
X145517250Y-71374000D01*
X145676000Y-71215250D01*
X145676000Y-70999690D01*
X145579327Y-70766301D01*
X145400698Y-70587673D01*
X145167309Y-70491000D01*
X144926750Y-70491000D01*
X144768000Y-70649750D01*
X144514000Y-70649750D01*
X144355250Y-70491000D01*
X144114691Y-70491000D01*
X143881302Y-70587673D01*
X143879932Y-70589043D01*
X143792890Y-70529569D01*
X143541000Y-70478560D01*
X142741000Y-70478560D01*
X142505683Y-70522838D01*
X142289559Y-70661910D01*
X142144569Y-70874110D01*
X142093560Y-71126000D01*
X140175134Y-71126000D01*
X140175326Y-70906695D01*
X139888957Y-70213628D01*
X139359161Y-69682907D01*
X138666595Y-69395328D01*
X138218368Y-69394937D01*
X138514607Y-68681514D01*
X138515391Y-67782430D01*
X138172052Y-66951485D01*
X137536859Y-66315182D01*
X136706514Y-65970393D01*
X135807430Y-65969609D01*
X134976485Y-66312948D01*
X134340182Y-66948141D01*
X133995393Y-67778486D01*
X133994609Y-68677570D01*
X127084610Y-68677570D01*
X127085391Y-67782430D01*
X126742052Y-66951485D01*
X126106859Y-66315182D01*
X125276514Y-65970393D01*
X125053243Y-65970198D01*
X125388461Y-65635564D01*
X125599759Y-65126702D01*
X125599761Y-65124285D01*
X132939760Y-65124285D01*
X133150169Y-65633515D01*
X133539436Y-66023461D01*
X134048298Y-66234759D01*
X134599285Y-66235240D01*
X135108515Y-66024831D01*
X135498461Y-65635564D01*
X135709759Y-65126702D01*
X135710240Y-64575715D01*
X135499831Y-64066485D01*
X135110564Y-63676539D01*
X134936558Y-63604285D01*
X135479760Y-63604285D01*
X135690169Y-64113515D01*
X136079436Y-64503461D01*
X136588298Y-64714759D01*
X137139285Y-64715240D01*
X137648515Y-64504831D01*
X138038461Y-64115564D01*
X138249759Y-63606702D01*
X138250240Y-63055715D01*
X138039831Y-62546485D01*
X137650564Y-62156539D01*
X137141702Y-61945241D01*
X136590715Y-61944760D01*
X136081485Y-62155169D01*
X135691539Y-62544436D01*
X135480241Y-63053298D01*
X135479760Y-63604285D01*
X134936558Y-63604285D01*
X134601702Y-63465241D01*
X134050715Y-63464760D01*
X133541485Y-63675169D01*
X133151539Y-64064436D01*
X132940241Y-64573298D01*
X132939760Y-65124285D01*
X125599761Y-65124285D01*
X125600240Y-64575715D01*
X125389831Y-64066485D01*
X125000564Y-63676539D01*
X124826558Y-63604285D01*
X125369760Y-63604285D01*
X125580169Y-64113515D01*
X125969436Y-64503461D01*
X126478298Y-64714759D01*
X127029285Y-64715240D01*
X127538515Y-64504831D01*
X127928461Y-64115564D01*
X128139759Y-63606702D01*
X128140240Y-63055715D01*
X127929831Y-62546485D01*
X127540564Y-62156539D01*
X127031702Y-61945241D01*
X126480715Y-61944760D01*
X125971485Y-62155169D01*
X125581539Y-62544436D01*
X125370241Y-63053298D01*
X125369760Y-63604285D01*
X124826558Y-63604285D01*
X124491702Y-63465241D01*
X123940715Y-63464760D01*
X123431485Y-63675169D01*
X123041539Y-64064436D01*
X122830241Y-64573298D01*
X122829760Y-65124285D01*
X123040169Y-65633515D01*
X123429436Y-66023461D01*
X123837258Y-66192803D01*
X123546485Y-66312948D01*
X122910182Y-66948141D01*
X122565393Y-67778486D01*
X122564609Y-68677570D01*
X122861070Y-69395062D01*
X122416695Y-69394674D01*
X121723628Y-69681043D01*
X121612000Y-69792476D01*
X121612000Y-60162868D01*
X123281868Y-58493000D01*
X138846132Y-58493000D01*
X140897000Y-60543868D01*
G36*
X157530800Y-90297000D02*
X157550800Y-90297000D01*
X157550800Y-90551000D01*
X157530800Y-90551000D01*
X157530800Y-90571000D01*
X157276800Y-90571000D01*
X157276800Y-90551000D01*
X157256800Y-90551000D01*
X157256800Y-90297000D01*
X157276800Y-90297000D01*
X157276800Y-90277000D01*
X157530800Y-90277000D01*
X157530800Y-90297000D01*
X157530800Y-90297000D01*
G37*
X157530800Y-90297000D02*
X157550800Y-90297000D01*
X157550800Y-90551000D01*
X157530800Y-90551000D01*
X157530800Y-90571000D01*
X157276800Y-90571000D01*
X157276800Y-90551000D01*
X157256800Y-90551000D01*
X157256800Y-90297000D01*
X157276800Y-90297000D01*
X157276800Y-90277000D01*
X157530800Y-90277000D01*
X157530800Y-90297000D01*
G36*
X158608000Y-74286440D02*
X158885560Y-74286440D01*
X158885560Y-74564000D01*
X158909944Y-74693589D01*
X158885560Y-74814000D01*
X158885560Y-75364000D01*
X158909944Y-75493589D01*
X158885560Y-75614000D01*
X158885560Y-76164000D01*
X158905450Y-76269705D01*
X158898000Y-76287690D01*
X158898000Y-76403250D01*
X158994401Y-76499651D01*
X159068910Y-76615441D01*
X159176397Y-76688884D01*
X159081559Y-76749910D01*
X158992505Y-76880245D01*
X158898000Y-76974750D01*
X158898000Y-77090310D01*
X158906468Y-77110753D01*
X158885560Y-77214000D01*
X158885560Y-77764000D01*
X158909944Y-77893589D01*
X158908843Y-77899024D01*
X158682799Y-77805162D01*
X158310833Y-77804838D01*
X157967057Y-77946883D01*
X157933882Y-77980000D01*
X157226000Y-77980000D01*
X156935160Y-78037852D01*
X156688599Y-78202599D01*
X156307599Y-78583599D01*
X156142852Y-78830161D01*
X156085000Y-79121000D01*
X156085000Y-79914704D01*
X156078411Y-79915944D01*
X155958000Y-79891560D01*
X155408000Y-79891560D01*
X155278411Y-79915944D01*
X155158000Y-79891560D01*
X154608000Y-79891560D01*
X154478411Y-79915944D01*
X154358000Y-79891560D01*
X153808000Y-79891560D01*
X153678411Y-79915944D01*
X153558000Y-79891560D01*
X153280440Y-79891560D01*
X153280440Y-79614000D01*
X153256056Y-79484411D01*
X153280440Y-79364000D01*
X153280440Y-79167104D01*
X153347167Y-79167162D01*
X153690943Y-79025117D01*
X153954192Y-78762327D01*
X154096838Y-78418799D01*
X154097162Y-78046833D01*
X153955117Y-77703057D01*
X153722401Y-77469935D01*
X153827192Y-77365327D01*
X153969838Y-77021799D01*
X153970162Y-76649833D01*
X153828117Y-76306057D01*
X153565327Y-76042808D01*
X153221799Y-75900162D01*
X153005493Y-75899974D01*
X152989603Y-75889116D01*
X153084441Y-75828090D01*
X153173495Y-75697755D01*
X153268000Y-75603250D01*
X153268000Y-75487690D01*
X153259532Y-75467247D01*
X153280440Y-75364000D01*
X153280440Y-74814000D01*
X153256056Y-74684411D01*
X153280440Y-74564000D01*
X153280440Y-74286440D01*
X153558000Y-74286440D01*
X153687589Y-74262056D01*
X153808000Y-74286440D01*
X154358000Y-74286440D01*
X154487589Y-74262056D01*
X154608000Y-74286440D01*
X154923000Y-74286440D01*
X154923000Y-75402504D01*
X154909808Y-75415673D01*
X154767162Y-75759201D01*
X154766838Y-76131167D01*
X154908883Y-76474943D01*
X155171673Y-76738192D01*
X155515201Y-76880838D01*
X155887167Y-76881162D01*
X156230943Y-76739117D01*
X156494192Y-76476327D01*
X156636838Y-76132799D01*
X156637162Y-75760833D01*
X156495117Y-75417057D01*
X156443000Y-75364849D01*
X156443000Y-74286440D01*
X156758000Y-74286440D01*
X156887589Y-74262056D01*
X157008000Y-74286440D01*
X157558000Y-74286440D01*
X157687589Y-74262056D01*
X157808000Y-74286440D01*
X158358000Y-74286440D01*
X158487589Y-74262056D01*
X158608000Y-74286440D01*
X158608000Y-74286440D01*
G37*
X158608000Y-74286440D02*
X158885560Y-74286440D01*
X158885560Y-74564000D01*
X158909944Y-74693589D01*
X158885560Y-74814000D01*
X158885560Y-75364000D01*
X158909944Y-75493589D01*
X158885560Y-75614000D01*
X158885560Y-76164000D01*
X158905450Y-76269705D01*
X158898000Y-76287690D01*
X158898000Y-76403250D01*
X158994401Y-76499651D01*
X159068910Y-76615441D01*
X159176397Y-76688884D01*
X159081559Y-76749910D01*
X158992505Y-76880245D01*
X158898000Y-76974750D01*
X158898000Y-77090310D01*
X158906468Y-77110753D01*
X158885560Y-77214000D01*
X158885560Y-77764000D01*
X158909944Y-77893589D01*
X158908843Y-77899024D01*
X158682799Y-77805162D01*
X158310833Y-77804838D01*
X157967057Y-77946883D01*
X157933882Y-77980000D01*
X157226000Y-77980000D01*
X156935160Y-78037852D01*
X156688599Y-78202599D01*
X156307599Y-78583599D01*
X156142852Y-78830161D01*
X156085000Y-79121000D01*
X156085000Y-79914704D01*
X156078411Y-79915944D01*
X155958000Y-79891560D01*
X155408000Y-79891560D01*
X155278411Y-79915944D01*
X155158000Y-79891560D01*
X154608000Y-79891560D01*
X154478411Y-79915944D01*
X154358000Y-79891560D01*
X153808000Y-79891560D01*
X153678411Y-79915944D01*
X153558000Y-79891560D01*
X153280440Y-79891560D01*
X153280440Y-79614000D01*
X153256056Y-79484411D01*
X153280440Y-79364000D01*
X153280440Y-79167104D01*
X153347167Y-79167162D01*
X153690943Y-79025117D01*
X153954192Y-78762327D01*
X154096838Y-78418799D01*
X154097162Y-78046833D01*
X153955117Y-77703057D01*
X153722401Y-77469935D01*
X153827192Y-77365327D01*
X153969838Y-77021799D01*
X153970162Y-76649833D01*
X153828117Y-76306057D01*
X153565327Y-76042808D01*
X153221799Y-75900162D01*
X153005493Y-75899974D01*
X152989603Y-75889116D01*
X153084441Y-75828090D01*
X153173495Y-75697755D01*
X153268000Y-75603250D01*
X153268000Y-75487690D01*
X153259532Y-75467247D01*
X153280440Y-75364000D01*
X153280440Y-74814000D01*
X153256056Y-74684411D01*
X153280440Y-74564000D01*
X153280440Y-74286440D01*
X153558000Y-74286440D01*
X153687589Y-74262056D01*
X153808000Y-74286440D01*
X154358000Y-74286440D01*
X154487589Y-74262056D01*
X154608000Y-74286440D01*
X154923000Y-74286440D01*
X154923000Y-75402504D01*
X154909808Y-75415673D01*
X154767162Y-75759201D01*
X154766838Y-76131167D01*
X154908883Y-76474943D01*
X155171673Y-76738192D01*
X155515201Y-76880838D01*
X155887167Y-76881162D01*
X156230943Y-76739117D01*
X156494192Y-76476327D01*
X156636838Y-76132799D01*
X156637162Y-75760833D01*
X156495117Y-75417057D01*
X156443000Y-75364849D01*
X156443000Y-74286440D01*
X156758000Y-74286440D01*
X156887589Y-74262056D01*
X157008000Y-74286440D01*
X157558000Y-74286440D01*
X157687589Y-74262056D01*
X157808000Y-74286440D01*
X158358000Y-74286440D01*
X158487589Y-74262056D01*
X158608000Y-74286440D01*
G36*
X160020000Y-60452000D02*
X162306000Y-60452000D01*
X162306000Y-60432000D01*
X162560000Y-60432000D01*
X162560000Y-60452000D01*
X162580000Y-60452000D01*
X162580000Y-60706000D01*
X162560000Y-60706000D01*
X162560000Y-60726000D01*
X162306000Y-60726000D01*
X162306000Y-60706000D01*
X160020000Y-60706000D01*
X160020000Y-60726000D01*
X159766000Y-60726000D01*
X159766000Y-60706000D01*
X159746000Y-60706000D01*
X159746000Y-60452000D01*
X159766000Y-60452000D01*
X159766000Y-60432000D01*
X160020000Y-60432000D01*
X160020000Y-60452000D01*
X160020000Y-60452000D01*
G37*
X160020000Y-60452000D02*
X162306000Y-60452000D01*
X162306000Y-60432000D01*
X162560000Y-60432000D01*
X162560000Y-60452000D01*
X162580000Y-60452000D01*
X162580000Y-60706000D01*
X162560000Y-60706000D01*
X162560000Y-60726000D01*
X162306000Y-60726000D01*
X162306000Y-60706000D01*
X160020000Y-60706000D01*
X160020000Y-60726000D01*
X159766000Y-60726000D01*
X159766000Y-60706000D01*
X159746000Y-60706000D01*
X159746000Y-60452000D01*
X159766000Y-60452000D01*
X159766000Y-60432000D01*
X160020000Y-60432000D01*
X160020000Y-60452000D01*
M02*
