G04 #@! TF.FileFunction,Soldermask,Top*
%FSLAX46Y46*%
G04 Gerber Fmt 4.6, Leading zero omitted, Abs format (unit mm)*
G04 Created by KiCad (PCBNEW 4.0.5) date 2017 May 23, Tuesday 21:13:21*
%MOMM*%
%LPD*%
G01*
G04 APERTURE LIST*
%ADD10C,0.100000*%
%ADD11R,1.200000X1.200000*%
%ADD12C,1.720000*%
%ADD13C,2.900000*%
%ADD14R,0.900000X1.300000*%
%ADD15C,1.300000*%
%ADD16R,1.500000X1.500000*%
%ADD17O,1.500000X1.500000*%
%ADD18C,1.800000*%
%ADD19C,1.900000*%
%ADD20R,2.300000X2.300000*%
%ADD21C,2.300000*%
%ADD22C,1.700000*%
G04 APERTURE END LIST*
D10*
D11*
X125260000Y-68580000D03*
X123660000Y-68580000D03*
X125260000Y-53340000D03*
X123660000Y-53340000D03*
D12*
X133350000Y-62230000D03*
X133350000Y-59690000D03*
X135350000Y-59690000D03*
X135350000Y-62230000D03*
D13*
X138050000Y-66960000D03*
X138050000Y-54960000D03*
D14*
X129020000Y-68580000D03*
X127520000Y-68580000D03*
X127520000Y-53340000D03*
X129020000Y-53340000D03*
D15*
X88900000Y-59690000D03*
X88900000Y-64570000D03*
D16*
X104140000Y-53340000D03*
D17*
X101600000Y-53340000D03*
D18*
X80645000Y-44440000D03*
X83185000Y-44440000D03*
X81915000Y-46980000D03*
X79375000Y-46980000D03*
X78105000Y-44440000D03*
X76835000Y-46980000D03*
X75565000Y-44440000D03*
X74295000Y-46980000D03*
D13*
X86490000Y-41150000D03*
X70990000Y-41150000D03*
D19*
X74955000Y-33200000D03*
X72415000Y-34720000D03*
X85065000Y-33200000D03*
X82525000Y-34720000D03*
D18*
X100965000Y-44440000D03*
X103505000Y-44440000D03*
X102235000Y-46980000D03*
X99695000Y-46980000D03*
X98425000Y-44440000D03*
X97155000Y-46980000D03*
X95885000Y-44440000D03*
X94615000Y-46980000D03*
D13*
X106810000Y-41150000D03*
X91310000Y-41150000D03*
D19*
X95275000Y-33200000D03*
X92735000Y-34720000D03*
X105385000Y-33200000D03*
X102845000Y-34720000D03*
D18*
X121285000Y-44440000D03*
X123825000Y-44440000D03*
X122555000Y-46980000D03*
X120015000Y-46980000D03*
X118745000Y-44440000D03*
X117475000Y-46980000D03*
X116205000Y-44440000D03*
X114935000Y-46980000D03*
D13*
X127130000Y-41150000D03*
X111630000Y-41150000D03*
D19*
X115595000Y-33200000D03*
X113055000Y-34720000D03*
X125705000Y-33200000D03*
X123165000Y-34720000D03*
D18*
X141605000Y-44440000D03*
X144145000Y-44440000D03*
X142875000Y-46980000D03*
X140335000Y-46980000D03*
X139065000Y-44440000D03*
X137795000Y-46980000D03*
X136525000Y-44440000D03*
X135255000Y-46980000D03*
D13*
X147450000Y-41150000D03*
X131950000Y-41150000D03*
D19*
X135915000Y-33200000D03*
X133375000Y-34720000D03*
X146025000Y-33200000D03*
X143485000Y-34720000D03*
D18*
X76835000Y-77480000D03*
X74295000Y-77480000D03*
X75565000Y-74940000D03*
X78105000Y-74940000D03*
X79375000Y-77480000D03*
X80645000Y-74940000D03*
X81915000Y-77480000D03*
X83185000Y-74940000D03*
D13*
X70990000Y-80770000D03*
X86490000Y-80770000D03*
D19*
X82525000Y-88720000D03*
X85065000Y-87200000D03*
X72415000Y-88720000D03*
X74955000Y-87200000D03*
D18*
X97155000Y-77480000D03*
X94615000Y-77480000D03*
X95885000Y-74940000D03*
X98425000Y-74940000D03*
X99695000Y-77480000D03*
X100965000Y-74940000D03*
X102235000Y-77480000D03*
X103505000Y-74940000D03*
D13*
X91310000Y-80770000D03*
X106810000Y-80770000D03*
D19*
X102845000Y-88720000D03*
X105385000Y-87200000D03*
X92735000Y-88720000D03*
X95275000Y-87200000D03*
D18*
X117475000Y-77480000D03*
X114935000Y-77480000D03*
X116205000Y-74940000D03*
X118745000Y-74940000D03*
X120015000Y-77480000D03*
X121285000Y-74940000D03*
X122555000Y-77480000D03*
X123825000Y-74940000D03*
D13*
X111630000Y-80770000D03*
X127130000Y-80770000D03*
D19*
X123165000Y-88720000D03*
X125705000Y-87200000D03*
X113055000Y-88720000D03*
X115595000Y-87200000D03*
D18*
X137795000Y-77480000D03*
X135255000Y-77480000D03*
X136525000Y-74940000D03*
X139065000Y-74940000D03*
X140335000Y-77480000D03*
X141605000Y-74940000D03*
X142875000Y-77480000D03*
X144145000Y-74940000D03*
D13*
X131950000Y-80770000D03*
X147450000Y-80770000D03*
D19*
X143485000Y-88720000D03*
X146025000Y-87200000D03*
X133375000Y-88720000D03*
X135915000Y-87200000D03*
D20*
X71755000Y-66675000D03*
D21*
X71755000Y-64175000D03*
X71755000Y-61675000D03*
D22*
X73095000Y-65425000D03*
M02*
