M48
;DRILL file {KiCad 4.0.5} date 2017 May 23, Tuesday 21:13:23
;FORMAT={-:-/ absolute / metric / decimal}
FMAT,2
METRIC,TZ
T1C0.400
T2C0.800
T3C0.810
T4C0.900
T5C1.000
T6C1.200
T7C1.600
T8C2.300
T9C1.300
T10C3.250
%
G90
G05
M71
T1
X94.386Y-60.3
X94.488Y-51.308
X94.488Y-62.23
X95.301Y-52.121
X96.012Y-70.612
X97.028Y-50.292
X98.45Y-55.118
X98.45Y-55.931
X98.552Y-71.628
X98.908Y-53.442
X99.466Y-52.68
X99.568Y-49.276
X99.72Y-43.18
X100.127Y-55.169
X101.092Y-72.644
X101.397Y-55.931
X102.87Y-69.85
X103.073Y-59.538
X104.242Y-57.353
X104.775Y-56.591
X105.41Y-69.215
X107.696Y-55.982
X114.808Y-51.308
X115.062Y-56.134
X115.824Y-57.15
X115.824Y-60.96
X116.205Y-68.58
X116.332Y-70.612
X116.586Y-58.928
X116.586Y-60.706
X117.348Y-50.292
X118.872Y-71.628
X119.888Y-56.642
X119.888Y-57.658
X119.888Y-59.944
X119.888Y-66.802
X120.396Y-49.276
X120.65Y-61.722
X121.412Y-66.802
X121.412Y-72.644
X121.92Y-69.215
X122.174Y-66.04
X122.885Y-61.214
X122.885Y-62.484
X126.39Y-49.225
X126.594Y-53.391
X127.Y-55.245
X130.81Y-69.215
X132.715Y-68.58
X135.128Y-51.308
X136.525Y-68.58
X136.652Y-70.612
X137.668Y-50.292
X139.192Y-71.628
X139.7Y-68.58
X140.208Y-49.276
X141.732Y-72.644
X142.24Y-65.405
X142.24Y-69.85
X142.875Y-60.325
X143.51Y-62.865
X145.288Y-72.644
X146.304Y-71.628
X147.32Y-70.612
T2
X88.9Y-59.69
X88.9Y-64.57
T3
X133.35Y-59.69
X133.35Y-62.23
X135.35Y-59.69
X135.35Y-62.23
T4
X72.415Y-34.72
X72.415Y-88.72
X74.295Y-46.98
X74.295Y-77.48
X74.955Y-33.2
X74.955Y-87.2
X75.565Y-44.44
X75.565Y-74.94
X76.835Y-46.98
X76.835Y-77.48
X78.105Y-44.44
X78.105Y-74.94
X79.375Y-46.98
X79.375Y-77.48
X80.645Y-44.44
X80.645Y-74.94
X81.915Y-46.98
X81.915Y-77.48
X82.525Y-34.72
X82.525Y-88.72
X83.185Y-44.44
X83.185Y-74.94
X85.065Y-33.2
X85.065Y-87.2
X92.735Y-34.72
X92.735Y-88.72
X94.615Y-46.98
X94.615Y-77.48
X95.275Y-33.2
X95.275Y-87.2
X95.885Y-44.44
X95.885Y-74.94
X97.155Y-46.98
X97.155Y-77.48
X98.425Y-44.44
X98.425Y-74.94
X99.695Y-46.98
X99.695Y-77.48
X100.965Y-44.44
X100.965Y-74.94
X102.235Y-46.98
X102.235Y-77.48
X102.845Y-34.72
X102.845Y-88.72
X103.505Y-44.44
X103.505Y-74.94
X105.385Y-33.2
X105.385Y-87.2
X113.055Y-34.72
X113.055Y-88.72
X114.935Y-46.98
X114.935Y-77.48
X115.595Y-33.2
X115.595Y-87.2
X116.205Y-44.44
X116.205Y-74.94
X117.475Y-46.98
X117.475Y-77.48
X118.745Y-44.44
X118.745Y-74.94
X120.015Y-46.98
X120.015Y-77.48
X121.285Y-44.44
X121.285Y-74.94
X122.555Y-46.98
X122.555Y-77.48
X123.165Y-34.72
X123.165Y-88.72
X123.825Y-44.44
X123.825Y-74.94
X125.705Y-33.2
X125.705Y-87.2
X133.375Y-34.72
X133.375Y-88.72
X135.255Y-46.98
X135.255Y-77.48
X135.915Y-33.2
X135.915Y-87.2
X136.525Y-44.44
X136.525Y-74.94
X137.795Y-46.98
X137.795Y-77.48
X139.065Y-44.44
X139.065Y-74.94
X140.335Y-46.98
X140.335Y-77.48
X141.605Y-44.44
X141.605Y-74.94
X142.875Y-46.98
X142.875Y-77.48
X143.485Y-34.72
X143.485Y-88.72
X144.145Y-44.44
X144.145Y-74.94
X146.025Y-33.2
X146.025Y-87.2
T5
X101.6Y-53.34
X104.14Y-53.34
T6
X71.755Y-61.675
X71.755Y-64.175
X71.755Y-66.675
T7
X70.99Y-41.15
X70.99Y-80.77
X86.49Y-41.15
X86.49Y-80.77
X91.31Y-41.15
X91.31Y-80.77
X106.81Y-41.15
X106.81Y-80.77
X111.63Y-41.15
X111.63Y-80.77
X127.13Y-41.15
X127.13Y-80.77
X131.95Y-41.15
X131.95Y-80.77
X147.45Y-41.15
X147.45Y-80.77
T8
X138.05Y-54.96
X138.05Y-66.96
T9
X73.095Y-65.425
T10
X73.025Y-38.1
X73.025Y-83.82
X84.455Y-38.1
X84.455Y-83.82
X93.345Y-38.1
X93.345Y-83.82
X104.775Y-38.1
X104.775Y-83.82
X113.665Y-38.1
X113.665Y-83.82
X125.095Y-38.1
X125.095Y-83.82
X133.985Y-38.1
X133.985Y-83.82
X145.415Y-38.1
X145.415Y-83.82
T0
M30
