G04 #@! TF.FileFunction,Legend,Top*
%FSLAX46Y46*%
G04 Gerber Fmt 4.6, Leading zero omitted, Abs format (unit mm)*
G04 Created by KiCad (PCBNEW 4.0.2-stable) date 5/19/2017 12:04:59 AM*
%MOMM*%
G01*
G04 APERTURE LIST*
%ADD10C,0.100000*%
%ADD11C,0.120000*%
%ADD12C,0.152400*%
%ADD13C,0.381000*%
%ADD14C,0.150000*%
G04 APERTURE END LIST*
D10*
D11*
X89250000Y-56480000D02*
X88550000Y-56480000D01*
X88550000Y-55280000D02*
X89250000Y-55280000D01*
X89250000Y-69180000D02*
X88550000Y-69180000D01*
X88550000Y-67980000D02*
X89250000Y-67980000D01*
X115660000Y-67090000D02*
X110160000Y-67090000D01*
X115660000Y-64990000D02*
X110160000Y-64990000D01*
X115660000Y-67090000D02*
X115660000Y-64990000D01*
X110840000Y-62830000D02*
X110140000Y-62830000D01*
X110140000Y-61630000D02*
X110840000Y-61630000D01*
X110840000Y-60290000D02*
X110140000Y-60290000D01*
X110140000Y-59090000D02*
X110840000Y-59090000D01*
X110840000Y-57750000D02*
X110140000Y-57750000D01*
X110140000Y-56550000D02*
X110840000Y-56550000D01*
X123160000Y-68080000D02*
X123160000Y-69080000D01*
X123160000Y-69080000D02*
X125260000Y-69080000D01*
X123160000Y-68080000D02*
X125260000Y-68080000D01*
X123160000Y-52840000D02*
X123160000Y-53840000D01*
X123160000Y-53840000D02*
X125260000Y-53840000D01*
X123160000Y-52840000D02*
X125260000Y-52840000D01*
D12*
X118995000Y-66160000D02*
X118995000Y-55760000D01*
X118995000Y-55760000D02*
X124845000Y-55760000D01*
X124845000Y-55760000D02*
X124845000Y-66160000D01*
X124845000Y-66160000D02*
X118995000Y-66160000D01*
X124256800Y-65278000D02*
G75*
G03X124256800Y-65278000I-304800J0D01*
G01*
D13*
X72644000Y-34771000D02*
X72644000Y-27405000D01*
X84836000Y-34771000D02*
X84836000Y-27405000D01*
X86995000Y-27200000D02*
X86995000Y-49000000D01*
X86995000Y-48995000D02*
X70485000Y-48995000D01*
X70485000Y-49000000D02*
X70485000Y-27200000D01*
X86995000Y-27205000D02*
X70485000Y-27205000D01*
X77216000Y-32993000D02*
X80264000Y-32993000D01*
X77724000Y-32993000D02*
X77724000Y-27405000D01*
X77216000Y-34771000D02*
X77216000Y-32993000D01*
X80264000Y-32993000D02*
X80264000Y-34771000D01*
X79756000Y-27405000D02*
X79756000Y-32993000D01*
X84836000Y-34771000D02*
X72644000Y-34771000D01*
X92964000Y-34771000D02*
X92964000Y-27405000D01*
X105156000Y-34771000D02*
X105156000Y-27405000D01*
X107315000Y-27200000D02*
X107315000Y-49000000D01*
X107315000Y-48995000D02*
X90805000Y-48995000D01*
X90805000Y-49000000D02*
X90805000Y-27200000D01*
X107315000Y-27205000D02*
X90805000Y-27205000D01*
X97536000Y-32993000D02*
X100584000Y-32993000D01*
X98044000Y-32993000D02*
X98044000Y-27405000D01*
X97536000Y-34771000D02*
X97536000Y-32993000D01*
X100584000Y-32993000D02*
X100584000Y-34771000D01*
X100076000Y-27405000D02*
X100076000Y-32993000D01*
X105156000Y-34771000D02*
X92964000Y-34771000D01*
X113284000Y-34771000D02*
X113284000Y-27405000D01*
X125476000Y-34771000D02*
X125476000Y-27405000D01*
X127635000Y-27200000D02*
X127635000Y-49000000D01*
X127635000Y-48995000D02*
X111125000Y-48995000D01*
X111125000Y-49000000D02*
X111125000Y-27200000D01*
X127635000Y-27205000D02*
X111125000Y-27205000D01*
X117856000Y-32993000D02*
X120904000Y-32993000D01*
X118364000Y-32993000D02*
X118364000Y-27405000D01*
X117856000Y-34771000D02*
X117856000Y-32993000D01*
X120904000Y-32993000D02*
X120904000Y-34771000D01*
X120396000Y-27405000D02*
X120396000Y-32993000D01*
X125476000Y-34771000D02*
X113284000Y-34771000D01*
X133604000Y-34771000D02*
X133604000Y-27405000D01*
X145796000Y-34771000D02*
X145796000Y-27405000D01*
X147955000Y-27200000D02*
X147955000Y-49000000D01*
X147955000Y-48995000D02*
X131445000Y-48995000D01*
X131445000Y-49000000D02*
X131445000Y-27200000D01*
X147955000Y-27205000D02*
X131445000Y-27205000D01*
X138176000Y-32993000D02*
X141224000Y-32993000D01*
X138684000Y-32993000D02*
X138684000Y-27405000D01*
X138176000Y-34771000D02*
X138176000Y-32993000D01*
X141224000Y-32993000D02*
X141224000Y-34771000D01*
X140716000Y-27405000D02*
X140716000Y-32993000D01*
X145796000Y-34771000D02*
X133604000Y-34771000D01*
X84836000Y-87149000D02*
X84836000Y-94515000D01*
X72644000Y-87149000D02*
X72644000Y-94515000D01*
X70485000Y-94720000D02*
X70485000Y-72920000D01*
X70485000Y-72925000D02*
X86995000Y-72925000D01*
X86995000Y-72920000D02*
X86995000Y-94720000D01*
X70485000Y-94715000D02*
X86995000Y-94715000D01*
X80264000Y-88927000D02*
X77216000Y-88927000D01*
X79756000Y-88927000D02*
X79756000Y-94515000D01*
X80264000Y-87149000D02*
X80264000Y-88927000D01*
X77216000Y-88927000D02*
X77216000Y-87149000D01*
X77724000Y-94515000D02*
X77724000Y-88927000D01*
X72644000Y-87149000D02*
X84836000Y-87149000D01*
X105156000Y-87149000D02*
X105156000Y-94515000D01*
X92964000Y-87149000D02*
X92964000Y-94515000D01*
X90805000Y-94720000D02*
X90805000Y-72920000D01*
X90805000Y-72925000D02*
X107315000Y-72925000D01*
X107315000Y-72920000D02*
X107315000Y-94720000D01*
X90805000Y-94715000D02*
X107315000Y-94715000D01*
X100584000Y-88927000D02*
X97536000Y-88927000D01*
X100076000Y-88927000D02*
X100076000Y-94515000D01*
X100584000Y-87149000D02*
X100584000Y-88927000D01*
X97536000Y-88927000D02*
X97536000Y-87149000D01*
X98044000Y-94515000D02*
X98044000Y-88927000D01*
X92964000Y-87149000D02*
X105156000Y-87149000D01*
X125476000Y-87149000D02*
X125476000Y-94515000D01*
X113284000Y-87149000D02*
X113284000Y-94515000D01*
X111125000Y-94720000D02*
X111125000Y-72920000D01*
X111125000Y-72925000D02*
X127635000Y-72925000D01*
X127635000Y-72920000D02*
X127635000Y-94720000D01*
X111125000Y-94715000D02*
X127635000Y-94715000D01*
X120904000Y-88927000D02*
X117856000Y-88927000D01*
X120396000Y-88927000D02*
X120396000Y-94515000D01*
X120904000Y-87149000D02*
X120904000Y-88927000D01*
X117856000Y-88927000D02*
X117856000Y-87149000D01*
X118364000Y-94515000D02*
X118364000Y-88927000D01*
X113284000Y-87149000D02*
X125476000Y-87149000D01*
X145796000Y-87149000D02*
X145796000Y-94515000D01*
X133604000Y-87149000D02*
X133604000Y-94515000D01*
X131445000Y-94720000D02*
X131445000Y-72920000D01*
X131445000Y-72925000D02*
X147955000Y-72925000D01*
X147955000Y-72920000D02*
X147955000Y-94720000D01*
X131445000Y-94715000D02*
X147955000Y-94715000D01*
X141224000Y-88927000D02*
X138176000Y-88927000D01*
X140716000Y-88927000D02*
X140716000Y-94515000D01*
X141224000Y-87149000D02*
X141224000Y-88927000D01*
X138176000Y-88927000D02*
X138176000Y-87149000D01*
X138684000Y-94515000D02*
X138684000Y-88927000D01*
X133604000Y-87149000D02*
X145796000Y-87149000D01*
D11*
X139700000Y-67060000D02*
X148340000Y-67060000D01*
X131320000Y-67060000D02*
X136400000Y-67060000D01*
X139700000Y-54860000D02*
X148340000Y-54860000D01*
X131320000Y-54860000D02*
X136400000Y-54860000D01*
X148340000Y-54860000D02*
X148340000Y-67060000D01*
X131320000Y-67060000D02*
X131320000Y-54860000D01*
X95840000Y-53840000D02*
X95840000Y-52840000D01*
X97200000Y-52840000D02*
X97200000Y-53840000D01*
X94570000Y-53840000D02*
X94570000Y-52840000D01*
X95930000Y-52840000D02*
X95930000Y-53840000D01*
X97110000Y-53840000D02*
X97110000Y-52840000D01*
X98470000Y-52840000D02*
X98470000Y-53840000D01*
X127770000Y-67900000D02*
X128770000Y-67900000D01*
X128770000Y-69260000D02*
X127770000Y-69260000D01*
X128770000Y-54020000D02*
X127770000Y-54020000D01*
X127770000Y-52660000D02*
X128770000Y-52660000D01*
X91425000Y-59005000D02*
X91425000Y-65255000D01*
X86375000Y-59005000D02*
X86375000Y-65255000D01*
X86375000Y-59005000D02*
G75*
G02X91425000Y-59005000I2525000J0D01*
G01*
X86375000Y-65255000D02*
G75*
G03X91425000Y-65255000I2525000J0D01*
G01*
D14*
X96705000Y-58605000D02*
X96705000Y-58830000D01*
X103955000Y-58605000D02*
X103955000Y-58930000D01*
X103955000Y-65855000D02*
X103955000Y-65530000D01*
X96705000Y-65855000D02*
X96705000Y-65530000D01*
X96705000Y-58605000D02*
X97030000Y-58605000D01*
X96705000Y-65855000D02*
X97030000Y-65855000D01*
X103955000Y-65855000D02*
X103630000Y-65855000D01*
X103955000Y-58605000D02*
X103630000Y-58605000D01*
X96705000Y-58830000D02*
X95280000Y-58830000D01*
D11*
X105470000Y-52070000D02*
X105470000Y-52010000D01*
X105470000Y-52010000D02*
X100270000Y-52010000D01*
X100270000Y-52010000D02*
X100270000Y-54670000D01*
X100270000Y-54670000D02*
X102870000Y-54670000D01*
X102870000Y-54670000D02*
X102870000Y-52070000D01*
X102870000Y-52070000D02*
X105470000Y-52070000D01*
X105470000Y-53340000D02*
X105470000Y-54670000D01*
X105470000Y-54670000D02*
X104140000Y-54670000D01*
M02*
