G04 #@! TF.FileFunction,Copper,L1,Top,Signal*
%FSLAX46Y46*%
G04 Gerber Fmt 4.6, Leading zero omitted, Abs format (unit mm)*
G04 Created by KiCad (PCBNEW 4.0.5) date 2017 May 23, Tuesday 21:13:21*
%MOMM*%
%LPD*%
G01*
G04 APERTURE LIST*
%ADD10C,0.100000*%
%ADD11R,0.800000X0.750000*%
%ADD12R,3.200000X1.500000*%
%ADD13R,1.200000X0.750000*%
%ADD14R,0.800000X0.800000*%
%ADD15R,1.397000X0.348000*%
%ADD16C,1.520000*%
%ADD17C,2.700000*%
%ADD18R,0.900000X0.500000*%
%ADD19R,0.500000X0.900000*%
%ADD20C,1.500000*%
%ADD21R,1.600000X0.550000*%
%ADD22R,0.550000X1.600000*%
%ADD23R,1.700000X1.700000*%
%ADD24O,1.700000X1.700000*%
%ADD25C,1.400000*%
%ADD26C,2.500000*%
%ADD27R,1.900000X1.900000*%
%ADD28C,1.900000*%
%ADD29C,0.600000*%
%ADD30C,0.250000*%
%ADD31C,0.400000*%
%ADD32C,0.254000*%
G04 APERTURE END LIST*
D10*
D11*
X89650000Y-55880000D03*
X88150000Y-55880000D03*
X89650000Y-68580000D03*
X88150000Y-68580000D03*
D12*
X113760000Y-66040000D03*
X109760000Y-66040000D03*
D13*
X111440000Y-62230000D03*
X109540000Y-62230000D03*
X111440000Y-59690000D03*
X109540000Y-59690000D03*
X111440000Y-57150000D03*
X109540000Y-57150000D03*
D14*
X125260000Y-68580000D03*
X123660000Y-68580000D03*
X125260000Y-53340000D03*
X123660000Y-53340000D03*
D15*
X118264000Y-65185000D03*
X118264000Y-64535000D03*
X118264000Y-63885000D03*
X118264000Y-63235000D03*
X118264000Y-62585000D03*
X118264000Y-61935000D03*
X118264000Y-61285000D03*
X118264000Y-59985000D03*
X118264000Y-60635000D03*
X118264000Y-59335000D03*
X118264000Y-58685000D03*
X118264000Y-58035000D03*
X118264000Y-57385000D03*
X118264000Y-56735000D03*
X125576000Y-65185000D03*
X125576000Y-64535000D03*
X125576000Y-63885000D03*
X125576000Y-63235000D03*
X125576000Y-62585000D03*
X125576000Y-61935000D03*
X125576000Y-61285000D03*
X125576000Y-60635000D03*
X125576000Y-59985000D03*
X125576000Y-59335000D03*
X125576000Y-58685000D03*
X125576000Y-58035000D03*
X125576000Y-57385000D03*
X125576000Y-56735000D03*
D16*
X133350000Y-62230000D03*
X133350000Y-59690000D03*
X135350000Y-59690000D03*
X135350000Y-62230000D03*
D17*
X138050000Y-66960000D03*
X138050000Y-54960000D03*
D18*
X96520000Y-52590000D03*
X96520000Y-54090000D03*
X95250000Y-52590000D03*
X95250000Y-54090000D03*
X97790000Y-52590000D03*
X97790000Y-54090000D03*
D19*
X129020000Y-68580000D03*
X127520000Y-68580000D03*
X127520000Y-53340000D03*
X129020000Y-53340000D03*
D20*
X88900000Y-59690000D03*
X88900000Y-64570000D03*
D21*
X96080000Y-59430000D03*
X96080000Y-60230000D03*
X96080000Y-61030000D03*
X96080000Y-61830000D03*
X96080000Y-62630000D03*
X96080000Y-63430000D03*
X96080000Y-64230000D03*
X96080000Y-65030000D03*
D22*
X97530000Y-66480000D03*
X98330000Y-66480000D03*
X99130000Y-66480000D03*
X99930000Y-66480000D03*
X100730000Y-66480000D03*
X101530000Y-66480000D03*
X102330000Y-66480000D03*
X103130000Y-66480000D03*
D21*
X104580000Y-65030000D03*
X104580000Y-64230000D03*
X104580000Y-63430000D03*
X104580000Y-62630000D03*
X104580000Y-61830000D03*
X104580000Y-61030000D03*
X104580000Y-60230000D03*
X104580000Y-59430000D03*
D22*
X103130000Y-57980000D03*
X102330000Y-57980000D03*
X101530000Y-57980000D03*
X100730000Y-57980000D03*
X99930000Y-57980000D03*
X99130000Y-57980000D03*
X98330000Y-57980000D03*
X97530000Y-57980000D03*
D23*
X104140000Y-53340000D03*
D24*
X101600000Y-53340000D03*
D25*
X80645000Y-44440000D03*
X83185000Y-44440000D03*
X81915000Y-46980000D03*
X79375000Y-46980000D03*
X78105000Y-44440000D03*
X76835000Y-46980000D03*
X75565000Y-44440000D03*
X74295000Y-46980000D03*
D26*
X86490000Y-41150000D03*
X70990000Y-41150000D03*
D20*
X74955000Y-33200000D03*
X72415000Y-34720000D03*
X85065000Y-33200000D03*
X82525000Y-34720000D03*
D25*
X100965000Y-44440000D03*
X103505000Y-44440000D03*
X102235000Y-46980000D03*
X99695000Y-46980000D03*
X98425000Y-44440000D03*
X97155000Y-46980000D03*
X95885000Y-44440000D03*
X94615000Y-46980000D03*
D26*
X106810000Y-41150000D03*
X91310000Y-41150000D03*
D20*
X95275000Y-33200000D03*
X92735000Y-34720000D03*
X105385000Y-33200000D03*
X102845000Y-34720000D03*
D25*
X121285000Y-44440000D03*
X123825000Y-44440000D03*
X122555000Y-46980000D03*
X120015000Y-46980000D03*
X118745000Y-44440000D03*
X117475000Y-46980000D03*
X116205000Y-44440000D03*
X114935000Y-46980000D03*
D26*
X127130000Y-41150000D03*
X111630000Y-41150000D03*
D20*
X115595000Y-33200000D03*
X113055000Y-34720000D03*
X125705000Y-33200000D03*
X123165000Y-34720000D03*
D25*
X141605000Y-44440000D03*
X144145000Y-44440000D03*
X142875000Y-46980000D03*
X140335000Y-46980000D03*
X139065000Y-44440000D03*
X137795000Y-46980000D03*
X136525000Y-44440000D03*
X135255000Y-46980000D03*
D26*
X147450000Y-41150000D03*
X131950000Y-41150000D03*
D20*
X135915000Y-33200000D03*
X133375000Y-34720000D03*
X146025000Y-33200000D03*
X143485000Y-34720000D03*
D25*
X76835000Y-77480000D03*
X74295000Y-77480000D03*
X75565000Y-74940000D03*
X78105000Y-74940000D03*
X79375000Y-77480000D03*
X80645000Y-74940000D03*
X81915000Y-77480000D03*
X83185000Y-74940000D03*
D26*
X70990000Y-80770000D03*
X86490000Y-80770000D03*
D20*
X82525000Y-88720000D03*
X85065000Y-87200000D03*
X72415000Y-88720000D03*
X74955000Y-87200000D03*
D25*
X97155000Y-77480000D03*
X94615000Y-77480000D03*
X95885000Y-74940000D03*
X98425000Y-74940000D03*
X99695000Y-77480000D03*
X100965000Y-74940000D03*
X102235000Y-77480000D03*
X103505000Y-74940000D03*
D26*
X91310000Y-80770000D03*
X106810000Y-80770000D03*
D20*
X102845000Y-88720000D03*
X105385000Y-87200000D03*
X92735000Y-88720000D03*
X95275000Y-87200000D03*
D25*
X117475000Y-77480000D03*
X114935000Y-77480000D03*
X116205000Y-74940000D03*
X118745000Y-74940000D03*
X120015000Y-77480000D03*
X121285000Y-74940000D03*
X122555000Y-77480000D03*
X123825000Y-74940000D03*
D26*
X111630000Y-80770000D03*
X127130000Y-80770000D03*
D20*
X123165000Y-88720000D03*
X125705000Y-87200000D03*
X113055000Y-88720000D03*
X115595000Y-87200000D03*
D25*
X137795000Y-77480000D03*
X135255000Y-77480000D03*
X136525000Y-74940000D03*
X139065000Y-74940000D03*
X140335000Y-77480000D03*
X141605000Y-74940000D03*
X142875000Y-77480000D03*
X144145000Y-74940000D03*
D26*
X131950000Y-80770000D03*
X147450000Y-80770000D03*
D20*
X143485000Y-88720000D03*
X146025000Y-87200000D03*
X133375000Y-88720000D03*
X135915000Y-87200000D03*
D27*
X71755000Y-66675000D03*
D28*
X71755000Y-64175000D03*
X71755000Y-61675000D03*
D29*
X104241600Y-57353200D03*
X122885200Y-61214000D03*
X98907600Y-53441600D03*
X116586000Y-58928000D03*
X116586000Y-60706000D03*
X145288000Y-72644000D03*
X121412000Y-72644000D03*
X101092000Y-72644000D03*
X141732000Y-72644000D03*
X97028000Y-50292000D03*
X117348000Y-50292000D03*
X137668000Y-50292000D03*
X94488000Y-62230000D03*
X95300800Y-52120800D03*
X120396000Y-49276000D03*
X126390400Y-49225200D03*
X126593600Y-53390800D03*
X99466400Y-52679600D03*
X120650000Y-61722000D03*
X119888000Y-59944000D03*
X146304000Y-71628000D03*
X98552000Y-71628000D03*
X118872000Y-71628000D03*
X139192000Y-71628000D03*
X99568000Y-49276000D03*
X140208000Y-49276000D03*
X115824000Y-57150000D03*
X115824000Y-60960000D03*
X119888000Y-66802000D03*
X121412000Y-66802000D03*
X104775000Y-56591200D03*
X142240000Y-65405000D03*
X127000000Y-55245000D03*
X119888000Y-57658000D03*
X119888000Y-56642000D03*
X107696000Y-55981600D03*
X103073200Y-59537600D03*
X115062000Y-56134000D03*
X122174000Y-66040000D03*
X122885200Y-62484000D03*
X94386400Y-60299600D03*
X147320000Y-70612000D03*
X96012000Y-70612000D03*
X116332000Y-70612000D03*
X136652000Y-70612000D03*
X99720400Y-43180000D03*
X100126800Y-55168800D03*
X98450400Y-55118000D03*
X98450400Y-55930800D03*
X101396800Y-55930800D03*
X94488000Y-51308000D03*
X114808000Y-51308000D03*
X135128000Y-51308000D03*
X143510000Y-62865000D03*
X130810000Y-69215000D03*
X121920000Y-69215000D03*
X105410000Y-69215000D03*
X102870000Y-69850000D03*
X142240000Y-69850000D03*
X142875000Y-60325000D03*
X139700000Y-68580000D03*
X136525000Y-68580000D03*
X132715000Y-68580000D03*
X116205000Y-68580000D03*
D30*
X88900000Y-59690000D02*
X88900000Y-59385200D01*
X88900000Y-59385200D02*
X89650000Y-58635200D01*
X89650000Y-58635200D02*
X89650000Y-55880000D01*
X88900000Y-59690000D02*
X88900000Y-62230000D01*
X90900000Y-64230000D02*
X96080000Y-64230000D01*
X88900000Y-62230000D02*
X90900000Y-64230000D01*
D31*
X140335000Y-77480000D02*
X140335000Y-76210000D01*
X140335000Y-76210000D02*
X141605000Y-74940000D01*
X120015000Y-77480000D02*
X120015000Y-76210000D01*
X120015000Y-76210000D02*
X121285000Y-74940000D01*
X99695000Y-77480000D02*
X99695000Y-76210000D01*
X99695000Y-76210000D02*
X100965000Y-74940000D01*
X139065000Y-44440000D02*
X139065000Y-45710000D01*
X139065000Y-45710000D02*
X137795000Y-46980000D01*
X118745000Y-44440000D02*
X118745000Y-45710000D01*
X118745000Y-45710000D02*
X117475000Y-46980000D01*
X98425000Y-44440000D02*
X98425000Y-45710000D01*
X98425000Y-45710000D02*
X97155000Y-46980000D01*
D30*
X104580000Y-61830000D02*
X105962400Y-61830000D01*
X106331598Y-57353200D02*
X104241600Y-57353200D01*
X106578400Y-57600002D02*
X106331598Y-57353200D01*
X106578400Y-61214000D02*
X106578400Y-57600002D01*
X105962400Y-61830000D02*
X106578400Y-61214000D01*
X122956200Y-61285000D02*
X125576000Y-61285000D01*
X122885200Y-61214000D02*
X122956200Y-61285000D01*
X88150000Y-55880000D02*
X88150000Y-55004400D01*
X92119600Y-61030000D02*
X96080000Y-61030000D01*
X91490800Y-60401200D02*
X92119600Y-61030000D01*
X91490800Y-55473600D02*
X91490800Y-60401200D01*
X90474800Y-54457600D02*
X91490800Y-55473600D01*
X88696800Y-54457600D02*
X90474800Y-54457600D01*
X88150000Y-55004400D02*
X88696800Y-54457600D01*
X88150000Y-55880000D02*
X88138000Y-55880000D01*
X88138000Y-55880000D02*
X86664800Y-57353200D01*
X86664800Y-57353200D02*
X86664800Y-67767200D01*
X86664800Y-67767200D02*
X87477600Y-68580000D01*
X87477600Y-68580000D02*
X88150000Y-68580000D01*
X98907600Y-53441600D02*
X99923600Y-53441600D01*
X99923600Y-53441600D02*
X100482400Y-52882800D01*
X100482400Y-52882800D02*
X100482400Y-52324000D01*
X100482400Y-52324000D02*
X100939600Y-51866800D01*
X100939600Y-51866800D02*
X103682800Y-51866800D01*
X103682800Y-51866800D02*
X104140000Y-52324000D01*
X104140000Y-52324000D02*
X104140000Y-53340000D01*
X96080000Y-61030000D02*
X101454000Y-61030000D01*
X101454000Y-61030000D02*
X102254000Y-61830000D01*
X96080000Y-62630000D02*
X101454000Y-62630000D01*
X102254000Y-61830000D02*
X104580000Y-61830000D01*
X101454000Y-62630000D02*
X102254000Y-61830000D01*
D31*
X118264000Y-63235000D02*
X117337000Y-63235000D01*
X116586000Y-62484000D02*
X116586000Y-60706000D01*
X117337000Y-63235000D02*
X116586000Y-62484000D01*
X118264000Y-63885000D02*
X118264000Y-63235000D01*
D30*
X118264000Y-58685000D02*
X116829000Y-58685000D01*
X116829000Y-58685000D02*
X116586000Y-58928000D01*
X116657000Y-60635000D02*
X118264000Y-60635000D01*
X116586000Y-60706000D02*
X116657000Y-60635000D01*
D31*
X125576000Y-61285000D02*
X126675000Y-61285000D01*
X126675000Y-61285000D02*
X127508000Y-60452000D01*
X127508000Y-60452000D02*
X127508000Y-58420000D01*
X127508000Y-58420000D02*
X128524000Y-57404000D01*
X128524000Y-57404000D02*
X134112000Y-57404000D01*
X134112000Y-57404000D02*
X136652000Y-59944000D01*
X135350000Y-59690000D02*
X136398000Y-59690000D01*
X138176000Y-62484000D02*
X138050000Y-62484000D01*
X138176000Y-61468000D02*
X138176000Y-62484000D01*
X136398000Y-59690000D02*
X136652000Y-59944000D01*
X136652000Y-59944000D02*
X138176000Y-61468000D01*
X138050000Y-54960000D02*
X138050000Y-62484000D01*
X138050000Y-62484000D02*
X138050000Y-66960000D01*
X137668000Y-50292000D02*
X141732000Y-50292000D01*
X141732000Y-50292000D02*
X145288000Y-53848000D01*
X145288000Y-53848000D02*
X145288000Y-72644000D01*
X80645000Y-74940000D02*
X80645000Y-74803000D01*
X80645000Y-74803000D02*
X82804000Y-72644000D01*
X82804000Y-72644000D02*
X101092000Y-72644000D01*
X121412000Y-72644000D02*
X141732000Y-72644000D01*
X101092000Y-72644000D02*
X121412000Y-72644000D01*
X76835000Y-46980000D02*
X76835000Y-47371000D01*
X76835000Y-47371000D02*
X79756000Y-50292000D01*
X79756000Y-50292000D02*
X97028000Y-50292000D01*
X97028000Y-50292000D02*
X117348000Y-50292000D01*
X117348000Y-50292000D02*
X137668000Y-50292000D01*
X79375000Y-77480000D02*
X79375000Y-76210000D01*
X79375000Y-76210000D02*
X80645000Y-74940000D01*
X78105000Y-44440000D02*
X78105000Y-45710000D01*
X78105000Y-45710000D02*
X76835000Y-46980000D01*
D30*
X89650000Y-68580000D02*
X89650000Y-65320000D01*
X89650000Y-65320000D02*
X88900000Y-64570000D01*
X88900000Y-64570000D02*
X89309600Y-64570000D01*
X89309600Y-64570000D02*
X89769600Y-65030000D01*
X89769600Y-65030000D02*
X96080000Y-65030000D01*
D31*
X137795000Y-77480000D02*
X137795000Y-76210000D01*
X137795000Y-76210000D02*
X139065000Y-74940000D01*
X117475000Y-77480000D02*
X117475000Y-76210000D01*
X117475000Y-76210000D02*
X118745000Y-74940000D01*
X97155000Y-77480000D02*
X97155000Y-76210000D01*
X97155000Y-76210000D02*
X98425000Y-74940000D01*
X141605000Y-44440000D02*
X141605000Y-45710000D01*
X141605000Y-45710000D02*
X140335000Y-46980000D01*
X121285000Y-44440000D02*
X121285000Y-45710000D01*
X121285000Y-45710000D02*
X120015000Y-46980000D01*
X100965000Y-44440000D02*
X100965000Y-45710000D01*
X100965000Y-45710000D02*
X99695000Y-46980000D01*
D30*
X96520000Y-52590000D02*
X97790000Y-52590000D01*
X95250000Y-52590000D02*
X95250000Y-52171600D01*
X95300800Y-52120800D02*
X95250000Y-52171600D01*
X127520000Y-53340000D02*
X126644400Y-53340000D01*
X126644400Y-53340000D02*
X126593600Y-53390800D01*
X126390400Y-49225200D02*
X126390400Y-49276000D01*
X126390400Y-49276000D02*
X126390400Y-49225200D01*
X126390400Y-49225200D02*
X126390400Y-49276000D01*
X97790000Y-52590000D02*
X99376800Y-52590000D01*
X99376800Y-52590000D02*
X99466400Y-52679600D01*
X95250000Y-52590000D02*
X97790000Y-52590000D01*
X96080000Y-61830000D02*
X94888000Y-61830000D01*
X94888000Y-61830000D02*
X94488000Y-62230000D01*
X94672000Y-63430000D02*
X96080000Y-63430000D01*
X94488000Y-62230000D02*
X94488000Y-63246000D01*
X94488000Y-63246000D02*
X94672000Y-63430000D01*
X111440000Y-62230000D02*
X111440000Y-63434000D01*
X111440000Y-63434000D02*
X113760000Y-65754000D01*
X113760000Y-65754000D02*
X113760000Y-66040000D01*
D31*
X133350000Y-59690000D02*
X130302000Y-59690000D01*
X129020000Y-60972000D02*
X129020000Y-63996000D01*
X130302000Y-59690000D02*
X129020000Y-60972000D01*
D30*
X122163000Y-63235000D02*
X120650000Y-61722000D01*
X125576000Y-63235000D02*
X122163000Y-63235000D01*
X119847000Y-59985000D02*
X118264000Y-59985000D01*
X119888000Y-59944000D02*
X119847000Y-59985000D01*
X129020000Y-68580000D02*
X129020000Y-63996000D01*
X128259000Y-63235000D02*
X125576000Y-63235000D01*
X129020000Y-63996000D02*
X128259000Y-63235000D01*
X111440000Y-62230000D02*
X111912400Y-62230000D01*
X111912400Y-62230000D02*
X114157400Y-59985000D01*
X114157400Y-59985000D02*
X118264000Y-59985000D01*
D31*
X140208000Y-49276000D02*
X142240000Y-49276000D01*
X146304000Y-53340000D02*
X146304000Y-71628000D01*
X142240000Y-49276000D02*
X146304000Y-53340000D01*
X78105000Y-74940000D02*
X78105000Y-74803000D01*
X78105000Y-74803000D02*
X81280000Y-71628000D01*
X81280000Y-71628000D02*
X98552000Y-71628000D01*
X98552000Y-71628000D02*
X118872000Y-71628000D01*
X118872000Y-71628000D02*
X139192000Y-71628000D01*
X79375000Y-46980000D02*
X79375000Y-47371000D01*
X79375000Y-47371000D02*
X81280000Y-49276000D01*
X81280000Y-49276000D02*
X99568000Y-49276000D01*
X99568000Y-49276000D02*
X120396000Y-49276000D01*
X120396000Y-49276000D02*
X126390400Y-49276000D01*
X126390400Y-49276000D02*
X140208000Y-49276000D01*
X76835000Y-77480000D02*
X76835000Y-76210000D01*
X76835000Y-76210000D02*
X78105000Y-74940000D01*
X80645000Y-44440000D02*
X80645000Y-45710000D01*
X80645000Y-45710000D02*
X79375000Y-46980000D01*
D30*
X109540000Y-59690000D02*
X109540000Y-62230000D01*
X109760000Y-66040000D02*
X109760000Y-62450000D01*
X109760000Y-62450000D02*
X109540000Y-62230000D01*
X111440000Y-59690000D02*
X113538000Y-59690000D01*
X115193000Y-58035000D02*
X118264000Y-58035000D01*
X113538000Y-59690000D02*
X115193000Y-58035000D01*
X125730000Y-66802000D02*
X128016000Y-66802000D01*
X115824000Y-60960000D02*
X115824000Y-63500000D01*
X115824000Y-63500000D02*
X116840000Y-64516000D01*
X116840000Y-64516000D02*
X116840000Y-66040000D01*
X116840000Y-66040000D02*
X117602000Y-66802000D01*
X117602000Y-66802000D02*
X119888000Y-66802000D01*
X121412000Y-66802000D02*
X125730000Y-66802000D01*
X111440000Y-57150000D02*
X115824000Y-57150000D01*
X128289000Y-64535000D02*
X125576000Y-64535000D01*
X128524000Y-64770000D02*
X128289000Y-64535000D01*
X128524000Y-66294000D02*
X128524000Y-64770000D01*
X128016000Y-66802000D02*
X128524000Y-66294000D01*
X142240000Y-53975000D02*
X142240000Y-65405000D01*
X140335000Y-52070000D02*
X142240000Y-53975000D01*
X132715000Y-52070000D02*
X140335000Y-52070000D01*
X129540000Y-55245000D02*
X132715000Y-52070000D01*
X127000000Y-55245000D02*
X129540000Y-55245000D01*
X101600000Y-53340000D02*
X101600000Y-54914800D01*
X107340400Y-57150000D02*
X109540000Y-57150000D01*
X106781600Y-56591200D02*
X107340400Y-57150000D01*
X103276400Y-56591200D02*
X104775000Y-56591200D01*
X104775000Y-56591200D02*
X106781600Y-56591200D01*
X101600000Y-54914800D02*
X103276400Y-56591200D01*
X99314000Y-54090000D02*
X99314000Y-55727600D01*
X99930000Y-56343600D02*
X99930000Y-57980000D01*
X99314000Y-55727600D02*
X99930000Y-56343600D01*
X97790000Y-54090000D02*
X99314000Y-54090000D01*
X99314000Y-54090000D02*
X100850000Y-54090000D01*
X100850000Y-54090000D02*
X101600000Y-53340000D01*
X125260000Y-68580000D02*
X127520000Y-68580000D01*
X118264000Y-61935000D02*
X119847000Y-61935000D01*
X121158000Y-68580000D02*
X123660000Y-68580000D01*
X120650000Y-68072000D02*
X121158000Y-68580000D01*
X120650000Y-62738000D02*
X120650000Y-68072000D01*
X119847000Y-61935000D02*
X120650000Y-62738000D01*
X129020000Y-53340000D02*
X129020000Y-53504400D01*
X129020000Y-53504400D02*
X128219200Y-54305200D01*
X128219200Y-54305200D02*
X125780800Y-54305200D01*
X125780800Y-54305200D02*
X125260000Y-53784400D01*
X125260000Y-53784400D02*
X125260000Y-53340000D01*
X118264000Y-61285000D02*
X119817000Y-61285000D01*
X121666000Y-53340000D02*
X123660000Y-53340000D01*
X120650000Y-54356000D02*
X121666000Y-53340000D01*
X120650000Y-60452000D02*
X120650000Y-54356000D01*
X119817000Y-61285000D02*
X120650000Y-60452000D01*
X118264000Y-57385000D02*
X119615000Y-57385000D01*
X119615000Y-57385000D02*
X119888000Y-57658000D01*
X118264000Y-56735000D02*
X119795000Y-56735000D01*
X119795000Y-56735000D02*
X119888000Y-56642000D01*
X98330000Y-57980000D02*
X98330000Y-59264800D01*
X107848400Y-56134000D02*
X115062000Y-56134000D01*
X107696000Y-55981600D02*
X107848400Y-56134000D01*
X98602800Y-59537600D02*
X103073200Y-59537600D01*
X98330000Y-59264800D02*
X98602800Y-59537600D01*
X125576000Y-65185000D02*
X123029000Y-65185000D01*
X123029000Y-65185000D02*
X122174000Y-66040000D01*
X99130000Y-57980000D02*
X99130000Y-56915200D01*
X122986200Y-62585000D02*
X125576000Y-62585000D01*
X122885200Y-62484000D02*
X122986200Y-62585000D01*
X94386400Y-57810400D02*
X94386400Y-60299600D01*
X95554800Y-56642000D02*
X94386400Y-57810400D01*
X98856800Y-56642000D02*
X95554800Y-56642000D01*
X99130000Y-56915200D02*
X98856800Y-56642000D01*
D31*
X135255000Y-77480000D02*
X135255000Y-76210000D01*
X135255000Y-76210000D02*
X136525000Y-74940000D01*
X114935000Y-77480000D02*
X114935000Y-76210000D01*
X114935000Y-76210000D02*
X116205000Y-74940000D01*
X94615000Y-77480000D02*
X94615000Y-76210000D01*
X94615000Y-76210000D02*
X95885000Y-74940000D01*
X141595000Y-48260000D02*
X142748000Y-48260000D01*
X147320000Y-52832000D02*
X147320000Y-70612000D01*
X142748000Y-48260000D02*
X147320000Y-52832000D01*
X75565000Y-74940000D02*
X75565000Y-74803000D01*
X75565000Y-74803000D02*
X79756000Y-70612000D01*
X79756000Y-70612000D02*
X96012000Y-70612000D01*
X96012000Y-70612000D02*
X116332000Y-70612000D01*
X116332000Y-70612000D02*
X136652000Y-70612000D01*
X120650000Y-48260000D02*
X141595000Y-48260000D01*
X141595000Y-48260000D02*
X142875000Y-46980000D01*
X100955000Y-48260000D02*
X120650000Y-48260000D01*
X120650000Y-48260000D02*
X121275000Y-48260000D01*
X121275000Y-48260000D02*
X122555000Y-46980000D01*
X81915000Y-46980000D02*
X81915000Y-47625000D01*
X81915000Y-47625000D02*
X82550000Y-48260000D01*
X100955000Y-48260000D02*
X102235000Y-46980000D01*
X82550000Y-48260000D02*
X100955000Y-48260000D01*
X74295000Y-77480000D02*
X74295000Y-76210000D01*
X74295000Y-76210000D02*
X75565000Y-74940000D01*
X144145000Y-44440000D02*
X144145000Y-45710000D01*
X144145000Y-45710000D02*
X142875000Y-46980000D01*
X123825000Y-44440000D02*
X123825000Y-45710000D01*
X123825000Y-45710000D02*
X122555000Y-46980000D01*
X103505000Y-44440000D02*
X103505000Y-45710000D01*
X103505000Y-45710000D02*
X102235000Y-46980000D01*
X83185000Y-44440000D02*
X83185000Y-45710000D01*
X83185000Y-45710000D02*
X81915000Y-46980000D01*
D30*
X142875000Y-77480000D02*
X143296800Y-77480000D01*
X143296800Y-77480000D02*
X148183600Y-72593200D01*
X145999200Y-43180000D02*
X135265000Y-43180000D01*
X148183600Y-45364400D02*
X145999200Y-43180000D01*
X148183600Y-72593200D02*
X148183600Y-45364400D01*
X102235000Y-77480000D02*
X102235000Y-78003400D01*
X102235000Y-78003400D02*
X101244400Y-78994000D01*
X122555000Y-77480000D02*
X122555000Y-78714600D01*
X122021600Y-78943200D02*
X122021600Y-78994000D01*
X122072400Y-78994000D02*
X122021600Y-78943200D01*
X122275600Y-78994000D02*
X122072400Y-78994000D01*
X122555000Y-78714600D02*
X122275600Y-78994000D01*
X81915000Y-77480000D02*
X81915000Y-78003400D01*
X81915000Y-78003400D02*
X82905600Y-78994000D01*
X82905600Y-78994000D02*
X101244400Y-78994000D01*
X101244400Y-78994000D02*
X122021600Y-78994000D01*
X122021600Y-78994000D02*
X141361000Y-78994000D01*
X141361000Y-78994000D02*
X142875000Y-77480000D01*
X96520000Y-54090000D02*
X96520000Y-54406800D01*
X100730000Y-55772000D02*
X100730000Y-57980000D01*
X100126800Y-55168800D02*
X100730000Y-55772000D01*
X97231200Y-55118000D02*
X98450400Y-55118000D01*
X96520000Y-54406800D02*
X97231200Y-55118000D01*
X95885000Y-44440000D02*
X96276000Y-44440000D01*
X96276000Y-44440000D02*
X97536000Y-43180000D01*
X116205000Y-44440000D02*
X116596000Y-44440000D01*
X116596000Y-44440000D02*
X117856000Y-43180000D01*
X75565000Y-44440000D02*
X75565000Y-43815000D01*
X75565000Y-43815000D02*
X76200000Y-43180000D01*
X76200000Y-43180000D02*
X97536000Y-43180000D01*
X97536000Y-43180000D02*
X99720400Y-43180000D01*
X99720400Y-43180000D02*
X117856000Y-43180000D01*
X117856000Y-43180000D02*
X135265000Y-43180000D01*
X135265000Y-43180000D02*
X136525000Y-44440000D01*
X94488000Y-51308000D02*
X94488000Y-51612800D01*
X95097600Y-55930800D02*
X96977200Y-55930800D01*
X94030800Y-54864000D02*
X95097600Y-55930800D01*
X94030800Y-52070000D02*
X94030800Y-54864000D01*
X94488000Y-51612800D02*
X94030800Y-52070000D01*
X95250000Y-54090000D02*
X95250000Y-54457600D01*
X95250000Y-54457600D02*
X96723200Y-55930800D01*
X96723200Y-55930800D02*
X96977200Y-55930800D01*
X101530000Y-56064000D02*
X101530000Y-57980000D01*
X96977200Y-55930800D02*
X98450400Y-55930800D01*
X101396800Y-55930800D02*
X101530000Y-56064000D01*
X95250000Y-54090000D02*
X95250000Y-54305200D01*
X135128000Y-51308000D02*
X141732000Y-51308000D01*
X144145000Y-53721000D02*
X144145000Y-74940000D01*
X141732000Y-51308000D02*
X144145000Y-53721000D01*
X103505000Y-74940000D02*
X103388000Y-74940000D01*
X103388000Y-74940000D02*
X102108000Y-73660000D01*
X123825000Y-74940000D02*
X123708000Y-74940000D01*
X123708000Y-74940000D02*
X122428000Y-73660000D01*
X83185000Y-74940000D02*
X83185000Y-74803000D01*
X83185000Y-74803000D02*
X84328000Y-73660000D01*
X84328000Y-73660000D02*
X102108000Y-73660000D01*
X102108000Y-73660000D02*
X122428000Y-73660000D01*
X122428000Y-73660000D02*
X142865000Y-73660000D01*
X142865000Y-73660000D02*
X144145000Y-74940000D01*
X74295000Y-46980000D02*
X74412000Y-46980000D01*
X74412000Y-46980000D02*
X78740000Y-51308000D01*
X78740000Y-51308000D02*
X94488000Y-51308000D01*
X94488000Y-51308000D02*
X114808000Y-51308000D01*
X114808000Y-51308000D02*
X135128000Y-51308000D01*
X102330000Y-66480000D02*
X102330000Y-69310000D01*
X143694998Y-63049998D02*
X143510000Y-62865000D01*
X143694998Y-67760002D02*
X143694998Y-63049998D01*
X142240000Y-69215000D02*
X143694998Y-67760002D01*
X140335000Y-69215000D02*
X142240000Y-69215000D01*
X130810000Y-69215000D02*
X140335000Y-69215000D01*
X105410000Y-69215000D02*
X121920000Y-69215000D01*
X102330000Y-69310000D02*
X102870000Y-69850000D01*
X103130000Y-66480000D02*
X103130000Y-68840000D01*
X104140000Y-69850000D02*
X142240000Y-69850000D01*
X103130000Y-68840000D02*
X104140000Y-69850000D01*
X104580000Y-65030000D02*
X104580000Y-67115000D01*
X142875000Y-67310000D02*
X142875000Y-60325000D01*
X141605000Y-68580000D02*
X142875000Y-67310000D01*
X139700000Y-68580000D02*
X141605000Y-68580000D01*
X132715000Y-68580000D02*
X136525000Y-68580000D01*
X106045000Y-68580000D02*
X116205000Y-68580000D01*
X104580000Y-67115000D02*
X106045000Y-68580000D01*
D32*
G36*
X149150000Y-40328171D02*
X149048957Y-40083628D01*
X148519161Y-39552907D01*
X147826595Y-39265328D01*
X147378368Y-39264937D01*
X147674607Y-38551514D01*
X147675391Y-37652430D01*
X147332052Y-36821485D01*
X146696859Y-36185182D01*
X145866514Y-35840393D01*
X144967430Y-35839609D01*
X144136485Y-36182948D01*
X143500182Y-36818141D01*
X143155393Y-37648486D01*
X143154609Y-38547570D01*
X143497948Y-39378515D01*
X144133141Y-40014818D01*
X144963486Y-40359607D01*
X145736872Y-40360281D01*
X145565328Y-40773405D01*
X145564674Y-41523305D01*
X145851043Y-42216372D01*
X146067972Y-42433680D01*
X145999200Y-42420000D01*
X133345903Y-42420000D01*
X133547093Y-42219161D01*
X133834672Y-41526595D01*
X133835326Y-40776695D01*
X133663036Y-40359720D01*
X134432570Y-40360391D01*
X135263515Y-40017052D01*
X135899818Y-39381859D01*
X136244607Y-38551514D01*
X136245391Y-37652430D01*
X135902052Y-36821485D01*
X135266859Y-36185182D01*
X134436514Y-35840393D01*
X134213243Y-35840198D01*
X134548461Y-35505564D01*
X134759759Y-34996702D01*
X134759761Y-34994285D01*
X142099760Y-34994285D01*
X142310169Y-35503515D01*
X142699436Y-35893461D01*
X143208298Y-36104759D01*
X143759285Y-36105240D01*
X144268515Y-35894831D01*
X144658461Y-35505564D01*
X144869759Y-34996702D01*
X144870240Y-34445715D01*
X144659831Y-33936485D01*
X144270564Y-33546539D01*
X144096558Y-33474285D01*
X144639760Y-33474285D01*
X144850169Y-33983515D01*
X145239436Y-34373461D01*
X145748298Y-34584759D01*
X146299285Y-34585240D01*
X146808515Y-34374831D01*
X147198461Y-33985564D01*
X147409759Y-33476702D01*
X147410240Y-32925715D01*
X147199831Y-32416485D01*
X146810564Y-32026539D01*
X146301702Y-31815241D01*
X145750715Y-31814760D01*
X145241485Y-32025169D01*
X144851539Y-32414436D01*
X144640241Y-32923298D01*
X144639760Y-33474285D01*
X144096558Y-33474285D01*
X143761702Y-33335241D01*
X143210715Y-33334760D01*
X142701485Y-33545169D01*
X142311539Y-33934436D01*
X142100241Y-34443298D01*
X142099760Y-34994285D01*
X134759761Y-34994285D01*
X134760240Y-34445715D01*
X134549831Y-33936485D01*
X134160564Y-33546539D01*
X133986558Y-33474285D01*
X134529760Y-33474285D01*
X134740169Y-33983515D01*
X135129436Y-34373461D01*
X135638298Y-34584759D01*
X136189285Y-34585240D01*
X136698515Y-34374831D01*
X137088461Y-33985564D01*
X137299759Y-33476702D01*
X137300240Y-32925715D01*
X137089831Y-32416485D01*
X136700564Y-32026539D01*
X136191702Y-31815241D01*
X135640715Y-31814760D01*
X135131485Y-32025169D01*
X134741539Y-32414436D01*
X134530241Y-32923298D01*
X134529760Y-33474285D01*
X133986558Y-33474285D01*
X133651702Y-33335241D01*
X133100715Y-33334760D01*
X132591485Y-33545169D01*
X132201539Y-33934436D01*
X131990241Y-34443298D01*
X131989760Y-34994285D01*
X132200169Y-35503515D01*
X132589436Y-35893461D01*
X132997258Y-36062803D01*
X132706485Y-36182948D01*
X132070182Y-36818141D01*
X131725393Y-37648486D01*
X131724609Y-38547570D01*
X132021070Y-39265062D01*
X131576695Y-39264674D01*
X130883628Y-39551043D01*
X130352907Y-40080839D01*
X130065328Y-40773405D01*
X130064674Y-41523305D01*
X130351043Y-42216372D01*
X130554316Y-42420000D01*
X128525903Y-42420000D01*
X128727093Y-42219161D01*
X129014672Y-41526595D01*
X129015326Y-40776695D01*
X128728957Y-40083628D01*
X128199161Y-39552907D01*
X127506595Y-39265328D01*
X127058368Y-39264937D01*
X127354607Y-38551514D01*
X127355391Y-37652430D01*
X127012052Y-36821485D01*
X126376859Y-36185182D01*
X125546514Y-35840393D01*
X124647430Y-35839609D01*
X123816485Y-36182948D01*
X123180182Y-36818141D01*
X122835393Y-37648486D01*
X122834609Y-38547570D01*
X123177948Y-39378515D01*
X123813141Y-40014818D01*
X124643486Y-40359607D01*
X125416872Y-40360281D01*
X125245328Y-40773405D01*
X125244674Y-41523305D01*
X125531043Y-42216372D01*
X125734316Y-42420000D01*
X113025903Y-42420000D01*
X113227093Y-42219161D01*
X113514672Y-41526595D01*
X113515326Y-40776695D01*
X113343036Y-40359720D01*
X114112570Y-40360391D01*
X114943515Y-40017052D01*
X115579818Y-39381859D01*
X115924607Y-38551514D01*
X115925391Y-37652430D01*
X115582052Y-36821485D01*
X114946859Y-36185182D01*
X114116514Y-35840393D01*
X113893243Y-35840198D01*
X114228461Y-35505564D01*
X114439759Y-34996702D01*
X114439761Y-34994285D01*
X121779760Y-34994285D01*
X121990169Y-35503515D01*
X122379436Y-35893461D01*
X122888298Y-36104759D01*
X123439285Y-36105240D01*
X123948515Y-35894831D01*
X124338461Y-35505564D01*
X124549759Y-34996702D01*
X124550240Y-34445715D01*
X124339831Y-33936485D01*
X123950564Y-33546539D01*
X123776558Y-33474285D01*
X124319760Y-33474285D01*
X124530169Y-33983515D01*
X124919436Y-34373461D01*
X125428298Y-34584759D01*
X125979285Y-34585240D01*
X126488515Y-34374831D01*
X126878461Y-33985564D01*
X127089759Y-33476702D01*
X127090240Y-32925715D01*
X126879831Y-32416485D01*
X126490564Y-32026539D01*
X125981702Y-31815241D01*
X125430715Y-31814760D01*
X124921485Y-32025169D01*
X124531539Y-32414436D01*
X124320241Y-32923298D01*
X124319760Y-33474285D01*
X123776558Y-33474285D01*
X123441702Y-33335241D01*
X122890715Y-33334760D01*
X122381485Y-33545169D01*
X121991539Y-33934436D01*
X121780241Y-34443298D01*
X121779760Y-34994285D01*
X114439761Y-34994285D01*
X114440240Y-34445715D01*
X114229831Y-33936485D01*
X113840564Y-33546539D01*
X113666558Y-33474285D01*
X114209760Y-33474285D01*
X114420169Y-33983515D01*
X114809436Y-34373461D01*
X115318298Y-34584759D01*
X115869285Y-34585240D01*
X116378515Y-34374831D01*
X116768461Y-33985564D01*
X116979759Y-33476702D01*
X116980240Y-32925715D01*
X116769831Y-32416485D01*
X116380564Y-32026539D01*
X115871702Y-31815241D01*
X115320715Y-31814760D01*
X114811485Y-32025169D01*
X114421539Y-32414436D01*
X114210241Y-32923298D01*
X114209760Y-33474285D01*
X113666558Y-33474285D01*
X113331702Y-33335241D01*
X112780715Y-33334760D01*
X112271485Y-33545169D01*
X111881539Y-33934436D01*
X111670241Y-34443298D01*
X111669760Y-34994285D01*
X111880169Y-35503515D01*
X112269436Y-35893461D01*
X112677258Y-36062803D01*
X112386485Y-36182948D01*
X111750182Y-36818141D01*
X111405393Y-37648486D01*
X111404609Y-38547570D01*
X111701070Y-39265062D01*
X111256695Y-39264674D01*
X110563628Y-39551043D01*
X110032907Y-40080839D01*
X109745328Y-40773405D01*
X109744674Y-41523305D01*
X110031043Y-42216372D01*
X110234316Y-42420000D01*
X108205903Y-42420000D01*
X108407093Y-42219161D01*
X108694672Y-41526595D01*
X108695326Y-40776695D01*
X108408957Y-40083628D01*
X107879161Y-39552907D01*
X107186595Y-39265328D01*
X106738368Y-39264937D01*
X107034607Y-38551514D01*
X107035391Y-37652430D01*
X106692052Y-36821485D01*
X106056859Y-36185182D01*
X105226514Y-35840393D01*
X104327430Y-35839609D01*
X103496485Y-36182948D01*
X102860182Y-36818141D01*
X102515393Y-37648486D01*
X102514609Y-38547570D01*
X102857948Y-39378515D01*
X103493141Y-40014818D01*
X104323486Y-40359607D01*
X105096872Y-40360281D01*
X104925328Y-40773405D01*
X104924674Y-41523305D01*
X105211043Y-42216372D01*
X105414316Y-42420000D01*
X100282863Y-42420000D01*
X100250727Y-42387808D01*
X99907199Y-42245162D01*
X99535233Y-42244838D01*
X99191457Y-42386883D01*
X99158282Y-42420000D01*
X92705903Y-42420000D01*
X92907093Y-42219161D01*
X93194672Y-41526595D01*
X93195326Y-40776695D01*
X93023036Y-40359720D01*
X93792570Y-40360391D01*
X94623515Y-40017052D01*
X95259818Y-39381859D01*
X95604607Y-38551514D01*
X95605391Y-37652430D01*
X95262052Y-36821485D01*
X94626859Y-36185182D01*
X93796514Y-35840393D01*
X93573243Y-35840198D01*
X93908461Y-35505564D01*
X94119759Y-34996702D01*
X94119761Y-34994285D01*
X101459760Y-34994285D01*
X101670169Y-35503515D01*
X102059436Y-35893461D01*
X102568298Y-36104759D01*
X103119285Y-36105240D01*
X103628515Y-35894831D01*
X104018461Y-35505564D01*
X104229759Y-34996702D01*
X104230240Y-34445715D01*
X104019831Y-33936485D01*
X103630564Y-33546539D01*
X103456558Y-33474285D01*
X103999760Y-33474285D01*
X104210169Y-33983515D01*
X104599436Y-34373461D01*
X105108298Y-34584759D01*
X105659285Y-34585240D01*
X106168515Y-34374831D01*
X106558461Y-33985564D01*
X106769759Y-33476702D01*
X106770240Y-32925715D01*
X106559831Y-32416485D01*
X106170564Y-32026539D01*
X105661702Y-31815241D01*
X105110715Y-31814760D01*
X104601485Y-32025169D01*
X104211539Y-32414436D01*
X104000241Y-32923298D01*
X103999760Y-33474285D01*
X103456558Y-33474285D01*
X103121702Y-33335241D01*
X102570715Y-33334760D01*
X102061485Y-33545169D01*
X101671539Y-33934436D01*
X101460241Y-34443298D01*
X101459760Y-34994285D01*
X94119761Y-34994285D01*
X94120240Y-34445715D01*
X93909831Y-33936485D01*
X93520564Y-33546539D01*
X93346558Y-33474285D01*
X93889760Y-33474285D01*
X94100169Y-33983515D01*
X94489436Y-34373461D01*
X94998298Y-34584759D01*
X95549285Y-34585240D01*
X96058515Y-34374831D01*
X96448461Y-33985564D01*
X96659759Y-33476702D01*
X96660240Y-32925715D01*
X96449831Y-32416485D01*
X96060564Y-32026539D01*
X95551702Y-31815241D01*
X95000715Y-31814760D01*
X94491485Y-32025169D01*
X94101539Y-32414436D01*
X93890241Y-32923298D01*
X93889760Y-33474285D01*
X93346558Y-33474285D01*
X93011702Y-33335241D01*
X92460715Y-33334760D01*
X91951485Y-33545169D01*
X91561539Y-33934436D01*
X91350241Y-34443298D01*
X91349760Y-34994285D01*
X91560169Y-35503515D01*
X91949436Y-35893461D01*
X92357258Y-36062803D01*
X92066485Y-36182948D01*
X91430182Y-36818141D01*
X91085393Y-37648486D01*
X91084609Y-38547570D01*
X91381070Y-39265062D01*
X90936695Y-39264674D01*
X90243628Y-39551043D01*
X89712907Y-40080839D01*
X89425328Y-40773405D01*
X89424674Y-41523305D01*
X89711043Y-42216372D01*
X89914316Y-42420000D01*
X87885903Y-42420000D01*
X88087093Y-42219161D01*
X88374672Y-41526595D01*
X88375326Y-40776695D01*
X88088957Y-40083628D01*
X87559161Y-39552907D01*
X86866595Y-39265328D01*
X86418368Y-39264937D01*
X86714607Y-38551514D01*
X86715391Y-37652430D01*
X86372052Y-36821485D01*
X85736859Y-36185182D01*
X84906514Y-35840393D01*
X84007430Y-35839609D01*
X83176485Y-36182948D01*
X82540182Y-36818141D01*
X82195393Y-37648486D01*
X82194609Y-38547570D01*
X82537948Y-39378515D01*
X83173141Y-40014818D01*
X84003486Y-40359607D01*
X84776872Y-40360281D01*
X84605328Y-40773405D01*
X84604674Y-41523305D01*
X84891043Y-42216372D01*
X85094316Y-42420000D01*
X76200000Y-42420000D01*
X75909161Y-42477852D01*
X75662599Y-42642599D01*
X75129884Y-43175314D01*
X74809771Y-43307582D01*
X74433902Y-43682796D01*
X74230232Y-44173287D01*
X74229769Y-44704383D01*
X74432582Y-45195229D01*
X74807796Y-45571098D01*
X75298287Y-45774768D01*
X75829383Y-45775231D01*
X76320229Y-45572418D01*
X76517716Y-45375275D01*
X77349331Y-45375275D01*
X77411169Y-45611042D01*
X77912122Y-45787419D01*
X78442440Y-45758664D01*
X78798831Y-45611042D01*
X78860669Y-45375275D01*
X78105000Y-44619605D01*
X77349331Y-45375275D01*
X76517716Y-45375275D01*
X76696098Y-45197204D01*
X76828316Y-44878788D01*
X76933958Y-45133831D01*
X77169725Y-45195669D01*
X77925395Y-44440000D01*
X77911252Y-44425858D01*
X78090858Y-44246253D01*
X78105000Y-44260395D01*
X78119143Y-44246253D01*
X78298748Y-44425858D01*
X78284605Y-44440000D01*
X79040275Y-45195669D01*
X79276042Y-45133831D01*
X79373196Y-44857889D01*
X79512582Y-45195229D01*
X79745539Y-45428593D01*
X79528998Y-45645134D01*
X79110617Y-45644769D01*
X78619771Y-45847582D01*
X78243902Y-46222796D01*
X78111684Y-46541212D01*
X78006042Y-46286169D01*
X77770275Y-46224331D01*
X77014605Y-46980000D01*
X77770275Y-47735669D01*
X78006042Y-47673831D01*
X78103196Y-47397889D01*
X78242582Y-47735229D01*
X78617796Y-48111098D01*
X79108287Y-48314768D01*
X79137926Y-48314794D01*
X80689566Y-49866434D01*
X80960459Y-50047439D01*
X81280000Y-50111000D01*
X99140766Y-50111000D01*
X99381201Y-50210838D01*
X99753167Y-50211162D01*
X99995578Y-50111000D01*
X119968766Y-50111000D01*
X120209201Y-50210838D01*
X120581167Y-50211162D01*
X120823578Y-50111000D01*
X126085505Y-50111000D01*
X126203601Y-50160038D01*
X126575567Y-50160362D01*
X126695032Y-50111000D01*
X139780766Y-50111000D01*
X140021201Y-50210838D01*
X140393167Y-50211162D01*
X140635578Y-50111000D01*
X141894132Y-50111000D01*
X145469000Y-53685868D01*
X145469000Y-71200766D01*
X145369162Y-71441201D01*
X145368838Y-71813167D01*
X145510883Y-72156943D01*
X145773673Y-72420192D01*
X146117201Y-72562838D01*
X146489167Y-72563162D01*
X146832943Y-72421117D01*
X147096192Y-72158327D01*
X147238838Y-71814799D01*
X147239071Y-71546930D01*
X147423600Y-71547091D01*
X147423600Y-72278398D01*
X145347534Y-74354464D01*
X145277418Y-74184771D01*
X144905000Y-73811703D01*
X144905000Y-53721000D01*
X144881863Y-53604683D01*
X144847148Y-53430160D01*
X144682401Y-53183599D01*
X142269401Y-50770599D01*
X142022839Y-50605852D01*
X141732000Y-50548000D01*
X135690463Y-50548000D01*
X135658327Y-50515808D01*
X135314799Y-50373162D01*
X134942833Y-50372838D01*
X134599057Y-50514883D01*
X134565882Y-50548000D01*
X115370463Y-50548000D01*
X115338327Y-50515808D01*
X114994799Y-50373162D01*
X114622833Y-50372838D01*
X114279057Y-50514883D01*
X114245882Y-50548000D01*
X95050463Y-50548000D01*
X95018327Y-50515808D01*
X94674799Y-50373162D01*
X94302833Y-50372838D01*
X93959057Y-50514883D01*
X93925882Y-50548000D01*
X79054802Y-50548000D01*
X76824341Y-48317539D01*
X77172440Y-48298664D01*
X77528831Y-48151042D01*
X77590669Y-47915275D01*
X76835000Y-47159605D01*
X76820858Y-47173748D01*
X76641252Y-46994142D01*
X76655395Y-46980000D01*
X75899725Y-46224331D01*
X75663958Y-46286169D01*
X75566804Y-46562111D01*
X75427418Y-46224771D01*
X75247686Y-46044725D01*
X76079331Y-46044725D01*
X76835000Y-46800395D01*
X77590669Y-46044725D01*
X77528831Y-45808958D01*
X77027878Y-45632581D01*
X76497560Y-45661336D01*
X76141169Y-45808958D01*
X76079331Y-46044725D01*
X75247686Y-46044725D01*
X75052204Y-45848902D01*
X74561713Y-45645232D01*
X74030617Y-45644769D01*
X73539771Y-45847582D01*
X73163902Y-46222796D01*
X72960232Y-46713287D01*
X72959769Y-47244383D01*
X73162582Y-47735229D01*
X73537796Y-48111098D01*
X74028287Y-48314768D01*
X74559383Y-48315231D01*
X74639376Y-48282178D01*
X78202599Y-51845401D01*
X78449160Y-52010148D01*
X78740000Y-52068000D01*
X93271198Y-52068000D01*
X93270800Y-52070000D01*
X93270800Y-54864000D01*
X93328652Y-55154839D01*
X93493399Y-55401401D01*
X94560199Y-56468201D01*
X94616307Y-56505691D01*
X93848999Y-57272999D01*
X93684252Y-57519561D01*
X93626400Y-57810400D01*
X93626400Y-59737137D01*
X93594208Y-59769273D01*
X93451562Y-60112801D01*
X93451238Y-60484767D01*
X93593283Y-60828543D01*
X93856073Y-61091792D01*
X94199601Y-61234438D01*
X94437333Y-61234645D01*
X94350599Y-61292599D01*
X94348320Y-61294878D01*
X94302833Y-61294838D01*
X93959057Y-61436883D01*
X93695808Y-61699673D01*
X93553162Y-62043201D01*
X93552838Y-62415167D01*
X93694883Y-62758943D01*
X93728000Y-62792118D01*
X93728000Y-63246000D01*
X93772557Y-63470000D01*
X91214802Y-63470000D01*
X89660000Y-61915198D01*
X89660000Y-60874547D01*
X89683515Y-60864831D01*
X90073461Y-60475564D01*
X90284759Y-59966702D01*
X90285240Y-59415715D01*
X90185552Y-59174450D01*
X90187401Y-59172601D01*
X90352148Y-58926040D01*
X90410000Y-58635200D01*
X90410000Y-56777931D01*
X90501441Y-56719090D01*
X90646431Y-56506890D01*
X90697440Y-56255000D01*
X90697440Y-55505000D01*
X90653162Y-55269683D01*
X90514090Y-55053559D01*
X90301890Y-54908569D01*
X90050000Y-54857560D01*
X89250000Y-54857560D01*
X89014683Y-54901838D01*
X88911354Y-54968329D01*
X88909698Y-54966673D01*
X88676309Y-54870000D01*
X88435750Y-54870000D01*
X88277000Y-55028750D01*
X88277000Y-55753000D01*
X88297000Y-55753000D01*
X88297000Y-56007000D01*
X88277000Y-56007000D01*
X88277000Y-56731250D01*
X88435750Y-56890000D01*
X88676309Y-56890000D01*
X88890000Y-56801486D01*
X88890000Y-58304991D01*
X88625715Y-58304760D01*
X88116485Y-58515169D01*
X87726539Y-58904436D01*
X87515241Y-59413298D01*
X87514760Y-59964285D01*
X87725169Y-60473515D01*
X88114436Y-60863461D01*
X88140000Y-60874076D01*
X88140000Y-62230000D01*
X88197852Y-62520839D01*
X88362599Y-62767401D01*
X88780093Y-63184895D01*
X88625715Y-63184760D01*
X88116485Y-63395169D01*
X87726539Y-63784436D01*
X87515241Y-64293298D01*
X87514760Y-64844285D01*
X87725169Y-65353515D01*
X88114436Y-65743461D01*
X88623298Y-65954759D01*
X88890000Y-65954992D01*
X88890000Y-67658514D01*
X88676309Y-67570000D01*
X88435750Y-67570000D01*
X88277000Y-67728750D01*
X88277000Y-68453000D01*
X88297000Y-68453000D01*
X88297000Y-68707000D01*
X88277000Y-68707000D01*
X88277000Y-69431250D01*
X88435750Y-69590000D01*
X88676309Y-69590000D01*
X88909698Y-69493327D01*
X88911068Y-69491957D01*
X88998110Y-69551431D01*
X89250000Y-69602440D01*
X90050000Y-69602440D01*
X90285317Y-69558162D01*
X90501441Y-69419090D01*
X90646431Y-69206890D01*
X90697440Y-68955000D01*
X90697440Y-68205000D01*
X90653162Y-67969683D01*
X90514090Y-67753559D01*
X90410000Y-67682437D01*
X90410000Y-65790000D01*
X94865025Y-65790000D01*
X95028110Y-65901431D01*
X95280000Y-65952440D01*
X96607560Y-65952440D01*
X96607560Y-67280000D01*
X96651838Y-67515317D01*
X96790910Y-67731441D01*
X97003110Y-67876431D01*
X97255000Y-67927440D01*
X97805000Y-67927440D01*
X97934589Y-67903056D01*
X98055000Y-67927440D01*
X98605000Y-67927440D01*
X98734589Y-67903056D01*
X98855000Y-67927440D01*
X99405000Y-67927440D01*
X99534589Y-67903056D01*
X99655000Y-67927440D01*
X100205000Y-67927440D01*
X100334589Y-67903056D01*
X100455000Y-67927440D01*
X101005000Y-67927440D01*
X101134589Y-67903056D01*
X101255000Y-67927440D01*
X101570000Y-67927440D01*
X101570000Y-69310000D01*
X101627852Y-69600839D01*
X101745559Y-69777000D01*
X96439234Y-69777000D01*
X96198799Y-69677162D01*
X95826833Y-69676838D01*
X95584422Y-69777000D01*
X79756000Y-69777000D01*
X79436459Y-69840561D01*
X79422333Y-69850000D01*
X79165566Y-70021566D01*
X75582118Y-73605014D01*
X75300617Y-73604769D01*
X74809771Y-73807582D01*
X74433902Y-74182796D01*
X74230232Y-74673287D01*
X74229865Y-75094267D01*
X73704566Y-75619566D01*
X73523561Y-75890459D01*
X73460000Y-76210000D01*
X73460000Y-76427214D01*
X73163902Y-76722796D01*
X72960232Y-77213287D01*
X72959769Y-77744383D01*
X73162582Y-78235229D01*
X73537796Y-78611098D01*
X74028287Y-78814768D01*
X74559383Y-78815231D01*
X75050229Y-78612418D01*
X75426098Y-78237204D01*
X75565091Y-77902473D01*
X75702582Y-78235229D01*
X76077796Y-78611098D01*
X76568287Y-78814768D01*
X77099383Y-78815231D01*
X77590229Y-78612418D01*
X77787716Y-78415275D01*
X78619331Y-78415275D01*
X78681169Y-78651042D01*
X79182122Y-78827419D01*
X79712440Y-78798664D01*
X80068831Y-78651042D01*
X80130669Y-78415275D01*
X79375000Y-77659605D01*
X78619331Y-78415275D01*
X77787716Y-78415275D01*
X77966098Y-78237204D01*
X78098316Y-77918788D01*
X78203958Y-78173831D01*
X78439725Y-78235669D01*
X79195395Y-77480000D01*
X78439725Y-76724331D01*
X78203958Y-76786169D01*
X78106804Y-77062111D01*
X77967418Y-76724771D01*
X77787687Y-76544725D01*
X78619331Y-76544725D01*
X79375000Y-77300395D01*
X80130669Y-76544725D01*
X80068831Y-76308958D01*
X79567878Y-76132581D01*
X79037560Y-76161336D01*
X78681169Y-76308958D01*
X78619331Y-76544725D01*
X77787687Y-76544725D01*
X77734461Y-76491407D01*
X77951002Y-76274866D01*
X78369383Y-76275231D01*
X78860229Y-76072418D01*
X79057716Y-75875275D01*
X79889331Y-75875275D01*
X79951169Y-76111042D01*
X80452122Y-76287419D01*
X80982440Y-76258664D01*
X81338831Y-76111042D01*
X81400669Y-75875275D01*
X80645000Y-75119605D01*
X79889331Y-75875275D01*
X79057716Y-75875275D01*
X79236098Y-75697204D01*
X79368316Y-75378788D01*
X79473958Y-75633831D01*
X79709725Y-75695669D01*
X80465395Y-74940000D01*
X80451252Y-74925858D01*
X80630858Y-74746252D01*
X80645000Y-74760395D01*
X81400669Y-74004725D01*
X81338831Y-73768958D01*
X80837878Y-73592581D01*
X80476703Y-73612165D01*
X81625868Y-72463000D01*
X98124766Y-72463000D01*
X98365201Y-72562838D01*
X98737167Y-72563162D01*
X98979578Y-72463000D01*
X118444766Y-72463000D01*
X118685201Y-72562838D01*
X119057167Y-72563162D01*
X119299578Y-72463000D01*
X138764766Y-72463000D01*
X139005201Y-72562838D01*
X139377167Y-72563162D01*
X139720943Y-72421117D01*
X139984192Y-72158327D01*
X140126838Y-71814799D01*
X140127162Y-71442833D01*
X139985117Y-71099057D01*
X139722327Y-70835808D01*
X139378799Y-70693162D01*
X139006833Y-70692838D01*
X138764422Y-70793000D01*
X137586843Y-70793000D01*
X137587002Y-70610000D01*
X141677537Y-70610000D01*
X141709673Y-70642192D01*
X142053201Y-70784838D01*
X142425167Y-70785162D01*
X142768943Y-70643117D01*
X143032192Y-70380327D01*
X143174838Y-70036799D01*
X143175162Y-69664833D01*
X143084467Y-69445335D01*
X143385000Y-69144802D01*
X143385000Y-73110972D01*
X143155839Y-72957852D01*
X142865000Y-72900000D01*
X84328000Y-72900000D01*
X84037161Y-72957852D01*
X83790599Y-73122599D01*
X83308091Y-73605107D01*
X82920617Y-73604769D01*
X82429771Y-73807582D01*
X82053902Y-74182796D01*
X81921684Y-74501212D01*
X81816042Y-74246169D01*
X81580275Y-74184331D01*
X80824605Y-74940000D01*
X81580275Y-75695669D01*
X81816042Y-75633831D01*
X81913196Y-75357889D01*
X82052582Y-75695229D01*
X82427796Y-76071098D01*
X82918287Y-76274768D01*
X83449383Y-76275231D01*
X83940229Y-76072418D01*
X84316098Y-75697204D01*
X84519768Y-75206713D01*
X84520231Y-74675617D01*
X84481331Y-74581471D01*
X84642802Y-74420000D01*
X94655406Y-74420000D01*
X94550232Y-74673287D01*
X94549865Y-75094267D01*
X94024566Y-75619566D01*
X93843561Y-75890459D01*
X93780000Y-76210000D01*
X93780000Y-76427214D01*
X93483902Y-76722796D01*
X93280232Y-77213287D01*
X93279769Y-77744383D01*
X93482074Y-78234000D01*
X83220402Y-78234000D01*
X83098180Y-78111778D01*
X83249768Y-77746713D01*
X83250231Y-77215617D01*
X83047418Y-76724771D01*
X82672204Y-76348902D01*
X82181713Y-76145232D01*
X81650617Y-76144769D01*
X81159771Y-76347582D01*
X80783902Y-76722796D01*
X80651684Y-77041212D01*
X80546042Y-76786169D01*
X80310275Y-76724331D01*
X79554605Y-77480000D01*
X80310275Y-78235669D01*
X80546042Y-78173831D01*
X80643196Y-77897889D01*
X80782582Y-78235229D01*
X81157796Y-78611098D01*
X81648287Y-78814768D01*
X81651569Y-78814771D01*
X82368199Y-79531401D01*
X82614761Y-79696148D01*
X82905600Y-79754000D01*
X84870833Y-79754000D01*
X84605328Y-80393405D01*
X84604674Y-81143305D01*
X84776964Y-81560280D01*
X84007430Y-81559609D01*
X83176485Y-81902948D01*
X82540182Y-82538141D01*
X82195393Y-83368486D01*
X82194609Y-84267570D01*
X82537948Y-85098515D01*
X83173141Y-85734818D01*
X84003486Y-86079607D01*
X84226757Y-86079802D01*
X83891539Y-86414436D01*
X83680241Y-86923298D01*
X83679760Y-87474285D01*
X83890169Y-87983515D01*
X84279436Y-88373461D01*
X84788298Y-88584759D01*
X85339285Y-88585240D01*
X85848515Y-88374831D01*
X86238461Y-87985564D01*
X86449759Y-87476702D01*
X86450240Y-86925715D01*
X86239831Y-86416485D01*
X85850564Y-86026539D01*
X85442742Y-85857197D01*
X85733515Y-85737052D01*
X86369818Y-85101859D01*
X86714607Y-84271514D01*
X86715391Y-83372430D01*
X86418930Y-82654938D01*
X86863305Y-82655326D01*
X87556372Y-82368957D01*
X88087093Y-81839161D01*
X88374672Y-81146595D01*
X88375326Y-80396695D01*
X88109770Y-79754000D01*
X89690833Y-79754000D01*
X89425328Y-80393405D01*
X89424674Y-81143305D01*
X89711043Y-81836372D01*
X90240839Y-82367093D01*
X90933405Y-82654672D01*
X91381632Y-82655063D01*
X91085393Y-83368486D01*
X91084609Y-84267570D01*
X91427948Y-85098515D01*
X92063141Y-85734818D01*
X92893486Y-86079607D01*
X93792570Y-86080391D01*
X94623515Y-85737052D01*
X95259818Y-85101859D01*
X95604607Y-84271514D01*
X95605391Y-83372430D01*
X95262052Y-82541485D01*
X94626859Y-81905182D01*
X93796514Y-81560393D01*
X93023128Y-81559719D01*
X93194672Y-81146595D01*
X93195326Y-80396695D01*
X92929770Y-79754000D01*
X105190833Y-79754000D01*
X104925328Y-80393405D01*
X104924674Y-81143305D01*
X105096964Y-81560280D01*
X104327430Y-81559609D01*
X103496485Y-81902948D01*
X102860182Y-82538141D01*
X102515393Y-83368486D01*
X102514609Y-84267570D01*
X102857948Y-85098515D01*
X103493141Y-85734818D01*
X104323486Y-86079607D01*
X104546757Y-86079802D01*
X104211539Y-86414436D01*
X104000241Y-86923298D01*
X103999760Y-87474285D01*
X104210169Y-87983515D01*
X104599436Y-88373461D01*
X105108298Y-88584759D01*
X105659285Y-88585240D01*
X106168515Y-88374831D01*
X106558461Y-87985564D01*
X106769759Y-87476702D01*
X106770240Y-86925715D01*
X106559831Y-86416485D01*
X106170564Y-86026539D01*
X105762742Y-85857197D01*
X106053515Y-85737052D01*
X106689818Y-85101859D01*
X107034607Y-84271514D01*
X107035391Y-83372430D01*
X106738930Y-82654938D01*
X107183305Y-82655326D01*
X107876372Y-82368957D01*
X108407093Y-81839161D01*
X108694672Y-81146595D01*
X108695326Y-80396695D01*
X108429770Y-79754000D01*
X110010833Y-79754000D01*
X109745328Y-80393405D01*
X109744674Y-81143305D01*
X110031043Y-81836372D01*
X110560839Y-82367093D01*
X111253405Y-82654672D01*
X111701632Y-82655063D01*
X111405393Y-83368486D01*
X111404609Y-84267570D01*
X111747948Y-85098515D01*
X112383141Y-85734818D01*
X113213486Y-86079607D01*
X114112570Y-86080391D01*
X114943515Y-85737052D01*
X115579818Y-85101859D01*
X115924607Y-84271514D01*
X115925391Y-83372430D01*
X115582052Y-82541485D01*
X114946859Y-81905182D01*
X114116514Y-81560393D01*
X113343128Y-81559719D01*
X113514672Y-81146595D01*
X113515326Y-80396695D01*
X113249770Y-79754000D01*
X125510833Y-79754000D01*
X125245328Y-80393405D01*
X125244674Y-81143305D01*
X125416964Y-81560280D01*
X124647430Y-81559609D01*
X123816485Y-81902948D01*
X123180182Y-82538141D01*
X122835393Y-83368486D01*
X122834609Y-84267570D01*
X123177948Y-85098515D01*
X123813141Y-85734818D01*
X124643486Y-86079607D01*
X124866757Y-86079802D01*
X124531539Y-86414436D01*
X124320241Y-86923298D01*
X124319760Y-87474285D01*
X124530169Y-87983515D01*
X124919436Y-88373461D01*
X125428298Y-88584759D01*
X125979285Y-88585240D01*
X126488515Y-88374831D01*
X126878461Y-87985564D01*
X127089759Y-87476702D01*
X127090240Y-86925715D01*
X126879831Y-86416485D01*
X126490564Y-86026539D01*
X126082742Y-85857197D01*
X126373515Y-85737052D01*
X127009818Y-85101859D01*
X127354607Y-84271514D01*
X127355391Y-83372430D01*
X127058930Y-82654938D01*
X127503305Y-82655326D01*
X128196372Y-82368957D01*
X128727093Y-81839161D01*
X129014672Y-81146595D01*
X129015326Y-80396695D01*
X128749770Y-79754000D01*
X130330833Y-79754000D01*
X130065328Y-80393405D01*
X130064674Y-81143305D01*
X130351043Y-81836372D01*
X130880839Y-82367093D01*
X131573405Y-82654672D01*
X132021632Y-82655063D01*
X131725393Y-83368486D01*
X131724609Y-84267570D01*
X132067948Y-85098515D01*
X132703141Y-85734818D01*
X133533486Y-86079607D01*
X134432570Y-86080391D01*
X135263515Y-85737052D01*
X135899818Y-85101859D01*
X136244607Y-84271514D01*
X136245391Y-83372430D01*
X135902052Y-82541485D01*
X135266859Y-81905182D01*
X134436514Y-81560393D01*
X133663128Y-81559719D01*
X133834672Y-81146595D01*
X133835326Y-80396695D01*
X133569770Y-79754000D01*
X141361000Y-79754000D01*
X141651839Y-79696148D01*
X141898401Y-79531401D01*
X142615028Y-78814774D01*
X143139383Y-78815231D01*
X143630229Y-78612418D01*
X144006098Y-78237204D01*
X144209768Y-77746713D01*
X144209860Y-77641742D01*
X148721001Y-73130601D01*
X148885748Y-72884039D01*
X148943600Y-72593200D01*
X148943600Y-45364400D01*
X148885748Y-45073561D01*
X148721001Y-44826999D01*
X146825901Y-42931899D01*
X147073405Y-43034672D01*
X147823305Y-43035326D01*
X148516372Y-42748957D01*
X149047093Y-42219161D01*
X149150000Y-41971334D01*
X149150000Y-79948171D01*
X149048957Y-79703628D01*
X148519161Y-79172907D01*
X147826595Y-78885328D01*
X147076695Y-78884674D01*
X146383628Y-79171043D01*
X145852907Y-79700839D01*
X145565328Y-80393405D01*
X145564674Y-81143305D01*
X145736964Y-81560280D01*
X144967430Y-81559609D01*
X144136485Y-81902948D01*
X143500182Y-82538141D01*
X143155393Y-83368486D01*
X143154609Y-84267570D01*
X143497948Y-85098515D01*
X144133141Y-85734818D01*
X144963486Y-86079607D01*
X145186757Y-86079802D01*
X144851539Y-86414436D01*
X144640241Y-86923298D01*
X144639760Y-87474285D01*
X144850169Y-87983515D01*
X145239436Y-88373461D01*
X145748298Y-88584759D01*
X146299285Y-88585240D01*
X146808515Y-88374831D01*
X147198461Y-87985564D01*
X147409759Y-87476702D01*
X147410240Y-86925715D01*
X147199831Y-86416485D01*
X146810564Y-86026539D01*
X146402742Y-85857197D01*
X146693515Y-85737052D01*
X147329818Y-85101859D01*
X147674607Y-84271514D01*
X147675391Y-83372430D01*
X147378930Y-82654938D01*
X147823305Y-82655326D01*
X148516372Y-82368957D01*
X149047093Y-81839161D01*
X149150000Y-81591334D01*
X149150000Y-95810000D01*
X69290000Y-95810000D01*
X69290000Y-88994285D01*
X71029760Y-88994285D01*
X71240169Y-89503515D01*
X71629436Y-89893461D01*
X72138298Y-90104759D01*
X72689285Y-90105240D01*
X73198515Y-89894831D01*
X73588461Y-89505564D01*
X73799759Y-88996702D01*
X73799761Y-88994285D01*
X81139760Y-88994285D01*
X81350169Y-89503515D01*
X81739436Y-89893461D01*
X82248298Y-90104759D01*
X82799285Y-90105240D01*
X83308515Y-89894831D01*
X83698461Y-89505564D01*
X83909759Y-88996702D01*
X83909761Y-88994285D01*
X91349760Y-88994285D01*
X91560169Y-89503515D01*
X91949436Y-89893461D01*
X92458298Y-90104759D01*
X93009285Y-90105240D01*
X93518515Y-89894831D01*
X93908461Y-89505564D01*
X94119759Y-88996702D01*
X94119761Y-88994285D01*
X101459760Y-88994285D01*
X101670169Y-89503515D01*
X102059436Y-89893461D01*
X102568298Y-90104759D01*
X103119285Y-90105240D01*
X103628515Y-89894831D01*
X104018461Y-89505564D01*
X104229759Y-88996702D01*
X104229761Y-88994285D01*
X111669760Y-88994285D01*
X111880169Y-89503515D01*
X112269436Y-89893461D01*
X112778298Y-90104759D01*
X113329285Y-90105240D01*
X113838515Y-89894831D01*
X114228461Y-89505564D01*
X114439759Y-88996702D01*
X114439761Y-88994285D01*
X121779760Y-88994285D01*
X121990169Y-89503515D01*
X122379436Y-89893461D01*
X122888298Y-90104759D01*
X123439285Y-90105240D01*
X123948515Y-89894831D01*
X124338461Y-89505564D01*
X124549759Y-88996702D01*
X124549761Y-88994285D01*
X131989760Y-88994285D01*
X132200169Y-89503515D01*
X132589436Y-89893461D01*
X133098298Y-90104759D01*
X133649285Y-90105240D01*
X134158515Y-89894831D01*
X134548461Y-89505564D01*
X134759759Y-88996702D01*
X134759761Y-88994285D01*
X142099760Y-88994285D01*
X142310169Y-89503515D01*
X142699436Y-89893461D01*
X143208298Y-90104759D01*
X143759285Y-90105240D01*
X144268515Y-89894831D01*
X144658461Y-89505564D01*
X144869759Y-88996702D01*
X144870240Y-88445715D01*
X144659831Y-87936485D01*
X144270564Y-87546539D01*
X143761702Y-87335241D01*
X143210715Y-87334760D01*
X142701485Y-87545169D01*
X142311539Y-87934436D01*
X142100241Y-88443298D01*
X142099760Y-88994285D01*
X134759761Y-88994285D01*
X134760240Y-88445715D01*
X134549831Y-87936485D01*
X134160564Y-87546539D01*
X133986558Y-87474285D01*
X134529760Y-87474285D01*
X134740169Y-87983515D01*
X135129436Y-88373461D01*
X135638298Y-88584759D01*
X136189285Y-88585240D01*
X136698515Y-88374831D01*
X137088461Y-87985564D01*
X137299759Y-87476702D01*
X137300240Y-86925715D01*
X137089831Y-86416485D01*
X136700564Y-86026539D01*
X136191702Y-85815241D01*
X135640715Y-85814760D01*
X135131485Y-86025169D01*
X134741539Y-86414436D01*
X134530241Y-86923298D01*
X134529760Y-87474285D01*
X133986558Y-87474285D01*
X133651702Y-87335241D01*
X133100715Y-87334760D01*
X132591485Y-87545169D01*
X132201539Y-87934436D01*
X131990241Y-88443298D01*
X131989760Y-88994285D01*
X124549761Y-88994285D01*
X124550240Y-88445715D01*
X124339831Y-87936485D01*
X123950564Y-87546539D01*
X123441702Y-87335241D01*
X122890715Y-87334760D01*
X122381485Y-87545169D01*
X121991539Y-87934436D01*
X121780241Y-88443298D01*
X121779760Y-88994285D01*
X114439761Y-88994285D01*
X114440240Y-88445715D01*
X114229831Y-87936485D01*
X113840564Y-87546539D01*
X113666558Y-87474285D01*
X114209760Y-87474285D01*
X114420169Y-87983515D01*
X114809436Y-88373461D01*
X115318298Y-88584759D01*
X115869285Y-88585240D01*
X116378515Y-88374831D01*
X116768461Y-87985564D01*
X116979759Y-87476702D01*
X116980240Y-86925715D01*
X116769831Y-86416485D01*
X116380564Y-86026539D01*
X115871702Y-85815241D01*
X115320715Y-85814760D01*
X114811485Y-86025169D01*
X114421539Y-86414436D01*
X114210241Y-86923298D01*
X114209760Y-87474285D01*
X113666558Y-87474285D01*
X113331702Y-87335241D01*
X112780715Y-87334760D01*
X112271485Y-87545169D01*
X111881539Y-87934436D01*
X111670241Y-88443298D01*
X111669760Y-88994285D01*
X104229761Y-88994285D01*
X104230240Y-88445715D01*
X104019831Y-87936485D01*
X103630564Y-87546539D01*
X103121702Y-87335241D01*
X102570715Y-87334760D01*
X102061485Y-87545169D01*
X101671539Y-87934436D01*
X101460241Y-88443298D01*
X101459760Y-88994285D01*
X94119761Y-88994285D01*
X94120240Y-88445715D01*
X93909831Y-87936485D01*
X93520564Y-87546539D01*
X93346558Y-87474285D01*
X93889760Y-87474285D01*
X94100169Y-87983515D01*
X94489436Y-88373461D01*
X94998298Y-88584759D01*
X95549285Y-88585240D01*
X96058515Y-88374831D01*
X96448461Y-87985564D01*
X96659759Y-87476702D01*
X96660240Y-86925715D01*
X96449831Y-86416485D01*
X96060564Y-86026539D01*
X95551702Y-85815241D01*
X95000715Y-85814760D01*
X94491485Y-86025169D01*
X94101539Y-86414436D01*
X93890241Y-86923298D01*
X93889760Y-87474285D01*
X93346558Y-87474285D01*
X93011702Y-87335241D01*
X92460715Y-87334760D01*
X91951485Y-87545169D01*
X91561539Y-87934436D01*
X91350241Y-88443298D01*
X91349760Y-88994285D01*
X83909761Y-88994285D01*
X83910240Y-88445715D01*
X83699831Y-87936485D01*
X83310564Y-87546539D01*
X82801702Y-87335241D01*
X82250715Y-87334760D01*
X81741485Y-87545169D01*
X81351539Y-87934436D01*
X81140241Y-88443298D01*
X81139760Y-88994285D01*
X73799761Y-88994285D01*
X73800240Y-88445715D01*
X73589831Y-87936485D01*
X73200564Y-87546539D01*
X73026558Y-87474285D01*
X73569760Y-87474285D01*
X73780169Y-87983515D01*
X74169436Y-88373461D01*
X74678298Y-88584759D01*
X75229285Y-88585240D01*
X75738515Y-88374831D01*
X76128461Y-87985564D01*
X76339759Y-87476702D01*
X76340240Y-86925715D01*
X76129831Y-86416485D01*
X75740564Y-86026539D01*
X75231702Y-85815241D01*
X74680715Y-85814760D01*
X74171485Y-86025169D01*
X73781539Y-86414436D01*
X73570241Y-86923298D01*
X73569760Y-87474285D01*
X73026558Y-87474285D01*
X72691702Y-87335241D01*
X72140715Y-87334760D01*
X71631485Y-87545169D01*
X71241539Y-87934436D01*
X71030241Y-88443298D01*
X71029760Y-88994285D01*
X69290000Y-88994285D01*
X69290000Y-81591829D01*
X69391043Y-81836372D01*
X69920839Y-82367093D01*
X70613405Y-82654672D01*
X71061632Y-82655063D01*
X70765393Y-83368486D01*
X70764609Y-84267570D01*
X71107948Y-85098515D01*
X71743141Y-85734818D01*
X72573486Y-86079607D01*
X73472570Y-86080391D01*
X74303515Y-85737052D01*
X74939818Y-85101859D01*
X75284607Y-84271514D01*
X75285391Y-83372430D01*
X74942052Y-82541485D01*
X74306859Y-81905182D01*
X73476514Y-81560393D01*
X72703128Y-81559719D01*
X72874672Y-81146595D01*
X72875326Y-80396695D01*
X72588957Y-79703628D01*
X72059161Y-79172907D01*
X71366595Y-78885328D01*
X70616695Y-78884674D01*
X69923628Y-79171043D01*
X69392907Y-79700839D01*
X69290000Y-79948666D01*
X69290000Y-68865750D01*
X87115000Y-68865750D01*
X87115000Y-69081310D01*
X87211673Y-69314699D01*
X87390302Y-69493327D01*
X87623691Y-69590000D01*
X87864250Y-69590000D01*
X88023000Y-69431250D01*
X88023000Y-68707000D01*
X87273750Y-68707000D01*
X87115000Y-68865750D01*
X69290000Y-68865750D01*
X69290000Y-65725000D01*
X70157560Y-65725000D01*
X70157560Y-67625000D01*
X70201838Y-67860317D01*
X70340910Y-68076441D01*
X70553110Y-68221431D01*
X70805000Y-68272440D01*
X72705000Y-68272440D01*
X72940317Y-68228162D01*
X73156441Y-68089090D01*
X73163547Y-68078690D01*
X87115000Y-68078690D01*
X87115000Y-68294250D01*
X87273750Y-68453000D01*
X88023000Y-68453000D01*
X88023000Y-67728750D01*
X87864250Y-67570000D01*
X87623691Y-67570000D01*
X87390302Y-67666673D01*
X87211673Y-67845301D01*
X87115000Y-68078690D01*
X73163547Y-68078690D01*
X73301431Y-67876890D01*
X73352440Y-67625000D01*
X73352440Y-66709000D01*
X73821943Y-66515005D01*
X74183735Y-66153845D01*
X74379777Y-65681724D01*
X74380223Y-65170519D01*
X74185005Y-64698057D01*
X73823845Y-64336265D01*
X73351724Y-64140223D01*
X73339860Y-64140213D01*
X73326352Y-63797539D01*
X73133019Y-63330792D01*
X72871350Y-63238255D01*
X71934605Y-64175000D01*
X71948748Y-64189143D01*
X71769143Y-64368748D01*
X71755000Y-64354605D01*
X71740858Y-64368748D01*
X71561253Y-64189143D01*
X71575395Y-64175000D01*
X70638650Y-63238255D01*
X70376981Y-63330792D01*
X70158812Y-63922398D01*
X70183648Y-64552461D01*
X70376981Y-65019208D01*
X70633327Y-65109863D01*
X70569683Y-65121838D01*
X70353559Y-65260910D01*
X70208569Y-65473110D01*
X70157560Y-65725000D01*
X69290000Y-65725000D01*
X69290000Y-61988893D01*
X70169725Y-61988893D01*
X70410519Y-62571657D01*
X70838765Y-63000652D01*
X70818255Y-63058650D01*
X71755000Y-63995395D01*
X72691745Y-63058650D01*
X72671048Y-63000124D01*
X73097914Y-62574003D01*
X73339724Y-61991659D01*
X73340275Y-61361107D01*
X73099481Y-60778343D01*
X72654003Y-60332086D01*
X72071659Y-60090276D01*
X71441107Y-60089725D01*
X70858343Y-60330519D01*
X70412086Y-60775997D01*
X70170276Y-61358341D01*
X70169725Y-61988893D01*
X69290000Y-61988893D01*
X69290000Y-56165750D01*
X87115000Y-56165750D01*
X87115000Y-56381310D01*
X87211673Y-56614699D01*
X87390302Y-56793327D01*
X87623691Y-56890000D01*
X87864250Y-56890000D01*
X88023000Y-56731250D01*
X88023000Y-56007000D01*
X87273750Y-56007000D01*
X87115000Y-56165750D01*
X69290000Y-56165750D01*
X69290000Y-55378690D01*
X87115000Y-55378690D01*
X87115000Y-55594250D01*
X87273750Y-55753000D01*
X88023000Y-55753000D01*
X88023000Y-55028750D01*
X87864250Y-54870000D01*
X87623691Y-54870000D01*
X87390302Y-54966673D01*
X87211673Y-55145301D01*
X87115000Y-55378690D01*
X69290000Y-55378690D01*
X69290000Y-41971829D01*
X69391043Y-42216372D01*
X69920839Y-42747093D01*
X70613405Y-43034672D01*
X71363305Y-43035326D01*
X72056372Y-42748957D01*
X72587093Y-42219161D01*
X72874672Y-41526595D01*
X72875326Y-40776695D01*
X72703036Y-40359720D01*
X73472570Y-40360391D01*
X74303515Y-40017052D01*
X74939818Y-39381859D01*
X75284607Y-38551514D01*
X75285391Y-37652430D01*
X74942052Y-36821485D01*
X74306859Y-36185182D01*
X73476514Y-35840393D01*
X73253243Y-35840198D01*
X73588461Y-35505564D01*
X73799759Y-34996702D01*
X73799761Y-34994285D01*
X81139760Y-34994285D01*
X81350169Y-35503515D01*
X81739436Y-35893461D01*
X82248298Y-36104759D01*
X82799285Y-36105240D01*
X83308515Y-35894831D01*
X83698461Y-35505564D01*
X83909759Y-34996702D01*
X83910240Y-34445715D01*
X83699831Y-33936485D01*
X83310564Y-33546539D01*
X83136558Y-33474285D01*
X83679760Y-33474285D01*
X83890169Y-33983515D01*
X84279436Y-34373461D01*
X84788298Y-34584759D01*
X85339285Y-34585240D01*
X85848515Y-34374831D01*
X86238461Y-33985564D01*
X86449759Y-33476702D01*
X86450240Y-32925715D01*
X86239831Y-32416485D01*
X85850564Y-32026539D01*
X85341702Y-31815241D01*
X84790715Y-31814760D01*
X84281485Y-32025169D01*
X83891539Y-32414436D01*
X83680241Y-32923298D01*
X83679760Y-33474285D01*
X83136558Y-33474285D01*
X82801702Y-33335241D01*
X82250715Y-33334760D01*
X81741485Y-33545169D01*
X81351539Y-33934436D01*
X81140241Y-34443298D01*
X81139760Y-34994285D01*
X73799761Y-34994285D01*
X73800240Y-34445715D01*
X73589831Y-33936485D01*
X73200564Y-33546539D01*
X73026558Y-33474285D01*
X73569760Y-33474285D01*
X73780169Y-33983515D01*
X74169436Y-34373461D01*
X74678298Y-34584759D01*
X75229285Y-34585240D01*
X75738515Y-34374831D01*
X76128461Y-33985564D01*
X76339759Y-33476702D01*
X76340240Y-32925715D01*
X76129831Y-32416485D01*
X75740564Y-32026539D01*
X75231702Y-31815241D01*
X74680715Y-31814760D01*
X74171485Y-32025169D01*
X73781539Y-32414436D01*
X73570241Y-32923298D01*
X73569760Y-33474285D01*
X73026558Y-33474285D01*
X72691702Y-33335241D01*
X72140715Y-33334760D01*
X71631485Y-33545169D01*
X71241539Y-33934436D01*
X71030241Y-34443298D01*
X71029760Y-34994285D01*
X71240169Y-35503515D01*
X71629436Y-35893461D01*
X72037258Y-36062803D01*
X71746485Y-36182948D01*
X71110182Y-36818141D01*
X70765393Y-37648486D01*
X70764609Y-38547570D01*
X71061070Y-39265062D01*
X70616695Y-39264674D01*
X69923628Y-39551043D01*
X69392907Y-40080839D01*
X69290000Y-40328666D01*
X69290000Y-26110000D01*
X149150000Y-26110000D01*
X149150000Y-40328171D01*
X149150000Y-40328171D01*
G37*
X149150000Y-40328171D02*
X149048957Y-40083628D01*
X148519161Y-39552907D01*
X147826595Y-39265328D01*
X147378368Y-39264937D01*
X147674607Y-38551514D01*
X147675391Y-37652430D01*
X147332052Y-36821485D01*
X146696859Y-36185182D01*
X145866514Y-35840393D01*
X144967430Y-35839609D01*
X144136485Y-36182948D01*
X143500182Y-36818141D01*
X143155393Y-37648486D01*
X143154609Y-38547570D01*
X143497948Y-39378515D01*
X144133141Y-40014818D01*
X144963486Y-40359607D01*
X145736872Y-40360281D01*
X145565328Y-40773405D01*
X145564674Y-41523305D01*
X145851043Y-42216372D01*
X146067972Y-42433680D01*
X145999200Y-42420000D01*
X133345903Y-42420000D01*
X133547093Y-42219161D01*
X133834672Y-41526595D01*
X133835326Y-40776695D01*
X133663036Y-40359720D01*
X134432570Y-40360391D01*
X135263515Y-40017052D01*
X135899818Y-39381859D01*
X136244607Y-38551514D01*
X136245391Y-37652430D01*
X135902052Y-36821485D01*
X135266859Y-36185182D01*
X134436514Y-35840393D01*
X134213243Y-35840198D01*
X134548461Y-35505564D01*
X134759759Y-34996702D01*
X134759761Y-34994285D01*
X142099760Y-34994285D01*
X142310169Y-35503515D01*
X142699436Y-35893461D01*
X143208298Y-36104759D01*
X143759285Y-36105240D01*
X144268515Y-35894831D01*
X144658461Y-35505564D01*
X144869759Y-34996702D01*
X144870240Y-34445715D01*
X144659831Y-33936485D01*
X144270564Y-33546539D01*
X144096558Y-33474285D01*
X144639760Y-33474285D01*
X144850169Y-33983515D01*
X145239436Y-34373461D01*
X145748298Y-34584759D01*
X146299285Y-34585240D01*
X146808515Y-34374831D01*
X147198461Y-33985564D01*
X147409759Y-33476702D01*
X147410240Y-32925715D01*
X147199831Y-32416485D01*
X146810564Y-32026539D01*
X146301702Y-31815241D01*
X145750715Y-31814760D01*
X145241485Y-32025169D01*
X144851539Y-32414436D01*
X144640241Y-32923298D01*
X144639760Y-33474285D01*
X144096558Y-33474285D01*
X143761702Y-33335241D01*
X143210715Y-33334760D01*
X142701485Y-33545169D01*
X142311539Y-33934436D01*
X142100241Y-34443298D01*
X142099760Y-34994285D01*
X134759761Y-34994285D01*
X134760240Y-34445715D01*
X134549831Y-33936485D01*
X134160564Y-33546539D01*
X133986558Y-33474285D01*
X134529760Y-33474285D01*
X134740169Y-33983515D01*
X135129436Y-34373461D01*
X135638298Y-34584759D01*
X136189285Y-34585240D01*
X136698515Y-34374831D01*
X137088461Y-33985564D01*
X137299759Y-33476702D01*
X137300240Y-32925715D01*
X137089831Y-32416485D01*
X136700564Y-32026539D01*
X136191702Y-31815241D01*
X135640715Y-31814760D01*
X135131485Y-32025169D01*
X134741539Y-32414436D01*
X134530241Y-32923298D01*
X134529760Y-33474285D01*
X133986558Y-33474285D01*
X133651702Y-33335241D01*
X133100715Y-33334760D01*
X132591485Y-33545169D01*
X132201539Y-33934436D01*
X131990241Y-34443298D01*
X131989760Y-34994285D01*
X132200169Y-35503515D01*
X132589436Y-35893461D01*
X132997258Y-36062803D01*
X132706485Y-36182948D01*
X132070182Y-36818141D01*
X131725393Y-37648486D01*
X131724609Y-38547570D01*
X132021070Y-39265062D01*
X131576695Y-39264674D01*
X130883628Y-39551043D01*
X130352907Y-40080839D01*
X130065328Y-40773405D01*
X130064674Y-41523305D01*
X130351043Y-42216372D01*
X130554316Y-42420000D01*
X128525903Y-42420000D01*
X128727093Y-42219161D01*
X129014672Y-41526595D01*
X129015326Y-40776695D01*
X128728957Y-40083628D01*
X128199161Y-39552907D01*
X127506595Y-39265328D01*
X127058368Y-39264937D01*
X127354607Y-38551514D01*
X127355391Y-37652430D01*
X127012052Y-36821485D01*
X126376859Y-36185182D01*
X125546514Y-35840393D01*
X124647430Y-35839609D01*
X123816485Y-36182948D01*
X123180182Y-36818141D01*
X122835393Y-37648486D01*
X122834609Y-38547570D01*
X123177948Y-39378515D01*
X123813141Y-40014818D01*
X124643486Y-40359607D01*
X125416872Y-40360281D01*
X125245328Y-40773405D01*
X125244674Y-41523305D01*
X125531043Y-42216372D01*
X125734316Y-42420000D01*
X113025903Y-42420000D01*
X113227093Y-42219161D01*
X113514672Y-41526595D01*
X113515326Y-40776695D01*
X113343036Y-40359720D01*
X114112570Y-40360391D01*
X114943515Y-40017052D01*
X115579818Y-39381859D01*
X115924607Y-38551514D01*
X115925391Y-37652430D01*
X115582052Y-36821485D01*
X114946859Y-36185182D01*
X114116514Y-35840393D01*
X113893243Y-35840198D01*
X114228461Y-35505564D01*
X114439759Y-34996702D01*
X114439761Y-34994285D01*
X121779760Y-34994285D01*
X121990169Y-35503515D01*
X122379436Y-35893461D01*
X122888298Y-36104759D01*
X123439285Y-36105240D01*
X123948515Y-35894831D01*
X124338461Y-35505564D01*
X124549759Y-34996702D01*
X124550240Y-34445715D01*
X124339831Y-33936485D01*
X123950564Y-33546539D01*
X123776558Y-33474285D01*
X124319760Y-33474285D01*
X124530169Y-33983515D01*
X124919436Y-34373461D01*
X125428298Y-34584759D01*
X125979285Y-34585240D01*
X126488515Y-34374831D01*
X126878461Y-33985564D01*
X127089759Y-33476702D01*
X127090240Y-32925715D01*
X126879831Y-32416485D01*
X126490564Y-32026539D01*
X125981702Y-31815241D01*
X125430715Y-31814760D01*
X124921485Y-32025169D01*
X124531539Y-32414436D01*
X124320241Y-32923298D01*
X124319760Y-33474285D01*
X123776558Y-33474285D01*
X123441702Y-33335241D01*
X122890715Y-33334760D01*
X122381485Y-33545169D01*
X121991539Y-33934436D01*
X121780241Y-34443298D01*
X121779760Y-34994285D01*
X114439761Y-34994285D01*
X114440240Y-34445715D01*
X114229831Y-33936485D01*
X113840564Y-33546539D01*
X113666558Y-33474285D01*
X114209760Y-33474285D01*
X114420169Y-33983515D01*
X114809436Y-34373461D01*
X115318298Y-34584759D01*
X115869285Y-34585240D01*
X116378515Y-34374831D01*
X116768461Y-33985564D01*
X116979759Y-33476702D01*
X116980240Y-32925715D01*
X116769831Y-32416485D01*
X116380564Y-32026539D01*
X115871702Y-31815241D01*
X115320715Y-31814760D01*
X114811485Y-32025169D01*
X114421539Y-32414436D01*
X114210241Y-32923298D01*
X114209760Y-33474285D01*
X113666558Y-33474285D01*
X113331702Y-33335241D01*
X112780715Y-33334760D01*
X112271485Y-33545169D01*
X111881539Y-33934436D01*
X111670241Y-34443298D01*
X111669760Y-34994285D01*
X111880169Y-35503515D01*
X112269436Y-35893461D01*
X112677258Y-36062803D01*
X112386485Y-36182948D01*
X111750182Y-36818141D01*
X111405393Y-37648486D01*
X111404609Y-38547570D01*
X111701070Y-39265062D01*
X111256695Y-39264674D01*
X110563628Y-39551043D01*
X110032907Y-40080839D01*
X109745328Y-40773405D01*
X109744674Y-41523305D01*
X110031043Y-42216372D01*
X110234316Y-42420000D01*
X108205903Y-42420000D01*
X108407093Y-42219161D01*
X108694672Y-41526595D01*
X108695326Y-40776695D01*
X108408957Y-40083628D01*
X107879161Y-39552907D01*
X107186595Y-39265328D01*
X106738368Y-39264937D01*
X107034607Y-38551514D01*
X107035391Y-37652430D01*
X106692052Y-36821485D01*
X106056859Y-36185182D01*
X105226514Y-35840393D01*
X104327430Y-35839609D01*
X103496485Y-36182948D01*
X102860182Y-36818141D01*
X102515393Y-37648486D01*
X102514609Y-38547570D01*
X102857948Y-39378515D01*
X103493141Y-40014818D01*
X104323486Y-40359607D01*
X105096872Y-40360281D01*
X104925328Y-40773405D01*
X104924674Y-41523305D01*
X105211043Y-42216372D01*
X105414316Y-42420000D01*
X100282863Y-42420000D01*
X100250727Y-42387808D01*
X99907199Y-42245162D01*
X99535233Y-42244838D01*
X99191457Y-42386883D01*
X99158282Y-42420000D01*
X92705903Y-42420000D01*
X92907093Y-42219161D01*
X93194672Y-41526595D01*
X93195326Y-40776695D01*
X93023036Y-40359720D01*
X93792570Y-40360391D01*
X94623515Y-40017052D01*
X95259818Y-39381859D01*
X95604607Y-38551514D01*
X95605391Y-37652430D01*
X95262052Y-36821485D01*
X94626859Y-36185182D01*
X93796514Y-35840393D01*
X93573243Y-35840198D01*
X93908461Y-35505564D01*
X94119759Y-34996702D01*
X94119761Y-34994285D01*
X101459760Y-34994285D01*
X101670169Y-35503515D01*
X102059436Y-35893461D01*
X102568298Y-36104759D01*
X103119285Y-36105240D01*
X103628515Y-35894831D01*
X104018461Y-35505564D01*
X104229759Y-34996702D01*
X104230240Y-34445715D01*
X104019831Y-33936485D01*
X103630564Y-33546539D01*
X103456558Y-33474285D01*
X103999760Y-33474285D01*
X104210169Y-33983515D01*
X104599436Y-34373461D01*
X105108298Y-34584759D01*
X105659285Y-34585240D01*
X106168515Y-34374831D01*
X106558461Y-33985564D01*
X106769759Y-33476702D01*
X106770240Y-32925715D01*
X106559831Y-32416485D01*
X106170564Y-32026539D01*
X105661702Y-31815241D01*
X105110715Y-31814760D01*
X104601485Y-32025169D01*
X104211539Y-32414436D01*
X104000241Y-32923298D01*
X103999760Y-33474285D01*
X103456558Y-33474285D01*
X103121702Y-33335241D01*
X102570715Y-33334760D01*
X102061485Y-33545169D01*
X101671539Y-33934436D01*
X101460241Y-34443298D01*
X101459760Y-34994285D01*
X94119761Y-34994285D01*
X94120240Y-34445715D01*
X93909831Y-33936485D01*
X93520564Y-33546539D01*
X93346558Y-33474285D01*
X93889760Y-33474285D01*
X94100169Y-33983515D01*
X94489436Y-34373461D01*
X94998298Y-34584759D01*
X95549285Y-34585240D01*
X96058515Y-34374831D01*
X96448461Y-33985564D01*
X96659759Y-33476702D01*
X96660240Y-32925715D01*
X96449831Y-32416485D01*
X96060564Y-32026539D01*
X95551702Y-31815241D01*
X95000715Y-31814760D01*
X94491485Y-32025169D01*
X94101539Y-32414436D01*
X93890241Y-32923298D01*
X93889760Y-33474285D01*
X93346558Y-33474285D01*
X93011702Y-33335241D01*
X92460715Y-33334760D01*
X91951485Y-33545169D01*
X91561539Y-33934436D01*
X91350241Y-34443298D01*
X91349760Y-34994285D01*
X91560169Y-35503515D01*
X91949436Y-35893461D01*
X92357258Y-36062803D01*
X92066485Y-36182948D01*
X91430182Y-36818141D01*
X91085393Y-37648486D01*
X91084609Y-38547570D01*
X91381070Y-39265062D01*
X90936695Y-39264674D01*
X90243628Y-39551043D01*
X89712907Y-40080839D01*
X89425328Y-40773405D01*
X89424674Y-41523305D01*
X89711043Y-42216372D01*
X89914316Y-42420000D01*
X87885903Y-42420000D01*
X88087093Y-42219161D01*
X88374672Y-41526595D01*
X88375326Y-40776695D01*
X88088957Y-40083628D01*
X87559161Y-39552907D01*
X86866595Y-39265328D01*
X86418368Y-39264937D01*
X86714607Y-38551514D01*
X86715391Y-37652430D01*
X86372052Y-36821485D01*
X85736859Y-36185182D01*
X84906514Y-35840393D01*
X84007430Y-35839609D01*
X83176485Y-36182948D01*
X82540182Y-36818141D01*
X82195393Y-37648486D01*
X82194609Y-38547570D01*
X82537948Y-39378515D01*
X83173141Y-40014818D01*
X84003486Y-40359607D01*
X84776872Y-40360281D01*
X84605328Y-40773405D01*
X84604674Y-41523305D01*
X84891043Y-42216372D01*
X85094316Y-42420000D01*
X76200000Y-42420000D01*
X75909161Y-42477852D01*
X75662599Y-42642599D01*
X75129884Y-43175314D01*
X74809771Y-43307582D01*
X74433902Y-43682796D01*
X74230232Y-44173287D01*
X74229769Y-44704383D01*
X74432582Y-45195229D01*
X74807796Y-45571098D01*
X75298287Y-45774768D01*
X75829383Y-45775231D01*
X76320229Y-45572418D01*
X76517716Y-45375275D01*
X77349331Y-45375275D01*
X77411169Y-45611042D01*
X77912122Y-45787419D01*
X78442440Y-45758664D01*
X78798831Y-45611042D01*
X78860669Y-45375275D01*
X78105000Y-44619605D01*
X77349331Y-45375275D01*
X76517716Y-45375275D01*
X76696098Y-45197204D01*
X76828316Y-44878788D01*
X76933958Y-45133831D01*
X77169725Y-45195669D01*
X77925395Y-44440000D01*
X77911252Y-44425858D01*
X78090858Y-44246253D01*
X78105000Y-44260395D01*
X78119143Y-44246253D01*
X78298748Y-44425858D01*
X78284605Y-44440000D01*
X79040275Y-45195669D01*
X79276042Y-45133831D01*
X79373196Y-44857889D01*
X79512582Y-45195229D01*
X79745539Y-45428593D01*
X79528998Y-45645134D01*
X79110617Y-45644769D01*
X78619771Y-45847582D01*
X78243902Y-46222796D01*
X78111684Y-46541212D01*
X78006042Y-46286169D01*
X77770275Y-46224331D01*
X77014605Y-46980000D01*
X77770275Y-47735669D01*
X78006042Y-47673831D01*
X78103196Y-47397889D01*
X78242582Y-47735229D01*
X78617796Y-48111098D01*
X79108287Y-48314768D01*
X79137926Y-48314794D01*
X80689566Y-49866434D01*
X80960459Y-50047439D01*
X81280000Y-50111000D01*
X99140766Y-50111000D01*
X99381201Y-50210838D01*
X99753167Y-50211162D01*
X99995578Y-50111000D01*
X119968766Y-50111000D01*
X120209201Y-50210838D01*
X120581167Y-50211162D01*
X120823578Y-50111000D01*
X126085505Y-50111000D01*
X126203601Y-50160038D01*
X126575567Y-50160362D01*
X126695032Y-50111000D01*
X139780766Y-50111000D01*
X140021201Y-50210838D01*
X140393167Y-50211162D01*
X140635578Y-50111000D01*
X141894132Y-50111000D01*
X145469000Y-53685868D01*
X145469000Y-71200766D01*
X145369162Y-71441201D01*
X145368838Y-71813167D01*
X145510883Y-72156943D01*
X145773673Y-72420192D01*
X146117201Y-72562838D01*
X146489167Y-72563162D01*
X146832943Y-72421117D01*
X147096192Y-72158327D01*
X147238838Y-71814799D01*
X147239071Y-71546930D01*
X147423600Y-71547091D01*
X147423600Y-72278398D01*
X145347534Y-74354464D01*
X145277418Y-74184771D01*
X144905000Y-73811703D01*
X144905000Y-53721000D01*
X144881863Y-53604683D01*
X144847148Y-53430160D01*
X144682401Y-53183599D01*
X142269401Y-50770599D01*
X142022839Y-50605852D01*
X141732000Y-50548000D01*
X135690463Y-50548000D01*
X135658327Y-50515808D01*
X135314799Y-50373162D01*
X134942833Y-50372838D01*
X134599057Y-50514883D01*
X134565882Y-50548000D01*
X115370463Y-50548000D01*
X115338327Y-50515808D01*
X114994799Y-50373162D01*
X114622833Y-50372838D01*
X114279057Y-50514883D01*
X114245882Y-50548000D01*
X95050463Y-50548000D01*
X95018327Y-50515808D01*
X94674799Y-50373162D01*
X94302833Y-50372838D01*
X93959057Y-50514883D01*
X93925882Y-50548000D01*
X79054802Y-50548000D01*
X76824341Y-48317539D01*
X77172440Y-48298664D01*
X77528831Y-48151042D01*
X77590669Y-47915275D01*
X76835000Y-47159605D01*
X76820858Y-47173748D01*
X76641252Y-46994142D01*
X76655395Y-46980000D01*
X75899725Y-46224331D01*
X75663958Y-46286169D01*
X75566804Y-46562111D01*
X75427418Y-46224771D01*
X75247686Y-46044725D01*
X76079331Y-46044725D01*
X76835000Y-46800395D01*
X77590669Y-46044725D01*
X77528831Y-45808958D01*
X77027878Y-45632581D01*
X76497560Y-45661336D01*
X76141169Y-45808958D01*
X76079331Y-46044725D01*
X75247686Y-46044725D01*
X75052204Y-45848902D01*
X74561713Y-45645232D01*
X74030617Y-45644769D01*
X73539771Y-45847582D01*
X73163902Y-46222796D01*
X72960232Y-46713287D01*
X72959769Y-47244383D01*
X73162582Y-47735229D01*
X73537796Y-48111098D01*
X74028287Y-48314768D01*
X74559383Y-48315231D01*
X74639376Y-48282178D01*
X78202599Y-51845401D01*
X78449160Y-52010148D01*
X78740000Y-52068000D01*
X93271198Y-52068000D01*
X93270800Y-52070000D01*
X93270800Y-54864000D01*
X93328652Y-55154839D01*
X93493399Y-55401401D01*
X94560199Y-56468201D01*
X94616307Y-56505691D01*
X93848999Y-57272999D01*
X93684252Y-57519561D01*
X93626400Y-57810400D01*
X93626400Y-59737137D01*
X93594208Y-59769273D01*
X93451562Y-60112801D01*
X93451238Y-60484767D01*
X93593283Y-60828543D01*
X93856073Y-61091792D01*
X94199601Y-61234438D01*
X94437333Y-61234645D01*
X94350599Y-61292599D01*
X94348320Y-61294878D01*
X94302833Y-61294838D01*
X93959057Y-61436883D01*
X93695808Y-61699673D01*
X93553162Y-62043201D01*
X93552838Y-62415167D01*
X93694883Y-62758943D01*
X93728000Y-62792118D01*
X93728000Y-63246000D01*
X93772557Y-63470000D01*
X91214802Y-63470000D01*
X89660000Y-61915198D01*
X89660000Y-60874547D01*
X89683515Y-60864831D01*
X90073461Y-60475564D01*
X90284759Y-59966702D01*
X90285240Y-59415715D01*
X90185552Y-59174450D01*
X90187401Y-59172601D01*
X90352148Y-58926040D01*
X90410000Y-58635200D01*
X90410000Y-56777931D01*
X90501441Y-56719090D01*
X90646431Y-56506890D01*
X90697440Y-56255000D01*
X90697440Y-55505000D01*
X90653162Y-55269683D01*
X90514090Y-55053559D01*
X90301890Y-54908569D01*
X90050000Y-54857560D01*
X89250000Y-54857560D01*
X89014683Y-54901838D01*
X88911354Y-54968329D01*
X88909698Y-54966673D01*
X88676309Y-54870000D01*
X88435750Y-54870000D01*
X88277000Y-55028750D01*
X88277000Y-55753000D01*
X88297000Y-55753000D01*
X88297000Y-56007000D01*
X88277000Y-56007000D01*
X88277000Y-56731250D01*
X88435750Y-56890000D01*
X88676309Y-56890000D01*
X88890000Y-56801486D01*
X88890000Y-58304991D01*
X88625715Y-58304760D01*
X88116485Y-58515169D01*
X87726539Y-58904436D01*
X87515241Y-59413298D01*
X87514760Y-59964285D01*
X87725169Y-60473515D01*
X88114436Y-60863461D01*
X88140000Y-60874076D01*
X88140000Y-62230000D01*
X88197852Y-62520839D01*
X88362599Y-62767401D01*
X88780093Y-63184895D01*
X88625715Y-63184760D01*
X88116485Y-63395169D01*
X87726539Y-63784436D01*
X87515241Y-64293298D01*
X87514760Y-64844285D01*
X87725169Y-65353515D01*
X88114436Y-65743461D01*
X88623298Y-65954759D01*
X88890000Y-65954992D01*
X88890000Y-67658514D01*
X88676309Y-67570000D01*
X88435750Y-67570000D01*
X88277000Y-67728750D01*
X88277000Y-68453000D01*
X88297000Y-68453000D01*
X88297000Y-68707000D01*
X88277000Y-68707000D01*
X88277000Y-69431250D01*
X88435750Y-69590000D01*
X88676309Y-69590000D01*
X88909698Y-69493327D01*
X88911068Y-69491957D01*
X88998110Y-69551431D01*
X89250000Y-69602440D01*
X90050000Y-69602440D01*
X90285317Y-69558162D01*
X90501441Y-69419090D01*
X90646431Y-69206890D01*
X90697440Y-68955000D01*
X90697440Y-68205000D01*
X90653162Y-67969683D01*
X90514090Y-67753559D01*
X90410000Y-67682437D01*
X90410000Y-65790000D01*
X94865025Y-65790000D01*
X95028110Y-65901431D01*
X95280000Y-65952440D01*
X96607560Y-65952440D01*
X96607560Y-67280000D01*
X96651838Y-67515317D01*
X96790910Y-67731441D01*
X97003110Y-67876431D01*
X97255000Y-67927440D01*
X97805000Y-67927440D01*
X97934589Y-67903056D01*
X98055000Y-67927440D01*
X98605000Y-67927440D01*
X98734589Y-67903056D01*
X98855000Y-67927440D01*
X99405000Y-67927440D01*
X99534589Y-67903056D01*
X99655000Y-67927440D01*
X100205000Y-67927440D01*
X100334589Y-67903056D01*
X100455000Y-67927440D01*
X101005000Y-67927440D01*
X101134589Y-67903056D01*
X101255000Y-67927440D01*
X101570000Y-67927440D01*
X101570000Y-69310000D01*
X101627852Y-69600839D01*
X101745559Y-69777000D01*
X96439234Y-69777000D01*
X96198799Y-69677162D01*
X95826833Y-69676838D01*
X95584422Y-69777000D01*
X79756000Y-69777000D01*
X79436459Y-69840561D01*
X79422333Y-69850000D01*
X79165566Y-70021566D01*
X75582118Y-73605014D01*
X75300617Y-73604769D01*
X74809771Y-73807582D01*
X74433902Y-74182796D01*
X74230232Y-74673287D01*
X74229865Y-75094267D01*
X73704566Y-75619566D01*
X73523561Y-75890459D01*
X73460000Y-76210000D01*
X73460000Y-76427214D01*
X73163902Y-76722796D01*
X72960232Y-77213287D01*
X72959769Y-77744383D01*
X73162582Y-78235229D01*
X73537796Y-78611098D01*
X74028287Y-78814768D01*
X74559383Y-78815231D01*
X75050229Y-78612418D01*
X75426098Y-78237204D01*
X75565091Y-77902473D01*
X75702582Y-78235229D01*
X76077796Y-78611098D01*
X76568287Y-78814768D01*
X77099383Y-78815231D01*
X77590229Y-78612418D01*
X77787716Y-78415275D01*
X78619331Y-78415275D01*
X78681169Y-78651042D01*
X79182122Y-78827419D01*
X79712440Y-78798664D01*
X80068831Y-78651042D01*
X80130669Y-78415275D01*
X79375000Y-77659605D01*
X78619331Y-78415275D01*
X77787716Y-78415275D01*
X77966098Y-78237204D01*
X78098316Y-77918788D01*
X78203958Y-78173831D01*
X78439725Y-78235669D01*
X79195395Y-77480000D01*
X78439725Y-76724331D01*
X78203958Y-76786169D01*
X78106804Y-77062111D01*
X77967418Y-76724771D01*
X77787687Y-76544725D01*
X78619331Y-76544725D01*
X79375000Y-77300395D01*
X80130669Y-76544725D01*
X80068831Y-76308958D01*
X79567878Y-76132581D01*
X79037560Y-76161336D01*
X78681169Y-76308958D01*
X78619331Y-76544725D01*
X77787687Y-76544725D01*
X77734461Y-76491407D01*
X77951002Y-76274866D01*
X78369383Y-76275231D01*
X78860229Y-76072418D01*
X79057716Y-75875275D01*
X79889331Y-75875275D01*
X79951169Y-76111042D01*
X80452122Y-76287419D01*
X80982440Y-76258664D01*
X81338831Y-76111042D01*
X81400669Y-75875275D01*
X80645000Y-75119605D01*
X79889331Y-75875275D01*
X79057716Y-75875275D01*
X79236098Y-75697204D01*
X79368316Y-75378788D01*
X79473958Y-75633831D01*
X79709725Y-75695669D01*
X80465395Y-74940000D01*
X80451252Y-74925858D01*
X80630858Y-74746252D01*
X80645000Y-74760395D01*
X81400669Y-74004725D01*
X81338831Y-73768958D01*
X80837878Y-73592581D01*
X80476703Y-73612165D01*
X81625868Y-72463000D01*
X98124766Y-72463000D01*
X98365201Y-72562838D01*
X98737167Y-72563162D01*
X98979578Y-72463000D01*
X118444766Y-72463000D01*
X118685201Y-72562838D01*
X119057167Y-72563162D01*
X119299578Y-72463000D01*
X138764766Y-72463000D01*
X139005201Y-72562838D01*
X139377167Y-72563162D01*
X139720943Y-72421117D01*
X139984192Y-72158327D01*
X140126838Y-71814799D01*
X140127162Y-71442833D01*
X139985117Y-71099057D01*
X139722327Y-70835808D01*
X139378799Y-70693162D01*
X139006833Y-70692838D01*
X138764422Y-70793000D01*
X137586843Y-70793000D01*
X137587002Y-70610000D01*
X141677537Y-70610000D01*
X141709673Y-70642192D01*
X142053201Y-70784838D01*
X142425167Y-70785162D01*
X142768943Y-70643117D01*
X143032192Y-70380327D01*
X143174838Y-70036799D01*
X143175162Y-69664833D01*
X143084467Y-69445335D01*
X143385000Y-69144802D01*
X143385000Y-73110972D01*
X143155839Y-72957852D01*
X142865000Y-72900000D01*
X84328000Y-72900000D01*
X84037161Y-72957852D01*
X83790599Y-73122599D01*
X83308091Y-73605107D01*
X82920617Y-73604769D01*
X82429771Y-73807582D01*
X82053902Y-74182796D01*
X81921684Y-74501212D01*
X81816042Y-74246169D01*
X81580275Y-74184331D01*
X80824605Y-74940000D01*
X81580275Y-75695669D01*
X81816042Y-75633831D01*
X81913196Y-75357889D01*
X82052582Y-75695229D01*
X82427796Y-76071098D01*
X82918287Y-76274768D01*
X83449383Y-76275231D01*
X83940229Y-76072418D01*
X84316098Y-75697204D01*
X84519768Y-75206713D01*
X84520231Y-74675617D01*
X84481331Y-74581471D01*
X84642802Y-74420000D01*
X94655406Y-74420000D01*
X94550232Y-74673287D01*
X94549865Y-75094267D01*
X94024566Y-75619566D01*
X93843561Y-75890459D01*
X93780000Y-76210000D01*
X93780000Y-76427214D01*
X93483902Y-76722796D01*
X93280232Y-77213287D01*
X93279769Y-77744383D01*
X93482074Y-78234000D01*
X83220402Y-78234000D01*
X83098180Y-78111778D01*
X83249768Y-77746713D01*
X83250231Y-77215617D01*
X83047418Y-76724771D01*
X82672204Y-76348902D01*
X82181713Y-76145232D01*
X81650617Y-76144769D01*
X81159771Y-76347582D01*
X80783902Y-76722796D01*
X80651684Y-77041212D01*
X80546042Y-76786169D01*
X80310275Y-76724331D01*
X79554605Y-77480000D01*
X80310275Y-78235669D01*
X80546042Y-78173831D01*
X80643196Y-77897889D01*
X80782582Y-78235229D01*
X81157796Y-78611098D01*
X81648287Y-78814768D01*
X81651569Y-78814771D01*
X82368199Y-79531401D01*
X82614761Y-79696148D01*
X82905600Y-79754000D01*
X84870833Y-79754000D01*
X84605328Y-80393405D01*
X84604674Y-81143305D01*
X84776964Y-81560280D01*
X84007430Y-81559609D01*
X83176485Y-81902948D01*
X82540182Y-82538141D01*
X82195393Y-83368486D01*
X82194609Y-84267570D01*
X82537948Y-85098515D01*
X83173141Y-85734818D01*
X84003486Y-86079607D01*
X84226757Y-86079802D01*
X83891539Y-86414436D01*
X83680241Y-86923298D01*
X83679760Y-87474285D01*
X83890169Y-87983515D01*
X84279436Y-88373461D01*
X84788298Y-88584759D01*
X85339285Y-88585240D01*
X85848515Y-88374831D01*
X86238461Y-87985564D01*
X86449759Y-87476702D01*
X86450240Y-86925715D01*
X86239831Y-86416485D01*
X85850564Y-86026539D01*
X85442742Y-85857197D01*
X85733515Y-85737052D01*
X86369818Y-85101859D01*
X86714607Y-84271514D01*
X86715391Y-83372430D01*
X86418930Y-82654938D01*
X86863305Y-82655326D01*
X87556372Y-82368957D01*
X88087093Y-81839161D01*
X88374672Y-81146595D01*
X88375326Y-80396695D01*
X88109770Y-79754000D01*
X89690833Y-79754000D01*
X89425328Y-80393405D01*
X89424674Y-81143305D01*
X89711043Y-81836372D01*
X90240839Y-82367093D01*
X90933405Y-82654672D01*
X91381632Y-82655063D01*
X91085393Y-83368486D01*
X91084609Y-84267570D01*
X91427948Y-85098515D01*
X92063141Y-85734818D01*
X92893486Y-86079607D01*
X93792570Y-86080391D01*
X94623515Y-85737052D01*
X95259818Y-85101859D01*
X95604607Y-84271514D01*
X95605391Y-83372430D01*
X95262052Y-82541485D01*
X94626859Y-81905182D01*
X93796514Y-81560393D01*
X93023128Y-81559719D01*
X93194672Y-81146595D01*
X93195326Y-80396695D01*
X92929770Y-79754000D01*
X105190833Y-79754000D01*
X104925328Y-80393405D01*
X104924674Y-81143305D01*
X105096964Y-81560280D01*
X104327430Y-81559609D01*
X103496485Y-81902948D01*
X102860182Y-82538141D01*
X102515393Y-83368486D01*
X102514609Y-84267570D01*
X102857948Y-85098515D01*
X103493141Y-85734818D01*
X104323486Y-86079607D01*
X104546757Y-86079802D01*
X104211539Y-86414436D01*
X104000241Y-86923298D01*
X103999760Y-87474285D01*
X104210169Y-87983515D01*
X104599436Y-88373461D01*
X105108298Y-88584759D01*
X105659285Y-88585240D01*
X106168515Y-88374831D01*
X106558461Y-87985564D01*
X106769759Y-87476702D01*
X106770240Y-86925715D01*
X106559831Y-86416485D01*
X106170564Y-86026539D01*
X105762742Y-85857197D01*
X106053515Y-85737052D01*
X106689818Y-85101859D01*
X107034607Y-84271514D01*
X107035391Y-83372430D01*
X106738930Y-82654938D01*
X107183305Y-82655326D01*
X107876372Y-82368957D01*
X108407093Y-81839161D01*
X108694672Y-81146595D01*
X108695326Y-80396695D01*
X108429770Y-79754000D01*
X110010833Y-79754000D01*
X109745328Y-80393405D01*
X109744674Y-81143305D01*
X110031043Y-81836372D01*
X110560839Y-82367093D01*
X111253405Y-82654672D01*
X111701632Y-82655063D01*
X111405393Y-83368486D01*
X111404609Y-84267570D01*
X111747948Y-85098515D01*
X112383141Y-85734818D01*
X113213486Y-86079607D01*
X114112570Y-86080391D01*
X114943515Y-85737052D01*
X115579818Y-85101859D01*
X115924607Y-84271514D01*
X115925391Y-83372430D01*
X115582052Y-82541485D01*
X114946859Y-81905182D01*
X114116514Y-81560393D01*
X113343128Y-81559719D01*
X113514672Y-81146595D01*
X113515326Y-80396695D01*
X113249770Y-79754000D01*
X125510833Y-79754000D01*
X125245328Y-80393405D01*
X125244674Y-81143305D01*
X125416964Y-81560280D01*
X124647430Y-81559609D01*
X123816485Y-81902948D01*
X123180182Y-82538141D01*
X122835393Y-83368486D01*
X122834609Y-84267570D01*
X123177948Y-85098515D01*
X123813141Y-85734818D01*
X124643486Y-86079607D01*
X124866757Y-86079802D01*
X124531539Y-86414436D01*
X124320241Y-86923298D01*
X124319760Y-87474285D01*
X124530169Y-87983515D01*
X124919436Y-88373461D01*
X125428298Y-88584759D01*
X125979285Y-88585240D01*
X126488515Y-88374831D01*
X126878461Y-87985564D01*
X127089759Y-87476702D01*
X127090240Y-86925715D01*
X126879831Y-86416485D01*
X126490564Y-86026539D01*
X126082742Y-85857197D01*
X126373515Y-85737052D01*
X127009818Y-85101859D01*
X127354607Y-84271514D01*
X127355391Y-83372430D01*
X127058930Y-82654938D01*
X127503305Y-82655326D01*
X128196372Y-82368957D01*
X128727093Y-81839161D01*
X129014672Y-81146595D01*
X129015326Y-80396695D01*
X128749770Y-79754000D01*
X130330833Y-79754000D01*
X130065328Y-80393405D01*
X130064674Y-81143305D01*
X130351043Y-81836372D01*
X130880839Y-82367093D01*
X131573405Y-82654672D01*
X132021632Y-82655063D01*
X131725393Y-83368486D01*
X131724609Y-84267570D01*
X132067948Y-85098515D01*
X132703141Y-85734818D01*
X133533486Y-86079607D01*
X134432570Y-86080391D01*
X135263515Y-85737052D01*
X135899818Y-85101859D01*
X136244607Y-84271514D01*
X136245391Y-83372430D01*
X135902052Y-82541485D01*
X135266859Y-81905182D01*
X134436514Y-81560393D01*
X133663128Y-81559719D01*
X133834672Y-81146595D01*
X133835326Y-80396695D01*
X133569770Y-79754000D01*
X141361000Y-79754000D01*
X141651839Y-79696148D01*
X141898401Y-79531401D01*
X142615028Y-78814774D01*
X143139383Y-78815231D01*
X143630229Y-78612418D01*
X144006098Y-78237204D01*
X144209768Y-77746713D01*
X144209860Y-77641742D01*
X148721001Y-73130601D01*
X148885748Y-72884039D01*
X148943600Y-72593200D01*
X148943600Y-45364400D01*
X148885748Y-45073561D01*
X148721001Y-44826999D01*
X146825901Y-42931899D01*
X147073405Y-43034672D01*
X147823305Y-43035326D01*
X148516372Y-42748957D01*
X149047093Y-42219161D01*
X149150000Y-41971334D01*
X149150000Y-79948171D01*
X149048957Y-79703628D01*
X148519161Y-79172907D01*
X147826595Y-78885328D01*
X147076695Y-78884674D01*
X146383628Y-79171043D01*
X145852907Y-79700839D01*
X145565328Y-80393405D01*
X145564674Y-81143305D01*
X145736964Y-81560280D01*
X144967430Y-81559609D01*
X144136485Y-81902948D01*
X143500182Y-82538141D01*
X143155393Y-83368486D01*
X143154609Y-84267570D01*
X143497948Y-85098515D01*
X144133141Y-85734818D01*
X144963486Y-86079607D01*
X145186757Y-86079802D01*
X144851539Y-86414436D01*
X144640241Y-86923298D01*
X144639760Y-87474285D01*
X144850169Y-87983515D01*
X145239436Y-88373461D01*
X145748298Y-88584759D01*
X146299285Y-88585240D01*
X146808515Y-88374831D01*
X147198461Y-87985564D01*
X147409759Y-87476702D01*
X147410240Y-86925715D01*
X147199831Y-86416485D01*
X146810564Y-86026539D01*
X146402742Y-85857197D01*
X146693515Y-85737052D01*
X147329818Y-85101859D01*
X147674607Y-84271514D01*
X147675391Y-83372430D01*
X147378930Y-82654938D01*
X147823305Y-82655326D01*
X148516372Y-82368957D01*
X149047093Y-81839161D01*
X149150000Y-81591334D01*
X149150000Y-95810000D01*
X69290000Y-95810000D01*
X69290000Y-88994285D01*
X71029760Y-88994285D01*
X71240169Y-89503515D01*
X71629436Y-89893461D01*
X72138298Y-90104759D01*
X72689285Y-90105240D01*
X73198515Y-89894831D01*
X73588461Y-89505564D01*
X73799759Y-88996702D01*
X73799761Y-88994285D01*
X81139760Y-88994285D01*
X81350169Y-89503515D01*
X81739436Y-89893461D01*
X82248298Y-90104759D01*
X82799285Y-90105240D01*
X83308515Y-89894831D01*
X83698461Y-89505564D01*
X83909759Y-88996702D01*
X83909761Y-88994285D01*
X91349760Y-88994285D01*
X91560169Y-89503515D01*
X91949436Y-89893461D01*
X92458298Y-90104759D01*
X93009285Y-90105240D01*
X93518515Y-89894831D01*
X93908461Y-89505564D01*
X94119759Y-88996702D01*
X94119761Y-88994285D01*
X101459760Y-88994285D01*
X101670169Y-89503515D01*
X102059436Y-89893461D01*
X102568298Y-90104759D01*
X103119285Y-90105240D01*
X103628515Y-89894831D01*
X104018461Y-89505564D01*
X104229759Y-88996702D01*
X104229761Y-88994285D01*
X111669760Y-88994285D01*
X111880169Y-89503515D01*
X112269436Y-89893461D01*
X112778298Y-90104759D01*
X113329285Y-90105240D01*
X113838515Y-89894831D01*
X114228461Y-89505564D01*
X114439759Y-88996702D01*
X114439761Y-88994285D01*
X121779760Y-88994285D01*
X121990169Y-89503515D01*
X122379436Y-89893461D01*
X122888298Y-90104759D01*
X123439285Y-90105240D01*
X123948515Y-89894831D01*
X124338461Y-89505564D01*
X124549759Y-88996702D01*
X124549761Y-88994285D01*
X131989760Y-88994285D01*
X132200169Y-89503515D01*
X132589436Y-89893461D01*
X133098298Y-90104759D01*
X133649285Y-90105240D01*
X134158515Y-89894831D01*
X134548461Y-89505564D01*
X134759759Y-88996702D01*
X134759761Y-88994285D01*
X142099760Y-88994285D01*
X142310169Y-89503515D01*
X142699436Y-89893461D01*
X143208298Y-90104759D01*
X143759285Y-90105240D01*
X144268515Y-89894831D01*
X144658461Y-89505564D01*
X144869759Y-88996702D01*
X144870240Y-88445715D01*
X144659831Y-87936485D01*
X144270564Y-87546539D01*
X143761702Y-87335241D01*
X143210715Y-87334760D01*
X142701485Y-87545169D01*
X142311539Y-87934436D01*
X142100241Y-88443298D01*
X142099760Y-88994285D01*
X134759761Y-88994285D01*
X134760240Y-88445715D01*
X134549831Y-87936485D01*
X134160564Y-87546539D01*
X133986558Y-87474285D01*
X134529760Y-87474285D01*
X134740169Y-87983515D01*
X135129436Y-88373461D01*
X135638298Y-88584759D01*
X136189285Y-88585240D01*
X136698515Y-88374831D01*
X137088461Y-87985564D01*
X137299759Y-87476702D01*
X137300240Y-86925715D01*
X137089831Y-86416485D01*
X136700564Y-86026539D01*
X136191702Y-85815241D01*
X135640715Y-85814760D01*
X135131485Y-86025169D01*
X134741539Y-86414436D01*
X134530241Y-86923298D01*
X134529760Y-87474285D01*
X133986558Y-87474285D01*
X133651702Y-87335241D01*
X133100715Y-87334760D01*
X132591485Y-87545169D01*
X132201539Y-87934436D01*
X131990241Y-88443298D01*
X131989760Y-88994285D01*
X124549761Y-88994285D01*
X124550240Y-88445715D01*
X124339831Y-87936485D01*
X123950564Y-87546539D01*
X123441702Y-87335241D01*
X122890715Y-87334760D01*
X122381485Y-87545169D01*
X121991539Y-87934436D01*
X121780241Y-88443298D01*
X121779760Y-88994285D01*
X114439761Y-88994285D01*
X114440240Y-88445715D01*
X114229831Y-87936485D01*
X113840564Y-87546539D01*
X113666558Y-87474285D01*
X114209760Y-87474285D01*
X114420169Y-87983515D01*
X114809436Y-88373461D01*
X115318298Y-88584759D01*
X115869285Y-88585240D01*
X116378515Y-88374831D01*
X116768461Y-87985564D01*
X116979759Y-87476702D01*
X116980240Y-86925715D01*
X116769831Y-86416485D01*
X116380564Y-86026539D01*
X115871702Y-85815241D01*
X115320715Y-85814760D01*
X114811485Y-86025169D01*
X114421539Y-86414436D01*
X114210241Y-86923298D01*
X114209760Y-87474285D01*
X113666558Y-87474285D01*
X113331702Y-87335241D01*
X112780715Y-87334760D01*
X112271485Y-87545169D01*
X111881539Y-87934436D01*
X111670241Y-88443298D01*
X111669760Y-88994285D01*
X104229761Y-88994285D01*
X104230240Y-88445715D01*
X104019831Y-87936485D01*
X103630564Y-87546539D01*
X103121702Y-87335241D01*
X102570715Y-87334760D01*
X102061485Y-87545169D01*
X101671539Y-87934436D01*
X101460241Y-88443298D01*
X101459760Y-88994285D01*
X94119761Y-88994285D01*
X94120240Y-88445715D01*
X93909831Y-87936485D01*
X93520564Y-87546539D01*
X93346558Y-87474285D01*
X93889760Y-87474285D01*
X94100169Y-87983515D01*
X94489436Y-88373461D01*
X94998298Y-88584759D01*
X95549285Y-88585240D01*
X96058515Y-88374831D01*
X96448461Y-87985564D01*
X96659759Y-87476702D01*
X96660240Y-86925715D01*
X96449831Y-86416485D01*
X96060564Y-86026539D01*
X95551702Y-85815241D01*
X95000715Y-85814760D01*
X94491485Y-86025169D01*
X94101539Y-86414436D01*
X93890241Y-86923298D01*
X93889760Y-87474285D01*
X93346558Y-87474285D01*
X93011702Y-87335241D01*
X92460715Y-87334760D01*
X91951485Y-87545169D01*
X91561539Y-87934436D01*
X91350241Y-88443298D01*
X91349760Y-88994285D01*
X83909761Y-88994285D01*
X83910240Y-88445715D01*
X83699831Y-87936485D01*
X83310564Y-87546539D01*
X82801702Y-87335241D01*
X82250715Y-87334760D01*
X81741485Y-87545169D01*
X81351539Y-87934436D01*
X81140241Y-88443298D01*
X81139760Y-88994285D01*
X73799761Y-88994285D01*
X73800240Y-88445715D01*
X73589831Y-87936485D01*
X73200564Y-87546539D01*
X73026558Y-87474285D01*
X73569760Y-87474285D01*
X73780169Y-87983515D01*
X74169436Y-88373461D01*
X74678298Y-88584759D01*
X75229285Y-88585240D01*
X75738515Y-88374831D01*
X76128461Y-87985564D01*
X76339759Y-87476702D01*
X76340240Y-86925715D01*
X76129831Y-86416485D01*
X75740564Y-86026539D01*
X75231702Y-85815241D01*
X74680715Y-85814760D01*
X74171485Y-86025169D01*
X73781539Y-86414436D01*
X73570241Y-86923298D01*
X73569760Y-87474285D01*
X73026558Y-87474285D01*
X72691702Y-87335241D01*
X72140715Y-87334760D01*
X71631485Y-87545169D01*
X71241539Y-87934436D01*
X71030241Y-88443298D01*
X71029760Y-88994285D01*
X69290000Y-88994285D01*
X69290000Y-81591829D01*
X69391043Y-81836372D01*
X69920839Y-82367093D01*
X70613405Y-82654672D01*
X71061632Y-82655063D01*
X70765393Y-83368486D01*
X70764609Y-84267570D01*
X71107948Y-85098515D01*
X71743141Y-85734818D01*
X72573486Y-86079607D01*
X73472570Y-86080391D01*
X74303515Y-85737052D01*
X74939818Y-85101859D01*
X75284607Y-84271514D01*
X75285391Y-83372430D01*
X74942052Y-82541485D01*
X74306859Y-81905182D01*
X73476514Y-81560393D01*
X72703128Y-81559719D01*
X72874672Y-81146595D01*
X72875326Y-80396695D01*
X72588957Y-79703628D01*
X72059161Y-79172907D01*
X71366595Y-78885328D01*
X70616695Y-78884674D01*
X69923628Y-79171043D01*
X69392907Y-79700839D01*
X69290000Y-79948666D01*
X69290000Y-68865750D01*
X87115000Y-68865750D01*
X87115000Y-69081310D01*
X87211673Y-69314699D01*
X87390302Y-69493327D01*
X87623691Y-69590000D01*
X87864250Y-69590000D01*
X88023000Y-69431250D01*
X88023000Y-68707000D01*
X87273750Y-68707000D01*
X87115000Y-68865750D01*
X69290000Y-68865750D01*
X69290000Y-65725000D01*
X70157560Y-65725000D01*
X70157560Y-67625000D01*
X70201838Y-67860317D01*
X70340910Y-68076441D01*
X70553110Y-68221431D01*
X70805000Y-68272440D01*
X72705000Y-68272440D01*
X72940317Y-68228162D01*
X73156441Y-68089090D01*
X73163547Y-68078690D01*
X87115000Y-68078690D01*
X87115000Y-68294250D01*
X87273750Y-68453000D01*
X88023000Y-68453000D01*
X88023000Y-67728750D01*
X87864250Y-67570000D01*
X87623691Y-67570000D01*
X87390302Y-67666673D01*
X87211673Y-67845301D01*
X87115000Y-68078690D01*
X73163547Y-68078690D01*
X73301431Y-67876890D01*
X73352440Y-67625000D01*
X73352440Y-66709000D01*
X73821943Y-66515005D01*
X74183735Y-66153845D01*
X74379777Y-65681724D01*
X74380223Y-65170519D01*
X74185005Y-64698057D01*
X73823845Y-64336265D01*
X73351724Y-64140223D01*
X73339860Y-64140213D01*
X73326352Y-63797539D01*
X73133019Y-63330792D01*
X72871350Y-63238255D01*
X71934605Y-64175000D01*
X71948748Y-64189143D01*
X71769143Y-64368748D01*
X71755000Y-64354605D01*
X71740858Y-64368748D01*
X71561253Y-64189143D01*
X71575395Y-64175000D01*
X70638650Y-63238255D01*
X70376981Y-63330792D01*
X70158812Y-63922398D01*
X70183648Y-64552461D01*
X70376981Y-65019208D01*
X70633327Y-65109863D01*
X70569683Y-65121838D01*
X70353559Y-65260910D01*
X70208569Y-65473110D01*
X70157560Y-65725000D01*
X69290000Y-65725000D01*
X69290000Y-61988893D01*
X70169725Y-61988893D01*
X70410519Y-62571657D01*
X70838765Y-63000652D01*
X70818255Y-63058650D01*
X71755000Y-63995395D01*
X72691745Y-63058650D01*
X72671048Y-63000124D01*
X73097914Y-62574003D01*
X73339724Y-61991659D01*
X73340275Y-61361107D01*
X73099481Y-60778343D01*
X72654003Y-60332086D01*
X72071659Y-60090276D01*
X71441107Y-60089725D01*
X70858343Y-60330519D01*
X70412086Y-60775997D01*
X70170276Y-61358341D01*
X70169725Y-61988893D01*
X69290000Y-61988893D01*
X69290000Y-56165750D01*
X87115000Y-56165750D01*
X87115000Y-56381310D01*
X87211673Y-56614699D01*
X87390302Y-56793327D01*
X87623691Y-56890000D01*
X87864250Y-56890000D01*
X88023000Y-56731250D01*
X88023000Y-56007000D01*
X87273750Y-56007000D01*
X87115000Y-56165750D01*
X69290000Y-56165750D01*
X69290000Y-55378690D01*
X87115000Y-55378690D01*
X87115000Y-55594250D01*
X87273750Y-55753000D01*
X88023000Y-55753000D01*
X88023000Y-55028750D01*
X87864250Y-54870000D01*
X87623691Y-54870000D01*
X87390302Y-54966673D01*
X87211673Y-55145301D01*
X87115000Y-55378690D01*
X69290000Y-55378690D01*
X69290000Y-41971829D01*
X69391043Y-42216372D01*
X69920839Y-42747093D01*
X70613405Y-43034672D01*
X71363305Y-43035326D01*
X72056372Y-42748957D01*
X72587093Y-42219161D01*
X72874672Y-41526595D01*
X72875326Y-40776695D01*
X72703036Y-40359720D01*
X73472570Y-40360391D01*
X74303515Y-40017052D01*
X74939818Y-39381859D01*
X75284607Y-38551514D01*
X75285391Y-37652430D01*
X74942052Y-36821485D01*
X74306859Y-36185182D01*
X73476514Y-35840393D01*
X73253243Y-35840198D01*
X73588461Y-35505564D01*
X73799759Y-34996702D01*
X73799761Y-34994285D01*
X81139760Y-34994285D01*
X81350169Y-35503515D01*
X81739436Y-35893461D01*
X82248298Y-36104759D01*
X82799285Y-36105240D01*
X83308515Y-35894831D01*
X83698461Y-35505564D01*
X83909759Y-34996702D01*
X83910240Y-34445715D01*
X83699831Y-33936485D01*
X83310564Y-33546539D01*
X83136558Y-33474285D01*
X83679760Y-33474285D01*
X83890169Y-33983515D01*
X84279436Y-34373461D01*
X84788298Y-34584759D01*
X85339285Y-34585240D01*
X85848515Y-34374831D01*
X86238461Y-33985564D01*
X86449759Y-33476702D01*
X86450240Y-32925715D01*
X86239831Y-32416485D01*
X85850564Y-32026539D01*
X85341702Y-31815241D01*
X84790715Y-31814760D01*
X84281485Y-32025169D01*
X83891539Y-32414436D01*
X83680241Y-32923298D01*
X83679760Y-33474285D01*
X83136558Y-33474285D01*
X82801702Y-33335241D01*
X82250715Y-33334760D01*
X81741485Y-33545169D01*
X81351539Y-33934436D01*
X81140241Y-34443298D01*
X81139760Y-34994285D01*
X73799761Y-34994285D01*
X73800240Y-34445715D01*
X73589831Y-33936485D01*
X73200564Y-33546539D01*
X73026558Y-33474285D01*
X73569760Y-33474285D01*
X73780169Y-33983515D01*
X74169436Y-34373461D01*
X74678298Y-34584759D01*
X75229285Y-34585240D01*
X75738515Y-34374831D01*
X76128461Y-33985564D01*
X76339759Y-33476702D01*
X76340240Y-32925715D01*
X76129831Y-32416485D01*
X75740564Y-32026539D01*
X75231702Y-31815241D01*
X74680715Y-31814760D01*
X74171485Y-32025169D01*
X73781539Y-32414436D01*
X73570241Y-32923298D01*
X73569760Y-33474285D01*
X73026558Y-33474285D01*
X72691702Y-33335241D01*
X72140715Y-33334760D01*
X71631485Y-33545169D01*
X71241539Y-33934436D01*
X71030241Y-34443298D01*
X71029760Y-34994285D01*
X71240169Y-35503515D01*
X71629436Y-35893461D01*
X72037258Y-36062803D01*
X71746485Y-36182948D01*
X71110182Y-36818141D01*
X70765393Y-37648486D01*
X70764609Y-38547570D01*
X71061070Y-39265062D01*
X70616695Y-39264674D01*
X69923628Y-39551043D01*
X69392907Y-40080839D01*
X69290000Y-40328666D01*
X69290000Y-26110000D01*
X149150000Y-26110000D01*
X149150000Y-40328171D01*
G36*
X114870232Y-74673287D02*
X114869865Y-75094267D01*
X114344566Y-75619566D01*
X114163561Y-75890459D01*
X114100000Y-76210000D01*
X114100000Y-76427214D01*
X113803902Y-76722796D01*
X113600232Y-77213287D01*
X113599769Y-77744383D01*
X113802074Y-78234000D01*
X103367428Y-78234000D01*
X103569768Y-77746713D01*
X103570231Y-77215617D01*
X103367418Y-76724771D01*
X102992204Y-76348902D01*
X102501713Y-76145232D01*
X101970617Y-76144769D01*
X101479771Y-76347582D01*
X101103902Y-76722796D01*
X100971684Y-77041212D01*
X100866042Y-76786169D01*
X100630275Y-76724331D01*
X99874605Y-77480000D01*
X99888748Y-77494142D01*
X99709142Y-77673748D01*
X99695000Y-77659605D01*
X99680858Y-77673748D01*
X99501252Y-77494142D01*
X99515395Y-77480000D01*
X98759725Y-76724331D01*
X98523958Y-76786169D01*
X98426804Y-77062111D01*
X98287418Y-76724771D01*
X98107687Y-76544725D01*
X98939331Y-76544725D01*
X99695000Y-77300395D01*
X100450669Y-76544725D01*
X100388831Y-76308958D01*
X99887878Y-76132581D01*
X99357560Y-76161336D01*
X99001169Y-76308958D01*
X98939331Y-76544725D01*
X98107687Y-76544725D01*
X98054461Y-76491407D01*
X98271002Y-76274866D01*
X98689383Y-76275231D01*
X99180229Y-76072418D01*
X99377716Y-75875275D01*
X100209331Y-75875275D01*
X100271169Y-76111042D01*
X100772122Y-76287419D01*
X101302440Y-76258664D01*
X101658831Y-76111042D01*
X101720669Y-75875275D01*
X100965000Y-75119605D01*
X100209331Y-75875275D01*
X99377716Y-75875275D01*
X99556098Y-75697204D01*
X99688316Y-75378788D01*
X99793958Y-75633831D01*
X100029725Y-75695669D01*
X100785395Y-74940000D01*
X100771252Y-74925858D01*
X100950858Y-74746253D01*
X100965000Y-74760395D01*
X100979143Y-74746253D01*
X101158748Y-74925858D01*
X101144605Y-74940000D01*
X101900275Y-75695669D01*
X102136042Y-75633831D01*
X102233196Y-75357889D01*
X102372582Y-75695229D01*
X102747796Y-76071098D01*
X103238287Y-76274768D01*
X103769383Y-76275231D01*
X104260229Y-76072418D01*
X104636098Y-75697204D01*
X104839768Y-75206713D01*
X104840231Y-74675617D01*
X104734612Y-74420000D01*
X114975406Y-74420000D01*
X114870232Y-74673287D01*
X114870232Y-74673287D01*
G37*
X114870232Y-74673287D02*
X114869865Y-75094267D01*
X114344566Y-75619566D01*
X114163561Y-75890459D01*
X114100000Y-76210000D01*
X114100000Y-76427214D01*
X113803902Y-76722796D01*
X113600232Y-77213287D01*
X113599769Y-77744383D01*
X113802074Y-78234000D01*
X103367428Y-78234000D01*
X103569768Y-77746713D01*
X103570231Y-77215617D01*
X103367418Y-76724771D01*
X102992204Y-76348902D01*
X102501713Y-76145232D01*
X101970617Y-76144769D01*
X101479771Y-76347582D01*
X101103902Y-76722796D01*
X100971684Y-77041212D01*
X100866042Y-76786169D01*
X100630275Y-76724331D01*
X99874605Y-77480000D01*
X99888748Y-77494142D01*
X99709142Y-77673748D01*
X99695000Y-77659605D01*
X99680858Y-77673748D01*
X99501252Y-77494142D01*
X99515395Y-77480000D01*
X98759725Y-76724331D01*
X98523958Y-76786169D01*
X98426804Y-77062111D01*
X98287418Y-76724771D01*
X98107687Y-76544725D01*
X98939331Y-76544725D01*
X99695000Y-77300395D01*
X100450669Y-76544725D01*
X100388831Y-76308958D01*
X99887878Y-76132581D01*
X99357560Y-76161336D01*
X99001169Y-76308958D01*
X98939331Y-76544725D01*
X98107687Y-76544725D01*
X98054461Y-76491407D01*
X98271002Y-76274866D01*
X98689383Y-76275231D01*
X99180229Y-76072418D01*
X99377716Y-75875275D01*
X100209331Y-75875275D01*
X100271169Y-76111042D01*
X100772122Y-76287419D01*
X101302440Y-76258664D01*
X101658831Y-76111042D01*
X101720669Y-75875275D01*
X100965000Y-75119605D01*
X100209331Y-75875275D01*
X99377716Y-75875275D01*
X99556098Y-75697204D01*
X99688316Y-75378788D01*
X99793958Y-75633831D01*
X100029725Y-75695669D01*
X100785395Y-74940000D01*
X100771252Y-74925858D01*
X100950858Y-74746253D01*
X100965000Y-74760395D01*
X100979143Y-74746253D01*
X101158748Y-74925858D01*
X101144605Y-74940000D01*
X101900275Y-75695669D01*
X102136042Y-75633831D01*
X102233196Y-75357889D01*
X102372582Y-75695229D01*
X102747796Y-76071098D01*
X103238287Y-76274768D01*
X103769383Y-76275231D01*
X104260229Y-76072418D01*
X104636098Y-75697204D01*
X104839768Y-75206713D01*
X104840231Y-74675617D01*
X104734612Y-74420000D01*
X114975406Y-74420000D01*
X114870232Y-74673287D01*
G36*
X135190232Y-74673287D02*
X135189865Y-75094267D01*
X134664566Y-75619566D01*
X134483561Y-75890459D01*
X134420000Y-76210000D01*
X134420000Y-76427214D01*
X134123902Y-76722796D01*
X133920232Y-77213287D01*
X133919769Y-77744383D01*
X134122074Y-78234000D01*
X123687428Y-78234000D01*
X123889768Y-77746713D01*
X123890231Y-77215617D01*
X123687418Y-76724771D01*
X123312204Y-76348902D01*
X122821713Y-76145232D01*
X122290617Y-76144769D01*
X121799771Y-76347582D01*
X121423902Y-76722796D01*
X121291684Y-77041212D01*
X121186042Y-76786169D01*
X120950275Y-76724331D01*
X120194605Y-77480000D01*
X120208748Y-77494142D01*
X120029142Y-77673748D01*
X120015000Y-77659605D01*
X120000858Y-77673748D01*
X119821252Y-77494142D01*
X119835395Y-77480000D01*
X119079725Y-76724331D01*
X118843958Y-76786169D01*
X118746804Y-77062111D01*
X118607418Y-76724771D01*
X118427687Y-76544725D01*
X119259331Y-76544725D01*
X120015000Y-77300395D01*
X120770669Y-76544725D01*
X120708831Y-76308958D01*
X120207878Y-76132581D01*
X119677560Y-76161336D01*
X119321169Y-76308958D01*
X119259331Y-76544725D01*
X118427687Y-76544725D01*
X118374461Y-76491407D01*
X118591002Y-76274866D01*
X119009383Y-76275231D01*
X119500229Y-76072418D01*
X119697716Y-75875275D01*
X120529331Y-75875275D01*
X120591169Y-76111042D01*
X121092122Y-76287419D01*
X121622440Y-76258664D01*
X121978831Y-76111042D01*
X122040669Y-75875275D01*
X121285000Y-75119605D01*
X120529331Y-75875275D01*
X119697716Y-75875275D01*
X119876098Y-75697204D01*
X120008316Y-75378788D01*
X120113958Y-75633831D01*
X120349725Y-75695669D01*
X121105395Y-74940000D01*
X121091252Y-74925858D01*
X121270858Y-74746253D01*
X121285000Y-74760395D01*
X121299143Y-74746253D01*
X121478748Y-74925858D01*
X121464605Y-74940000D01*
X122220275Y-75695669D01*
X122456042Y-75633831D01*
X122553196Y-75357889D01*
X122692582Y-75695229D01*
X123067796Y-76071098D01*
X123558287Y-76274768D01*
X124089383Y-76275231D01*
X124580229Y-76072418D01*
X124956098Y-75697204D01*
X125159768Y-75206713D01*
X125160231Y-74675617D01*
X125054612Y-74420000D01*
X135295406Y-74420000D01*
X135190232Y-74673287D01*
X135190232Y-74673287D01*
G37*
X135190232Y-74673287D02*
X135189865Y-75094267D01*
X134664566Y-75619566D01*
X134483561Y-75890459D01*
X134420000Y-76210000D01*
X134420000Y-76427214D01*
X134123902Y-76722796D01*
X133920232Y-77213287D01*
X133919769Y-77744383D01*
X134122074Y-78234000D01*
X123687428Y-78234000D01*
X123889768Y-77746713D01*
X123890231Y-77215617D01*
X123687418Y-76724771D01*
X123312204Y-76348902D01*
X122821713Y-76145232D01*
X122290617Y-76144769D01*
X121799771Y-76347582D01*
X121423902Y-76722796D01*
X121291684Y-77041212D01*
X121186042Y-76786169D01*
X120950275Y-76724331D01*
X120194605Y-77480000D01*
X120208748Y-77494142D01*
X120029142Y-77673748D01*
X120015000Y-77659605D01*
X120000858Y-77673748D01*
X119821252Y-77494142D01*
X119835395Y-77480000D01*
X119079725Y-76724331D01*
X118843958Y-76786169D01*
X118746804Y-77062111D01*
X118607418Y-76724771D01*
X118427687Y-76544725D01*
X119259331Y-76544725D01*
X120015000Y-77300395D01*
X120770669Y-76544725D01*
X120708831Y-76308958D01*
X120207878Y-76132581D01*
X119677560Y-76161336D01*
X119321169Y-76308958D01*
X119259331Y-76544725D01*
X118427687Y-76544725D01*
X118374461Y-76491407D01*
X118591002Y-76274866D01*
X119009383Y-76275231D01*
X119500229Y-76072418D01*
X119697716Y-75875275D01*
X120529331Y-75875275D01*
X120591169Y-76111042D01*
X121092122Y-76287419D01*
X121622440Y-76258664D01*
X121978831Y-76111042D01*
X122040669Y-75875275D01*
X121285000Y-75119605D01*
X120529331Y-75875275D01*
X119697716Y-75875275D01*
X119876098Y-75697204D01*
X120008316Y-75378788D01*
X120113958Y-75633831D01*
X120349725Y-75695669D01*
X121105395Y-74940000D01*
X121091252Y-74925858D01*
X121270858Y-74746253D01*
X121285000Y-74760395D01*
X121299143Y-74746253D01*
X121478748Y-74925858D01*
X121464605Y-74940000D01*
X122220275Y-75695669D01*
X122456042Y-75633831D01*
X122553196Y-75357889D01*
X122692582Y-75695229D01*
X123067796Y-76071098D01*
X123558287Y-76274768D01*
X124089383Y-76275231D01*
X124580229Y-76072418D01*
X124956098Y-75697204D01*
X125159768Y-75206713D01*
X125160231Y-74675617D01*
X125054612Y-74420000D01*
X135295406Y-74420000D01*
X135190232Y-74673287D01*
G36*
X141798748Y-74925858D02*
X141784605Y-74940000D01*
X142540275Y-75695669D01*
X142776042Y-75633831D01*
X142873196Y-75357889D01*
X143012582Y-75695229D01*
X143387796Y-76071098D01*
X143559572Y-76142426D01*
X143434988Y-76267010D01*
X143141713Y-76145232D01*
X142610617Y-76144769D01*
X142119771Y-76347582D01*
X141743902Y-76722796D01*
X141611684Y-77041212D01*
X141506042Y-76786169D01*
X141270275Y-76724331D01*
X140514605Y-77480000D01*
X140528748Y-77494142D01*
X140349142Y-77673748D01*
X140335000Y-77659605D01*
X140320858Y-77673748D01*
X140141252Y-77494142D01*
X140155395Y-77480000D01*
X139399725Y-76724331D01*
X139163958Y-76786169D01*
X139066804Y-77062111D01*
X138927418Y-76724771D01*
X138747687Y-76544725D01*
X139579331Y-76544725D01*
X140335000Y-77300395D01*
X141090669Y-76544725D01*
X141028831Y-76308958D01*
X140527878Y-76132581D01*
X139997560Y-76161336D01*
X139641169Y-76308958D01*
X139579331Y-76544725D01*
X138747687Y-76544725D01*
X138694461Y-76491407D01*
X138911002Y-76274866D01*
X139329383Y-76275231D01*
X139820229Y-76072418D01*
X140017716Y-75875275D01*
X140849331Y-75875275D01*
X140911169Y-76111042D01*
X141412122Y-76287419D01*
X141942440Y-76258664D01*
X142298831Y-76111042D01*
X142360669Y-75875275D01*
X141605000Y-75119605D01*
X140849331Y-75875275D01*
X140017716Y-75875275D01*
X140196098Y-75697204D01*
X140328316Y-75378788D01*
X140433958Y-75633831D01*
X140669725Y-75695669D01*
X141425395Y-74940000D01*
X141411252Y-74925858D01*
X141590858Y-74746253D01*
X141605000Y-74760395D01*
X141619143Y-74746253D01*
X141798748Y-74925858D01*
X141798748Y-74925858D01*
G37*
X141798748Y-74925858D02*
X141784605Y-74940000D01*
X142540275Y-75695669D01*
X142776042Y-75633831D01*
X142873196Y-75357889D01*
X143012582Y-75695229D01*
X143387796Y-76071098D01*
X143559572Y-76142426D01*
X143434988Y-76267010D01*
X143141713Y-76145232D01*
X142610617Y-76144769D01*
X142119771Y-76347582D01*
X141743902Y-76722796D01*
X141611684Y-77041212D01*
X141506042Y-76786169D01*
X141270275Y-76724331D01*
X140514605Y-77480000D01*
X140528748Y-77494142D01*
X140349142Y-77673748D01*
X140335000Y-77659605D01*
X140320858Y-77673748D01*
X140141252Y-77494142D01*
X140155395Y-77480000D01*
X139399725Y-76724331D01*
X139163958Y-76786169D01*
X139066804Y-77062111D01*
X138927418Y-76724771D01*
X138747687Y-76544725D01*
X139579331Y-76544725D01*
X140335000Y-77300395D01*
X141090669Y-76544725D01*
X141028831Y-76308958D01*
X140527878Y-76132581D01*
X139997560Y-76161336D01*
X139641169Y-76308958D01*
X139579331Y-76544725D01*
X138747687Y-76544725D01*
X138694461Y-76491407D01*
X138911002Y-76274866D01*
X139329383Y-76275231D01*
X139820229Y-76072418D01*
X140017716Y-75875275D01*
X140849331Y-75875275D01*
X140911169Y-76111042D01*
X141412122Y-76287419D01*
X141942440Y-76258664D01*
X142298831Y-76111042D01*
X142360669Y-75875275D01*
X141605000Y-75119605D01*
X140849331Y-75875275D01*
X140017716Y-75875275D01*
X140196098Y-75697204D01*
X140328316Y-75378788D01*
X140433958Y-75633831D01*
X140669725Y-75695669D01*
X141425395Y-74940000D01*
X141411252Y-74925858D01*
X141590858Y-74746253D01*
X141605000Y-74760395D01*
X141619143Y-74746253D01*
X141798748Y-74925858D01*
G36*
X141480000Y-54289802D02*
X141480000Y-64842537D01*
X141447808Y-64874673D01*
X141305162Y-65218201D01*
X141304838Y-65590167D01*
X141446883Y-65933943D01*
X141709673Y-66197192D01*
X142053201Y-66339838D01*
X142115000Y-66339892D01*
X142115000Y-66995198D01*
X141290198Y-67820000D01*
X140262463Y-67820000D01*
X140230327Y-67787808D01*
X139909632Y-67654643D01*
X140043737Y-67308045D01*
X140025164Y-66518582D01*
X139758782Y-65875478D01*
X139455593Y-65734012D01*
X138229605Y-66960000D01*
X138243748Y-66974143D01*
X138064143Y-67153748D01*
X138050000Y-67139605D01*
X138035858Y-67153748D01*
X137856253Y-66974143D01*
X137870395Y-66960000D01*
X136644407Y-65734012D01*
X136341218Y-65875478D01*
X136056263Y-66611955D01*
X136074836Y-67401418D01*
X136199655Y-67702758D01*
X135996057Y-67786883D01*
X135962882Y-67820000D01*
X133277463Y-67820000D01*
X133245327Y-67787808D01*
X132901799Y-67645162D01*
X132529833Y-67644838D01*
X132186057Y-67786883D01*
X131922808Y-68049673D01*
X131780162Y-68393201D01*
X131780108Y-68455000D01*
X131372463Y-68455000D01*
X131340327Y-68422808D01*
X130996799Y-68280162D01*
X130624833Y-68279838D01*
X130281057Y-68421883D01*
X130017808Y-68684673D01*
X129917440Y-68926385D01*
X129917440Y-68130000D01*
X129873162Y-67894683D01*
X129780000Y-67749905D01*
X129780000Y-65554407D01*
X136824012Y-65554407D01*
X138050000Y-66780395D01*
X139275988Y-65554407D01*
X139134522Y-65251218D01*
X138398045Y-64966263D01*
X137608582Y-64984836D01*
X136965478Y-65251218D01*
X136824012Y-65554407D01*
X129780000Y-65554407D01*
X129780000Y-64332661D01*
X129791439Y-64315541D01*
X129855000Y-63996000D01*
X129855000Y-61317868D01*
X130647868Y-60525000D01*
X132212435Y-60525000D01*
X132558764Y-60871934D01*
X132770738Y-60959954D01*
X132560828Y-61046687D01*
X132168066Y-61438764D01*
X131955242Y-61951300D01*
X131954758Y-62506265D01*
X132166687Y-63019172D01*
X132558764Y-63411934D01*
X133071300Y-63624758D01*
X133626265Y-63625242D01*
X134139172Y-63413313D01*
X134350024Y-63202829D01*
X134558764Y-63411934D01*
X135071300Y-63624758D01*
X135626265Y-63625242D01*
X136139172Y-63413313D01*
X136531934Y-63021236D01*
X136744758Y-62508700D01*
X136745242Y-61953735D01*
X136533313Y-61440828D01*
X136141236Y-61048066D01*
X135945066Y-60966609D01*
X136079941Y-60910742D01*
X136149159Y-60668764D01*
X135350000Y-59869605D01*
X134550841Y-60668764D01*
X134620059Y-60910742D01*
X134764862Y-60962382D01*
X134560828Y-61046687D01*
X134349976Y-61257171D01*
X134141236Y-61048066D01*
X133929262Y-60960046D01*
X134139172Y-60873313D01*
X134531934Y-60481236D01*
X134640419Y-60219976D01*
X135170395Y-59690000D01*
X135529605Y-59690000D01*
X136328764Y-60489159D01*
X136570742Y-60419941D01*
X136757155Y-59897220D01*
X136729341Y-59342951D01*
X136570742Y-58960059D01*
X136328764Y-58890841D01*
X135529605Y-59690000D01*
X135170395Y-59690000D01*
X134640405Y-59160010D01*
X134533313Y-58900828D01*
X134344052Y-58711236D01*
X134550841Y-58711236D01*
X135350000Y-59510395D01*
X136149159Y-58711236D01*
X136079941Y-58469258D01*
X135557220Y-58282845D01*
X135002951Y-58310659D01*
X134620059Y-58469258D01*
X134550841Y-58711236D01*
X134344052Y-58711236D01*
X134141236Y-58508066D01*
X133628700Y-58295242D01*
X133073735Y-58294758D01*
X132560828Y-58506687D01*
X132211906Y-58855000D01*
X130302000Y-58855000D01*
X129982460Y-58918560D01*
X129711566Y-59099566D01*
X128429566Y-60381566D01*
X128248561Y-60652459D01*
X128185000Y-60972000D01*
X128185000Y-62475000D01*
X126921940Y-62475000D01*
X126921940Y-62411000D01*
X126892484Y-62254457D01*
X126921940Y-62109000D01*
X126921940Y-61761000D01*
X126895322Y-61619538D01*
X126909500Y-61585309D01*
X126909500Y-61530750D01*
X126829343Y-61450593D01*
X126738590Y-61309559D01*
X126704968Y-61286586D01*
X126725941Y-61273090D01*
X126834411Y-61114339D01*
X126909500Y-61039250D01*
X126909500Y-60984691D01*
X126893959Y-60947173D01*
X126921940Y-60809000D01*
X126921940Y-60461000D01*
X126892484Y-60304457D01*
X126921940Y-60159000D01*
X126921940Y-59811000D01*
X126892484Y-59654457D01*
X126921940Y-59509000D01*
X126921940Y-59161000D01*
X126892484Y-59004457D01*
X126921940Y-58859000D01*
X126921940Y-58511000D01*
X126892484Y-58354457D01*
X126921940Y-58209000D01*
X126921940Y-57861000D01*
X126892484Y-57704457D01*
X126921940Y-57559000D01*
X126921940Y-57211000D01*
X126892484Y-57054457D01*
X126921940Y-56909000D01*
X126921940Y-56561000D01*
X126885172Y-56365593D01*
X136824012Y-56365593D01*
X136965478Y-56668782D01*
X137701955Y-56953737D01*
X138491418Y-56935164D01*
X139134522Y-56668782D01*
X139275988Y-56365593D01*
X138050000Y-55139605D01*
X136824012Y-56365593D01*
X126885172Y-56365593D01*
X126877662Y-56325683D01*
X126773098Y-56163186D01*
X126813201Y-56179838D01*
X127185167Y-56180162D01*
X127528943Y-56038117D01*
X127562118Y-56005000D01*
X129540000Y-56005000D01*
X129830839Y-55947148D01*
X130077401Y-55782401D01*
X131247847Y-54611955D01*
X136056263Y-54611955D01*
X136074836Y-55401418D01*
X136341218Y-56044522D01*
X136644407Y-56185988D01*
X137870395Y-54960000D01*
X138229605Y-54960000D01*
X139455593Y-56185988D01*
X139758782Y-56044522D01*
X140043737Y-55308045D01*
X140025164Y-54518582D01*
X139758782Y-53875478D01*
X139455593Y-53734012D01*
X138229605Y-54960000D01*
X137870395Y-54960000D01*
X136644407Y-53734012D01*
X136341218Y-53875478D01*
X136056263Y-54611955D01*
X131247847Y-54611955D01*
X132305395Y-53554407D01*
X136824012Y-53554407D01*
X138050000Y-54780395D01*
X139275988Y-53554407D01*
X139134522Y-53251218D01*
X138398045Y-52966263D01*
X137608582Y-52984836D01*
X136965478Y-53251218D01*
X136824012Y-53554407D01*
X132305395Y-53554407D01*
X133029802Y-52830000D01*
X140020198Y-52830000D01*
X141480000Y-54289802D01*
X141480000Y-54289802D01*
G37*
X141480000Y-54289802D02*
X141480000Y-64842537D01*
X141447808Y-64874673D01*
X141305162Y-65218201D01*
X141304838Y-65590167D01*
X141446883Y-65933943D01*
X141709673Y-66197192D01*
X142053201Y-66339838D01*
X142115000Y-66339892D01*
X142115000Y-66995198D01*
X141290198Y-67820000D01*
X140262463Y-67820000D01*
X140230327Y-67787808D01*
X139909632Y-67654643D01*
X140043737Y-67308045D01*
X140025164Y-66518582D01*
X139758782Y-65875478D01*
X139455593Y-65734012D01*
X138229605Y-66960000D01*
X138243748Y-66974143D01*
X138064143Y-67153748D01*
X138050000Y-67139605D01*
X138035858Y-67153748D01*
X137856253Y-66974143D01*
X137870395Y-66960000D01*
X136644407Y-65734012D01*
X136341218Y-65875478D01*
X136056263Y-66611955D01*
X136074836Y-67401418D01*
X136199655Y-67702758D01*
X135996057Y-67786883D01*
X135962882Y-67820000D01*
X133277463Y-67820000D01*
X133245327Y-67787808D01*
X132901799Y-67645162D01*
X132529833Y-67644838D01*
X132186057Y-67786883D01*
X131922808Y-68049673D01*
X131780162Y-68393201D01*
X131780108Y-68455000D01*
X131372463Y-68455000D01*
X131340327Y-68422808D01*
X130996799Y-68280162D01*
X130624833Y-68279838D01*
X130281057Y-68421883D01*
X130017808Y-68684673D01*
X129917440Y-68926385D01*
X129917440Y-68130000D01*
X129873162Y-67894683D01*
X129780000Y-67749905D01*
X129780000Y-65554407D01*
X136824012Y-65554407D01*
X138050000Y-66780395D01*
X139275988Y-65554407D01*
X139134522Y-65251218D01*
X138398045Y-64966263D01*
X137608582Y-64984836D01*
X136965478Y-65251218D01*
X136824012Y-65554407D01*
X129780000Y-65554407D01*
X129780000Y-64332661D01*
X129791439Y-64315541D01*
X129855000Y-63996000D01*
X129855000Y-61317868D01*
X130647868Y-60525000D01*
X132212435Y-60525000D01*
X132558764Y-60871934D01*
X132770738Y-60959954D01*
X132560828Y-61046687D01*
X132168066Y-61438764D01*
X131955242Y-61951300D01*
X131954758Y-62506265D01*
X132166687Y-63019172D01*
X132558764Y-63411934D01*
X133071300Y-63624758D01*
X133626265Y-63625242D01*
X134139172Y-63413313D01*
X134350024Y-63202829D01*
X134558764Y-63411934D01*
X135071300Y-63624758D01*
X135626265Y-63625242D01*
X136139172Y-63413313D01*
X136531934Y-63021236D01*
X136744758Y-62508700D01*
X136745242Y-61953735D01*
X136533313Y-61440828D01*
X136141236Y-61048066D01*
X135945066Y-60966609D01*
X136079941Y-60910742D01*
X136149159Y-60668764D01*
X135350000Y-59869605D01*
X134550841Y-60668764D01*
X134620059Y-60910742D01*
X134764862Y-60962382D01*
X134560828Y-61046687D01*
X134349976Y-61257171D01*
X134141236Y-61048066D01*
X133929262Y-60960046D01*
X134139172Y-60873313D01*
X134531934Y-60481236D01*
X134640419Y-60219976D01*
X135170395Y-59690000D01*
X135529605Y-59690000D01*
X136328764Y-60489159D01*
X136570742Y-60419941D01*
X136757155Y-59897220D01*
X136729341Y-59342951D01*
X136570742Y-58960059D01*
X136328764Y-58890841D01*
X135529605Y-59690000D01*
X135170395Y-59690000D01*
X134640405Y-59160010D01*
X134533313Y-58900828D01*
X134344052Y-58711236D01*
X134550841Y-58711236D01*
X135350000Y-59510395D01*
X136149159Y-58711236D01*
X136079941Y-58469258D01*
X135557220Y-58282845D01*
X135002951Y-58310659D01*
X134620059Y-58469258D01*
X134550841Y-58711236D01*
X134344052Y-58711236D01*
X134141236Y-58508066D01*
X133628700Y-58295242D01*
X133073735Y-58294758D01*
X132560828Y-58506687D01*
X132211906Y-58855000D01*
X130302000Y-58855000D01*
X129982460Y-58918560D01*
X129711566Y-59099566D01*
X128429566Y-60381566D01*
X128248561Y-60652459D01*
X128185000Y-60972000D01*
X128185000Y-62475000D01*
X126921940Y-62475000D01*
X126921940Y-62411000D01*
X126892484Y-62254457D01*
X126921940Y-62109000D01*
X126921940Y-61761000D01*
X126895322Y-61619538D01*
X126909500Y-61585309D01*
X126909500Y-61530750D01*
X126829343Y-61450593D01*
X126738590Y-61309559D01*
X126704968Y-61286586D01*
X126725941Y-61273090D01*
X126834411Y-61114339D01*
X126909500Y-61039250D01*
X126909500Y-60984691D01*
X126893959Y-60947173D01*
X126921940Y-60809000D01*
X126921940Y-60461000D01*
X126892484Y-60304457D01*
X126921940Y-60159000D01*
X126921940Y-59811000D01*
X126892484Y-59654457D01*
X126921940Y-59509000D01*
X126921940Y-59161000D01*
X126892484Y-59004457D01*
X126921940Y-58859000D01*
X126921940Y-58511000D01*
X126892484Y-58354457D01*
X126921940Y-58209000D01*
X126921940Y-57861000D01*
X126892484Y-57704457D01*
X126921940Y-57559000D01*
X126921940Y-57211000D01*
X126892484Y-57054457D01*
X126921940Y-56909000D01*
X126921940Y-56561000D01*
X126885172Y-56365593D01*
X136824012Y-56365593D01*
X136965478Y-56668782D01*
X137701955Y-56953737D01*
X138491418Y-56935164D01*
X139134522Y-56668782D01*
X139275988Y-56365593D01*
X138050000Y-55139605D01*
X136824012Y-56365593D01*
X126885172Y-56365593D01*
X126877662Y-56325683D01*
X126773098Y-56163186D01*
X126813201Y-56179838D01*
X127185167Y-56180162D01*
X127528943Y-56038117D01*
X127562118Y-56005000D01*
X129540000Y-56005000D01*
X129830839Y-55947148D01*
X130077401Y-55782401D01*
X131247847Y-54611955D01*
X136056263Y-54611955D01*
X136074836Y-55401418D01*
X136341218Y-56044522D01*
X136644407Y-56185988D01*
X137870395Y-54960000D01*
X138229605Y-54960000D01*
X139455593Y-56185988D01*
X139758782Y-56044522D01*
X140043737Y-55308045D01*
X140025164Y-54518582D01*
X139758782Y-53875478D01*
X139455593Y-53734012D01*
X138229605Y-54960000D01*
X137870395Y-54960000D01*
X136644407Y-53734012D01*
X136341218Y-53875478D01*
X136056263Y-54611955D01*
X131247847Y-54611955D01*
X132305395Y-53554407D01*
X136824012Y-53554407D01*
X138050000Y-54780395D01*
X139275988Y-53554407D01*
X139134522Y-53251218D01*
X138398045Y-52966263D01*
X137608582Y-52984836D01*
X136965478Y-53251218D01*
X136824012Y-53554407D01*
X132305395Y-53554407D01*
X133029802Y-52830000D01*
X140020198Y-52830000D01*
X141480000Y-54289802D01*
G36*
X104244673Y-57383392D02*
X104588201Y-57526038D01*
X104960167Y-57526362D01*
X105303943Y-57384317D01*
X105337118Y-57351200D01*
X106466798Y-57351200D01*
X106802999Y-57687401D01*
X107049561Y-57852148D01*
X107340400Y-57910000D01*
X108433156Y-57910000D01*
X108475910Y-57976441D01*
X108688110Y-58121431D01*
X108940000Y-58172440D01*
X110140000Y-58172440D01*
X110375317Y-58128162D01*
X110489978Y-58054380D01*
X110588110Y-58121431D01*
X110840000Y-58172440D01*
X112040000Y-58172440D01*
X112275317Y-58128162D01*
X112491441Y-57989090D01*
X112545481Y-57910000D01*
X114243198Y-57910000D01*
X113223198Y-58930000D01*
X112546844Y-58930000D01*
X112504090Y-58863559D01*
X112291890Y-58718569D01*
X112040000Y-58667560D01*
X110840000Y-58667560D01*
X110604683Y-58711838D01*
X110490022Y-58785620D01*
X110391890Y-58718569D01*
X110140000Y-58667560D01*
X108940000Y-58667560D01*
X108704683Y-58711838D01*
X108488559Y-58850910D01*
X108343569Y-59063110D01*
X108292560Y-59315000D01*
X108292560Y-60065000D01*
X108336838Y-60300317D01*
X108475910Y-60516441D01*
X108688110Y-60661431D01*
X108780000Y-60680039D01*
X108780000Y-61237666D01*
X108704683Y-61251838D01*
X108488559Y-61390910D01*
X108343569Y-61603110D01*
X108292560Y-61855000D01*
X108292560Y-62605000D01*
X108336838Y-62840317D01*
X108475910Y-63056441D01*
X108688110Y-63201431D01*
X108940000Y-63252440D01*
X109000000Y-63252440D01*
X109000000Y-64642560D01*
X108160000Y-64642560D01*
X107924683Y-64686838D01*
X107708559Y-64825910D01*
X107563569Y-65038110D01*
X107512560Y-65290000D01*
X107512560Y-66790000D01*
X107556838Y-67025317D01*
X107695910Y-67241441D01*
X107908110Y-67386431D01*
X108160000Y-67437440D01*
X111360000Y-67437440D01*
X111595317Y-67393162D01*
X111761477Y-67286241D01*
X111908110Y-67386431D01*
X112160000Y-67437440D01*
X115360000Y-67437440D01*
X115595317Y-67393162D01*
X115811441Y-67254090D01*
X115956431Y-67041890D01*
X116007440Y-66790000D01*
X116007440Y-65290000D01*
X115963162Y-65054683D01*
X115824090Y-64838559D01*
X115611890Y-64693569D01*
X115360000Y-64642560D01*
X113723362Y-64642560D01*
X112283621Y-63202819D01*
X112491441Y-63069090D01*
X112636431Y-62856890D01*
X112687440Y-62605000D01*
X112687440Y-62529762D01*
X114472202Y-60745000D01*
X114900872Y-60745000D01*
X114889162Y-60773201D01*
X114888838Y-61145167D01*
X115030883Y-61488943D01*
X115064000Y-61522118D01*
X115064000Y-63500000D01*
X115121852Y-63790839D01*
X115286599Y-64037401D01*
X116080000Y-64830802D01*
X116080000Y-66040000D01*
X116137852Y-66330839D01*
X116302599Y-66577401D01*
X117064599Y-67339401D01*
X117311161Y-67504148D01*
X117602000Y-67562000D01*
X119325537Y-67562000D01*
X119357673Y-67594192D01*
X119701201Y-67736838D01*
X119890000Y-67737002D01*
X119890000Y-68072000D01*
X119947852Y-68362839D01*
X120009432Y-68455000D01*
X117140110Y-68455000D01*
X117140162Y-68394833D01*
X116998117Y-68051057D01*
X116735327Y-67787808D01*
X116391799Y-67645162D01*
X116019833Y-67644838D01*
X115676057Y-67786883D01*
X115642882Y-67820000D01*
X106359802Y-67820000D01*
X105340000Y-66800198D01*
X105340000Y-65952440D01*
X105380000Y-65952440D01*
X105615317Y-65908162D01*
X105831441Y-65769090D01*
X105976431Y-65556890D01*
X106027440Y-65305000D01*
X106027440Y-64755000D01*
X106003056Y-64625411D01*
X106027440Y-64505000D01*
X106027440Y-63955000D01*
X106003056Y-63825411D01*
X106027440Y-63705000D01*
X106027440Y-63155000D01*
X106003056Y-63025411D01*
X106027440Y-62905000D01*
X106027440Y-62355000D01*
X106007550Y-62249295D01*
X106015000Y-62231310D01*
X106015000Y-62115750D01*
X105918599Y-62019349D01*
X105844090Y-61903559D01*
X105736603Y-61830116D01*
X105831441Y-61769090D01*
X105920495Y-61638755D01*
X106015000Y-61544250D01*
X106015000Y-61428690D01*
X106006532Y-61408247D01*
X106027440Y-61305000D01*
X106027440Y-60755000D01*
X106003056Y-60625411D01*
X106027440Y-60505000D01*
X106027440Y-59955000D01*
X106003056Y-59825411D01*
X106027440Y-59705000D01*
X106027440Y-59155000D01*
X105983162Y-58919683D01*
X105844090Y-58703559D01*
X105631890Y-58558569D01*
X105380000Y-58507560D01*
X104052440Y-58507560D01*
X104052440Y-57351200D01*
X104212537Y-57351200D01*
X104244673Y-57383392D01*
X104244673Y-57383392D01*
G37*
X104244673Y-57383392D02*
X104588201Y-57526038D01*
X104960167Y-57526362D01*
X105303943Y-57384317D01*
X105337118Y-57351200D01*
X106466798Y-57351200D01*
X106802999Y-57687401D01*
X107049561Y-57852148D01*
X107340400Y-57910000D01*
X108433156Y-57910000D01*
X108475910Y-57976441D01*
X108688110Y-58121431D01*
X108940000Y-58172440D01*
X110140000Y-58172440D01*
X110375317Y-58128162D01*
X110489978Y-58054380D01*
X110588110Y-58121431D01*
X110840000Y-58172440D01*
X112040000Y-58172440D01*
X112275317Y-58128162D01*
X112491441Y-57989090D01*
X112545481Y-57910000D01*
X114243198Y-57910000D01*
X113223198Y-58930000D01*
X112546844Y-58930000D01*
X112504090Y-58863559D01*
X112291890Y-58718569D01*
X112040000Y-58667560D01*
X110840000Y-58667560D01*
X110604683Y-58711838D01*
X110490022Y-58785620D01*
X110391890Y-58718569D01*
X110140000Y-58667560D01*
X108940000Y-58667560D01*
X108704683Y-58711838D01*
X108488559Y-58850910D01*
X108343569Y-59063110D01*
X108292560Y-59315000D01*
X108292560Y-60065000D01*
X108336838Y-60300317D01*
X108475910Y-60516441D01*
X108688110Y-60661431D01*
X108780000Y-60680039D01*
X108780000Y-61237666D01*
X108704683Y-61251838D01*
X108488559Y-61390910D01*
X108343569Y-61603110D01*
X108292560Y-61855000D01*
X108292560Y-62605000D01*
X108336838Y-62840317D01*
X108475910Y-63056441D01*
X108688110Y-63201431D01*
X108940000Y-63252440D01*
X109000000Y-63252440D01*
X109000000Y-64642560D01*
X108160000Y-64642560D01*
X107924683Y-64686838D01*
X107708559Y-64825910D01*
X107563569Y-65038110D01*
X107512560Y-65290000D01*
X107512560Y-66790000D01*
X107556838Y-67025317D01*
X107695910Y-67241441D01*
X107908110Y-67386431D01*
X108160000Y-67437440D01*
X111360000Y-67437440D01*
X111595317Y-67393162D01*
X111761477Y-67286241D01*
X111908110Y-67386431D01*
X112160000Y-67437440D01*
X115360000Y-67437440D01*
X115595317Y-67393162D01*
X115811441Y-67254090D01*
X115956431Y-67041890D01*
X116007440Y-66790000D01*
X116007440Y-65290000D01*
X115963162Y-65054683D01*
X115824090Y-64838559D01*
X115611890Y-64693569D01*
X115360000Y-64642560D01*
X113723362Y-64642560D01*
X112283621Y-63202819D01*
X112491441Y-63069090D01*
X112636431Y-62856890D01*
X112687440Y-62605000D01*
X112687440Y-62529762D01*
X114472202Y-60745000D01*
X114900872Y-60745000D01*
X114889162Y-60773201D01*
X114888838Y-61145167D01*
X115030883Y-61488943D01*
X115064000Y-61522118D01*
X115064000Y-63500000D01*
X115121852Y-63790839D01*
X115286599Y-64037401D01*
X116080000Y-64830802D01*
X116080000Y-66040000D01*
X116137852Y-66330839D01*
X116302599Y-66577401D01*
X117064599Y-67339401D01*
X117311161Y-67504148D01*
X117602000Y-67562000D01*
X119325537Y-67562000D01*
X119357673Y-67594192D01*
X119701201Y-67736838D01*
X119890000Y-67737002D01*
X119890000Y-68072000D01*
X119947852Y-68362839D01*
X120009432Y-68455000D01*
X117140110Y-68455000D01*
X117140162Y-68394833D01*
X116998117Y-68051057D01*
X116735327Y-67787808D01*
X116391799Y-67645162D01*
X116019833Y-67644838D01*
X115676057Y-67786883D01*
X115642882Y-67820000D01*
X106359802Y-67820000D01*
X105340000Y-66800198D01*
X105340000Y-65952440D01*
X105380000Y-65952440D01*
X105615317Y-65908162D01*
X105831441Y-65769090D01*
X105976431Y-65556890D01*
X106027440Y-65305000D01*
X106027440Y-64755000D01*
X106003056Y-64625411D01*
X106027440Y-64505000D01*
X106027440Y-63955000D01*
X106003056Y-63825411D01*
X106027440Y-63705000D01*
X106027440Y-63155000D01*
X106003056Y-63025411D01*
X106027440Y-62905000D01*
X106027440Y-62355000D01*
X106007550Y-62249295D01*
X106015000Y-62231310D01*
X106015000Y-62115750D01*
X105918599Y-62019349D01*
X105844090Y-61903559D01*
X105736603Y-61830116D01*
X105831441Y-61769090D01*
X105920495Y-61638755D01*
X106015000Y-61544250D01*
X106015000Y-61428690D01*
X106006532Y-61408247D01*
X106027440Y-61305000D01*
X106027440Y-60755000D01*
X106003056Y-60625411D01*
X106027440Y-60505000D01*
X106027440Y-59955000D01*
X106003056Y-59825411D01*
X106027440Y-59705000D01*
X106027440Y-59155000D01*
X105983162Y-58919683D01*
X105844090Y-58703559D01*
X105631890Y-58558569D01*
X105380000Y-58507560D01*
X104052440Y-58507560D01*
X104052440Y-57351200D01*
X104212537Y-57351200D01*
X104244673Y-57383392D01*
G36*
X97627852Y-59555639D02*
X97792599Y-59802201D01*
X98065399Y-60075001D01*
X98311960Y-60239748D01*
X98360214Y-60249346D01*
X98602800Y-60297600D01*
X102510737Y-60297600D01*
X102542873Y-60329792D01*
X102886401Y-60472438D01*
X103132560Y-60472652D01*
X103132560Y-60505000D01*
X103156944Y-60634589D01*
X103132560Y-60755000D01*
X103132560Y-61305000D01*
X103152450Y-61410705D01*
X103145000Y-61428690D01*
X103145000Y-61544250D01*
X103241401Y-61640651D01*
X103315910Y-61756441D01*
X103423397Y-61829884D01*
X103328559Y-61890910D01*
X103239505Y-62021245D01*
X103145000Y-62115750D01*
X103145000Y-62231310D01*
X103153468Y-62251753D01*
X103132560Y-62355000D01*
X103132560Y-62905000D01*
X103156944Y-63034589D01*
X103132560Y-63155000D01*
X103132560Y-63705000D01*
X103156944Y-63834589D01*
X103132560Y-63955000D01*
X103132560Y-64505000D01*
X103156944Y-64634589D01*
X103132560Y-64755000D01*
X103132560Y-65032560D01*
X102855000Y-65032560D01*
X102725411Y-65056944D01*
X102605000Y-65032560D01*
X102055000Y-65032560D01*
X101925411Y-65056944D01*
X101805000Y-65032560D01*
X101255000Y-65032560D01*
X101125411Y-65056944D01*
X101005000Y-65032560D01*
X100455000Y-65032560D01*
X100325411Y-65056944D01*
X100205000Y-65032560D01*
X99655000Y-65032560D01*
X99525411Y-65056944D01*
X99405000Y-65032560D01*
X98855000Y-65032560D01*
X98725411Y-65056944D01*
X98605000Y-65032560D01*
X98055000Y-65032560D01*
X97925411Y-65056944D01*
X97805000Y-65032560D01*
X97527440Y-65032560D01*
X97527440Y-64755000D01*
X97503056Y-64625411D01*
X97527440Y-64505000D01*
X97527440Y-63955000D01*
X97503056Y-63825411D01*
X97527440Y-63705000D01*
X97527440Y-63155000D01*
X97507550Y-63049295D01*
X97515000Y-63031310D01*
X97515000Y-62915750D01*
X97418599Y-62819349D01*
X97344090Y-62703559D01*
X97236603Y-62630116D01*
X97331441Y-62569090D01*
X97420495Y-62438755D01*
X97515000Y-62344250D01*
X97515000Y-62228690D01*
X97506532Y-62208247D01*
X97527440Y-62105000D01*
X97527440Y-61555000D01*
X97507550Y-61449295D01*
X97515000Y-61431310D01*
X97515000Y-61315750D01*
X97418599Y-61219349D01*
X97344090Y-61103559D01*
X97236603Y-61030116D01*
X97331441Y-60969090D01*
X97420495Y-60838755D01*
X97515000Y-60744250D01*
X97515000Y-60628690D01*
X97506532Y-60608247D01*
X97527440Y-60505000D01*
X97527440Y-59955000D01*
X97503056Y-59825411D01*
X97527440Y-59705000D01*
X97527440Y-59427440D01*
X97602351Y-59427440D01*
X97627852Y-59555639D01*
X97627852Y-59555639D01*
G37*
X97627852Y-59555639D02*
X97792599Y-59802201D01*
X98065399Y-60075001D01*
X98311960Y-60239748D01*
X98360214Y-60249346D01*
X98602800Y-60297600D01*
X102510737Y-60297600D01*
X102542873Y-60329792D01*
X102886401Y-60472438D01*
X103132560Y-60472652D01*
X103132560Y-60505000D01*
X103156944Y-60634589D01*
X103132560Y-60755000D01*
X103132560Y-61305000D01*
X103152450Y-61410705D01*
X103145000Y-61428690D01*
X103145000Y-61544250D01*
X103241401Y-61640651D01*
X103315910Y-61756441D01*
X103423397Y-61829884D01*
X103328559Y-61890910D01*
X103239505Y-62021245D01*
X103145000Y-62115750D01*
X103145000Y-62231310D01*
X103153468Y-62251753D01*
X103132560Y-62355000D01*
X103132560Y-62905000D01*
X103156944Y-63034589D01*
X103132560Y-63155000D01*
X103132560Y-63705000D01*
X103156944Y-63834589D01*
X103132560Y-63955000D01*
X103132560Y-64505000D01*
X103156944Y-64634589D01*
X103132560Y-64755000D01*
X103132560Y-65032560D01*
X102855000Y-65032560D01*
X102725411Y-65056944D01*
X102605000Y-65032560D01*
X102055000Y-65032560D01*
X101925411Y-65056944D01*
X101805000Y-65032560D01*
X101255000Y-65032560D01*
X101125411Y-65056944D01*
X101005000Y-65032560D01*
X100455000Y-65032560D01*
X100325411Y-65056944D01*
X100205000Y-65032560D01*
X99655000Y-65032560D01*
X99525411Y-65056944D01*
X99405000Y-65032560D01*
X98855000Y-65032560D01*
X98725411Y-65056944D01*
X98605000Y-65032560D01*
X98055000Y-65032560D01*
X97925411Y-65056944D01*
X97805000Y-65032560D01*
X97527440Y-65032560D01*
X97527440Y-64755000D01*
X97503056Y-64625411D01*
X97527440Y-64505000D01*
X97527440Y-63955000D01*
X97503056Y-63825411D01*
X97527440Y-63705000D01*
X97527440Y-63155000D01*
X97507550Y-63049295D01*
X97515000Y-63031310D01*
X97515000Y-62915750D01*
X97418599Y-62819349D01*
X97344090Y-62703559D01*
X97236603Y-62630116D01*
X97331441Y-62569090D01*
X97420495Y-62438755D01*
X97515000Y-62344250D01*
X97515000Y-62228690D01*
X97506532Y-62208247D01*
X97527440Y-62105000D01*
X97527440Y-61555000D01*
X97507550Y-61449295D01*
X97515000Y-61431310D01*
X97515000Y-61315750D01*
X97418599Y-61219349D01*
X97344090Y-61103559D01*
X97236603Y-61030116D01*
X97331441Y-60969090D01*
X97420495Y-60838755D01*
X97515000Y-60744250D01*
X97515000Y-60628690D01*
X97506532Y-60608247D01*
X97527440Y-60505000D01*
X97527440Y-59955000D01*
X97503056Y-59825411D01*
X97527440Y-59705000D01*
X97527440Y-59427440D01*
X97602351Y-59427440D01*
X97627852Y-59555639D01*
G36*
X116930500Y-60762002D02*
X117035420Y-60762002D01*
X117005589Y-60805661D01*
X116930500Y-60880750D01*
X116930500Y-60935309D01*
X116946041Y-60972827D01*
X116918060Y-61111000D01*
X116918060Y-61459000D01*
X116947516Y-61615543D01*
X116918060Y-61761000D01*
X116918060Y-62109000D01*
X116947516Y-62265543D01*
X116918060Y-62411000D01*
X116918060Y-62759000D01*
X116944678Y-62900462D01*
X116930500Y-62934691D01*
X116930500Y-62989250D01*
X117010657Y-63069407D01*
X117101410Y-63210441D01*
X117140990Y-63237485D01*
X117027173Y-63351302D01*
X117003998Y-63407252D01*
X116930500Y-63480750D01*
X116930500Y-63531698D01*
X116584000Y-63185198D01*
X116584000Y-61522463D01*
X116616192Y-61490327D01*
X116758838Y-61146799D01*
X116759162Y-60774833D01*
X116746835Y-60745000D01*
X116930500Y-60745000D01*
X116930500Y-60762002D01*
X116930500Y-60762002D01*
G37*
X116930500Y-60762002D02*
X117035420Y-60762002D01*
X117005589Y-60805661D01*
X116930500Y-60880750D01*
X116930500Y-60935309D01*
X116946041Y-60972827D01*
X116918060Y-61111000D01*
X116918060Y-61459000D01*
X116947516Y-61615543D01*
X116918060Y-61761000D01*
X116918060Y-62109000D01*
X116947516Y-62265543D01*
X116918060Y-62411000D01*
X116918060Y-62759000D01*
X116944678Y-62900462D01*
X116930500Y-62934691D01*
X116930500Y-62989250D01*
X117010657Y-63069407D01*
X117101410Y-63210441D01*
X117140990Y-63237485D01*
X117027173Y-63351302D01*
X117003998Y-63407252D01*
X116930500Y-63480750D01*
X116930500Y-63531698D01*
X116584000Y-63185198D01*
X116584000Y-61522463D01*
X116616192Y-61490327D01*
X116758838Y-61146799D01*
X116759162Y-60774833D01*
X116746835Y-60745000D01*
X116930500Y-60745000D01*
X116930500Y-60762002D01*
G36*
X122795910Y-54191441D02*
X123008110Y-54336431D01*
X123260000Y-54387440D01*
X124060000Y-54387440D01*
X124295317Y-54343162D01*
X124461477Y-54236241D01*
X124608110Y-54336431D01*
X124770016Y-54369218D01*
X125243399Y-54842601D01*
X125489960Y-55007348D01*
X125538214Y-55016946D01*
X125780800Y-55065200D01*
X126065156Y-55065200D01*
X126064838Y-55430167D01*
X126206883Y-55773943D01*
X126364438Y-55931773D01*
X126274500Y-55913560D01*
X124877500Y-55913560D01*
X124642183Y-55957838D01*
X124426059Y-56096910D01*
X124281069Y-56309110D01*
X124230060Y-56561000D01*
X124230060Y-56909000D01*
X124259516Y-57065543D01*
X124230060Y-57211000D01*
X124230060Y-57559000D01*
X124259516Y-57715543D01*
X124230060Y-57861000D01*
X124230060Y-58209000D01*
X124259516Y-58365543D01*
X124230060Y-58511000D01*
X124230060Y-58859000D01*
X124259516Y-59015543D01*
X124230060Y-59161000D01*
X124230060Y-59509000D01*
X124259516Y-59665543D01*
X124230060Y-59811000D01*
X124230060Y-60159000D01*
X124259516Y-60315543D01*
X124230060Y-60461000D01*
X124230060Y-60809000D01*
X124256678Y-60950462D01*
X124242500Y-60984691D01*
X124242500Y-61039250D01*
X124322657Y-61119407D01*
X124413410Y-61260441D01*
X124447032Y-61283414D01*
X124426059Y-61296910D01*
X124317589Y-61455661D01*
X124242500Y-61530750D01*
X124242500Y-61585309D01*
X124258041Y-61622827D01*
X124230060Y-61761000D01*
X124230060Y-61825000D01*
X123548487Y-61825000D01*
X123415527Y-61691808D01*
X123071999Y-61549162D01*
X122700033Y-61548838D01*
X122356257Y-61690883D01*
X122093008Y-61953673D01*
X122052949Y-62050147D01*
X121585122Y-61582320D01*
X121585162Y-61536833D01*
X121443117Y-61193057D01*
X121208417Y-60957948D01*
X121352148Y-60742839D01*
X121410000Y-60452000D01*
X121410000Y-54670802D01*
X121980802Y-54100000D01*
X122737069Y-54100000D01*
X122795910Y-54191441D01*
X122795910Y-54191441D01*
G37*
X122795910Y-54191441D02*
X123008110Y-54336431D01*
X123260000Y-54387440D01*
X124060000Y-54387440D01*
X124295317Y-54343162D01*
X124461477Y-54236241D01*
X124608110Y-54336431D01*
X124770016Y-54369218D01*
X125243399Y-54842601D01*
X125489960Y-55007348D01*
X125538214Y-55016946D01*
X125780800Y-55065200D01*
X126065156Y-55065200D01*
X126064838Y-55430167D01*
X126206883Y-55773943D01*
X126364438Y-55931773D01*
X126274500Y-55913560D01*
X124877500Y-55913560D01*
X124642183Y-55957838D01*
X124426059Y-56096910D01*
X124281069Y-56309110D01*
X124230060Y-56561000D01*
X124230060Y-56909000D01*
X124259516Y-57065543D01*
X124230060Y-57211000D01*
X124230060Y-57559000D01*
X124259516Y-57715543D01*
X124230060Y-57861000D01*
X124230060Y-58209000D01*
X124259516Y-58365543D01*
X124230060Y-58511000D01*
X124230060Y-58859000D01*
X124259516Y-59015543D01*
X124230060Y-59161000D01*
X124230060Y-59509000D01*
X124259516Y-59665543D01*
X124230060Y-59811000D01*
X124230060Y-60159000D01*
X124259516Y-60315543D01*
X124230060Y-60461000D01*
X124230060Y-60809000D01*
X124256678Y-60950462D01*
X124242500Y-60984691D01*
X124242500Y-61039250D01*
X124322657Y-61119407D01*
X124413410Y-61260441D01*
X124447032Y-61283414D01*
X124426059Y-61296910D01*
X124317589Y-61455661D01*
X124242500Y-61530750D01*
X124242500Y-61585309D01*
X124258041Y-61622827D01*
X124230060Y-61761000D01*
X124230060Y-61825000D01*
X123548487Y-61825000D01*
X123415527Y-61691808D01*
X123071999Y-61549162D01*
X122700033Y-61548838D01*
X122356257Y-61690883D01*
X122093008Y-61953673D01*
X122052949Y-62050147D01*
X121585122Y-61582320D01*
X121585162Y-61536833D01*
X121443117Y-61193057D01*
X121208417Y-60957948D01*
X121352148Y-60742839D01*
X121410000Y-60452000D01*
X121410000Y-54670802D01*
X121980802Y-54100000D01*
X122737069Y-54100000D01*
X122795910Y-54191441D01*
G36*
X116930500Y-58812002D02*
X117035420Y-58812002D01*
X117005589Y-58855661D01*
X116930500Y-58930750D01*
X116930500Y-58985309D01*
X116946041Y-59022827D01*
X116918060Y-59161000D01*
X116918060Y-59225000D01*
X115077802Y-59225000D01*
X115507802Y-58795000D01*
X116930500Y-58795000D01*
X116930500Y-58812002D01*
X116930500Y-58812002D01*
G37*
X116930500Y-58812002D02*
X117035420Y-58812002D01*
X117005589Y-58855661D01*
X116930500Y-58930750D01*
X116930500Y-58985309D01*
X116946041Y-59022827D01*
X116918060Y-59161000D01*
X116918060Y-59225000D01*
X115077802Y-59225000D01*
X115507802Y-58795000D01*
X116930500Y-58795000D01*
X116930500Y-58812002D01*
G36*
X114277673Y-52100192D02*
X114621201Y-52242838D01*
X114993167Y-52243162D01*
X115336943Y-52101117D01*
X115370118Y-52068000D01*
X131642198Y-52068000D01*
X129916740Y-53793458D01*
X129917440Y-53790000D01*
X129917440Y-52890000D01*
X129873162Y-52654683D01*
X129734090Y-52438559D01*
X129521890Y-52293569D01*
X129270000Y-52242560D01*
X128770000Y-52242560D01*
X128534683Y-52286838D01*
X128318559Y-52425910D01*
X128270866Y-52495711D01*
X128234090Y-52438559D01*
X128021890Y-52293569D01*
X127770000Y-52242560D01*
X127270000Y-52242560D01*
X127034683Y-52286838D01*
X126818559Y-52425910D01*
X126794130Y-52461664D01*
X126780399Y-52455962D01*
X126408433Y-52455638D01*
X126167078Y-52555364D01*
X126124090Y-52488559D01*
X125911890Y-52343569D01*
X125660000Y-52292560D01*
X124860000Y-52292560D01*
X124624683Y-52336838D01*
X124458523Y-52443759D01*
X124311890Y-52343569D01*
X124060000Y-52292560D01*
X123260000Y-52292560D01*
X123024683Y-52336838D01*
X122808559Y-52475910D01*
X122737437Y-52580000D01*
X121666000Y-52580000D01*
X121375161Y-52637852D01*
X121128599Y-52802599D01*
X120112599Y-53818599D01*
X119947852Y-54065161D01*
X119890000Y-54356000D01*
X119890000Y-55707001D01*
X119702833Y-55706838D01*
X119359057Y-55848883D01*
X119232720Y-55975000D01*
X119229656Y-55975000D01*
X119214390Y-55964569D01*
X118962500Y-55913560D01*
X117565500Y-55913560D01*
X117330183Y-55957838D01*
X117114059Y-56096910D01*
X116969069Y-56309110D01*
X116918060Y-56561000D01*
X116918060Y-56909000D01*
X116947516Y-57065543D01*
X116918060Y-57211000D01*
X116918060Y-57275000D01*
X116758892Y-57275000D01*
X116759162Y-56964833D01*
X116617117Y-56621057D01*
X116354327Y-56357808D01*
X116010799Y-56215162D01*
X115996930Y-56215150D01*
X115997162Y-55948833D01*
X115855117Y-55605057D01*
X115592327Y-55341808D01*
X115248799Y-55199162D01*
X114876833Y-55198838D01*
X114533057Y-55340883D01*
X114499882Y-55374000D01*
X108410597Y-55374000D01*
X108226327Y-55189408D01*
X107882799Y-55046762D01*
X107510833Y-55046438D01*
X107167057Y-55188483D01*
X106903808Y-55451273D01*
X106761162Y-55794801D01*
X106761130Y-55831200D01*
X105337463Y-55831200D01*
X105305327Y-55799008D01*
X104961799Y-55656362D01*
X104589833Y-55656038D01*
X104246057Y-55798083D01*
X104212882Y-55831200D01*
X103591202Y-55831200D01*
X102361980Y-54601978D01*
X102679147Y-54390054D01*
X102683097Y-54384142D01*
X102751673Y-54549699D01*
X102930302Y-54728327D01*
X103163691Y-54825000D01*
X103854250Y-54825000D01*
X104013000Y-54666250D01*
X104013000Y-53467000D01*
X104267000Y-53467000D01*
X104267000Y-54666250D01*
X104425750Y-54825000D01*
X105116309Y-54825000D01*
X105349698Y-54728327D01*
X105528327Y-54549699D01*
X105625000Y-54316310D01*
X105625000Y-53625750D01*
X105466250Y-53467000D01*
X104267000Y-53467000D01*
X104013000Y-53467000D01*
X103993000Y-53467000D01*
X103993000Y-53213000D01*
X104013000Y-53213000D01*
X104013000Y-53193000D01*
X104267000Y-53193000D01*
X104267000Y-53213000D01*
X105466250Y-53213000D01*
X105625000Y-53054250D01*
X105625000Y-52363690D01*
X105528327Y-52130301D01*
X105466026Y-52068000D01*
X114245537Y-52068000D01*
X114277673Y-52100192D01*
X114277673Y-52100192D01*
G37*
X114277673Y-52100192D02*
X114621201Y-52242838D01*
X114993167Y-52243162D01*
X115336943Y-52101117D01*
X115370118Y-52068000D01*
X131642198Y-52068000D01*
X129916740Y-53793458D01*
X129917440Y-53790000D01*
X129917440Y-52890000D01*
X129873162Y-52654683D01*
X129734090Y-52438559D01*
X129521890Y-52293569D01*
X129270000Y-52242560D01*
X128770000Y-52242560D01*
X128534683Y-52286838D01*
X128318559Y-52425910D01*
X128270866Y-52495711D01*
X128234090Y-52438559D01*
X128021890Y-52293569D01*
X127770000Y-52242560D01*
X127270000Y-52242560D01*
X127034683Y-52286838D01*
X126818559Y-52425910D01*
X126794130Y-52461664D01*
X126780399Y-52455962D01*
X126408433Y-52455638D01*
X126167078Y-52555364D01*
X126124090Y-52488559D01*
X125911890Y-52343569D01*
X125660000Y-52292560D01*
X124860000Y-52292560D01*
X124624683Y-52336838D01*
X124458523Y-52443759D01*
X124311890Y-52343569D01*
X124060000Y-52292560D01*
X123260000Y-52292560D01*
X123024683Y-52336838D01*
X122808559Y-52475910D01*
X122737437Y-52580000D01*
X121666000Y-52580000D01*
X121375161Y-52637852D01*
X121128599Y-52802599D01*
X120112599Y-53818599D01*
X119947852Y-54065161D01*
X119890000Y-54356000D01*
X119890000Y-55707001D01*
X119702833Y-55706838D01*
X119359057Y-55848883D01*
X119232720Y-55975000D01*
X119229656Y-55975000D01*
X119214390Y-55964569D01*
X118962500Y-55913560D01*
X117565500Y-55913560D01*
X117330183Y-55957838D01*
X117114059Y-56096910D01*
X116969069Y-56309110D01*
X116918060Y-56561000D01*
X116918060Y-56909000D01*
X116947516Y-57065543D01*
X116918060Y-57211000D01*
X116918060Y-57275000D01*
X116758892Y-57275000D01*
X116759162Y-56964833D01*
X116617117Y-56621057D01*
X116354327Y-56357808D01*
X116010799Y-56215162D01*
X115996930Y-56215150D01*
X115997162Y-55948833D01*
X115855117Y-55605057D01*
X115592327Y-55341808D01*
X115248799Y-55199162D01*
X114876833Y-55198838D01*
X114533057Y-55340883D01*
X114499882Y-55374000D01*
X108410597Y-55374000D01*
X108226327Y-55189408D01*
X107882799Y-55046762D01*
X107510833Y-55046438D01*
X107167057Y-55188483D01*
X106903808Y-55451273D01*
X106761162Y-55794801D01*
X106761130Y-55831200D01*
X105337463Y-55831200D01*
X105305327Y-55799008D01*
X104961799Y-55656362D01*
X104589833Y-55656038D01*
X104246057Y-55798083D01*
X104212882Y-55831200D01*
X103591202Y-55831200D01*
X102361980Y-54601978D01*
X102679147Y-54390054D01*
X102683097Y-54384142D01*
X102751673Y-54549699D01*
X102930302Y-54728327D01*
X103163691Y-54825000D01*
X103854250Y-54825000D01*
X104013000Y-54666250D01*
X104013000Y-53467000D01*
X104267000Y-53467000D01*
X104267000Y-54666250D01*
X104425750Y-54825000D01*
X105116309Y-54825000D01*
X105349698Y-54728327D01*
X105528327Y-54549699D01*
X105625000Y-54316310D01*
X105625000Y-53625750D01*
X105466250Y-53467000D01*
X104267000Y-53467000D01*
X104013000Y-53467000D01*
X103993000Y-53467000D01*
X103993000Y-53213000D01*
X104013000Y-53213000D01*
X104013000Y-53193000D01*
X104267000Y-53193000D01*
X104267000Y-53213000D01*
X105466250Y-53213000D01*
X105625000Y-53054250D01*
X105625000Y-52363690D01*
X105528327Y-52130301D01*
X105466026Y-52068000D01*
X114245537Y-52068000D01*
X114277673Y-52100192D01*
G36*
X100520853Y-52289946D02*
X100394935Y-52478395D01*
X100259517Y-52150657D01*
X100177004Y-52068000D01*
X100853019Y-52068000D01*
X100520853Y-52289946D01*
X100520853Y-52289946D01*
G37*
X100520853Y-52289946D02*
X100394935Y-52478395D01*
X100259517Y-52150657D01*
X100177004Y-52068000D01*
X100853019Y-52068000D01*
X100520853Y-52289946D01*
G36*
X135190226Y-44180028D02*
X135189769Y-44704383D01*
X135392582Y-45195229D01*
X135767796Y-45571098D01*
X136258287Y-45774768D01*
X136789383Y-45775231D01*
X137280229Y-45572418D01*
X137477716Y-45375275D01*
X138309331Y-45375275D01*
X138371169Y-45611042D01*
X138872122Y-45787419D01*
X139402440Y-45758664D01*
X139758831Y-45611042D01*
X139820669Y-45375275D01*
X139065000Y-44619605D01*
X138309331Y-45375275D01*
X137477716Y-45375275D01*
X137656098Y-45197204D01*
X137788316Y-44878788D01*
X137893958Y-45133831D01*
X138129725Y-45195669D01*
X138885395Y-44440000D01*
X138871252Y-44425858D01*
X139050858Y-44246253D01*
X139065000Y-44260395D01*
X139079143Y-44246253D01*
X139258748Y-44425858D01*
X139244605Y-44440000D01*
X140000275Y-45195669D01*
X140236042Y-45133831D01*
X140333196Y-44857889D01*
X140472582Y-45195229D01*
X140705539Y-45428593D01*
X140488998Y-45645134D01*
X140070617Y-45644769D01*
X139579771Y-45847582D01*
X139203902Y-46222796D01*
X139071684Y-46541212D01*
X138966042Y-46286169D01*
X138730275Y-46224331D01*
X137974605Y-46980000D01*
X137988748Y-46994142D01*
X137809143Y-47173748D01*
X137795000Y-47159605D01*
X137780858Y-47173748D01*
X137601252Y-46994142D01*
X137615395Y-46980000D01*
X136859725Y-46224331D01*
X136623958Y-46286169D01*
X136526804Y-46562111D01*
X136387418Y-46224771D01*
X136207686Y-46044725D01*
X137039331Y-46044725D01*
X137795000Y-46800395D01*
X138550669Y-46044725D01*
X138488831Y-45808958D01*
X137987878Y-45632581D01*
X137457560Y-45661336D01*
X137101169Y-45808958D01*
X137039331Y-46044725D01*
X136207686Y-46044725D01*
X136012204Y-45848902D01*
X135521713Y-45645232D01*
X134990617Y-45644769D01*
X134499771Y-45847582D01*
X134123902Y-46222796D01*
X133920232Y-46713287D01*
X133919769Y-47244383D01*
X133994398Y-47425000D01*
X123815737Y-47425000D01*
X123889768Y-47246713D01*
X123890135Y-46825733D01*
X124415434Y-46300434D01*
X124469178Y-46220000D01*
X124596439Y-46029541D01*
X124660000Y-45710000D01*
X124660000Y-45492786D01*
X124956098Y-45197204D01*
X125159768Y-44706713D01*
X125160231Y-44175617D01*
X125062876Y-43940000D01*
X134950198Y-43940000D01*
X135190226Y-44180028D01*
X135190226Y-44180028D01*
G37*
X135190226Y-44180028D02*
X135189769Y-44704383D01*
X135392582Y-45195229D01*
X135767796Y-45571098D01*
X136258287Y-45774768D01*
X136789383Y-45775231D01*
X137280229Y-45572418D01*
X137477716Y-45375275D01*
X138309331Y-45375275D01*
X138371169Y-45611042D01*
X138872122Y-45787419D01*
X139402440Y-45758664D01*
X139758831Y-45611042D01*
X139820669Y-45375275D01*
X139065000Y-44619605D01*
X138309331Y-45375275D01*
X137477716Y-45375275D01*
X137656098Y-45197204D01*
X137788316Y-44878788D01*
X137893958Y-45133831D01*
X138129725Y-45195669D01*
X138885395Y-44440000D01*
X138871252Y-44425858D01*
X139050858Y-44246253D01*
X139065000Y-44260395D01*
X139079143Y-44246253D01*
X139258748Y-44425858D01*
X139244605Y-44440000D01*
X140000275Y-45195669D01*
X140236042Y-45133831D01*
X140333196Y-44857889D01*
X140472582Y-45195229D01*
X140705539Y-45428593D01*
X140488998Y-45645134D01*
X140070617Y-45644769D01*
X139579771Y-45847582D01*
X139203902Y-46222796D01*
X139071684Y-46541212D01*
X138966042Y-46286169D01*
X138730275Y-46224331D01*
X137974605Y-46980000D01*
X137988748Y-46994142D01*
X137809143Y-47173748D01*
X137795000Y-47159605D01*
X137780858Y-47173748D01*
X137601252Y-46994142D01*
X137615395Y-46980000D01*
X136859725Y-46224331D01*
X136623958Y-46286169D01*
X136526804Y-46562111D01*
X136387418Y-46224771D01*
X136207686Y-46044725D01*
X137039331Y-46044725D01*
X137795000Y-46800395D01*
X138550669Y-46044725D01*
X138488831Y-45808958D01*
X137987878Y-45632581D01*
X137457560Y-45661336D01*
X137101169Y-45808958D01*
X137039331Y-46044725D01*
X136207686Y-46044725D01*
X136012204Y-45848902D01*
X135521713Y-45645232D01*
X134990617Y-45644769D01*
X134499771Y-45847582D01*
X134123902Y-46222796D01*
X133920232Y-46713287D01*
X133919769Y-47244383D01*
X133994398Y-47425000D01*
X123815737Y-47425000D01*
X123889768Y-47246713D01*
X123890135Y-46825733D01*
X124415434Y-46300434D01*
X124469178Y-46220000D01*
X124596439Y-46029541D01*
X124660000Y-45710000D01*
X124660000Y-45492786D01*
X124956098Y-45197204D01*
X125159768Y-44706713D01*
X125160231Y-44175617D01*
X125062876Y-43940000D01*
X134950198Y-43940000D01*
X135190226Y-44180028D01*
G36*
X114870232Y-44173287D02*
X114869769Y-44704383D01*
X115072582Y-45195229D01*
X115447796Y-45571098D01*
X115938287Y-45774768D01*
X116469383Y-45775231D01*
X116960229Y-45572418D01*
X117157716Y-45375275D01*
X117989331Y-45375275D01*
X118051169Y-45611042D01*
X118552122Y-45787419D01*
X119082440Y-45758664D01*
X119438831Y-45611042D01*
X119500669Y-45375275D01*
X118745000Y-44619605D01*
X117989331Y-45375275D01*
X117157716Y-45375275D01*
X117336098Y-45197204D01*
X117468316Y-44878788D01*
X117573958Y-45133831D01*
X117809725Y-45195669D01*
X118565395Y-44440000D01*
X118551252Y-44425858D01*
X118730858Y-44246253D01*
X118745000Y-44260395D01*
X118759143Y-44246253D01*
X118938748Y-44425858D01*
X118924605Y-44440000D01*
X119680275Y-45195669D01*
X119916042Y-45133831D01*
X120013196Y-44857889D01*
X120152582Y-45195229D01*
X120385539Y-45428593D01*
X120168998Y-45645134D01*
X119750617Y-45644769D01*
X119259771Y-45847582D01*
X118883902Y-46222796D01*
X118751684Y-46541212D01*
X118646042Y-46286169D01*
X118410275Y-46224331D01*
X117654605Y-46980000D01*
X117668748Y-46994142D01*
X117489143Y-47173748D01*
X117475000Y-47159605D01*
X117460858Y-47173748D01*
X117281252Y-46994142D01*
X117295395Y-46980000D01*
X116539725Y-46224331D01*
X116303958Y-46286169D01*
X116206804Y-46562111D01*
X116067418Y-46224771D01*
X115887686Y-46044725D01*
X116719331Y-46044725D01*
X117475000Y-46800395D01*
X118230669Y-46044725D01*
X118168831Y-45808958D01*
X117667878Y-45632581D01*
X117137560Y-45661336D01*
X116781169Y-45808958D01*
X116719331Y-46044725D01*
X115887686Y-46044725D01*
X115692204Y-45848902D01*
X115201713Y-45645232D01*
X114670617Y-45644769D01*
X114179771Y-45847582D01*
X113803902Y-46222796D01*
X113600232Y-46713287D01*
X113599769Y-47244383D01*
X113674398Y-47425000D01*
X103495737Y-47425000D01*
X103569768Y-47246713D01*
X103570135Y-46825733D01*
X104095434Y-46300434D01*
X104149178Y-46220000D01*
X104276439Y-46029541D01*
X104340000Y-45710000D01*
X104340000Y-45492786D01*
X104636098Y-45197204D01*
X104839768Y-44706713D01*
X104840231Y-44175617D01*
X104742876Y-43940000D01*
X114967101Y-43940000D01*
X114870232Y-44173287D01*
X114870232Y-44173287D01*
G37*
X114870232Y-44173287D02*
X114869769Y-44704383D01*
X115072582Y-45195229D01*
X115447796Y-45571098D01*
X115938287Y-45774768D01*
X116469383Y-45775231D01*
X116960229Y-45572418D01*
X117157716Y-45375275D01*
X117989331Y-45375275D01*
X118051169Y-45611042D01*
X118552122Y-45787419D01*
X119082440Y-45758664D01*
X119438831Y-45611042D01*
X119500669Y-45375275D01*
X118745000Y-44619605D01*
X117989331Y-45375275D01*
X117157716Y-45375275D01*
X117336098Y-45197204D01*
X117468316Y-44878788D01*
X117573958Y-45133831D01*
X117809725Y-45195669D01*
X118565395Y-44440000D01*
X118551252Y-44425858D01*
X118730858Y-44246253D01*
X118745000Y-44260395D01*
X118759143Y-44246253D01*
X118938748Y-44425858D01*
X118924605Y-44440000D01*
X119680275Y-45195669D01*
X119916042Y-45133831D01*
X120013196Y-44857889D01*
X120152582Y-45195229D01*
X120385539Y-45428593D01*
X120168998Y-45645134D01*
X119750617Y-45644769D01*
X119259771Y-45847582D01*
X118883902Y-46222796D01*
X118751684Y-46541212D01*
X118646042Y-46286169D01*
X118410275Y-46224331D01*
X117654605Y-46980000D01*
X117668748Y-46994142D01*
X117489143Y-47173748D01*
X117475000Y-47159605D01*
X117460858Y-47173748D01*
X117281252Y-46994142D01*
X117295395Y-46980000D01*
X116539725Y-46224331D01*
X116303958Y-46286169D01*
X116206804Y-46562111D01*
X116067418Y-46224771D01*
X115887686Y-46044725D01*
X116719331Y-46044725D01*
X117475000Y-46800395D01*
X118230669Y-46044725D01*
X118168831Y-45808958D01*
X117667878Y-45632581D01*
X117137560Y-45661336D01*
X116781169Y-45808958D01*
X116719331Y-46044725D01*
X115887686Y-46044725D01*
X115692204Y-45848902D01*
X115201713Y-45645232D01*
X114670617Y-45644769D01*
X114179771Y-45847582D01*
X113803902Y-46222796D01*
X113600232Y-46713287D01*
X113599769Y-47244383D01*
X113674398Y-47425000D01*
X103495737Y-47425000D01*
X103569768Y-47246713D01*
X103570135Y-46825733D01*
X104095434Y-46300434D01*
X104149178Y-46220000D01*
X104276439Y-46029541D01*
X104340000Y-45710000D01*
X104340000Y-45492786D01*
X104636098Y-45197204D01*
X104839768Y-44706713D01*
X104840231Y-44175617D01*
X104742876Y-43940000D01*
X114967101Y-43940000D01*
X114870232Y-44173287D01*
G36*
X94550232Y-44173287D02*
X94549769Y-44704383D01*
X94752582Y-45195229D01*
X95127796Y-45571098D01*
X95618287Y-45774768D01*
X96149383Y-45775231D01*
X96640229Y-45572418D01*
X96837716Y-45375275D01*
X97669331Y-45375275D01*
X97731169Y-45611042D01*
X98232122Y-45787419D01*
X98762440Y-45758664D01*
X99118831Y-45611042D01*
X99180669Y-45375275D01*
X98425000Y-44619605D01*
X97669331Y-45375275D01*
X96837716Y-45375275D01*
X97016098Y-45197204D01*
X97148316Y-44878788D01*
X97253958Y-45133831D01*
X97489725Y-45195669D01*
X98245395Y-44440000D01*
X98231252Y-44425858D01*
X98410858Y-44246253D01*
X98425000Y-44260395D01*
X98439143Y-44246253D01*
X98618748Y-44425858D01*
X98604605Y-44440000D01*
X99360275Y-45195669D01*
X99596042Y-45133831D01*
X99693196Y-44857889D01*
X99832582Y-45195229D01*
X100065539Y-45428593D01*
X99848998Y-45645134D01*
X99430617Y-45644769D01*
X98939771Y-45847582D01*
X98563902Y-46222796D01*
X98431684Y-46541212D01*
X98326042Y-46286169D01*
X98090275Y-46224331D01*
X97334605Y-46980000D01*
X97348748Y-46994142D01*
X97169143Y-47173748D01*
X97155000Y-47159605D01*
X97140858Y-47173748D01*
X96961252Y-46994142D01*
X96975395Y-46980000D01*
X96219725Y-46224331D01*
X95983958Y-46286169D01*
X95886804Y-46562111D01*
X95747418Y-46224771D01*
X95567686Y-46044725D01*
X96399331Y-46044725D01*
X97155000Y-46800395D01*
X97910669Y-46044725D01*
X97848831Y-45808958D01*
X97347878Y-45632581D01*
X96817560Y-45661336D01*
X96461169Y-45808958D01*
X96399331Y-46044725D01*
X95567686Y-46044725D01*
X95372204Y-45848902D01*
X94881713Y-45645232D01*
X94350617Y-45644769D01*
X93859771Y-45847582D01*
X93483902Y-46222796D01*
X93280232Y-46713287D01*
X93279769Y-47244383D01*
X93354398Y-47425000D01*
X83175737Y-47425000D01*
X83249768Y-47246713D01*
X83250135Y-46825733D01*
X83775434Y-46300434D01*
X83829178Y-46220000D01*
X83956439Y-46029541D01*
X84020000Y-45710000D01*
X84020000Y-45492786D01*
X84316098Y-45197204D01*
X84519768Y-44706713D01*
X84520231Y-44175617D01*
X84422876Y-43940000D01*
X94647101Y-43940000D01*
X94550232Y-44173287D01*
X94550232Y-44173287D01*
G37*
X94550232Y-44173287D02*
X94549769Y-44704383D01*
X94752582Y-45195229D01*
X95127796Y-45571098D01*
X95618287Y-45774768D01*
X96149383Y-45775231D01*
X96640229Y-45572418D01*
X96837716Y-45375275D01*
X97669331Y-45375275D01*
X97731169Y-45611042D01*
X98232122Y-45787419D01*
X98762440Y-45758664D01*
X99118831Y-45611042D01*
X99180669Y-45375275D01*
X98425000Y-44619605D01*
X97669331Y-45375275D01*
X96837716Y-45375275D01*
X97016098Y-45197204D01*
X97148316Y-44878788D01*
X97253958Y-45133831D01*
X97489725Y-45195669D01*
X98245395Y-44440000D01*
X98231252Y-44425858D01*
X98410858Y-44246253D01*
X98425000Y-44260395D01*
X98439143Y-44246253D01*
X98618748Y-44425858D01*
X98604605Y-44440000D01*
X99360275Y-45195669D01*
X99596042Y-45133831D01*
X99693196Y-44857889D01*
X99832582Y-45195229D01*
X100065539Y-45428593D01*
X99848998Y-45645134D01*
X99430617Y-45644769D01*
X98939771Y-45847582D01*
X98563902Y-46222796D01*
X98431684Y-46541212D01*
X98326042Y-46286169D01*
X98090275Y-46224331D01*
X97334605Y-46980000D01*
X97348748Y-46994142D01*
X97169143Y-47173748D01*
X97155000Y-47159605D01*
X97140858Y-47173748D01*
X96961252Y-46994142D01*
X96975395Y-46980000D01*
X96219725Y-46224331D01*
X95983958Y-46286169D01*
X95886804Y-46562111D01*
X95747418Y-46224771D01*
X95567686Y-46044725D01*
X96399331Y-46044725D01*
X97155000Y-46800395D01*
X97910669Y-46044725D01*
X97848831Y-45808958D01*
X97347878Y-45632581D01*
X96817560Y-45661336D01*
X96461169Y-45808958D01*
X96399331Y-46044725D01*
X95567686Y-46044725D01*
X95372204Y-45848902D01*
X94881713Y-45645232D01*
X94350617Y-45644769D01*
X93859771Y-45847582D01*
X93483902Y-46222796D01*
X93280232Y-46713287D01*
X93279769Y-47244383D01*
X93354398Y-47425000D01*
X83175737Y-47425000D01*
X83249768Y-47246713D01*
X83250135Y-46825733D01*
X83775434Y-46300434D01*
X83829178Y-46220000D01*
X83956439Y-46029541D01*
X84020000Y-45710000D01*
X84020000Y-45492786D01*
X84316098Y-45197204D01*
X84519768Y-44706713D01*
X84520231Y-44175617D01*
X84422876Y-43940000D01*
X94647101Y-43940000D01*
X94550232Y-44173287D01*
M02*
