M48
;DRILL file {KiCad 4.0.2-stable} date 5/19/2017 12:05:02 AM
;FORMAT={-:-/ absolute / inch / decimal}
FMAT,2
INCH,TZ
T1C0.016
T2C0.031
T3C0.032
T4C0.035
T5C0.039
T6C0.063
T7C0.091
%
G90
G05
M72
T1
X3.716Y-2.374
X3.72Y-2.02
X3.72Y-2.45
X3.752Y-2.052
X3.78Y-2.78
X3.82Y-1.98
X3.876Y-2.17
X3.876Y-2.202
X3.88Y-2.82
X3.894Y-2.104
X3.916Y-2.074
X3.92Y-1.94
X3.926Y-1.7
X3.942Y-2.172
X3.98Y-2.86
X3.992Y-2.202
X4.058Y-2.344
X4.104Y-2.258
X4.24Y-2.204
X4.52Y-2.02
X4.53Y-2.21
X4.56Y-2.25
X4.56Y-2.4
X4.58Y-2.78
X4.59Y-2.32
X4.59Y-2.39
X4.62Y-1.98
X4.68Y-2.82
X4.72Y-2.23
X4.72Y-2.27
X4.72Y-2.36
X4.72Y-2.63
X4.74Y-1.94
X4.75Y-2.43
X4.78Y-2.63
X4.78Y-2.86
X4.81Y-2.6
X4.838Y-2.41
X4.838Y-2.46
X4.976Y-1.938
X4.984Y-2.102
X5.32Y-2.02
X5.38Y-2.78
X5.42Y-1.98
X5.48Y-2.82
X5.52Y-1.94
X5.58Y-2.86
X5.72Y-2.86
X5.76Y-2.82
X5.8Y-2.78
T2
X3.5Y-2.35
X3.5Y-2.5421
T3
X5.25Y-2.35
X5.25Y-2.45
X5.3287Y-2.35
X5.3287Y-2.45
T4
X2.851Y-1.3669
X2.851Y-3.4929
X2.925Y-1.8496
X2.925Y-3.0504
X2.951Y-1.3071
X2.951Y-3.4331
X2.975Y-1.7496
X2.975Y-2.9504
X3.025Y-1.8496
X3.025Y-3.0504
X3.075Y-1.7496
X3.075Y-2.9504
X3.125Y-1.8496
X3.125Y-3.0504
X3.175Y-1.7496
X3.175Y-2.9504
X3.225Y-1.8496
X3.225Y-3.0504
X3.249Y-1.3669
X3.249Y-3.4929
X3.275Y-1.7496
X3.275Y-2.9504
X3.349Y-1.3071
X3.349Y-3.4331
X3.651Y-1.3669
X3.651Y-3.4929
X3.725Y-1.8496
X3.725Y-3.0504
X3.751Y-1.3071
X3.751Y-3.4331
X3.775Y-1.7496
X3.775Y-2.9504
X3.825Y-1.8496
X3.825Y-3.0504
X3.875Y-1.7496
X3.875Y-2.9504
X3.925Y-1.8496
X3.925Y-3.0504
X3.975Y-1.7496
X3.975Y-2.9504
X4.025Y-1.8496
X4.025Y-3.0504
X4.049Y-1.3669
X4.049Y-3.4929
X4.075Y-1.7496
X4.075Y-2.9504
X4.149Y-1.3071
X4.149Y-3.4331
X4.451Y-1.3669
X4.451Y-3.4929
X4.525Y-1.8496
X4.525Y-3.0504
X4.551Y-1.3071
X4.551Y-3.4331
X4.575Y-1.7496
X4.575Y-2.9504
X4.625Y-1.8496
X4.625Y-3.0504
X4.675Y-1.7496
X4.675Y-2.9504
X4.725Y-1.8496
X4.725Y-3.0504
X4.775Y-1.7496
X4.775Y-2.9504
X4.825Y-1.8496
X4.825Y-3.0504
X4.849Y-1.3669
X4.849Y-3.4929
X4.875Y-1.7496
X4.875Y-2.9504
X4.949Y-1.3071
X4.949Y-3.4331
X5.251Y-1.3669
X5.251Y-3.4929
X5.325Y-1.8496
X5.325Y-3.0504
X5.351Y-1.3071
X5.351Y-3.4331
X5.375Y-1.7496
X5.375Y-2.9504
X5.425Y-1.8496
X5.425Y-3.0504
X5.475Y-1.7496
X5.475Y-2.9504
X5.525Y-1.8496
X5.525Y-3.0504
X5.575Y-1.7496
X5.575Y-2.9504
X5.625Y-1.8496
X5.625Y-3.0504
X5.649Y-1.3669
X5.649Y-3.4929
X5.675Y-1.7496
X5.675Y-2.9504
X5.749Y-1.3071
X5.749Y-3.4331
T5
X4.Y-2.1
X4.1Y-2.1
T6
X2.7949Y-1.6201
X2.7949Y-3.1799
X3.4051Y-1.6201
X3.4051Y-3.1799
X3.5949Y-1.6201
X3.5949Y-3.1799
X4.2051Y-1.6201
X4.2051Y-3.1799
X4.3949Y-1.6201
X4.3949Y-3.1799
X5.0051Y-1.6201
X5.0051Y-3.1799
X5.1949Y-1.6201
X5.1949Y-3.1799
X5.8051Y-1.6201
X5.8051Y-3.1799
T7
X5.435Y-2.1638
X5.435Y-2.6362
T0
M30
